<svg xmlns="http://www.w3.org/2000/svg" width="52" height="52" viewBox="0 0 52 52">
  <path fill="#75B843" fill-rule="evenodd" d="M25.8083704,48.5737778 C25.3731111,48.5737778 24.9407407,48.5583704 24.5102963,48.5342963 L24.5102963,28.2254074 L27.2335556,30.9438519 L31.1634074,27.013037 L27.8431111,23.6965926 C28.4276296,22.7345926 28.8686667,21.6801481 29.1431111,20.5631111 L33.8327407,20.5631111 L33.8327407,15.1820741 L45.9352593,15.1820741 C47.6175556,18.356963 48.5766667,21.9728889 48.5766667,25.8093333 C48.5766667,38.3625185 38.3625185,48.5737778 25.8083704,48.5737778 L25.8083704,48.5737778 Z M3.04103704,25.8093333 C3.04103704,24.0037778 3.25962963,22.2482963 3.6582963,20.5631111 L6.864,20.5631111 C7.14037037,21.6801481 7.58140741,22.7345926 8.16014815,23.6965926 L4.84466667,27.013037 L8.77259259,30.9438519 L12.090963,27.6293333 C13.052,28.2061481 14.1074074,28.6491111 15.2244444,28.9274074 L15.2244444,33.6151111 L20.7845926,33.6151111 L20.7845926,28.9274074 C21.475037,28.755037 22.1385185,28.5123704 22.775037,28.2215556 L22.775037,48.3657778 C11.6508889,46.877037 3.04103704,37.3331111 3.04103704,25.8093333 L3.04103704,25.8093333 Z M7.97333333,11.6836296 L8.16014815,11.8704444 C7.58140741,12.8334074 7.14037037,13.8888148 6.864,15.0068148 L5.772,15.0068148 C6.40851852,13.832 7.14807407,12.7226667 7.97333333,11.6836296 L7.97333333,11.6836296 Z M15.2244444,5.66125926 L15.2244444,6.64540741 C14.1074074,6.92466667 13.052,7.36666667 12.090963,7.94251852 L11.9291852,7.78074074 C12.9614815,6.98340741 14.0631111,6.2737037 15.2244444,5.66125926 L15.2244444,5.66125926 Z M22.775037,15.7319259 L22.775037,19.838963 C21.9777037,21.684963 20.1442222,22.9801481 18.0035556,22.9801481 C15.132,22.9801481 12.8064444,20.6526667 12.8064444,17.7859259 C12.8064444,14.9134074 15.132,12.5907407 18.0035556,12.5907407 C20.1442222,12.5907407 21.9777037,13.884 22.775037,15.7319259 L22.775037,15.7319259 Z M20.7845926,3.60725926 C22.4023704,3.24133333 24.0817778,3.042 25.8083704,3.042 C33.8077037,3.042 40.8498519,7.19140741 44.9125926,13.4468148 L28.6346667,13.4468148 C28.4102963,12.8998519 28.1474074,12.3721481 27.8431111,11.8704444 L31.1634074,8.55496296 L27.2335556,4.62607407 L23.9132593,7.94251852 C22.957037,7.36185185 21.8997037,6.92466667 20.7845926,6.64540741 L20.7845926,3.60725926 Z M25.8083704,0 C11.5777037,0 0,11.5786667 0,25.8093333 C0,40.039037 11.5777037,51.6157778 25.8083704,51.6157778 C40.039037,51.6157778 51.6177037,40.039037 51.6177037,25.8093333 C51.6177037,11.5786667 40.039037,0 25.8083704,0 L25.8083704,0 Z"/>
</svg>
