<?xml version="1.0" encoding="utf-8"?>
<!-- Generator: Adobe Illustrator 16.0.0, SVG Export Plug-In . SVG Version: 6.00 Build 0)  -->
<!DOCTYPE svg PUBLIC "-//W3C//DTD SVG 1.1//EN" "http://www.w3.org/Graphics/SVG/1.1/DTD/svg11.dtd">
<svg version="1.1" id="Layer_1" xmlns="http://www.w3.org/2000/svg" xmlns:xlink="http://www.w3.org/1999/xlink" x="0px" y="0px"
	 width="595.279px" height="841.891px" viewBox="0 0 595.279 841.891" enable-background="new 0 0 595.279 841.891"
	 xml:space="preserve">
<path fill="#D31144" d="M297.634,124.828c-163.278,0-296.117,132.839-296.117,296.106c0,163.29,132.839,296.128,296.117,296.128
	c163.289,0,296.129-132.838,296.129-296.128C593.763,257.667,460.923,124.828,297.634,124.828z M297.639,682.93
	c-144.687,0-261.98-117.295-261.98-261.983c0-144.691,117.294-261.985,261.98-261.985c144.688,0,261.982,117.294,261.982,261.985
	C559.621,565.635,442.326,682.93,297.639,682.93z"/>
<polyline fill="none" stroke="#D31144" stroke-width="17" stroke-miterlimit="10" stroke-dasharray="62,23" points="538.14,287.445 
	170.14,287.445 170.14,660.445 "/>
<polyline fill="none" stroke="#D31144" stroke-width="17" stroke-miterlimit="10" points="563.137,348.452 231.146,348.452 
	231.146,691.434 "/>
</svg>
