<svg xmlns="http://www.w3.org/2000/svg" xmlns:xlink="http://www.w3.org/1999/xlink" width="55" height="89" viewBox="0 0 55 89">
  <defs>
    <polygon id="path-1" points="54.539 88.636 0 88.636 0 .128 54.539 .128 54.539 88.636"/>
    <polygon id="path-3" points="0 88.636 54.54 88.636 54.54 .128 0 .128"/>
  </defs>
  <g fill="none" fill-rule="evenodd">
    <mask id="mask-2" fill="white">
      <use xlink:href="#path-1"/>
    </mask>
    <path fill="#A3A19E" d="M5.53309091,0.657818182 C2.77445455,0.657818182 0.529909091,2.76327273 0.529909091,5.34872727 L0.529909091,83.4141818 C0.529909091,86.001 2.77445455,88.1064545 5.53309091,88.1064545 L49.0058182,88.1064545 C51.7644545,88.1064545 54.0103636,86.001 54.0103636,83.4141818 L54.0103636,5.34872727 C54.0103636,2.76327273 51.7644545,0.657818182 49.0058182,0.657818182 L5.53309091,0.657818182 Z M49.0058182,88.6369091 L5.53309091,88.6369091 C2.48263636,88.6369091 -0.000545454546,86.2941818 -0.000545454546,83.4141818 L-0.000545454546,5.34872727 C-0.000545454546,2.47009091 2.48263636,0.127363636 5.53309091,0.127363636 L49.0058182,0.127363636 C52.0576364,0.127363636 54.5394545,2.47009091 54.5394545,5.34872727 L54.5394545,83.4141818 C54.5394545,86.2941818 52.0576364,88.6369091 49.0058182,88.6369091 L49.0058182,88.6369091 Z" mask="url(#mask-2)"/>
    <path fill="#FFFFFF" d="M13.9345909,42.5524091 L9.69777273,42.5524091 L9.69777273,44.3292273 L13.8159545,44.3292273 C14.7050455,44.3292273 14.9709545,44.7233182 14.9709545,45.2196818 C14.9709545,45.7215 14.7050455,46.1196818 13.8159545,46.1196818 L9.69777273,46.1183182 L9.69777273,50.0919545 L11.7432273,50.0919545 L11.7432273,47.8965 L13.9345909,47.8965 C15.7918636,47.8965 17.0164091,46.7210455 17.0164091,45.2196818 C17.0164091,43.7169545 15.7918636,42.5524091 13.9345909,42.5524091"/>
    <polygon fill="#FFFFFF" points="18.962 50.092 25.75 50.092 25.75 48.317 21.006 48.317 21.006 47.125 24.234 47.125 24.234 45.35 21.006 45.35 21.006 44.33 25.75 44.33 25.75 42.553 18.962 42.553"/>
    <polygon fill="#FFFFFF" points="27.986 50.092 30.033 50.092 30.033 47.125 33.261 47.125 33.261 45.35 30.033 45.35 30.033 44.33 34.776 44.33 34.776 42.553 27.986 42.553"/>
    <path fill="#FFFFFF" d="M40.218 44.1863182C40.9243636 44.1863182 41.5189091 44.4481364 41.9593636 44.9458636L43.608 43.8017727C42.6998182 42.8513182 41.4670909 42.4081364 40.218 42.4081364 37.7470909 42.4081364 35.763 44.1099545 35.763 46.3204091 35.763 48.5322273 37.7470909 50.2367727 40.218 50.2367727 41.4589091 50.2367727 42.6861818 49.8004091 43.593 48.8622273L41.9348182 47.7931364C41.5066364 48.2104091 40.8943636 48.4640455 40.218 48.4640455 38.9961818 48.4640455 37.878 47.5108636 37.878 46.3204091 37.878 45.1299545 38.9961818 44.1863182 40.218 44.1863182M29.8015909 32.16L29.8015909 28.7222727 34.6588636 28.7222727 28.1911364 15.4922727 25.1543182 21.2645455C25.2361364 21.6859091 25.2797727 22.1236364 25.2797727 22.5709091 25.2797727 25.2 23.8043182 27.4909091 21.6184091 28.6840909L21.5038636 28.7222727 26.5697727 28.7222727 26.5697727 32.16 29.8015909 32.16z"/>
    <path fill="#FFFFFF" d="M16.2264545,28.3047273 L16.2264545,32.2606364 L19.4596364,32.2606364 L19.4596364,28.3647273 C22.0396364,27.7088182 23.9391818,25.4083636 23.9391818,22.6701818 C23.9391818,19.4233636 21.2596364,16.7915455 17.9555455,16.7915455 C14.6473636,16.7915455 11.9678182,19.4233636 11.9678182,22.6701818 C11.9678182,25.3279091 13.7623636,27.5792727 16.2264545,28.3047273"/>
    <path fill="#FFFFFF" d="M14.6484545,16.2384545 C14.9675455,16.0693636 15.3057273,15.9261818 15.6561818,15.8102727 C18.9261818,12.4339091 23.4657273,10.2343636 27.9943636,10.2343636 C35.1466364,10.2343636 39.663,15.7270909 38.4248182,22.6707273 L41.2802727,20.0034545 L43.1920909,22.1239091 C44.1520909,14.283 38.8093636,8.20118182 30.5293636,8.20118182 C24.5266364,8.20118182 18.5048182,11.4016364 14.5611818,16.1539091 C14.5611818,16.1539091 14.538,16.1866364 14.5693636,16.2220909 C14.6075455,16.263 14.6484545,16.2384545 14.6484545,16.2384545"/>
    <path fill="#FFFFFF" d="M22.8355909,39.7984091 C31.6474091,39.7984091 40.4892273,32.9093182 42.7596818,24.3402273 L40.9105909,22.2865909 L37.7033182,25.2770455 C35.2487727,31.8020455 28.3637727,36.8406818 21.5128636,36.8406818 C14.4478636,36.8406818 9.95740909,31.4815909 11.0415,24.6579545 C10.9160455,24.2175 10.8274091,23.7606818 10.7837727,23.2929545 C10.7837727,23.2929545 10.7892273,23.2615909 10.7428636,23.2656818 C10.7155909,23.2684091 10.7046818,23.2929545 10.7046818,23.2929545 C10.6419545,23.5261364 10.5778636,23.7620455 10.5205909,24.0006818 C8.39195455,32.7265909 13.9051364,39.7984091 22.8355909,39.7984091"/>
    <polygon fill="#FFFFFF" points="43.365 40.954 44.637 40.954 44.637 41.291 44.21 41.291 44.21 42.307 43.792 42.307 43.792 41.291 43.365 41.291"/>
    <polygon fill="#FFFFFF" points="44.822 40.954 45.375 40.954 45.582 41.777 45.788 40.954 46.337 40.954 46.337 42.307 45.993 42.307 45.993 41.278 45.736 42.307 45.424 42.307 45.162 41.278 45.162 42.307 44.822 42.307"/>
    <path fill="#FFFFFF" d="M13.5871364,54.6773182 L14.3385,54.6773182 C14.5853182,54.6773182 14.7612273,54.6323182 14.8648636,54.5382273 C14.9712273,54.4455 15.0230455,54.3159545 15.0230455,54.1495909 C15.0230455,54.0268636 14.9916818,53.9218636 14.9289545,53.8386818 C14.8675909,53.7500455 14.7885,53.6927727 14.6889545,53.6655 C14.6235,53.6477727 14.5048636,53.6409545 14.3289545,53.6409545 L13.5871364,53.6409545 L13.5871364,54.6773182 Z M13.2066818,56.1977727 L13.2066818,53.2973182 L14.2975909,53.2973182 C14.4912273,53.2973182 14.6371364,53.3082273 14.7380455,53.3273182 C14.8812273,53.3477727 15.0012273,53.3968636 15.0966818,53.4623182 C15.1962273,53.5277727 15.2712273,53.6245909 15.3285,53.7418636 C15.3885,53.8605 15.4171364,53.9941364 15.4171364,54.1386818 C15.4171364,54.3827727 15.3380455,54.5927727 15.1825909,54.7618636 C15.0271364,54.9350455 14.7435,55.0209545 14.3316818,55.0209545 L13.5871364,55.0209545 L13.5871364,56.1977727 L13.2066818,56.1977727 Z"/>
    <polygon fill="#FFFFFF" points="15.932 56.198 15.932 53.298 18.028 53.298 18.028 53.641 16.314 53.641 16.314 54.528 17.92 54.528 17.92 54.868 16.314 54.868 16.314 55.856 18.096 55.856 18.096 56.198"/>
    <polygon fill="#FFFFFF" points="18.686 56.198 18.686 53.298 20.643 53.298 20.643 53.641 19.068 53.641 19.068 54.538 20.429 54.538 20.429 54.882 19.068 54.882 19.068 56.198"/>
    <path fill="#FFFFFF" d="M23.2430455,55.182 L23.6262273,55.2774545 C23.5485,55.5951818 23.4025909,55.8351818 23.1939545,56.0015455 C22.9839545,56.1665455 22.7289545,56.247 22.4235,56.247 C22.1153182,56.247 21.8589545,56.1842727 21.6639545,56.0588182 C21.4675909,55.932 21.3189545,55.7451818 21.2166818,55.5038182 C21.1144091,55.2638182 21.0612273,55.0033636 21.0612273,54.7292727 C21.0612273,54.4238182 21.1185,54.1606364 21.2357727,53.9383636 C21.3516818,53.7133636 21.5125909,53.5401818 21.7294091,53.4242727 C21.9421364,53.307 22.1766818,53.2510909 22.4316818,53.2510909 C22.7221364,53.2510909 22.9662273,53.3233636 23.1625909,53.4692727 C23.3616818,53.6192727 23.4980455,53.8265455 23.5771364,54.0924545 L23.2007727,54.1838182 C23.1325909,53.9697273 23.0357727,53.8197273 22.9062273,53.7215455 C22.7794091,53.6233636 22.6185,53.5756364 22.4221364,53.5756364 C22.1998636,53.5756364 22.0157727,53.6288182 21.8644091,53.7351818 C21.7157727,53.847 21.6107727,53.9901818 21.5494091,54.1674545 C21.4894091,54.3488182 21.4566818,54.5329091 21.4566818,54.7251818 C21.4566818,54.9733636 21.4962273,55.1874545 21.5671364,55.3729091 C21.6380455,55.5529091 21.7498636,55.692 21.9025909,55.782 C22.0539545,55.8747273 22.2175909,55.9210909 22.3935,55.9210909 C22.6089545,55.9210909 22.7916818,55.857 22.9403182,55.7329091 C23.0903182,55.6088182 23.1912273,55.4274545 23.2430455,55.182"/>
    <polygon fill="#FFFFFF" points="23.925 56.249 24.766 53.25 25.05 53.25 24.213 56.249"/>
    <path fill="#FFFFFF" d="M26.5363636 56.1980455L26.1804545 56.1980455 26.1804545 53.9303182C26.0945455 54.0121364 25.9827273 54.0925909 25.8422727 54.1757727 25.7031818 54.2562273 25.5777273 54.3189545 25.4686364 54.3585L25.4686364 54.0148636C25.6663636 53.9207727 25.8409091 53.8075909 25.9909091 53.6753182 26.1395455 53.5403182 26.2445455 53.4107727 26.3059091 53.2866818L26.5363636 53.2866818 26.5363636 56.1980455zM27.2634545 55.4323636L27.6193636 55.3846364C27.6602727 55.5864545 27.7311818 55.7337273 27.8293636 55.8223636 27.9275455 55.9123636 28.0475455 55.956 28.1893636 55.956 28.3557273 55.956 28.4961818 55.8973636 28.6120909 55.7814545 28.728 55.6655455 28.7866364 55.521 28.7866364 55.3491818 28.7866364 55.1855455 28.7334545 55.0532727 28.6257273 54.9482727 28.518 54.8391818 28.3816364 54.786 28.218 54.786 28.1511818 54.786 28.0666364 54.7996364 27.9684545 54.8255455L28.0066364 54.5119091C28.0284545 54.5146364 28.0489091 54.516 28.0639091 54.516 28.2152727 54.516 28.3516364 54.4778182 28.473 54.3973636 28.5957273 54.3223636 28.6543636 54.1982727 28.6543636 54.0346364 28.6543636 53.901 28.6107273 53.7932727 28.5220909 53.7073636 28.4320909 53.6228182 28.3175455 53.5819091 28.1811818 53.5819091 28.0420909 53.5819091 27.9261818 53.6241818 27.8348182 53.7087273 27.7420909 53.7973636 27.6820909 53.9282727 27.6548182 54.1014545L27.2989091 54.0400909C27.3439091 53.7987273 27.4434545 53.6146364 27.5975455 53.4837273 27.7489091 53.3541818 27.9425455 53.2873636 28.173 53.2873636 28.3298182 53.2873636 28.4757273 53.3200909 28.6093636 53.3882727 28.7443636 53.4578182 28.8452727 53.5491818 28.9161818 53.6664545 28.9870909 53.7823636 29.0211818 53.9091818 29.0211818 54.0400909 29.0211818 54.1655455 28.9884545 54.2787273 28.9216364 54.3837273 28.8534545 54.4846364 28.7539091 54.5678182 28.6216364 54.6278182 28.7934545 54.6673636 28.9270909 54.7491818 29.0211818 54.8746364 29.1139091 55.0014545 29.163 55.1541818 29.163 55.3437273 29.163 55.596 29.0702727 55.8087273 28.8875455 55.9846364 28.7020909 56.1632727 28.4689091 56.2519091 28.1866364 56.2519091 27.9316364 56.2519091 27.7202727 56.1741818 27.5539091 56.0241818 27.3848182 55.8700909 27.2893636 55.6750909 27.2634545 55.4323636"/>
    <mask id="mask-4" fill="white">
      <use xlink:href="#path-3"/>
    </mask>
    <polygon fill="#FFFFFF" points="29.577 55.331 30.672 55.331 30.672 54.972 29.577 54.972" mask="url(#mask-4)"/>
    <path fill="#FFFFFF" d="M30.9694091 55.4323636L31.3253182 55.3846364C31.3648636 55.5864545 31.4357727 55.7337273 31.5312273 55.8223636 31.6307727 55.9123636 31.7494091 55.956 31.8939545 55.956 32.0603182 55.956 32.1994091 55.8973636 32.3153182 55.7814545 32.4312273 55.6655455 32.4885 55.521 32.4885 55.3491818 32.4885 55.1855455 32.4353182 55.0532727 32.3289545 54.9482727 32.2239545 54.8391818 32.0862273 54.786 31.9225909 54.786 31.8544091 54.786 31.7725909 54.7996364 31.6716818 54.8255455L31.7112273 54.5119091C31.7344091 54.5146364 31.7521364 54.516 31.7685 54.516 31.9185 54.516 32.0562273 54.4778182 32.1789545 54.3973636 32.2989545 54.3223636 32.3589545 54.1982727 32.3589545 54.0346364 32.3589545 53.901 32.3139545 53.7932727 32.2266818 53.7073636 32.1366818 53.6228182 32.0221364 53.5819091 31.8857727 53.5819091 31.7439545 53.5819091 31.6294091 53.6241818 31.5380455 53.7087273 31.4466818 53.7973636 31.3866818 53.9282727 31.3580455 54.1014545L31.0021364 54.0400909C31.0485 53.7987273 31.1480455 53.6146364 31.2994091 53.4837273 31.4535 53.3541818 31.6457727 53.2873636 31.8762273 53.2873636 32.0330455 53.2873636 32.1816818 53.3200909 32.3125909 53.3882727 32.4475909 53.4578182 32.5485 53.5491818 32.6207727 53.6664545 32.6903182 53.7823636 32.7244091 53.9091818 32.7244091 54.0400909 32.7244091 54.1655455 32.6916818 54.2787273 32.6262273 54.3837273 32.5580455 54.4846364 32.4585 54.5678182 32.3248636 54.6278182 32.4966818 54.6673636 32.6316818 54.7491818 32.7244091 54.8746364 32.8185 55.0014545 32.8675909 55.1541818 32.8675909 55.3437273 32.8675909 55.596 32.7735 55.8087273 32.5894091 55.9846364 32.4080455 56.1632727 32.1735 56.2519091 31.8925909 56.2519091 31.6348636 56.2519091 31.4248636 56.1741818 31.2571364 56.0241818 31.0894091 55.8700909 30.9939545 55.6750909 30.9694091 55.4323636M35.055 55.8571364L35.055 56.1994091 33.1390909 56.1994091C33.1363636 56.1121364 33.15 56.0316818 33.18 55.9512273 33.2277273 55.8216818 33.3068182 55.6921364 33.4145455 55.5639545 33.5209091 55.4398636 33.6763636 55.2939545 33.8822727 55.1275909 34.1945455 54.8657727 34.4072727 54.6653182 34.5177273 54.5125909 34.6309091 54.3598636 34.6854545 54.2194091 34.6854545 54.0844091 34.6854545 53.9439545 34.6336364 53.8253182 34.5340909 53.7271364 34.4331818 53.6275909 34.3009091 53.5798636 34.1386364 53.5798636 33.9668182 53.5798636 33.8331818 53.6316818 33.7268182 53.7339545 33.6245455 53.8389545 33.5713636 53.9821364 33.57 54.1621364L33.2072727 54.1253182C33.2304545 53.8512273 33.3231818 53.6453182 33.4895455 53.5007727 33.6531818 53.3589545 33.8727273 53.2866818 34.1468182 53.2866818 34.425 53.2866818 34.6459091 53.3644091 34.8054545 53.5157727 34.9704545 53.6712273 35.0509091 53.8621364 35.0509091 54.0912273 35.0509091 54.2085 35.0263636 54.3216818 34.9786364 54.4321364 34.9322727 54.5466818 34.8545455 54.6653182 34.7427273 54.7894091 34.6336364 54.9121364 34.4522727 55.0825909 34.1931818 55.2994091 33.9804545 55.4794091 33.8427273 55.6007727 33.7827273 55.6621364 33.7227273 55.7262273 33.6709091 55.7916818 33.6313636 55.8571364L35.055 55.8571364z" mask="url(#mask-4)"/>
    <polygon fill="#FFFFFF" points="35.397 55.331 36.492 55.331 36.492 54.972 35.397 54.972" mask="url(#mask-4)"/>
    <path fill="#FFFFFF" d="M37.3602273 54.7678636C37.3602273 55.2465 37.4161364 55.5628636 37.5265909 55.7183182 37.6384091 55.8751364 37.7761364 55.9555909 37.9397727 55.9555909 38.1034091 55.9555909 38.2411364 55.8751364 38.3529545 55.7183182 38.4647727 55.5601364 38.5193182 55.2451364 38.5193182 54.7678636 38.5193182 54.2919545 38.4647727 53.9742273 38.3529545 53.8160455 38.2411364 53.6605909 38.1020455 53.5815 37.9356818 53.5815 37.7720455 53.5815 37.6425 53.6524091 37.5443182 53.7874091 37.4215909 53.9646818 37.3602273 54.2919545 37.3602273 54.7678636M36.9920455 54.7678636C36.9920455 54.4255909 37.0275 54.1501364 37.1011364 53.9428636 37.1693182 53.7315 37.2756818 53.5705909 37.4147727 53.4574091 37.5552273 53.3428636 37.7297727 53.2869545 37.9397727 53.2869545 38.0952273 53.2869545 38.2329545 53.3183182 38.3515909 53.3796818 38.4661364 53.4424091 38.5629545 53.5337727 38.6379545 53.6537727 38.7156818 53.7696818 38.7756818 53.9142273 38.8193182 54.0819545 38.8643182 54.2524091 38.8861364 54.4801364 38.8861364 54.7678636 38.8861364 55.1087727 38.8506818 55.3828636 38.7797727 55.5915 38.7102273 55.8028636 38.6052273 55.9624091 38.4675 56.0783182 38.3284091 56.1915 38.1525 56.2487727 37.9397727 56.2487727 37.6588636 56.2487727 37.4420455 56.1492273 37.2797727 55.9460455 37.0888636 55.7060455 36.9920455 55.3119545 36.9920455 54.7678636M39.7519091 54.7678636C39.7519091 55.2465 39.8064545 55.5628636 39.9182727 55.7183182 40.0300909 55.8751364 40.1678182 55.9555909 40.3314545 55.9555909 40.4950909 55.9555909 40.6328182 55.8751364 40.7446364 55.7183182 40.8550909 55.5601364 40.9123636 55.2451364 40.9123636 54.7678636 40.9123636 54.2919545 40.8550909 53.9742273 40.7446364 53.8160455 40.6328182 53.6605909 40.4937273 53.5815 40.3273636 53.5815 40.1637273 53.5815 40.0314545 53.6524091 39.936 53.7874091 39.8132727 53.9646818 39.7519091 54.2919545 39.7519091 54.7678636M39.3850909 54.7678636C39.3850909 54.4255909 39.4205455 54.1501364 39.4928182 53.9428636 39.5596364 53.7315 39.6673636 53.5705909 39.8050909 53.4574091 39.9469091 53.3428636 40.1200909 53.2869545 40.3314545 53.2869545 40.4855455 53.2869545 40.6246364 53.3183182 40.7432727 53.3796818 40.8578182 53.4424091 40.956 53.5337727 41.0296364 53.6537727 41.1073636 53.7696818 41.1673636 53.9142273 41.211 54.0819545 41.2546364 54.2524091 41.2750909 54.4801364 41.2750909 54.7678636 41.2750909 55.1087727 41.2423636 55.3828636 41.1714545 55.5915 41.1019091 55.8028636 40.9969091 55.9624091 40.8578182 56.0783182 40.7200909 56.1915 40.5428182 56.2487727 40.3314545 56.2487727 40.0532727 56.2487727 39.8337273 56.1492273 39.6714545 55.9460455 39.4819091 55.7060455 39.3850909 55.3119545 39.3850909 54.7678636M42.8959091 56.1980455L42.5386364 56.1980455 42.5386364 53.9303182C42.4540909 54.0121364 42.3422727 54.0925909 42.2004545 54.1757727 42.0627273 54.2562273 41.9372727 54.3189545 41.8268182 54.3585L41.8268182 54.0148636C42.0245455 53.9207727 42.1990909 53.8075909 42.3504545 53.6753182 42.4977273 53.5403182 42.6027273 53.4107727 42.6654545 53.2866818L42.8959091 53.2866818 42.8959091 56.1980455zM8.13518182 64.1468182C8.08745455 64.0104545 7.977 63.9231818 7.84336364 63.8890909 7.76154545 63.8659091 7.69881818 63.8659091 7.61290909 63.8659091L6.72790909 63.8659091 6.72790909 64.8504545 7.52836364 64.8504545C7.63336364 64.8504545 7.73563636 64.8531818 7.83518182 64.8286364 8.067 64.7659091 8.16381818 64.5627273 8.16381818 64.3404545 8.16381818 64.3090909 8.16381818 64.23 8.13518182 64.1468182M7.98790909 65.1531818C7.88290909 65.1818182 7.77518182 65.1913636 7.55563636 65.1913636L6.72790909 65.1913636 6.72790909 66.4022727 6.35972727 66.4022727 6.35972727 63.54 7.59654545 63.54C7.82154545 63.54 8.00836364 63.54 8.20063636 63.6613636 8.52109091 63.8618182 8.54018182 64.2340909 8.54018182 64.3459091 8.54018182 64.71 8.35881818 65.0509091 7.98790909 65.1531818M9.67868182 64.8166364C9.48640909 64.848 9.34186364 64.9775455 9.29413636 65.1657273 9.26413636 65.2625455 9.26413636 65.3293636 9.26413636 65.5202727L9.26413636 66.4025455 8.93959091 66.4025455 8.93959091 64.4934545 9.26413636 64.4934545 9.26413636 64.8411818C9.30913636 64.7539091 9.36640909 64.6802727 9.44277273 64.6202727 9.5205 64.5616364 9.6705 64.4675455 9.92004545 64.4675455L9.92004545 64.8166364C9.80004545 64.8002727 9.73595455 64.803 9.67868182 64.8166364M11.5962273 64.9577727C11.5675909 64.9045909 11.5225909 64.8486818 11.4789545 64.8132273 11.3412273 64.6945909 11.1912273 64.6905 11.1298636 64.6905 10.5175909 64.6905 10.5216818 65.3586818 10.5216818 65.4677727 10.5216818 65.5618636 10.5339545 65.6355 10.5380455 65.6655 10.5585 65.8018636 10.6553182 66.2068636 11.1121364 66.2041364 11.1994091 66.2041364 11.4175909 66.1823182 11.5662273 65.9655 11.6848636 65.7814091 11.6944091 65.4841364 11.6944091 65.4445909 11.6971364 65.3914091 11.6971364 65.1445909 11.5962273 64.9577727M11.8198636 66.1414091C11.7135 66.2682273 11.5075909 66.4632273 11.1121364 66.4632273 10.9962273 66.4632273 10.6785 66.4509545 10.4480455 66.2109545 10.3253182 66.0882273 10.1685 65.8591364 10.1685 65.4555 10.1685 65.2127727 10.2339545 64.9618636 10.3880455 64.7627727 10.5735 64.5268636 10.8216818 64.4300455 11.1216818 64.4300455 11.2498636 64.4300455 11.3889545 64.4559545 11.5035 64.5036818 11.7271364 64.5964091 12.0503182 64.8691364 12.0421364 65.4486818 12.0421364 65.5536818 12.0298636 65.8782273 11.8198636 66.1414091M14.8175455 66.4026818L14.8175455 65.2831364C14.8175455 65.0963182 14.8461818 64.8808636 14.643 64.7758636 14.6184545 64.7635909 14.5516364 64.7335909 14.4684545 64.7335909 14.283 64.7376818 14.0675455 64.8672273 14.0102727 65.0513182 13.9925455 65.1126818 13.9884545 65.1890455 13.9884545 65.3281364L13.9884545 66.4026818 13.6693636 66.4026818 13.6693636 65.3281364C13.6693636 65.1481364 13.7048182 64.9176818 13.5261818 64.8004091 13.4907273 64.7758636 13.4239091 64.7376818 13.3161818 64.7376818 13.2984545 64.7376818 13.2534545 64.7376818 13.2002727 64.7540455 13.0707273 64.7867727 12.9139091 64.8890455 12.8634545 65.0213182 12.8402727 65.0840455 12.8348182 65.1413182 12.8348182 65.2667727L12.8348182 66.4026818 12.5293636 66.4026818 12.5293636 64.4935909 12.8348182 64.4935909 12.8402727 64.7472273C12.8798182 64.6967727 12.9139091 64.6667727 12.963 64.6217727 13.0925455 64.5031364 13.2234545 64.4308636 13.413 64.4308636 13.4770909 64.4308636 13.6693636 64.4472273 13.8084545 64.6108636 13.8561818 64.6640455 13.8889091 64.7226818 13.9270909 64.7826818 13.9489091 64.7635909 13.9693636 64.7376818 13.9925455 64.7185909 14.0484545 64.6640455 14.2693636 64.4267727 14.5652727 64.4308636 14.8052727 64.4308636 14.958 64.5808636 15.0111818 64.6422273 15.1461818 64.8031364 15.138 65.0035909 15.138 65.2054091L15.138 66.4026818 14.8175455 66.4026818zM17.0547273 64.9577727C17.0260909 64.9045909 16.9810909 64.8486818 16.9360909 64.8132273 16.7997273 64.6945909 16.6497273 64.6905 16.5883636 64.6905 15.9747273 64.6905 15.9788182 65.3586818 15.9788182 65.4677727 15.9788182 65.5618636 15.9924545 65.6355 15.9979091 65.6655 16.0156364 65.8018636 16.1151818 66.2068636 16.5692727 66.2041364 16.6565455 66.2041364 16.8747273 66.1823182 17.0233636 65.9655 17.1433636 65.7814091 17.1515455 65.4841364 17.1515455 65.4445909 17.1556364 65.3914091 17.1556364 65.1445909 17.0547273 64.9577727M17.2783636 66.1414091C17.172 66.2682273 16.9674545 66.4632273 16.5692727 66.4632273 16.4560909 66.4632273 16.137 66.4509545 15.9065455 66.2109545 15.7838182 66.0882273 15.6256364 65.8591364 15.6256364 65.4555 15.6256364 65.2127727 15.6924545 64.9618636 15.8465455 64.7627727 16.032 64.5268636 16.2801818 64.4300455 16.5801818 64.4300455 16.7083636 64.4300455 16.8474545 64.4559545 16.962 64.5036818 17.1842727 64.5964091 17.5074545 64.8691364 17.4992727 65.4486818 17.4992727 65.5536818 17.4883636 65.8782273 17.2783636 66.1414091M18.4384091 66.4345909C18.2556818 66.4345909 18.1629545 66.3909545 18.1138636 66.3173182 18.0688636 66.2423182 18.0688636 66.1673182 18.0688636 66.0009545L18.0688636 64.7586818 17.7620455 64.7586818 17.7620455 64.4927727 18.0688636 64.4927727 18.0688636 63.8886818 18.4029545 63.8886818 18.4029545 64.4927727 18.7493182 64.4927727 18.7493182 64.7586818 18.4029545 64.7586818 18.4029545 65.8550455C18.4029545 65.9886818 18.3947727 66.0650455 18.4261364 66.1223182 18.4520455 66.1673182 18.4915909 66.1795909 18.5447727 66.1795909 18.5802273 66.1795909 18.6593182 66.1673182 18.7493182 66.1345909L18.7493182 66.4032273C18.7234091 66.4059545 18.5652273 66.4345909 18.4384091 66.4345909M19.2095455 66.4022727L19.5218182 66.4022727 19.5218182 64.4931818 19.2095455 64.4931818 19.2095455 66.4022727zM19.2095455 63.9081818L19.5218182 63.9081818 19.5218182 63.5386364 19.2095455 63.5386364 19.2095455 63.9081818zM21.3613636 66.4026818L21.3613636 65.1849545C21.3613636 65.1276818 21.3777273 64.9422273 21.2168182 64.8195 21.1636364 64.7826818 21.0777273 64.7335909 20.9277273 64.7335909 20.7859091 64.7335909 20.6713636 64.7799545 20.5704545 64.8767727 20.5445455 64.9013182 20.4872727 64.9613182 20.4572727 65.0513182 20.4204545 65.1413182 20.4204545 65.2231364 20.4204545 65.3145L20.4204545 66.4026818 20.0945455 66.4026818 20.0945455 64.4935909 20.4204545 64.4935909 20.4204545 64.7717727C20.4613636 64.7022273 20.5009091 64.6585909 20.5213636 64.6381364 20.5909091 64.5645 20.7572727 64.4308636 21.0204545 64.4308636 21.1063636 64.4308636 21.3927273 64.4554091 21.5631818 64.6940455 21.6886364 64.8672273 21.6790909 65.0567727 21.6790909 65.2640455L21.6790909 66.4026818 21.3613636 66.4026818zM23.6545909 65.1282273C23.5700455 64.8677727 23.3450455 64.7191364 23.0832273 64.7232273 22.9986818 64.7232273 22.9073182 64.7450455 22.8336818 64.7805 22.6795909 64.8568636 22.5023182 65.0559545 22.5023182 65.4486818 22.5023182 65.6668636 22.5555 65.9123182 22.7409545 66.0582273 22.8473182 66.1386818 22.9727727 66.1700455 23.1091364 66.1700455 23.3000455 66.1700455 23.4105 66.0991364 23.4718636 66.0459545 23.5891364 65.9409545 23.6941364 65.7609545 23.6941364 65.4214091 23.6941364 65.3832273 23.6900455 65.2455 23.6545909 65.1282273M23.9736818 66.7973182C23.8700455 67.1505 23.5932273 67.2500455 23.4636818 67.2868636 23.3995909 67.3032273 23.2877727 67.3318636 23.1309545 67.3318636 23.0736818 67.3318636 22.9564091 67.3277727 22.8118636 67.2868636 22.3482273 67.1614091 22.2841364 66.7973182 22.2609545 66.6214091L22.6236818 66.6214091C22.6236818 66.6677727 22.6236818 66.7809545 22.7068636 66.8845909 22.8418636 67.0714091 23.0873182 67.0673182 23.1527727 67.0673182 23.1964091 67.0673182 23.4759545 67.0714091 23.6041364 66.8695909 23.6764091 66.7536818 23.6873182 66.6173182 23.6832273 66.3459545L23.6805 66.1250455C23.4582273 66.4250455 23.2100455 66.4618636 23.0559545 66.4618636 22.8595909 66.4618636 22.7136818 66.4032273 22.6536818 66.3691364 22.4450455 66.2600455 22.1695909 66.0009545 22.1695909 65.4568636 22.1695909 65.3682273 22.1736818 65.0218636 22.3714091 64.7627727 22.5323182 64.5527727 22.7286818 64.4300455 23.0586818 64.4300455 23.1091364 64.4300455 23.2045909 64.4395909 23.3177727 64.4777727 23.4023182 64.5118636 23.5400455 64.5855 23.6832273 64.7518636L23.6832273 64.4927727 24.0214091 64.4927727 24.0214091 66.2995909C24.0214091 66.5614091 24.0159545 66.6582273 23.9736818 66.7973182M27.5829545 66.1670455C27.4234091 66.3211364 27.1643182 66.4779545 26.6775 66.4779545 26.5847727 66.4779545 26.1934091 66.4738636 25.8947727 66.2761364 25.8047727 66.2202273 25.7256818 66.1411364 25.6643182 66.0606818 25.4938636 65.8329545 25.4706818 65.5738636 25.4638636 65.4838636L25.8729545 65.4334091C25.8784091 65.5179545 25.8865909 65.7579545 26.0706818 65.9461364 26.1715909 66.0525 26.3611364 66.1752273 26.6979545 66.1752273 26.7388636 66.1752273 26.8479545 66.1752273 26.9611364 66.1411364 27.0838636 66.1097727 27.4125 65.9965909 27.4125 65.6038636 27.4125 65.4115909 27.3293182 65.3311364 27.2665909 65.2806818 27.1534091 65.1879545 27.0006818 65.1579545 26.8697727 65.1279545L26.6202273 65.0747727C26.4143182 65.0311364 26.1838636 64.9834091 25.9902273 64.8784091 25.6465909 64.6902273 25.6029545 64.4325 25.6029545 64.2620455 25.6029545 64.0343182 25.7038636 63.8406818 25.8729545 63.7015909 26.1675 63.4588636 26.5247727 63.4656818 26.6420455 63.4656818 26.9175 63.4656818 27.1834091 63.5120455 27.4056818 63.6825 27.5434091 63.7806818 27.6075 63.8775 27.6402273 63.9347727 27.7165909 64.0643182 27.7479545 64.2020455 27.7738636 64.3452273L27.3865909 64.3725C27.3838636 64.3152273 27.3756818 64.2579545 27.3593182 64.2020455 27.3034091 63.9947727 27.1193182 63.7602273 26.6475 63.7602273 26.4675 63.7602273 26.2193182 63.8025 26.0925 63.9511364 26.0311364 64.0220455 25.9956818 64.1175 25.9956818 64.2115909 25.9956818 64.2552273 26.0038636 64.3411364 26.0652273 64.4256818 26.1743182 64.5715909 26.3979545 64.6165909 26.5643182 64.6588636L26.8793182 64.7338636C26.9529545 64.7502273 27.0306818 64.7734091 27.1029545 64.7911364 27.1943182 64.8115909 27.5434091 64.8893182 27.7165909 65.1797727 27.7575 65.2493182 27.8229545 65.3761364 27.8229545 65.5779545 27.8229545 65.6911364 27.8052273 65.9461364 27.5829545 66.1670455M29.6191364 66.4026818L29.6150455 66.1095C29.5986818 66.1354091 29.5795909 66.1626818 29.5345909 66.2049545 29.3777727 66.3617727 29.1868636 66.4504091 28.9659545 66.4504091 28.8991364 66.4504091 28.6018636 66.4381364 28.4545909 66.1995 28.3441364 66.0167727 28.3564091 65.8108636 28.3564091 65.6104091L28.3564091 64.4935909 28.6782273 64.4935909 28.6782273 65.5790455C28.6782273 65.7822273 28.6782273 65.8708636 28.7232273 65.9663182 28.7627727 66.0454091 28.8636818 66.1476818 29.0723182 66.1476818 29.1432273 66.1476818 29.3886818 66.1299545 29.5264091 65.9281364 29.6245909 65.7863182 29.6191364 65.6104091 29.6191364 65.4495L29.6191364 64.4935909 29.9341364 64.4935909 29.9341364 66.4026818 29.6191364 66.4026818zM31.9988182 66.147C31.902 66.2956364 31.6810909 66.462 31.2760909 66.462 31.2188182 66.462 30.9201818 66.4592727 30.7088182 66.3242727 30.6760909 66.3051818 30.627 66.2710909 30.5697273 66.2042727 30.432 66.0365455 30.4074545 65.8579091 30.3951818 65.7856364L30.7660909 65.7324545C30.7660909 65.8579091 30.777 65.967 30.8710909 66.0679091 30.9842727 66.1947273 31.137 66.2151818 31.2965455 66.2151818 31.3374545 66.2151818 31.527 66.222 31.6524545 66.1074545 31.7383636 66.0283636 31.7424545 65.9410909 31.7424545 65.8947273 31.7424545 65.8742727 31.7383636 65.8047273 31.7056364 65.7529091 31.6360909 65.6438182 31.4506364 65.6097273 31.3456364 65.5906364L31.1588182 65.5524545C30.9201818 65.5047273 30.8097273 65.4651818 30.7088182 65.4038182 30.552 65.3124545 30.477 65.1801818 30.477 64.9988182 30.477 64.9415455 30.4851818 64.812 30.5779091 64.6865455 30.7729091 64.4288182 31.1492727 64.4288182 31.2188182 64.4288182 31.6224545 64.4288182 31.8392727 64.6292727 31.9333636 64.7656364 32.0110909 64.8856364 32.0274545 65.0056364 32.0342727 65.0588182L31.6865455 65.0997273C31.6810909 65.0056364 31.6783636 64.9660909 31.6565455 64.9224545 31.6101818 64.8160909 31.4506364 64.6783636 31.1751818 64.6783636 30.9106364 64.6783636 30.7974545 64.8351818 30.7974545 64.9579091 30.7974545 64.9838182 30.8015455 65.0151818 30.8260909 65.0588182 30.8874545 65.1583636 31.032 65.2060909 31.2597273 65.2592727L31.4465455 65.3015455C31.5038182 65.3151818 31.5651818 65.3342727 31.6224545 65.3506364 31.872 65.4297273 32.0833636 65.5660909 32.0833636 65.8579091 32.0833636 65.9056364 32.0751818 66.0283636 31.9988182 66.147M33.0189545 66.4345909C32.8335 66.4345909 32.7421364 66.3909545 32.6944091 66.3173182 32.6466818 66.2423182 32.6494091 66.1673182 32.6494091 66.0009545L32.6494091 64.7586818 32.3412273 64.7586818 32.3412273 64.4927727 32.6494091 64.4927727 32.6494091 63.8886818 32.9821364 63.8886818 32.9821364 64.4927727 33.3285 64.4927727 33.3285 64.7586818 32.9821364 64.7586818 32.9821364 65.8550455C32.9821364 65.9886818 32.9739545 66.0650455 33.0039545 66.1223182 33.0312273 66.1673182 33.0707727 66.1795909 33.1239545 66.1795909 33.1607727 66.1795909 33.2371364 66.1673182 33.3285 66.1345909L33.3285 66.4032273C33.3039545 66.4059545 33.1444091 66.4345909 33.0189545 66.4345909M34.9404545 65.5051364L34.9404545 65.4696818C34.7904545 65.4928636 34.4072727 65.5405909 34.2586364 65.6060455 34.1972727 65.6333182 34.0227273 65.7124091 34.0227273 65.8978636 34.0227273 66.0424091 34.1277273 66.1828636 34.3854545 66.1828636 34.5586364 66.1828636 34.9445455 66.1092273 34.9445455 65.6196818 34.9445455 65.5842273 34.9404545 65.5405909 34.9404545 65.5051364M35.3004545 66.4269545C35.2854545 66.4269545 35.1722727 66.4269545 35.0986364 66.3792273 35.0659091 66.3533182 35.04 66.3192273 35.0318182 66.3055909 34.9786364 66.2319545 34.9745455 66.1828636 34.9690909 66.1433182 34.8790909 66.2387727 34.6840909 66.4555909 34.3159091 66.4555909 34.1836364 66.4555909 34.1004545 66.4324091 34.0513636 66.4146818 33.825 66.3369545 33.6654545 66.1555909 33.6654545 65.9060455 33.6654545 65.8174091 33.6913636 65.6374091 33.8727273 65.4928636 34.065 65.3496818 34.4018182 65.2965 34.6472727 65.2787727L34.9404545 65.2569545C34.9404545 65.2037727 34.9404545 65.1533182 34.935 65.1001364 34.9281818 64.9637727 34.9036364 64.6801364 34.515 64.6801364 34.455 64.6801364 34.1972727 64.6801364 34.1181818 64.9092273 34.1004545 64.9705909 34.1004545 65.0169545 34.1004545 65.0810455L33.765 65.0605909C33.765 65.0224091 33.7718182 64.9569545 33.7963636 64.8724091 33.855 64.6896818 34.035 64.4305909 34.4986364 64.4305909 34.5559091 64.4305909 34.6595455 64.4374091 34.7986364 64.4715 34.875 64.4933182 35.1313636 64.5683182 35.2254545 64.8287727 35.2568182 64.9296818 35.2622727 65.0265 35.2622727 65.2392273L35.2622727 65.8624091C35.2622727 65.9019545 35.2622727 65.9455909 35.2663636 65.9878636 35.2718182 66.0328636 35.2759091 66.1351364 35.4109091 66.1351364 35.4504545 66.1351364 35.4722727 66.1255909 35.5077273 66.1187727L35.5077273 66.3901364C35.4109091 66.4242273 35.3536364 66.4269545 35.3004545 66.4269545M35.9195455 66.4022727L36.2318182 66.4022727 36.2318182 64.4931818 35.9195455 64.4931818 35.9195455 66.4022727zM35.9195455 63.9081818L36.2318182 63.9081818 36.2318182 63.5386364 35.9195455 63.5386364 35.9195455 63.9081818zM38.0725909 66.4026818L38.0725909 65.1849545C38.0725909 65.1276818 38.0889545 64.9422273 37.9280455 64.8195 37.8762273 64.7826818 37.7875909 64.7335909 37.6389545 64.7335909 37.4957727 64.7335909 37.3825909 64.7799545 37.2803182 64.8767727 37.2557727 64.9013182 37.1998636 64.9613182 37.1671364 65.0513182 37.1316818 65.1413182 37.1316818 65.2231364 37.1316818 65.3145L37.1316818 66.4026818 36.8071364 66.4026818 36.8071364 64.4935909 37.1316818 64.4935909 37.1316818 64.7717727C37.1712273 64.7022273 37.2121364 64.6585909 37.2325909 64.6381364 37.3021364 64.5645 37.4685 64.4308636 37.7316818 64.4308636 37.8175909 64.4308636 38.1039545 64.4554091 38.2744091 64.6940455 38.3998636 64.8672273 38.3916818 65.0567727 38.3916818 65.2640455L38.3916818 66.4026818 38.0725909 66.4026818zM40.1260909 65.5051364L40.1260909 65.4696818C39.9760909 65.4928636 39.5942727 65.5405909 39.4442727 65.6060455 39.3829091 65.6333182 39.2097273 65.7124091 39.2097273 65.8978636 39.2097273 66.0424091 39.3133636 66.1828636 39.5710909 66.1828636 39.7456364 66.1828636 40.1301818 66.1092273 40.1301818 65.6196818 40.1301818 65.5842273 40.1260909 65.5405909 40.1260909 65.5051364M40.4888182 66.4269545C40.4710909 66.4269545 40.3579091 66.4269545 40.2842727 66.3792273 40.2529091 66.3533182 40.227 66.3192273 40.2201818 66.3055909 40.167 66.2319545 40.1615455 66.1828636 40.1547273 66.1433182 40.0660909 66.2387727 39.8710909 66.4555909 39.5015455 66.4555909 39.3706364 66.4555909 39.2860909 66.4324091 39.2383636 66.4146818 39.012 66.3369545 38.8510909 66.1555909 38.8510909 65.9060455 38.8510909 65.8174091 38.877 65.6374091 39.0583636 65.4928636 39.2533636 65.3496818 39.5901818 65.2965 39.8329091 65.2787727L40.1260909 65.2569545C40.1260909 65.2037727 40.1260909 65.1533182 40.122 65.1001364 40.1138182 64.9637727 40.0906364 64.6801364 39.702 64.6801364 39.6392727 64.6801364 39.3829091 64.6801364 39.3051818 64.9092273 39.2860909 64.9705909 39.2860909 65.0169545 39.2860909 65.0810455L38.9506364 65.0605909C38.9506364 65.0224091 38.9588182 64.9569545 38.982 64.8724091 39.0433636 64.6896818 39.2206364 64.4305909 39.6842727 64.4305909 39.7415455 64.4305909 39.8451818 64.4374091 39.9842727 64.4715 40.0606364 64.4933182 40.317 64.5683182 40.4097273 64.8287727 40.4465455 64.9296818 40.4492727 65.0265 40.4492727 65.2392273L40.4492727 65.8624091C40.4492727 65.9019545 40.4492727 65.9455909 40.4533636 65.9878636 40.4601818 66.0328636 40.4615455 66.1351364 40.5965455 66.1351364 40.6374545 66.1351364 40.6579091 66.1255909 40.6933636 66.1187727L40.6933636 66.3901364C40.5965455 66.4242273 40.5392727 66.4269545 40.4888182 66.4269545M42.5164091 65.0217273C42.4591364 64.9262727 42.3159545 64.7258182 42.0159545 64.7258182 41.7827727 64.7258182 41.6518636 64.8349091 41.5905 64.9017273 41.4936818 65.0026364 41.4105 65.154 41.4077727 65.4512727 41.4077727 65.664 41.4500455 65.7921818 41.4936818 65.8753636 41.5455 65.9817273 41.6927727 66.1862727 42.0159545 66.1862727 42.1236818 66.1862727 42.2314091 66.1630909 42.3214091 66.1003636 42.4550455 66.0158182 42.6064091 65.8058182 42.6064091 65.4335455 42.6064091 65.3721818 42.6091364 65.1894545 42.5164091 65.0217273M42.7441364 66.1467273C42.6309545 66.2967273 42.5082273 66.3608182 42.4427727 66.3908182 42.3773182 66.4180909 42.2545909 66.4630909 42.0664091 66.4630909 41.8386818 66.4630909 41.7132273 66.3976364 41.6300455 66.3499091 41.5373182 66.2967273 41.4732273 66.2394545 41.4132273 66.1535455L41.4132273 66.4030909 41.0886818 66.4030909 41.0886818 63.5380909 41.4132273 63.5380909 41.4132273 64.7544545C41.4295909 64.7312727 41.4555 64.6903636 41.5018636 64.6480909 41.6518636 64.4953636 41.8645909 64.4299091 42.0718636 64.4299091 42.2014091 64.4299091 42.4864091 64.4517273 42.7155 64.7176364 42.8273182 64.8485455 42.9486818 65.0585455 42.9486818 65.4458182 42.9486818 65.5508182 42.9486818 65.8753636 42.7441364 66.1467273" mask="url(#mask-4)"/>
    <polygon fill="#FFFFFF" points="43.452 66.402 43.762 66.402 43.762 63.539 43.452 63.539" mask="url(#mask-4)"/>
    <path fill="#FFFFFF" d="M45.6778636,65.0843182 C45.6124091,64.8484091 45.4092273,64.6820455 45.1596818,64.6820455 C44.8133182,64.6820455 44.6428636,64.9656818 44.6155909,65.2711364 L45.7065,65.2711364 C45.6983182,65.1729545 45.6901364,65.1279545 45.6778636,65.0843182 M45.9328636,66.0852273 C45.8360455,66.2325 45.6246818,66.4629545 45.1951364,66.4629545 C44.9960455,66.4629545 44.8665,66.4179545 44.7942273,66.3865909 C44.5596818,66.2843182 44.2583182,66.0252273 44.2583182,65.4293182 C44.2583182,65.0747727 44.3755909,64.8770455 44.4737727,64.7597727 C44.6455909,64.5484091 44.9115,64.4311364 45.1842273,64.4311364 C45.2796818,64.4311364 45.3928636,64.4515909 45.4815,64.4843182 C45.5987727,64.5252273 45.8360455,64.6384091 45.9655909,64.9370455 C46.0187727,65.0625 46.0583182,65.2179545 46.0583182,65.5056818 L44.6060455,65.5056818 C44.6019545,65.8465909 44.7655909,66.0415909 44.8828636,66.1234091 C44.9796818,66.1861364 45.1065,66.2202273 45.2278636,66.2202273 C45.4010455,66.2202273 45.4910455,66.1534091 45.5469545,66.1015909 C45.5687727,66.0852273 45.6165,66.0375 45.6519545,65.9761364 C45.7024091,65.8915909 45.7228636,65.7961364 45.7310455,65.7743182 L46.0583182,65.8179545 C46.0433182,65.8588636 46.0051364,65.9720455 45.9328636,66.0852273" mask="url(#mask-4)"/>
    <polygon fill="#FFFFFF" points="9.719 69.551 9.719 70.396 11.074 70.396 11.074 70.728 9.719 70.728 9.719 72.075 9.338 72.075 9.338 69.21 11.175 69.21 11.175 69.551" mask="url(#mask-4)"/>
    <path fill="#FFFFFF" d="M12.8799545 70.6307727C12.8513182 70.5803182 12.8063182 70.5230455 12.7626818 70.4862273 12.6249545 70.3689545 12.4763182 70.3635 12.4135909 70.3635 11.8026818 70.3635 11.8067727 71.0330455 11.8067727 71.1435 11.8067727 71.2335 11.8190455 71.3098636 11.8245 71.3385 11.8408636 71.4748636 11.9404091 71.8798636 12.3958636 71.8771364 12.4831364 71.8771364 12.7013182 71.8553182 12.8499545 71.6371364 12.9699545 71.4544091 12.9781364 71.1598636 12.9781364 71.1162273 12.9822273 71.0630455 12.9822273 70.8203182 12.8799545 70.6307727M13.1035909 71.8157727C12.9985909 71.9425909 12.7926818 72.1362273 12.3958636 72.1362273 12.2826818 72.1362273 11.9622273 72.1253182 11.7331364 71.8853182 11.6104091 71.7625909 11.4522273 71.5335 11.4522273 71.1298636 11.4522273 70.8844091 11.5176818 70.6362273 11.6717727 70.4344091 11.8585909 70.1985 12.1067727 70.1030455 12.4067727 70.1030455 12.5349545 70.1030455 12.6754091 70.1289545 12.7885909 70.1780455 13.0122273 70.2707727 13.3340455 70.5435 13.3258636 71.1203182 13.3258636 71.2266818 13.3135909 71.5539545 13.1035909 71.8157727M14.5539545 70.4896364C14.3616818 70.5223636 14.2171364 70.6519091 14.1694091 70.8387273 14.1407727 70.9355455 14.1407727 71.0050909 14.1407727 71.1919091L14.1407727 72.0755455 13.8162273 72.0755455 13.8162273 70.1650909 14.1407727 70.1650909 14.1407727 70.5141818C14.1844091 70.4282727 14.2416818 70.356 14.3180455 70.2932727 14.3957727 70.2346364 14.5457727 70.1405455 14.7939545 70.1405455L14.7939545 70.4896364C14.6753182 70.4732727 14.6112273 70.476 14.5539545 70.4896364M16.4634545 70.7559545C16.3966364 70.5214091 16.1948182 70.3564091 15.9439091 70.3564091 15.5975455 70.3564091 15.4270909 70.6386818 15.4011818 70.9455L16.4920909 70.9455C16.4825455 70.8459545 16.4743636 70.7995909 16.4634545 70.7559545M16.7184545 71.7595909C16.6202727 71.9055 16.4102727 72.1386818 15.9807273 72.1386818 15.7802727 72.1386818 15.6507273 72.0909545 15.5784545 72.0582273 15.3439091 71.9586818 15.0425455 71.6968636 15.0425455 71.1036818 15.0425455 70.7491364 15.1611818 70.5514091 15.258 70.4327727 15.4311818 70.2200455 15.6957273 70.1041364 15.9684545 70.1041364 16.0652727 70.1041364 16.1784545 70.1232273 16.2657273 70.1586818 16.3843636 70.1982273 16.6202727 70.3127727 16.7511818 70.6127727 16.8043636 70.7355 16.8425455 70.8923182 16.8425455 71.1786818L15.3916364 71.1786818C15.3875455 71.5223182 15.5498182 71.7145909 15.6670909 71.7964091 15.7639091 71.8618636 15.8907273 71.8918636 16.0120909 71.8918636 16.1866364 71.8918636 16.2752727 71.8277727 16.3325455 71.7759545 16.353 71.7595909 16.4007273 71.7091364 16.4361818 71.6491364 16.488 71.5659545 16.5070909 71.4691364 16.5152727 71.4473182L16.8425455 71.4909545C16.8275455 71.5318636 16.7907273 71.6450455 16.7184545 71.7595909M18.8045455 71.82C18.7077273 71.97 18.4895455 72.1377273 18.0831818 72.1377273 18.0272727 72.1377273 17.7259091 72.1322727 17.5159091 72 17.4804545 71.9781818 17.4327273 71.9468182 17.3768182 71.8772727 17.2404545 71.7095455 17.2131818 71.5322727 17.2009091 71.4586364L17.5731818 71.4068182C17.5731818 71.5322727 17.5840909 71.64 17.6781818 71.7436364 17.79 71.8690909 17.9427273 71.8895455 18.1022727 71.8895455 18.1445455 71.8895455 18.3340909 71.8936364 18.4581818 71.7790909 18.5454545 71.7027273 18.5495455 71.6127273 18.5495455 71.5677273 18.5495455 71.5486364 18.5454545 71.4790909 18.5113636 71.4272727 18.4418182 71.3168182 18.2577273 71.2840909 18.1513636 71.2636364L17.9659091 71.2281818C17.7259091 71.1777273 17.6181818 71.1381818 17.5159091 71.0768182 17.3590909 70.9840909 17.2840909 70.8531818 17.2840909 70.6718182 17.2840909 70.6145455 17.2922727 70.4863636 17.3836364 70.3595455 17.5813636 70.1031818 17.9577273 70.1031818 18.0272727 70.1031818 18.4295455 70.1031818 18.6463636 70.3036364 18.7390909 70.4413636 18.8168182 70.5586364 18.8331818 70.6813636 18.84 70.7345455L18.4922727 70.7727273C18.4895455 70.6813636 18.4840909 70.6404545 18.4622727 70.5968182 18.4172727 70.4890909 18.2577273 70.3513636 17.9809091 70.3513636 17.7177273 70.3513636 17.6031818 70.5109091 17.6031818 70.6309091 17.6031818 70.6568182 17.6072727 70.6881818 17.6345455 70.7345455 17.6945455 70.8340909 17.8377273 70.8790909 18.0654545 70.9322727L18.2536364 70.9759091C18.3109091 70.9895455 18.3722727 71.0072727 18.4295455 71.0236364 18.6777273 71.1027273 18.8890909 71.2404545 18.8890909 71.5322727 18.8890909 71.58 18.8836364 71.7027273 18.8045455 71.82M19.8246818 72.1075909C19.6419545 72.1075909 19.5492273 72.0639545 19.5001364 71.9889545 19.4524091 71.9153182 19.4551364 71.8403182 19.4551364 71.6766818L19.4551364 70.4316818 19.1483182 70.4316818 19.1483182 70.1644091 19.4551364 70.1644091 19.4551364 69.5616818 19.7892273 69.5616818 19.7892273 70.1644091 20.1342273 70.1644091 20.1342273 70.4316818 19.7892273 70.4316818 19.7892273 71.5266818C19.7892273 71.6630455 19.7810455 71.7394091 19.8124091 71.7953182 19.8369545 71.8403182 19.8778636 71.8525909 19.9310455 71.8525909 19.9665 71.8525909 20.0442273 71.8403182 20.1342273 71.8062273L20.1342273 72.0762273C20.1096818 72.0789545 19.9515 72.1075909 19.8246818 72.1075909" mask="url(#mask-4)"/>
    <polygon fill="#FFFFFF" points="23.944 72.076 23.997 69.672 23.093 72.076 22.797 72.076 21.908 69.711 21.947 72.076 21.575 72.076 21.575 69.211 22.07 69.211 22.945 71.562 23.83 69.211 24.325 69.211 24.325 72.076" mask="url(#mask-4)"/>
    <path fill="#FFFFFF" d="M26.1102273 71.1781364L26.1102273 71.1440455C25.9615909 71.1658636 25.5784091 71.2149545 25.4297727 71.2817727 25.3684091 71.3049545 25.1938636 71.3854091 25.1938636 71.5708636 25.1938636 71.7154091 25.2975 71.8572273 25.5565909 71.8572273 25.7297727 71.8572273 26.1156818 71.7822273 26.1156818 71.2926818 26.1156818 71.2572273 26.1102273 71.2149545 26.1102273 71.1781364M26.4715909 72.1013182C26.4552273 72.1013182 26.3434091 72.1013182 26.2697727 72.0535909 26.2370455 72.0276818 26.2111364 71.9908636 26.2029545 71.9785909 26.1497727 71.9049545 26.1456818 71.8572273 26.1388636 71.8163182 26.0502273 71.9145 25.8552273 72.1285909 25.4870455 72.1285909 25.3547727 72.1285909 25.2715909 72.1040455 25.2225 72.0876818 24.9975 72.0113182 24.8352273 71.8299545 24.8352273 71.5804091 24.8352273 71.4904091 24.8611364 71.3104091 25.0452273 71.1658636 25.2361364 71.0213182 25.5743182 70.9681364 25.8184091 70.9517727L26.1102273 70.9313182C26.1102273 70.8781364 26.1102273 70.8263182 26.1075 70.7731364 26.0993182 70.6367727 26.0761364 70.3517727 25.6847727 70.3517727 25.6247727 70.3517727 25.3684091 70.3517727 25.2893182 70.5822273 25.2715909 70.6422273 25.2715909 70.6885909 25.2715909 70.7526818L24.9361364 70.7349545C24.9361364 70.6954091 24.9443182 70.6285909 24.9675 70.5454091 25.0275 70.3626818 25.2061364 70.1049545 25.6697727 70.1049545 25.7270455 70.1049545 25.8306818 70.1090455 25.9684091 70.1458636 26.0461364 70.1649545 26.3025 70.2413182 26.3952273 70.5017727 26.4293182 70.6026818 26.4334091 70.6981364 26.4334091 70.9108636L26.4334091 71.5367727C26.4334091 71.5763182 26.4334091 71.6213182 26.4375 71.6608636 26.4443182 71.7072273 26.4470455 71.8081364 26.5820455 71.8081364 26.6229545 71.8081364 26.6420455 71.7999545 26.6788636 71.7917727L26.6788636 72.0617727C26.5820455 72.0972273 26.5247727 72.1013182 26.4715909 72.1013182M28.3300909 72.0756818L28.3300909 70.8579545C28.3300909 70.7993182 28.3478182 70.6152273 28.1869091 70.4952273 28.1337273 70.4570455 28.0464545 70.4052273 27.8978182 70.4052273 27.7546364 70.4052273 27.6400909 70.4543182 27.5391818 70.5511364 27.5146364 70.5729545 27.4573636 70.6343182 27.426 70.7256818 27.3905455 70.8129545 27.3905455 70.8961364 27.3905455 70.9888636L27.3905455 72.0756818 27.0646364 72.0756818 27.0646364 70.1665909 27.3905455 70.1665909 27.3905455 70.4447727C27.4314545 70.3752273 27.4696364 70.3329545 27.4914545 70.3125 27.561 70.2361364 27.7273636 70.1052273 27.9891818 70.1052273 28.0750909 70.1052273 28.3628182 70.1270455 28.5332727 70.3684091 28.6573636 70.5429545 28.6491818 70.7297727 28.6491818 70.9370455L28.6491818 72.0756818 28.3300909 72.0756818zM30.3835909 71.1781364L30.3835909 71.1440455C30.2363182 71.1658636 29.8531364 71.2149545 29.7031364 71.2817727 29.6417727 71.3049545 29.4672273 71.3854091 29.4672273 71.5708636 29.4672273 71.7154091 29.5722273 71.8572273 29.8313182 71.8572273 30.0045 71.8572273 30.3890455 71.7822273 30.3890455 71.2926818 30.3890455 71.2572273 30.3835909 71.2149545 30.3835909 71.1781364M30.7476818 72.1013182C30.7285909 72.1013182 30.6167727 72.1013182 30.5431364 72.0535909 30.5117727 72.0276818 30.4858636 71.9908636 30.4776818 71.9785909 30.4245 71.9049545 30.4204091 71.8572273 30.4122273 71.8163182 30.3235909 71.9145 30.1285909 72.1285909 29.7604091 72.1285909 29.6295 72.1285909 29.5463182 72.1040455 29.4972273 72.0876818 29.2722273 72.0113182 29.1099545 71.8299545 29.1099545 71.5804091 29.1099545 71.4904091 29.1345 71.3104091 29.3199545 71.1658636 29.5108636 71.0213182 29.8490455 70.9681364 30.0917727 70.9517727L30.3835909 70.9313182C30.3835909 70.8781364 30.3835909 70.8263182 30.3808636 70.7731364 30.3726818 70.6367727 30.3508636 70.3517727 29.9595 70.3517727 29.8995 70.3517727 29.6417727 70.3517727 29.5640455 70.5822273 29.5463182 70.6422273 29.5463182 70.6885909 29.5463182 70.7526818L29.2108636 70.7349545C29.2108636 70.6954091 29.2190455 70.6285909 29.2408636 70.5454091 29.3022273 70.3626818 29.4795 70.1049545 29.9445 70.1049545 30.0017727 70.1049545 30.1040455 70.1090455 30.2417727 70.1458636 30.3195 70.1649545 30.5772273 70.2413182 30.6685909 70.5017727 30.7054091 70.6026818 30.7095 70.6981364 30.7095 70.9108636L30.7095 71.5367727C30.7095 71.5763182 30.7095 71.6213182 30.7135909 71.6608636 30.7176818 71.7072273 30.7217727 71.8081364 30.8567727 71.8081364 30.8963182 71.8081364 30.9167727 71.7999545 30.9522273 71.7917727L30.9522273 72.0617727C30.8567727 72.0972273 30.7995 72.1013182 30.7476818 72.1013182M32.7032727 70.7998636C32.6173636 70.5435 32.3923636 70.3907727 32.1319091 70.3962273 32.046 70.3962273 31.956 70.4180455 31.881 70.4535 31.7282727 70.5298636 31.551 70.7275909 31.551 71.1216818 31.551 71.3398636 31.6041818 71.5839545 31.7896364 71.7325909 31.896 71.8103182 32.0214545 71.8457727 32.1564545 71.8457727 32.3487273 71.8457727 32.4591818 71.7735 32.5205455 71.7203182 32.6378182 71.6139545 32.7428182 71.4366818 32.7428182 71.0944091 32.7428182 71.0575909 32.7387273 70.9212273 32.7032727 70.7998636M33.0223636 72.4703182C32.9187273 72.8248636 32.6419091 72.9257727 32.5123636 72.9585 32.4469091 72.9762273 32.3364545 73.0035 32.1796364 73.0035 32.1223636 73.0035 32.0050909 72.9994091 31.8591818 72.9585 31.3969091 72.8330455 31.3328182 72.4703182 31.3082727 72.2957727L31.6723636 72.2957727C31.6723636 72.3407727 31.6723636 72.4539545 31.7541818 72.5575909 31.8905455 72.7457727 32.136 72.7416818 32.2000909 72.7416818 32.2450909 72.7416818 32.5246364 72.7457727 32.6514545 72.5453182 32.7237273 72.4266818 32.736 72.2930455 32.7319091 72.0189545L32.7278182 71.7994091C32.5069091 72.0994091 32.2573636 72.1362273 32.1032727 72.1362273 31.9082727 72.1362273 31.761 72.0762273 31.701 72.0421364 31.4937273 71.9316818 31.2182727 71.6766818 31.2182727 71.1298636 31.2182727 71.0439545 31.2223636 70.6975909 31.4187273 70.4357727 31.5796364 70.2244091 31.7773636 70.1030455 32.1073636 70.1030455 32.1564545 70.1030455 32.2532727 70.1112273 32.3664545 70.1507727 32.451 70.1875909 32.5887273 70.2598636 32.7319091 70.4275909L32.7319091 70.1644091 33.0687273 70.1644091 33.0687273 71.9725909C33.0687273 72.2357727 33.0632727 72.3298636 33.0223636 72.4703182M34.9725 70.7559545C34.9056818 70.5214091 34.7038636 70.3564091 34.4529545 70.3564091 34.1065909 70.3564091 33.9361364 70.6386818 33.9102273 70.9455L35.0011364 70.9455C34.9929545 70.8459545 34.9847727 70.7995909 34.9725 70.7559545M35.2275 71.7595909C35.1293182 71.9055 34.9193182 72.1386818 34.4897727 72.1386818 34.2906818 72.1386818 34.1597727 72.0909545 34.0888636 72.0582273 33.8543182 71.9586818 33.5529545 71.6968636 33.5529545 71.1036818 33.5529545 70.7491364 33.6702273 70.5514091 33.7670455 70.4327727 33.9388636 70.2200455 34.2061364 70.1041364 34.4788636 70.1041364 34.5743182 70.1041364 34.6875 70.1232273 34.7761364 70.1586818 34.8934091 70.1982273 35.1293182 70.3127727 35.2602273 70.6127727 35.3134091 70.7355 35.3515909 70.8923182 35.3515909 71.1786818L33.9006818 71.1786818C33.8965909 71.5223182 34.0602273 71.7145909 34.1775 71.7964091 34.2729545 71.8618636 34.4011364 71.8918636 34.5225 71.8918636 34.6956818 71.8918636 34.7843182 71.8277727 34.8402273 71.7759545 34.8634091 71.7595909 34.9097727 71.7091364 34.9465909 71.6491364 34.9970455 71.5659545 35.0161364 71.4691364 35.0243182 71.4473182L35.3515909 71.4909545C35.3379545 71.5318636 35.2984091 71.6450455 35.2275 71.7595909M38.1298636 72.0756818L38.1298636 70.9561364C38.1298636 70.7693182 38.1585 70.5552273 37.9553182 70.4488636 37.9307727 70.4365909 37.8625909 70.4052273 37.7821364 70.4052273 37.5925909 70.4106818 37.3785 70.5429545 37.3225909 70.7256818 37.3021364 70.7856818 37.2980455 70.8620455 37.2980455 71.0025L37.2980455 72.0756818 36.9830455 72.0756818 36.9830455 71.0025C36.9830455 70.8225 37.0157727 70.5893182 36.8357727 70.4720455 36.8030455 70.4488636 36.7348636 70.4106818 36.6271364 70.4106818 36.6080455 70.4106818 36.5644091 70.4106818 36.5112273 70.4284091 36.3830455 70.4584091 36.2248636 70.5620455 36.1730455 70.6956818 36.1512273 70.7556818 36.1457727 70.8129545 36.1457727 70.9397727L36.1457727 72.0756818 35.8403182 72.0756818 35.8403182 70.1665909 36.1457727 70.1665909 36.1512273 70.4188636C36.1907727 70.3725 36.2248636 70.3425 36.2725909 70.2934091 36.4035 70.1761364 36.5357727 70.1052273 36.7225909 70.1052273 36.7880455 70.1052273 36.9830455 70.1188636 37.1194091 70.2838636 37.1685 70.3370455 37.1998636 70.3970455 37.2380455 70.4570455 37.2612273 70.4365909 37.2816818 70.4106818 37.3021364 70.3915909 37.3594091 70.3370455 37.5789545 70.0997727 37.8762273 70.1052273 38.1175909 70.1052273 38.2675909 70.2538636 38.3207727 70.3165909 38.4585 70.4747727 38.4489545 70.6779545 38.4489545 70.8797727L38.4489545 72.0756818 38.1298636 72.0756818zM40.3497273 70.7559545C40.2829091 70.5214091 40.0824545 70.3564091 39.8288182 70.3564091 39.4838182 70.3564091 39.3133636 70.6386818 39.2874545 70.9455L40.3783636 70.9455C40.3715455 70.8459545 40.362 70.7995909 40.3497273 70.7559545M40.6047273 71.7595909C40.5065455 71.9055 40.2979091 72.1386818 39.867 72.1386818 39.6692727 72.1386818 39.537 72.0909545 39.4660909 72.0582273 39.2315455 71.9586818 38.9301818 71.6968636 38.9301818 71.1036818 38.9301818 70.7491364 39.0488182 70.5514091 39.1429091 70.4327727 39.3174545 70.2200455 39.5833636 70.1041364 39.8560909 70.1041364 39.9515455 70.1041364 40.0660909 70.1232273 40.152 70.1586818 40.272 70.1982273 40.5065455 70.3127727 40.6388182 70.6127727 40.6906364 70.7355 40.7288182 70.8923182 40.7288182 71.1786818L39.2806364 71.1786818C39.2738182 71.5223182 39.4360909 71.7145909 39.5547273 71.7964091 39.6501818 71.8618636 39.7783636 71.8918636 39.8997273 71.8918636 40.0742727 71.8918636 40.1615455 71.8277727 40.2188182 71.7759545 40.2406364 71.7595909 40.2897273 71.7091364 40.3238182 71.6491364 40.3756364 71.5659545 40.3933636 71.4691364 40.4029091 71.4473182L40.7288182 71.4909545C40.7151818 71.5318636 40.6756364 71.6450455 40.6047273 71.7595909M42.4711364 72.0756818L42.4711364 70.8579545C42.4711364 70.7993182 42.4888636 70.6152273 42.3279545 70.4952273 42.2761364 70.4570455 42.1888636 70.4052273 42.0402273 70.4052273 41.8956818 70.4052273 41.7825 70.4543182 41.6829545 70.5511364 41.6556818 70.5729545 41.5984091 70.6343182 41.5684091 70.7256818 41.5315909 70.8129545 41.5315909 70.8961364 41.5315909 70.9888636L41.5315909 72.0756818 41.2056818 72.0756818 41.2056818 70.1665909 41.5315909 70.1665909 41.5315909 70.4447727C41.5725 70.3752273 41.6120455 70.3329545 41.6325 70.3125 41.7020455 70.2361364 41.8697727 70.1052273 42.1302273 70.1052273 42.2161364 70.1052273 42.5038636 70.1270455 42.6756818 70.3684091 42.7997727 70.5429545 42.7915909 70.7297727 42.7915909 70.9370455L42.7915909 72.0756818 42.4711364 72.0756818zM43.8400909 72.1075909C43.6573636 72.1075909 43.566 72.0639545 43.5169091 71.9889545 43.4705455 71.9153182 43.4705455 71.8403182 43.4705455 71.6766818L43.4705455 70.4316818 43.1637273 70.4316818 43.1637273 70.1644091 43.4705455 70.1644091 43.4705455 69.5616818 43.806 69.5616818 43.806 70.1644091 44.151 70.1644091 44.151 70.4316818 43.806 70.4316818 43.806 71.5266818C43.806 71.6630455 43.7964545 71.7394091 43.8278182 71.7953182 43.8537273 71.8403182 43.8932727 71.8525909 43.9464545 71.8525909 43.9819091 71.8525909 44.0596364 71.8403182 44.151 71.8062273L44.151 72.0762273C44.1250909 72.0789545 43.9669091 72.1075909 43.8400909 72.1075909" mask="url(#mask-4)"/>
    <polygon fill="#FFFFFF" points="16.44 79.608 16.155 79.608 15.698 78.183 15.23 79.608 14.934 79.608 14.269 77.7 14.619 77.7 15.098 79.119 15.567 77.7 15.852 77.7 16.3 79.119 16.8 77.7 17.142 77.7" mask="url(#mask-4)"/>
    <polygon fill="#FFFFFF" points="19.57 79.608 19.287 79.608 18.829 78.183 18.362 79.608 18.066 79.608 17.401 77.7 17.75 77.7 18.23 79.119 18.698 77.7 18.983 77.7 19.431 79.119 19.934 77.7 20.274 77.7" mask="url(#mask-4)"/>
    <polygon fill="#FFFFFF" points="22.705 79.608 22.42 79.608 21.962 78.183 21.494 79.608 21.2 79.608 20.531 77.7 20.883 77.7 21.362 79.119 21.831 77.7 22.115 77.7 22.565 79.119 23.065 77.7 23.407 77.7" mask="url(#mask-4)"/>
    <polygon fill="#FFFFFF" points="23.645 79.608 24.046 79.608 24.046 79.15 23.645 79.15" mask="url(#mask-4)"/>
    <path fill="#FFFFFF" d="M26.1315 78.3252273C26.0878636 78.2038636 25.9392273 77.9256818 25.5601364 77.9434091 25.4551364 77.9461364 25.3446818 77.9788636 25.2574091 78.0334091 25.1251364 78.1247727 24.9696818 78.3184091 24.9696818 78.6879545 24.9696818 78.9511364 25.0501364 79.0915909 25.1210455 79.1884091 25.1742273 79.2525 25.2437727 79.3056818 25.3187727 79.3356818 25.3651364 79.3588636 25.4455909 79.3834091 25.5724091 79.3834091 25.8519545 79.3834091 25.9692273 79.2620455 26.0387727 79.1652273 26.1805909 78.9688636 26.1805909 78.7179545 26.1805909 78.6456818 26.1805909 78.6061364 26.1805909 78.4615909 26.1315 78.3252273M26.3074091 79.3479545C26.2051364 79.4788636 26.0087727 79.6684091 25.6160455 79.6684091 25.5246818 79.6684091 25.2751364 79.6602273 25.0665 79.4843182 25.0392273 79.4611364 25.0133182 79.4325 24.9696818 79.3834091L24.9696818 80.5152273 24.6560455 80.5152273 24.6560455 77.6979545 24.9696818 77.6979545 24.9737727 77.9693182C24.9996818 77.9434091 25.0583182 77.8725 25.1374091 77.8111364 25.3365 77.6584091 25.5765 77.6352273 25.6515 77.6352273 25.8478636 77.6352273 25.9896818 77.7102273 26.0524091 77.7456818 26.2542273 77.8561364 26.5105909 78.1206818 26.5105909 78.6593182 26.5105909 78.7643182 26.5105909 79.0820455 26.3074091 79.3479545M28.3234091 78.2892273C28.2565909 78.0533182 28.0561364 77.8883182 27.8038636 77.8883182 27.4575 77.8883182 27.2870455 78.1705909 27.2625 78.4774091L28.3520455 78.4774091C28.3438636 78.3778636 28.3356818 78.3342273 28.3234091 78.2892273M28.5784091 79.2915C28.4802273 79.4387727 28.2702273 79.6705909 27.8406818 79.6705909 27.6402273 79.6705909 27.5106818 79.6242273 27.4397727 79.5915 27.2052273 79.4892273 26.9025 79.2301364 26.9025 78.6342273 26.9025 78.2810455 27.0211364 78.0833182 27.1179545 77.9660455 27.2911364 77.7546818 27.5570455 77.6360455 27.8297727 77.6360455 27.9252273 77.6360455 28.0384091 77.6565 28.1270455 77.6905909 28.2443182 77.7315 28.4802273 77.8446818 28.6111364 78.1446818 28.6643182 78.2674091 28.7025 78.4242273 28.7025 78.7133182L27.2543182 78.7133182C27.2475 79.0542273 27.4097727 79.2465 27.5270455 79.3296818 27.6238636 79.3937727 27.7506818 79.4251364 27.8720455 79.4251364 28.0465909 79.4251364 28.1352273 79.3596818 28.1925 79.3078636 28.2129545 79.2915 28.2606818 79.2437727 28.2975 79.1810455 28.3493182 79.0978636 28.3670455 79.0037727 28.3752273 78.9805909L28.7025 79.0228636C28.6888636 79.0637727 28.6506818 79.1769545 28.5784091 79.2915M30.0080455 77.0440909C29.9957727 77.04 29.9030455 77.0236364 29.8335 77.0236364 29.7966818 77.0236364 29.6835 77.0236364 29.6275909 77.1327273 29.5948636 77.1886364 29.5894091 77.2418182 29.5894091 77.3645455L29.5894091 77.6972727 29.9507727 77.6972727 29.9507727 77.9659091 29.5894091 77.9659091 29.5894091 79.6077273 29.2730455 79.6077273 29.2730455 77.9659091 28.9566818 77.9659091 28.9566818 77.6972727 29.2730455 77.6972727 29.2730455 77.5309091C29.2730455 77.2718182 29.2730455 77.1504545 29.3235 77.0277273 29.4244091 76.7672727 29.7012273 76.7631818 29.7762273 76.7631818 29.8157727 76.7631818 29.9030455 76.7672727 30.0121364 76.7890909L30.0080455 77.0440909zM31.7311364 79.4997273C31.5102273 79.6701818 31.2415909 79.6701818 31.1543182 79.6701818 31.0984091 79.6701818 30.9484091 79.6701818 30.7943182 79.6129091 30.5652273 79.5297273 30.2065909 79.2760909 30.2065909 78.6679091 30.2106818 78.0529091 30.5420455 77.7829091 30.7861364 77.6942727 30.9388636 77.637 31.0711364 77.637 31.1352273 77.637 31.6425 77.637 31.8729545 77.9124545 31.9629545 78.1074545 31.9902273 78.1660909 32.0025 78.2138182 32.0147727 78.2779091L31.6575 78.3106364C31.6479545 78.2779091 31.6343182 78.1756364 31.5784091 78.087 31.4420455 77.8810909 31.2156818 77.8729091 31.1379545 77.8729091 30.8475 77.8729091 30.5652273 78.0651818 30.5652273 78.6460909 30.5652273 78.9842727 30.6743182 79.1751818 30.7820455 79.2788182 30.8925 79.3824545 31.0179545 79.4151818 31.1625 79.4151818 31.2484091 79.4151818 31.3288636 79.4056364 31.4079545 79.3674545 31.6165909 79.2760909 31.6697727 79.0892727 31.7025 78.8860909L32.0502273 78.9188182C31.9984091 79.2392727 31.8320455 79.4151818 31.7311364 79.4997273" mask="url(#mask-4)"/>
    <polygon fill="#FFFFFF" points="32.51 79.608 32.913 79.608 32.913 79.15 32.51 79.15" mask="url(#mask-4)"/>
    <path fill="#FFFFFF" d="M34.818 78.1654091C34.7893636 78.1122273 34.7457273 78.0549545 34.7007273 78.0181364 34.563 77.9008636 34.413 77.8967727 34.353 77.8967727 33.738 77.8967727 33.7448182 78.5649545 33.7448182 78.6754091 33.7448182 78.7667727 33.7557273 78.8404091 33.7598182 78.8704091 33.7789091 79.0067727 33.8770909 79.4145 34.3325455 79.4090455 34.4225455 79.4090455 34.6393636 79.3872273 34.7866364 79.1704091 34.9066364 78.9890455 34.9161818 78.6917727 34.9161818 78.6495 34.9189091 78.5963182 34.9189091 78.3522273 34.818 78.1654091M35.0416364 79.3463182C34.9366364 79.4745 34.7307273 79.6695 34.3325455 79.6695 34.218 79.6695 33.9016364 79.6572273 33.6698182 79.4172273 33.5484545 79.2931364 33.3902727 79.0640455 33.3902727 78.6604091 33.3902727 78.4176818 33.4557273 78.1681364 33.6098182 77.9676818 33.7952727 77.7317727 34.0448182 77.6349545 34.3420909 77.6349545 34.473 77.6349545 34.6107273 77.6622273 34.7252727 77.7099545 34.9489091 77.8026818 35.2720909 78.0754091 35.2639091 78.6535909 35.2639091 78.7599545 35.2502727 79.0858636 35.0416364 79.3463182M36.4906364 78.0229091C36.2983636 78.0529091 36.1538182 78.1838182 36.1074545 78.3733636 36.0774545 78.4688182 36.0774545 78.537 36.0774545 78.7251818L36.0774545 79.6088182 35.7515455 79.6088182 35.7515455 77.6983636 36.0774545 77.6983636 36.0774545 78.0460909C36.1210909 77.9601818 36.1783636 77.8865455 36.2547273 77.8251818 36.3338182 77.7679091 36.4824545 77.6738182 36.732 77.6738182L36.732 78.0229091C36.6133636 78.0051818 36.5479091 78.0106364 36.4906364 78.0229091M38.4735 78.3345C38.3889545 78.0754091 38.1639545 77.9254091 37.9021364 77.9281364 37.8189545 77.9281364 37.7262273 77.9513182 37.6525909 77.9854091 37.4985 78.0645 37.3212273 78.2608636 37.3212273 78.6549545 37.3212273 78.8745 37.3730455 79.1172273 37.5598636 79.2645 37.6648636 79.3449545 37.7916818 79.3776818 37.9280455 79.3776818 38.1203182 79.3776818 38.2280455 79.3040455 38.2907727 79.2508636 38.4080455 79.1472273 38.5130455 78.9672273 38.5130455 78.6290455 38.5130455 78.5895 38.5089545 78.4517727 38.4735 78.3345M38.7939545 80.0035909C38.6889545 80.3567727 38.4121364 80.4576818 38.2812273 80.4931364 38.2185 80.5108636 38.1094091 80.5367727 37.9498636 80.5367727 37.8925909 80.5367727 37.7753182 80.5326818 37.6294091 80.4931364 37.1671364 80.3663182 37.1016818 80.0035909 37.0798636 79.8276818L37.4412273 79.8276818C37.4412273 79.8726818 37.4412273 79.9858636 37.5257727 80.0895 37.6621364 80.2776818 37.9048636 80.2722273 37.9716818 80.2722273 38.0153182 80.2722273 38.2948636 80.2776818 38.4203182 80.0772273 38.4953182 79.9613182 38.5048636 79.8249545 38.5021364 79.5535909L38.4994091 79.3313182C38.2785 79.6313182 38.0275909 79.6695 37.8748636 79.6695 37.6785 79.6695 37.5339545 79.6095 37.4725909 79.5740455 37.2639545 79.4663182 36.9885 79.2085909 36.9885 78.6617727 36.9885 78.5758636 36.9925909 78.2281364 37.1889545 77.9690455 37.3512273 77.7576818 37.5475909 77.6349545 37.8775909 77.6349545 37.9280455 77.6349545 38.0235 77.6445 38.1366818 77.6854091 38.2212273 77.7181364 38.3589545 77.7917727 38.5021364 77.9595L38.5021364 77.6976818 38.8403182 77.6976818 38.8403182 79.5058636C38.8403182 79.7676818 38.8375909 79.8631364 38.7939545 80.0035909" mask="url(#mask-4)"/>
    <polygon fill="#FFFFFF" points="40.898 48.42 40.898 48.648 41.304 48.648 41.304 49.841 41.588 49.841 41.588 48.648 41.997 48.648 41.997 48.42" mask="url(#mask-4)"/>
    <polygon fill="#FFFFFF" points="42.136 49.842 42.409 49.842 42.409 48.676 42.795 49.842 43.072 49.842 43.451 48.672 43.455 49.842 43.729 49.842 43.729 48.421 43.269 48.421 42.934 49.498 42.593 48.421 42.136 48.421" mask="url(#mask-4)"/>
  </g>
</svg>
