<svg xmlns="http://www.w3.org/2000/svg" width="90" height="85" viewBox="0 0 90 85">
  <g fill="#FFFFFF" fill-rule="evenodd">
    <path d="M84.2271864 42.6684661L55.2426102 71.6545678C54.5843898 72.3127881 53.7072712 72.675839 52.7714237 72.675839L25.5883729 72.675839C25.0498983 72.675839 24.5335424 72.8893983 24.1529492 73.2699915L17.6401525 79.7843136 4.89828814 67.0424492 20.5865085 51.3671949C22.075322 49.9332966 24.0278644 49.1446525 26.0841356 49.1446525L60.7379492 49.1370254C61.7737119 49.1370254 62.7507458 49.6114322 63.4249831 50.4366864 63.4562542 50.474822 63.4951525 50.5045678 63.5287119 50.541178 63.9840508 51.1467712 64.2296441 51.8621949 64.2296441 52.6271949 64.2296441 53.5599915 63.8673559 54.4363475 63.2076102 55.0968559 62.5493898 55.7550763 61.6737966 56.1188898 60.7425254 56.1188898L60.741 56.1188898 41.6243898 56.1188898C40.5039661 56.1188898 39.5948136 57.0272797 39.5948136 58.1477034 39.5948136 59.2673644 40.5039661 60.1765169 41.6243898 60.1765169L60.7394746 60.1765169 60.7448136 60.1765169C62.7598983 60.1765169 64.6529492 59.3916864 66.0784576 57.966178 67.5039661 56.5399068 68.2895593 54.6445678 68.2895593 52.6271949 68.2895593 51.5250763 68.0210847 50.4496525 67.5619322 49.461178L79.291678 37.7321949C80.6104068 36.4127034 82.9084576 36.4157542 84.2271864 37.7321949 84.8861695 38.3919407 85.2507458 39.269822 85.2507458 40.2026186 85.2507458 41.1346525 84.8869322 42.0087203 84.2271864 42.6684661M87.0965085 34.8628729C85.671 33.4373644 83.7741356 32.6510085 81.7582881 32.6510085 79.741678 32.6510085 77.8471017 33.4366017 76.4223559 34.8628729L64.9282881 46.3569407C64.3234576 45.951178 63.6637119 45.6377034 62.9665932 45.4226186 62.9368475 45.4134661 62.9055763 45.4050763 62.8750678 45.3974492 62.5852373 45.3120254 62.2893051 45.2449068 61.9895593 45.1945678 61.9148136 45.1823644 61.8415932 45.1686356 61.7683729 45.1579576 61.4304915 45.1114322 61.0872712 45.0809237 60.741 45.0809237L60.7394746 45.0809237 60.7379492 45.0809237 26.0841356 45.0862627C22.9737966 45.0862627 20.0221017 46.2783814 17.7454068 48.4696525L.594305085 65.6062627C.213711864 65.9860932.000152542372 66.5016864.000152542372 67.0416864.000152542372 67.5786356.212949153 68.0957542.594305085 68.4755847L16.2062542 84.089822C16.5860847 84.4704153 17.1024407 84.6839746 17.6401525 84.6839746 18.1786271 84.6839746 18.6957458 84.4704153 19.0755763 84.089822L26.4296441 76.7342288 52.7767627 76.7342288C54.7918475 76.7342288 56.6864237 75.950161 58.1111695 74.5238898L87.0965085 45.5393136C88.5235424 44.1138051 89.3083729 42.2192288 89.3083729 40.2010932 89.3083729 38.1837203 88.5235424 36.2876186 87.0965085 34.8628729M42.5815169 4.97600847C46.0007542 8.93905932 47.8602458 13.9256695 47.8602458 19.2227034 47.8602458 24.5189746 46.0007542 29.5040593 42.5807542 33.4678729 39.1607542 29.5040593 37.2997373 24.5174492 37.2997373 19.2204153 37.2997373 13.9226186 39.1622797 8.9375339 42.5815169 4.97600847M58.9188051 27.9885508C55.6917712 31.2155847 51.6478729 33.3069407 47.250839 34.0635508 50.1163475 29.9845678 51.7271949 25.1840593 51.8965169 20.1127881 55.5796525 16.6256695 60.2405847 14.5510932 65.2592288 14.1819407 64.8732966 19.4019407 62.6629576 24.2436356 58.9188051 27.9885508M42.5815169 38.4453305C42.6646525 38.4453305 42.7470254 38.4323644 42.8278729 38.4224492 42.8827881 38.4277881 42.9346525 38.4415169 42.9903305 38.4422797 43.1489746 38.4445678 43.3060932 38.4460932 43.4632119 38.4460932 50.3916864 38.4460932 56.8823644 35.7621102 61.7873644 30.8586356 66.8037203 25.8422797 69.4983814 19.1677881 69.3710085 12.0631271 69.351178 10.970161 68.4710085 10.0899915 67.3788051 10.0693983 61.6157542 9.94965254 56.1310932 11.7153305 51.5853305 15.0682119 50.7059237 9.56905932 48.0890593 4.52600847 43.9917712.569822034 43.2054153-.189076271 41.9606695-.189838983 41.1735508.56829661 36.0588051 5.50151695 33.2428729 12.1271949 33.2428729 19.2227034 33.2428729 26.3182119 36.0588051 32.9431271 41.1727881 37.8793983 41.564822 38.2569407 42.0735508 38.4453305 42.5815169 38.4453305"/>
  </g>
</svg>
