<svg xmlns="http://www.w3.org/2000/svg" width="54" height="54" viewBox="0 0 54 54">
  <g fill="#000066" fill-rule="evenodd" transform="translate(0 -.398)">
    <path d="M26.8042,50.8408 C22.9102,50.8408 19.2372,49.8888 15.9942,48.2148 L15.9942,16.1638 L47.7032,16.1638 C49.4512,19.4598 50.4462,23.2148 50.4462,27.1978 C50.4462,40.2348 39.8402,50.8408 26.8042,50.8408 L26.8042,50.8408 Z M14.1922,47.1818 C7.5692,42.9878 3.1592,35.6008 3.1592,27.1978 C3.1592,14.1628 13.7662,3.5578 26.8042,3.5578 C35.1102,3.5578 42.4232,7.8658 46.6412,14.3618 L14.1922,14.3618 L14.1922,47.1818 Z M26.8042,0.3988 C12.0242,0.3988 0.0002,12.4208 0.0002,27.1978 C0.0002,41.9768 12.0242,53.9998 26.8042,53.9998 C41.5822,53.9998 53.6052,41.9768 53.6052,27.1978 C53.6052,12.4208 41.5822,0.3988 26.8042,0.3988 L26.8042,0.3988 Z"/>
    <path d="M24.3306,24.0464 L24.3306,44.3134 L26.2586,44.3134 L26.2586,35.6264 L33.3256,35.6264 C34.2366,35.6264 35.0606,35.5044 35.7976,35.2594 C36.5346,34.9934 37.1676,34.6144 37.7016,34.1234 C38.2286,33.6114 38.6356,32.9964 38.9166,32.2784 C39.2066,31.5574 39.3466,30.7454 39.3466,29.8384 C39.3466,28.9294 39.2066,28.1144 38.9166,27.3954 C38.6356,26.6774 38.2286,26.0704 37.7016,25.5784 C37.1676,25.0684 36.5346,24.6884 35.7976,24.4434 C35.0606,24.1794 34.2366,24.0464 33.3256,24.0464 L24.3306,24.0464 Z M26.2586,33.9834 L26.2586,25.6934 L32.9006,25.6934 C34.2466,25.6934 35.3336,26.0324 36.1666,26.7144 C36.9986,27.3954 37.4146,28.4354 37.4146,29.8384 C37.4146,31.2364 36.9986,32.2784 36.1666,32.9574 C35.3336,33.6404 34.2466,33.9834 32.9006,33.9834 L26.2586,33.9834 Z"/>
  </g>
</svg>
