<svg xmlns="http://www.w3.org/2000/svg" width="52" height="52" viewBox="0 0 52 52">
  <path fill="#75B843" fill-rule="evenodd" d="M25.8081778,48.5755111 C25.0821037,48.5755111 24.3646963,48.5379556 23.6559556,48.4715111 L23.6559556,17.1665481 C23.6559556,16.5695111 24.1412889,16.0822519 24.737363,16.0822519 L46.3876593,16.0822519 C47.7878074,19.0337333 48.5745481,22.3299556 48.5745481,25.8072148 C48.5745481,38.3623259 38.361363,48.5755111 25.8081778,48.5755111 L25.8081778,48.5755111 Z M21.9206963,48.2365481 C21.4835111,48.1604741 21.0501778,48.0728444 20.6206963,47.9726963 L20.6206963,20.2018074 C20.6206963,19.6047704 21.1060296,19.1175111 21.7021037,19.1175111 L21.9206963,19.1175111 L21.9206963,48.2365481 Z M18.8864,47.4960296 C18.445363,47.3544741 18.0120296,47.1984741 17.5835111,47.0318815 L17.5835111,23.2399556 C17.5835111,22.6409926 18.0707704,22.1537333 18.6687704,22.1537333 L18.8864,22.1537333 L18.8864,47.4960296 Z M15.8492148,46.2769185 C15.481363,46.0968444 15.1202519,45.9061778 14.7649185,45.7078074 L14.7649185,26.0585481 C14.7649185,25.4605481 15.2512148,24.9742519 15.8492148,24.9732889 L15.8492148,46.2769185 Z M3.04180741,25.8072148 C3.04180741,13.2549926 13.2549926,3.04180741 25.8081778,3.04180741 C34.1840296,3.04180741 41.5141037,7.59180741 45.4670667,14.3479556 L24.737363,14.3479556 C23.1841037,14.3479556 21.9206963,15.6123259 21.9206963,17.1665481 L21.9206963,17.3822519 L21.7021037,17.3822519 C20.1498074,17.3822519 18.8864,18.6475852 18.8864,20.2018074 L18.8864,20.4184741 L18.6687704,20.4184741 C17.1145481,20.4184741 15.8501778,21.6828444 15.8492148,23.2380296 C14.2940296,23.2380296 13.0296593,24.503363 13.0296593,26.0585481 L13.0296593,44.6398815 C7.00632593,40.5395852 3.04180741,33.6284 3.04180741,25.8072148 L3.04180741,25.8072148 Z M25.8081778,-0.000192592593 C11.5775111,-0.000192592593 -0.000192592593,11.5775111 -0.000192592593,25.8072148 C-0.000192592593,40.0388444 11.5775111,51.6175111 25.8081778,51.6175111 C40.0388444,51.6175111 51.6165481,40.0388444 51.6165481,25.8072148 C51.6165481,11.5775111 40.0388444,-0.000192592593 25.8081778,-0.000192592593 L25.8081778,-0.000192592593 Z"/>
</svg>
