<?xml version="1.0" encoding="utf-8"?>
<!-- Generator: Adobe Illustrator 16.0.0, SVG Export Plug-In . SVG Version: 6.00 Build 0)  -->
<!DOCTYPE svg PUBLIC "-//W3C//DTD SVG 1.1//EN" "http://www.w3.org/Graphics/SVG/1.1/DTD/svg11.dtd">
<svg version="1.1" id="Layer_1" xmlns="http://www.w3.org/2000/svg" xmlns:xlink="http://www.w3.org/1999/xlink" x="0px" y="0px"
	 width="595.279px" height="841.891px" viewBox="0 0 595.279 841.891" enable-background="new 0 0 595.279 841.891"
	 xml:space="preserve">
<g>
	<path fill="#D31144" d="M297.656,679.367c-42.927,0-83.416-10.494-119.166-28.948V297.098h349.55
		c19.27,36.334,30.238,77.728,30.238,121.636C558.279,562.45,441.362,679.367,297.656,679.367L297.656,679.367z M158.625,639.031
		C85.615,592.798,37.001,511.366,37.001,418.734c0-143.694,116.928-260.601,260.655-260.601c91.562,0,172.179,47.49,218.677,119.1
		H158.625V639.031z M297.656,123.31c-162.931,0-295.479,132.527-295.479,295.424c0,162.919,132.549,295.458,295.479,295.458
		c162.908,0,295.446-132.538,295.446-295.458C593.103,255.836,460.565,123.31,297.656,123.31L297.656,123.31z"/>
</g>
<path fill="#D31144" d="M407.231,414.926h-24.979c-1.091-40.634-33.942-73.485-74.575-74.577v-20.891h-4.174v20.891
	c-40.633,1.091-73.483,33.942-74.575,74.577H203.95v4.173h24.979c1.091,40.632,33.942,73.484,74.575,74.575v20.891h4.174v-20.891
	c40.633-1.091,73.484-33.942,74.575-74.575h24.979V414.926z M378.076,414.926h-13.071c-1.08-31.132-26.195-56.249-57.328-57.33
	v-13.071C346.009,345.614,376.988,376.592,378.076,414.926z M303.503,414.926h-43.417c1.063-23.463,19.956-42.355,43.417-43.419
	V414.926z M303.503,419.099v43.417c-23.462-1.063-42.354-19.955-43.417-43.417H303.503z M307.677,419.099h43.418
	c-1.063,23.462-19.955,42.354-43.418,43.417V419.099z M307.677,414.926v-43.419c23.463,1.064,42.354,19.956,43.418,43.419H307.677z
	 M303.503,344.525v13.071c-31.131,1.081-56.247,26.197-57.328,57.33h-13.071C234.193,376.592,265.172,345.614,303.503,344.525z
	 M233.105,419.099h13.071c1.081,31.132,26.196,56.248,57.328,57.328v13.071C265.172,488.409,234.193,457.431,233.105,419.099z
	 M307.677,489.498v-13.071c31.133-1.08,56.248-26.195,57.328-57.328h13.071C376.988,457.431,346.009,488.409,307.677,489.498z"/>
</svg>
