<svg xmlns="http://www.w3.org/2000/svg" width="56" height="55" viewBox="0 0 56 55">
  <g fill="#FFFFFF" fill-rule="evenodd">
    <path d="M48.7183535 45.8539689C47.3219144 45.8539689 45.9935004 45.2398123 45.072809 44.1689091L44.5760977 43.5921697 45.2246889 43.1956344C47.4806396 41.8172228 49.0653241 39.5399407 49.5718755 36.9478387L49.7181936 36.1982065 50.4288202 36.4691579C52.2924503 37.1783625 53.5438548 39.0001882 53.5438548 41.0030783 53.5438548 43.6777559 51.3794598 45.8539689 48.7183535 45.8539689M40.3504149 42.4894404C36.3052766 42.4894404 33.0148315 39.1808225 33.0148315 35.1148309 33.0148315 31.0484092 36.3052766 27.7402214 40.3504149 27.7402214 44.3955532 27.7402214 47.6868539 31.0484092 47.6868539 35.1148309 47.6868539 39.1808225 44.3955532 42.4894404 40.3504149 42.4894404M55.6081374 41.0030783C55.6081374 37.760693 53.4155056 34.9858064 50.2773682 34.2555278L50.1905186 34.2477863 49.7164823 34.1802635 49.6458902 33.7045933C48.9635004 29.1216435 44.9671348 25.6655076 40.3504149 25.6655076 35.167675 25.6655076 30.9509767 29.9043921 30.9509767 35.1148309 30.9509767 39.7468099 34.2448444 43.6644234 38.7828436 44.4299687L39.3184875 44.5202858 39.3184875 53.6208128C39.3184875 54.1928214 39.7814002 54.6581697 40.3504149 54.6581697 40.9194296 54.6581697 41.3827701 54.1928214 41.3827701 53.6208128L41.3827701 44.5198557 41.9188418 44.4299687C42.0210933 44.4127654 42.1177831 44.3968524 42.2131893 44.3774987L42.648293 44.289762 42.883172 44.6678038C43.8556309 46.2302903 45.4279084 47.356244 47.1961322 47.7583703L47.7553068 47.8852444 47.6932714 48.457683C47.6889931 48.4959603 47.6868539 48.5346676 47.6868539 48.573805L47.6868539 53.6208128C47.6868539 54.1928214 48.1497666 54.6581697 48.7183535 54.6581697 49.2873682 54.6581697 49.7502809 54.1928214 49.7502809 53.6208128L49.7502809 48.573805C49.7502809 48.5346676 49.7481417 48.4968204 49.7438634 48.4589733L49.6814002 47.8856745 50.2410026 47.7592305C53.3509032 47.0543267 55.6081374 44.2132075 55.6081374 41.0030783M18.9904162 36.6000747L21.1154507 24.9917418 23.216099 36.6048056 18.9904162 36.6000747zM8.96463397 32.3951668L11.8999797 17.0864116 14.8361811 32.3951668 8.96463397 32.3951668zM35.5175121 54.5770563C35.9915484 54.2618065 36.1228924 53.6166841 35.8092926 53.1392935 32.7511595 48.4853803 28.2781906 44.9982785 22.5153124 42.7756167L22.0104723 42.5807897 22.1157187 42.0474885C22.1294092 41.9782454 22.1366824 41.9098624 22.1366824 41.8440599L22.1366824 38.6752186 24.4516737 38.6752186C24.7588561 38.6752186 25.0476417 38.5397428 25.244016 38.3027679 25.4408181 38.0657929 25.5221059 37.7561341 25.4669157 37.4524965L22.119997 18.9465146C22.006194 18.3185954 21.5210341 18.094953 21.104755 18.094953 20.6884758 18.094953 20.2028881 18.3185954 20.089513 18.9465146L17.3069028 34.3318243 17.3064749 34.3318243 16.7421664 37.4524965C16.6874041 37.7561341 16.7686919 38.0657929 16.9654939 38.3027679 17.1618682 38.5397428 17.4506538 38.6752186 17.7574084 38.6752186L20.0728276 38.6752186 20.0728276 41.9244852 19.2578103 41.6948216C17.4361076 41.1808741 15.4937567 40.7770274 13.4846642 40.4940337L12.9319071 40.4161889 12.9319071 34.4694504 16.0841629 34.4694504C16.1650229 34.4694504 16.2514447 34.456548 16.3554075 34.4277325L17.2769546 34.1744144 12.9130825 11.3654659C12.7945735 10.7452882 12.3119806 10.5242262 11.8999797 10.5242262 11.4879788 10.5242262 11.0053859 10.7452882 10.8868768 11.3654659L6.7026936 33.2364064C6.64450864 33.5413343 6.72408513 33.8535735 6.92045938 34.0926989 7.11726145 34.3322544 7.4073306 34.4694504 7.71579646 34.4694504L10.8680523 34.4694504 10.8680523 40.1908262 10.1775337 40.1383562C7.1403643 39.9056821 3.97912403 39.9031016.942810285 40.1680318.668143042 40.1921164.419145635 40.3220011.242023768 40.5336012.0649019015 40.7460615-.0198085566 41.0148626.00414995679 41.2905449.0524948142 41.8526615.55134529 42.2805928 1.12121564 42.2350041 2.60322083 42.1059796 4.11816897 42.0401771 5.62413267 42.0401771 18.9822874 42.0401771 28.8245303 46.2739006 34.0872744 54.2828805 34.3897506 54.7443581 35.0550272 54.8845647 35.5175121 54.5770563L35.5175121 54.5770563zM45.371777 13.8889268L35.3301651 13.8889268C32.2074296 13.8889268 29.6673993 11.3355322 29.6673993 8.19679654 29.6673993 5.05806089 32.2074296 2.50423624 35.3301651 2.50423624 38.2445471 2.50423624 40.7225419 4.78753955 40.9715393 7.7017726 40.977529 7.76628484 40.9830908 7.80327186 40.9993483 7.89143859 41.0284408 8.03035495 41.0763578 8.17099164 41.149089 8.32324053 41.1982895 8.4268902 41.2509127 8.520648 41.3061029 8.60236351 41.5016214 8.89309868 41.8139378 9.05954027 42.1626197 9.05954027 42.4727969 9.05954027 42.7534538 8.92750521 42.9528228 8.68794975 43.5539248 7.96584271 44.4356837 7.55167411 45.371777 7.55167411 47.1096249 7.55167411 48.523605 8.97309386 48.523605 10.7200854 48.523605 12.467507 47.1096249 13.8889268 45.371777 13.8889268M45.371777 5.47696038C44.9965696 5.47696038 44.62179 5.51738806 44.2577061 5.59738324 43.7297632 5.71264511 43.4824771 5.83908911 43.4799101 5.84037935L42.8355972 6.17455277 42.5767597 5.49545389C41.4592662 2.46552889 38.5474512.429952594 35.3301651.429952594 31.069828.429952594 27.6039723 3.91404378 27.6039723 8.19679654 27.6039723 12.4791192 31.069828 15.9632104 35.3301651 15.9632104L45.371777 15.9632104C48.2476543 15.9632104 50.587032 13.611094 50.587032 10.7200854 50.587032 7.82907676 48.2476543 5.47696038 45.371777 5.47696038"/>
  </g>
</svg>
