<?xml version="1.0" encoding="utf-8"?>
<!-- Generator: Adobe Illustrator 16.0.0, SVG Export Plug-In . SVG Version: 6.00 Build 0)  -->
<!DOCTYPE svg PUBLIC "-//W3C//DTD SVG 1.1//EN" "http://www.w3.org/Graphics/SVG/1.1/DTD/svg11.dtd">
<svg version="1.1" id="Layer_1" xmlns="http://www.w3.org/2000/svg" xmlns:xlink="http://www.w3.org/1999/xlink" x="0px" y="0px"
	 width="595.279px" height="841.891px" viewBox="0 0 595.279 841.891" enable-background="new 0 0 595.279 841.891"
	 xml:space="preserve">
<path fill="#D31144" d="M296.12,679.379c-46.261,0-90.06-15.432-129.107-34.4V287.845H520.22
	c19.77,39.667,35.854,84.335,35.854,131.58C556.074,582.703,416.744,679.379,296.12,679.379 M296.12,123.307
	c-163.279,0-296.118,132.839-296.118,296.118S132.841,715.542,296.12,715.542c163.277,0,296.117-132.839,296.117-296.117
	S459.398,123.307,296.12,123.307"/>
<path fill="#D31144" d="M351.783,417.785c0.533-21.35-7.711-41.487-23.215-56.728l-48.919-44.322
	c-2.263-2.047-5.32-3.175-8.608-3.175c-3.528,0-6.881,1.33-9.2,3.648l-44.382,44.112c-15.324,15.324-23.477,35.466-22.952,56.711
	c0.266,21.502,8.982,41.465,24.543,56.236c14.389,13.604,33.601,21.098,54.095,21.098c20.31,0,39.522-7.59,54.099-21.371
	C342.801,459.227,351.518,439.264,351.783,417.785z M316.995,463.377c-11.537,10.987-27.115,17.046-43.851,17.046
	c-16.439,0-32.01-6.052-43.844-17.041c-12.705-12.14-19.843-28.306-20.122-45.54c-0.279-17.377,6.368-33.747,18.716-46.095
	l42.743-42.744l47.487,42.744c12.35,12.349,18.996,28.719,18.716,46.095C336.841,435.23,329.793,451.413,316.995,463.377z"/>
<path fill="#D31144" d="M309.134,381.008l-34.095-30.848c-1.353-1.353-3.518-0.271-3.518,1.624v114.463
	c0,1.082,1.082,2.164,2.165,2.164c5.141,0,10.282-0.812,15.153-2.705C327.535,451.363,334.3,406.174,309.134,381.008z"/>
</svg>
