<svg xmlns="http://www.w3.org/2000/svg" width="52" height="52" viewBox="0 0 52 52">
  <path fill="#75B843" fill-rule="evenodd" d="M3.09861132,25.6080377 C3.09861132,13.196717 13.1964226,3.09988679 25.6077434,3.09988679 C33.5068377,3.09988679 40.4630642,7.19218868 44.4817811,13.3644906 L13.5771019,13.3644906 L13.5771019,44.6174717 C7.28608302,40.6223019 3.09861132,33.5973962 3.09861132,25.6080377 M47.8156679,29.2666792 C47.4163472,29.079283 46.9777811,28.9625283 46.5078189,28.9625283 C45.2735547,28.9625283 44.2041208,29.6777736 43.6654792,30.7275849 C43.1327245,29.6777736 42.0613283,28.9625283 40.8270642,28.9625283 C39.5957434,28.9625283 38.5253283,29.6777736 37.9906113,30.7275849 C37.4509887,29.6777736 36.3815547,28.9625283 35.1492528,28.9625283 C33.9149887,28.9625283 32.8445736,29.6777736 32.3078943,30.7275849 C31.7721962,29.6777736 30.7027623,28.9625283 29.4704604,28.9625283 C28.4716679,28.9625283 27.5847245,29.4275849 26.9970264,30.1624528 L26.9970264,21.8169434 C26.9970264,19.9959623 25.5616302,18.5193585 23.7926491,18.5193585 C22.0187623,18.5193585 20.5843472,19.9959623 20.5843472,21.8169434 L20.5843472,38.1204151 L20.0378566,38.1204151 C18.0137811,38.1204151 16.3694038,39.7608679 16.3694038,41.7859245 L16.3694038,46.1264528 C16.0063849,45.9616226 15.6482717,45.7889434 15.2960453,45.6064528 L15.2960453,15.083434 L45.4972528,15.083434 C47.1671396,18.2269811 48.1178566,21.8081132 48.1178566,25.6080377 C48.1178566,26.8540755 48.0109132,28.0755849 47.8156679,29.2666792 M25.6077434,-0.000490566038 C11.4872906,-0.000490566038 0.000196226415,11.4875849 0.000196226415,25.6080377 C0.000196226415,39.7294717 11.4872906,51.2175472 25.6077434,51.2175472 C39.7291774,51.2175472 51.2162717,39.7294717 51.2162717,25.6080377 C51.2162717,11.4875849 39.7291774,-0.000490566038 25.6077434,-0.000490566038"/>
</svg>
