<svg xmlns="http://www.w3.org/2000/svg" width="297" height="71" viewBox="0 0 297 71">
  <g fill="none" fill-rule="evenodd">
    <path fill="#A1A7A9" d="M176.457,29.6899 C176.446,29.7599 176.494,29.8199 176.565,29.8229 L183.889,30.1419 L183.629,31.7729 L174.209,31.7729 L177.312,12.3859 L179.225,12.3859 L176.457,29.6899 Z M200.015,25.0379 L202.039,12.3859 L203.953,12.3859 L201.921,25.0949 C201.58,27.2219 200.706,28.8789 199.314,30.0949 C197.835,31.4029 195.825,32.0779 193.241,32.0779 C190.807,32.0779 189.154,31.4699 188.175,30.3479 C187.203,29.2329 186.853,27.4599 187.26,24.9149 L189.265,12.3859 L191.179,12.3859 L189.205,24.7269 C188.96,26.2539 189.111,27.5509 189.722,28.5769 C190.472,29.8869 191.84,30.4909 193.685,30.4909 C197.296,30.4909 199.44,28.6389 200.015,25.0379 L200.015,25.0379 Z M206.983,17.0729 C207.204,15.6859 207.887,14.5389 209.051,13.6179 C210.208,12.7029 211.674,12.2339 213.48,12.2339 C215.064,12.2339 216.41,12.5159 217.53,13.0649 L217.22,14.8729 C216.003,14.1509 214.669,13.7899 213.225,13.7899 C212.17,13.7899 211.255,14.0059 210.5,14.4609 C209.656,14.9689 209.144,15.7129 208.991,16.6699 C208.774,18.0299 209.51,19.2249 210.944,20.2469 C212.231,21.1469 213.504,22.0229 214.795,22.9029 C216.023,24.0579 216.479,25.3999 216.223,26.9939 C215.983,28.4929 215.205,29.7089 213.861,30.6519 C212.53,31.5989 210.959,32.0779 209.136,32.0779 C207.219,32.0779 205.583,31.6149 204.212,30.7029 L205.284,29.2539 C206.448,30.1239 207.832,30.5529 209.416,30.5529 C210.478,30.5529 211.429,30.3159 212.265,29.8259 C213.276,29.2639 213.892,28.4539 214.061,27.3969 C214.287,25.9889 213.581,24.7509 212.163,23.6999 C210.915,22.8219 209.675,21.9589 208.408,21.0829 C207.19,19.9669 206.731,18.6499 206.983,17.0729 L206.983,17.0729 Z M230.319,12.3309 L227.195,29.6889 C227.147,29.9559 227.343,30.1899 227.615,30.1899 L234.649,30.1899 L234.364,31.7709 L224.945,31.7709 L228.445,12.3309 L230.319,12.3309 Z M249.522,26.4749 L241.669,26.4749 C241.534,26.4749 241.359,26.5789 241.295,26.6979 L238.553,31.7709 L236.826,31.7709 L247.801,12.2699 L248.96,12.2699 L253.033,31.7709 L250.977,31.7709 L249.939,26.8129 C249.9,26.6279 249.711,26.4749 249.522,26.4749 L249.522,26.4749 Z M247.688,15.4509 C247.537,15.4509 247.338,15.5439 247.266,15.7069 C246.991,16.3349 246.58,17.1549 246.033,18.1679 L242.677,24.3259 C242.511,24.6289 242.706,24.9559 243.051,24.9559 L249.025,24.9559 C249.293,24.9559 249.489,24.7249 249.445,24.4599 L248.424,18.3339 C248.253,17.2639 248.15,16.4369 248.114,15.8519 C248.1,15.6319 247.907,15.4509 247.688,15.4509 L247.688,15.4509 Z M255.527,30.7189 L256.61,29.2939 C257.765,30.1629 259.147,30.5909 260.735,30.5909 C261.806,30.5909 262.77,30.3519 263.622,29.8579 C264.652,29.2929 265.29,28.4759 265.483,27.4069 C265.74,25.9809 265.047,24.7249 263.635,23.6629 C262.405,22.7849 261.182,21.9249 259.932,21.0469 C258.75,19.9369 258.293,18.5999 258.574,17.0309 C258.824,15.6419 259.533,14.4899 260.72,13.5649 C261.897,12.6489 263.378,12.1779 265.189,12.1779 C266.768,12.1779 268.103,12.4569 269.208,12.9989 L268.868,14.7739 C267.661,14.0549 266.331,13.6969 264.885,13.6969 C263.822,13.6969 262.894,13.9129 262.124,14.3719 C261.263,14.8849 260.731,15.6349 260.557,16.6029 C260.308,17.9809 261.034,19.1939 262.461,20.2269 C263.734,21.1279 265.01,22.0209 266.286,22.9039 C267.47,24.0509 267.904,25.3959 267.619,26.9789 C267.349,28.4809 266.545,29.6999 265.176,30.6469 C263.821,31.5969 262.236,32.0779 260.407,32.0779 C258.496,32.0779 256.876,31.6199 255.527,30.7189 L255.527,30.7189 Z M283.026,12.3309 L282.16,13.9119 L275.67,13.9119 C275.475,13.9119 275.285,14.0709 275.251,14.2629 L274.12,20.5439 C274.072,20.8109 274.268,21.0449 274.54,21.0449 L280.711,21.0449 L280.433,22.5949 L274.108,22.5949 C273.911,22.5949 273.722,22.7529 273.688,22.9459 L272.474,29.6889 C272.426,29.9559 272.622,30.1899 272.893,30.1899 L280.081,30.1899 L279.797,31.7709 L270.225,31.7709 L273.724,12.3309 L283.026,12.3309 Z M289.446,23.3759 L287.318,23.3649 C287.122,23.3649 286.933,23.5229 286.898,23.7149 L285.448,31.7709 L283.573,31.7709 L287.073,12.3309 L291.336,12.3309 C293.625,12.3309 295.145,12.8649 296.023,13.8239 C296.782,14.6629 297.063,15.8279 296.78,17.4029 C296.554,18.6529 295.997,19.7349 295.098,20.6599 C294.29,21.4749 293.327,22.0869 292.197,22.4979 C292.075,22.5419 291.948,22.6939 291.924,22.8219 C291.895,22.9849 291.961,23.2069 292.133,23.3019 C292.275,23.3809 292.762,24.1369 293.597,25.9419 C293.864,26.5039 294.734,28.4479 296.204,31.7709 L293.936,31.7709 C292.427,28.3229 291.555,26.3729 291.317,25.9099 C290.661,24.5499 290.049,23.5149 289.446,23.3759 L289.446,23.3759 Z M288.6,14.2629 L287.309,21.4369 C287.26,21.7039 287.456,21.9389 287.728,21.9389 L289.729,21.9389 C290.92,21.9389 291.994,21.5419 292.935,20.7629 C293.896,19.9669 294.494,18.9989 294.699,17.8619 C295.171,15.2369 293.772,13.9119 290.928,13.9119 L289.019,13.9119 C288.823,13.9119 288.634,14.0709 288.6,14.2629 L288.6,14.2629 Z M170.437,22.6439 C168.992,23.9559 167.121,24.6249 164.79,24.6249 L163.349,24.6249 C163.303,24.6249 163.245,24.6729 163.236,24.7179 L161.851,31.8959 L159.928,31.8949 L163.03,12.4829 L167.166,12.4829 C169.246,12.4829 170.732,13.0299 171.699,14.0469 C172.655,15.0339 173.025,16.4469 172.718,18.3679 C172.441,20.1019 171.68,21.5219 170.437,22.6439 L170.437,22.6439 Z M163.346,22.9529 C163.334,23.0139 163.378,23.0759 163.439,23.0869 L165.347,23.0949 C168.371,23.0969 170.172,21.5379 170.653,18.5259 C170.859,17.2349 170.628,16.1429 169.884,15.3129 C169.154,14.4739 168.003,14.1039 166.533,14.1039 L165.031,14.1039 C164.984,14.1039 164.926,14.1509 164.918,14.1969 L163.346,22.9529 Z"/>
    <path fill="#B21C45" d="M73.7979,53.3608 C73.3649,53.9378 73.0149,54.5118 72.7459,55.0868 C72.4909,55.6688 72.3739,56.0748 72.3739,56.3218 C72.3739,56.3828 72.3849,56.4068 72.3909,56.4128 C72.4899,56.4218 72.6289,56.3688 72.8479,56.2228 C73.0779,56.0808 73.3289,55.8928 73.5989,55.6598 C73.8879,55.4068 74.1849,55.1188 74.4909,54.7938 C74.7959,54.4708 75.0739,54.1218 75.3259,53.7448 C75.6149,53.3108 75.8949,52.8488 76.1669,52.3608 C76.4009,51.9378 76.6159,51.5558 76.8099,51.2138 C76.2829,51.2498 75.7679,51.4478 75.2769,51.8288 C74.7219,52.2578 74.2279,52.7688 73.7979,53.3608 L73.7979,53.3608 Z M78.4189,56.1938 C77.9039,56.6178 77.3879,56.9588 76.8689,57.2178 C76.3659,57.4788 75.8929,57.6128 75.4509,57.6128 C75.0709,57.6128 74.7719,57.5178 74.5939,57.2958 C74.4289,57.0898 74.3499,56.8348 74.3499,56.5398 C74.3499,56.2658 74.4279,55.9128 74.5749,55.4898 C74.6189,55.3738 74.6679,55.2548 74.7219,55.1348 C74.3519,55.5478 74.0299,55.8698 73.6989,56.1638 C73.3669,56.4598 73.0319,56.7018 72.6959,56.8878 C72.3579,57.0758 72.0469,57.1758 71.7649,57.1758 C71.3179,57.1758 71.0739,56.9328 71.0739,56.4848 C71.0739,56.0388 71.2479,55.4908 71.5789,54.8478 C71.9119,54.1998 72.3549,53.5818 72.9079,52.9918 C73.4799,52.3828 74.1249,51.8678 74.8439,51.4428 C75.5479,51.0098 76.2809,50.7848 77.0429,50.7718 C77.1239,50.6188 77.2019,50.4998 77.2779,50.4238 C77.3579,50.3438 77.4509,50.2768 77.5369,50.2338 L78.3559,49.9988 L78.5969,50.1198 C78.3979,50.3198 78.3129,50.4288 78.2259,50.5678 L78.0839,50.8078 L78.3009,50.8258 C78.4879,50.8458 78.6389,50.8678 78.7329,50.8858 C78.8279,50.9238 78.9529,50.9998 78.9529,51.1348 C78.9529,51.2538 78.8729,51.3338 78.7539,51.3338 C78.6209,51.2958 78.4679,51.2688 78.2519,51.2518 C78.0799,51.2378 77.9419,51.2288 77.8389,51.2268 C77.0209,52.6678 76.4159,53.8178 76.0219,54.6778 C75.6399,55.5318 75.4589,56.1478 75.4589,56.5398 C75.4589,56.6868 75.4879,56.7938 75.5439,56.8788 C75.5999,56.9458 75.7219,56.9948 75.9689,56.9948 C76.2349,56.9948 76.5599,56.9048 76.9519,56.7088 C77.3449,56.4948 77.7639,56.2088 78.2149,55.8488 C78.6669,55.4688 79.1279,55.0348 79.5979,54.5468 C80.0859,54.0578 80.5449,53.5458 80.9789,53.0028 C81.0029,52.9678 81.0369,52.9338 81.0779,52.9148 C81.4679,52.2648 81.8589,51.5978 82.2489,50.9148 C82.8339,49.8898 83.4429,48.9708 84.0649,48.1658 C84.1549,48.0748 84.2789,48.0068 84.4199,47.9658 C84.4749,47.9438 84.5539,47.9258 84.6519,47.9088 L84.9789,47.8538 C85.0959,47.8338 85.2019,47.8258 85.2989,47.8258 C85.3609,47.8108 85.4289,47.7978 85.4629,47.7978 C85.5319,47.7978 85.6619,47.8278 85.6619,47.9698 C85.6619,48.0748 85.5949,48.1688 85.5179,48.2458 C84.7749,48.9518 84.1579,49.5958 83.6689,50.1748 C83.4559,50.4288 83.2449,50.6988 83.0349,50.9818 C83.1459,50.8808 83.2569,50.7838 83.3669,50.6918 C83.5919,50.5038 83.8139,50.3548 84.0419,50.2418 C84.2719,50.1078 84.4889,50.0358 84.6979,50.0358 C84.9049,50.0358 85.0799,50.0968 85.2149,50.2308 C85.3799,50.3728 85.4439,50.5928 85.4439,50.8638 C85.4439,51.0718 85.3529,51.3718 85.1899,51.7538 C85.0379,52.1518 84.7679,52.5878 84.3819,53.0658 C84.0109,53.5478 83.5129,54.0438 82.8899,54.5578 C82.4069,54.9558 81.8339,55.3298 81.1709,55.6798 C81.4679,55.6378 81.7799,55.5858 82.1099,55.5258 C82.7219,55.3998 83.3489,55.2028 83.9969,54.9318 C84.6439,54.6448 85.2899,54.2678 85.9389,53.7988 C86.2359,53.5758 86.5249,53.3258 86.8069,53.0458 C86.9179,52.8908 87.0339,52.7378 87.1569,52.5888 C87.3619,52.3388 87.5759,52.1098 87.7989,51.9028 C88.0459,51.6748 88.2909,51.4808 88.5459,51.3108 C89.0519,50.9548 89.5559,50.7718 90.0589,50.7718 C90.3179,50.7718 90.5309,50.8118 90.6569,50.9388 C90.7939,51.0528 90.8589,51.2018 90.8589,51.3808 C90.8589,51.6258 90.7789,51.8788 90.6269,52.1458 C90.4909,52.4178 90.2789,52.6728 89.9979,52.9178 C89.7129,53.1458 89.3429,53.3438 88.8979,53.5108 C88.4829,53.6558 87.9999,53.7298 87.4559,53.7358 C87.3789,53.8918 87.2909,54.1268 87.1959,54.4448 C87.0909,54.7798 87.0379,55.1228 87.0379,55.4748 C87.0379,56.1678 87.3329,56.4768 87.9299,56.4768 C88.3289,56.4768 88.7409,56.3818 89.1649,56.1868 C89.6129,55.9898 90.0419,55.7488 90.4549,55.4618 C90.8689,55.1558 91.2449,54.8328 91.5869,54.4918 L91.8489,54.2218 C92.0909,53.8058 92.3169,53.4108 92.5239,53.0408 C92.7959,52.5878 93.0239,52.1948 93.2059,51.8688 C93.4049,51.5228 93.5489,51.2738 93.6389,51.1088 C93.6769,51.0238 93.7139,50.9568 93.7539,50.9058 C93.7899,50.8598 93.8499,50.7988 93.9359,50.7988 C93.9859,50.7988 94.0419,50.8238 94.0839,50.8458 C94.1319,50.8688 94.1939,50.9048 94.2709,50.9528 C94.4489,51.0638 94.5449,51.2278 94.5449,51.4348 C94.5449,51.5248 94.4939,51.6358 94.4229,51.7608 C94.3659,51.8928 94.2949,52.0268 94.1999,52.1778 C94.1379,52.2878 94.0709,52.3928 93.9959,52.5018 C94.1229,52.3828 94.2589,52.2628 94.4069,52.1358 C94.6829,51.9148 94.9689,51.7128 95.2629,51.5278 C95.5609,51.3238 95.8469,51.1578 96.1259,51.0278 C96.4259,50.8968 96.6979,50.8258 96.9389,50.8258 C97.1249,50.8258 97.2809,50.8718 97.4149,50.9838 C97.5559,51.0638 97.6569,51.1708 97.6569,51.3258 C97.5229,51.5248 97.4089,51.6738 97.2829,51.8538 C97.1739,52.0358 97.1049,52.1668 97.0729,52.2478 C97.0259,52.3198 96.9569,52.3988 96.8569,52.3988 C96.7579,52.3988 96.6909,52.3258 96.6499,52.2648 C96.6289,52.2138 96.6029,52.1758 96.5399,52.1288 C96.4799,52.0558 96.4049,52.0008 96.2879,51.9508 C96.2019,51.9078 96.0729,51.8798 95.9009,51.8798 C95.6909,51.8798 95.4479,51.9528 95.1669,52.1108 C94.8829,52.2698 94.6349,52.4478 94.4239,52.6418 C94.0829,52.9468 93.7779,53.2698 93.5089,53.6088 C93.2569,53.9338 93.0139,54.2858 92.7789,54.6648 C92.5439,55.0258 92.3169,55.4078 92.0999,55.8058 C91.8809,56.1898 91.6419,56.5848 91.3859,56.9858 C91.3259,57.0778 91.2309,57.1218 91.1239,57.1218 C91.0649,57.1218 91.0079,57.0858 90.9699,57.0608 C90.9259,57.0318 90.8669,56.9848 90.7989,56.9268 C90.6959,56.8238 90.5969,56.7048 90.5969,56.5938 C90.5969,56.4508 90.6759,56.2628 90.8039,56.0448 L91.1469,55.4438 C90.8839,55.6598 90.6069,55.8668 90.3159,56.0638 C89.8179,56.3958 89.2899,56.6738 88.7369,56.8948 C88.1789,57.0998 87.6359,57.2028 87.1109,57.2028 C86.2039,57.2028 85.7099,56.7808 85.7099,55.9388 C85.7099,55.4098 85.8439,54.8458 86.1029,54.2528 C85.7539,54.4868 85.3679,54.7388 84.9719,54.9528 C83.8709,55.5398 82.7139,55.9718 81.5029,56.2478 C81.0829,56.3388 80.7159,56.4118 80.4059,56.4668 L79.5309,56.6208 C79.0139,57.4958 78.5239,58.3608 78.0599,59.2178 C77.5859,60.1098 77.1129,60.9928 76.6399,61.8668 C75.9489,63.1578 75.3219,64.3748 74.7579,65.5208 C74.1929,66.6698 73.5819,67.8088 72.9249,68.9398 C72.7869,69.1768 72.6009,69.3558 72.3609,69.4758 C72.1339,69.6078 71.8729,69.7188 71.5759,69.8118 C71.2829,69.9038 70.9429,69.9958 70.5579,70.0868 C70.1789,70.1768 69.7719,70.3008 69.3209,70.4628 C69.1889,70.5288 69.0109,70.5368 68.9689,70.3258 C68.9269,70.1568 69.0579,70.0668 69.1809,70.0258 C69.6479,69.8468 70.0429,69.6658 70.3669,69.4858 C70.6849,69.3268 70.9779,69.1328 71.2439,68.9018 C71.4919,68.6718 71.7309,68.3968 71.9639,68.0748 C72.1999,67.7488 72.4709,67.3418 72.7779,66.8528 C73.0879,66.3438 73.4689,65.7088 73.9239,64.9448 C74.3609,64.1988 74.8519,63.3698 75.3979,62.4598 C75.9439,61.5508 76.5169,60.5768 77.1169,59.5398 C77.6989,58.5528 78.2889,57.5578 78.8879,56.5538 C78.7999,56.4728 78.7659,56.3488 78.7659,56.2148 C78.7659,56.0458 78.8649,55.9338 79.0299,55.9068 C79.1269,55.8928 79.2089,55.8788 79.2729,55.8648 L79.9299,54.7928 C79.4349,55.3058 78.9319,55.7728 78.4189,56.1938 L78.4189,56.1938 Z M87.9029,53.2828 C88.4009,53.2828 88.8359,53.1138 89.2149,52.7688 C89.5939,52.4058 89.7779,51.9908 89.7779,51.5168 C89.7779,51.3448 89.7119,51.2798 89.5409,51.2798 C89.3909,51.2798 89.2229,51.3398 89.0359,51.4758 C88.8639,51.5968 88.6889,51.7618 88.5119,51.9748 C88.3329,52.1888 88.1629,52.4218 88.0009,52.6728 C87.8689,52.8788 87.7539,53.0788 87.6579,53.2728 L87.9029,53.2828 Z M83.8799,51.0908 C83.8239,51.0908 83.7109,51.1288 83.5289,51.2388 C83.3739,51.3248 83.1849,51.4588 82.9699,51.6388 C82.7579,51.7968 82.5339,52.0028 82.2999,52.2538 C82.0669,52.5048 81.8429,52.7838 81.6279,53.0878 C81.3209,53.5228 81.0219,53.9928 80.7329,54.4988 C80.4889,54.9098 80.2449,55.3348 80.0009,55.7708 C80.4859,55.6088 80.9459,55.3698 81.3819,55.0538 C81.9209,54.6768 82.3879,54.2618 82.7819,53.8148 C83.1959,53.3658 83.5169,52.9268 83.7489,52.5008 C83.9809,52.0538 84.0899,51.6918 84.0899,51.4098 C84.0899,51.3548 84.0729,51.2688 84.0389,51.1648 C84.0339,51.1398 84.0179,51.0908 83.8799,51.0908 L83.8799,51.0908 Z M68.2019,45.3138 C67.6069,45.3298 67.0389,45.3758 66.4789,45.4468 C65.9279,45.5208 65.3579,45.5578 64.7709,45.5578 C64.4259,45.5578 64.1349,45.4558 64.1349,45.1398 C64.1349,45.0768 64.1739,44.9588 64.2249,44.8218 C64.2629,44.7368 64.3029,44.6628 64.3439,44.6108 C64.3789,44.5648 64.4389,44.5028 64.5249,44.5028 C64.5909,44.5028 64.6379,44.5378 64.6669,44.5788 C64.6959,44.6178 64.7119,44.6668 64.7219,44.7048 C64.7229,44.7118 64.7519,44.7678 64.9579,44.8058 C65.1169,44.8408 65.3089,44.8678 65.5399,44.8858 L66.2179,44.8858 C66.7609,44.8858 67.3139,44.8678 67.8749,44.8318 C68.4379,44.7948 68.9639,44.7498 69.4539,44.6948 C69.9629,44.6408 70.4099,44.5948 70.7929,44.5578 C71.1979,44.5218 71.5109,44.5028 71.7319,44.5028 C72.1389,44.5028 72.5469,44.5398 72.9539,44.6148 C73.3849,44.6888 73.7689,44.8288 74.1109,45.0368 C74.4739,45.2288 74.7579,45.4938 74.9689,45.8398 C75.2059,46.1738 75.3169,46.5858 75.3169,47.0778 C75.3169,47.5758 75.1639,48.0938 74.8659,48.6348 C74.5849,49.1778 74.1749,49.6888 73.6389,50.1688 C73.0989,50.6338 72.4399,51.0238 71.6659,51.3368 C70.9039,51.6338 70.0329,51.7818 69.0569,51.7818 C68.5909,51.7818 68.1779,51.7168 67.8169,51.5838 C67.7169,51.5508 67.6559,51.4718 67.6559,51.3638 C67.6559,51.2268 67.7449,51.1368 67.8829,51.1368 C68.0029,51.1768 68.1549,51.2108 68.3919,51.2468 C68.6399,51.2828 68.8709,51.3008 69.0839,51.3008 C69.7599,51.3008 70.3799,51.1668 70.9459,50.9018 C71.5339,50.6348 72.0319,50.2878 72.4389,49.8628 C72.8659,49.4358 73.1959,48.9538 73.4269,48.4228 C73.6749,47.8898 73.7979,47.3598 73.7979,46.8318 C73.7979,46.0908 73.5689,45.6208 73.1459,45.3778 C72.7139,45.1168 72.1799,44.9848 71.5409,44.9848 C71.0929,44.9848 70.6969,45.0278 70.3439,45.1168 C70.1399,45.1798 69.9819,45.3138 69.8679,45.5258 C69.5049,46.1078 69.0849,46.8108 68.6119,47.6278 L67.1659,50.1388 C66.6749,50.9948 66.2019,51.8308 65.7469,52.6498 C65.2929,53.4668 64.9119,54.1758 64.6029,54.7748 C64.4049,55.1698 64.3149,55.4768 64.3149,55.7048 C64.3149,56.0088 64.4359,56.2108 64.6839,56.3348 C64.9529,56.4528 65.3669,56.5148 65.9439,56.5148 C66.0469,56.5148 66.1349,56.5218 66.2009,56.5398 C66.2499,56.5528 66.3619,56.5948 66.3619,56.7138 C66.3619,56.8618 66.2279,56.9198 66.1289,56.9388 C65.7989,56.9948 65.4219,57.0398 64.9989,57.0778 C64.5959,57.1128 64.1919,57.1328 63.7879,57.1328 C63.6929,57.1328 63.5699,57.1228 63.4189,57.1038 C63.2629,57.0838 63.1149,57.0478 62.9619,56.9908 C62.8039,56.9508 62.6659,56.8898 62.5439,56.8078 C62.4069,56.6948 62.3329,56.5388 62.3329,56.3598 C62.3329,56.2258 62.3869,56.0408 62.4789,55.8208 C62.7349,55.2538 63.0749,54.6118 63.4959,53.8978 C63.9139,53.1878 64.3149,52.5138 64.6969,51.8768 C65.1519,51.1128 65.6429,50.2688 66.1699,49.3408 C66.6969,48.3948 67.1639,47.5448 67.5639,46.7988 C67.5989,46.7468 67.6539,46.6458 67.7229,46.5058 C67.7949,46.3628 67.8669,46.2098 67.9389,46.0478 C68.0109,45.8858 68.0729,45.7358 68.1269,45.5918 C68.1779,45.4388 68.1979,45.3518 68.2019,45.3138 L68.2019,45.3138 Z M6.2549,31.6688 L0.2959,31.6688 C0.5159,25.9618 0.6669,19.2398 0.6669,13.4778 C0.6669,7.2388 0.6159,6.1628 0.2999,0.1388 L6.2539,0.1388 C5.8889,6.2068 5.8579,7.2368 5.8269,13.4768 C5.8009,18.4998 5.9349,25.9198 6.2549,31.6688 L6.2549,31.6688 Z M18.7379,0.1388 C24.4409,7.6218 34.4919,22.1888 34.4919,22.1888 C34.5879,22.3268 34.7479,22.2828 34.7529,22.1158 C34.9609,14.6178 34.3589,2.0148 34.2669,0.1388 L40.1929,0.1388 C40.1519,1.6958 39.9179,10.7618 39.9179,16.5298 C39.9179,21.8378 40.3119,30.1668 40.3849,31.6688 L34.6489,31.6688 C29.1199,23.5638 17.9649,8.0978 17.9649,8.0978 C17.8679,7.9638 17.7149,8.0058 17.7059,8.1698 C17.2369,17.2448 17.2859,24.0868 17.7799,31.6688 L12.3109,31.6688 C12.5309,26.0338 12.6709,22.2078 12.6709,16.4358 C12.6709,10.6718 12.3649,1.6938 12.3109,0.1388 L18.7379,0.1388 Z M66.1209,22.9218 C66.1059,22.8838 66.0299,22.8318 65.9869,22.8318 L52.8479,22.8318 C52.8139,22.8318 52.7359,22.8788 52.7209,22.9078 C51.0949,26.0558 49.3959,29.2958 48.2249,31.6688 L43.0939,31.6688 C46.5889,25.0258 53.6579,9.6188 57.4289,0.1388 L62.9579,0.1388 C66.4569,10.1108 71.3879,22.3858 75.9309,31.6688 L69.3959,31.6688 C68.2469,28.7568 67.1359,25.5918 66.1209,22.9218 L66.1209,22.9218 Z M54.2139,18.1698 C54.1659,18.2758 54.2239,18.3618 54.3439,18.3618 L63.7639,18.3618 C63.8739,18.3618 63.9339,18.2828 63.8989,18.1818 L59.8759,6.2578 C59.8259,6.1068 59.6759,6.0998 59.6099,6.2448 L54.2139,18.1698 Z M122.4059,17.0668 C119.1979,17.0288 115.2569,17.0578 111.4309,17.0678 C111.3559,17.0688 111.2889,17.1328 111.2889,17.2058 L111.2889,27.1128 C111.2889,27.1708 111.3499,27.2388 111.4089,27.2478 C113.9339,27.6228 122.7499,27.3478 124.7109,27.2568 L124.7109,31.6258 L106.3639,31.6258 C106.4129,29.7738 106.6369,21.0388 106.6369,15.8298 C106.6369,9.6218 106.5939,6.3048 106.3799,0.3318 L124.7109,0.3318 L124.7109,4.3758 C121.8899,4.2468 115.7359,4.3838 111.4309,4.3828 C111.3609,4.3828 111.2929,4.4448 111.2889,4.5128 C111.0749,8.1198 111.2949,9.8238 111.2889,12.5218 C111.2889,12.5838 111.3509,12.6518 111.4159,12.6578 C113.7359,12.8968 120.6839,12.7498 122.4059,12.6668 L122.4059,17.0668 Z M137.8349,15.5208 C137.8349,11.6508 137.6809,9.0908 137.6809,4.5208 C137.6809,4.4508 137.6159,4.3858 137.5439,4.3828 C137.5439,4.3828 135.7639,4.3208 133.7449,4.2898 C131.8229,4.2598 129.6839,4.2578 128.6469,4.3628 L128.5929,0.3318 L153.0489,0.3318 L153.0499,4.3678 C150.1889,4.1438 143.9469,4.3828 143.9469,4.3828 C143.8829,4.3858 143.8159,4.4478 143.8099,4.5098 C143.4529,8.8948 143.4449,11.5498 143.4449,15.5208 C143.4449,21.7578 143.4879,25.5818 143.7479,31.6258 L137.4879,31.6258 C137.7909,25.5838 137.8349,21.7578 137.8349,15.5208 L137.8349,15.5208 Z M100.0289,1.6038 L98.4549,5.4218 C96.6109,4.5548 94.1379,3.9048 91.3499,3.9048 C87.3009,3.9048 85.2809,5.5098 85.2809,7.7178 C85.2809,9.7108 86.2249,11.0548 90.4959,12.7888 L93.7339,14.1758 C98.6799,16.2128 100.7939,18.8588 100.7939,23.1068 C100.7939,28.4388 95.5779,32.0818 88.9669,32.0818 C84.9659,32.0818 81.4119,31.3868 78.4439,30.0438 L80.0649,26.1838 C82.6269,27.4398 85.5949,28.1778 88.6969,28.1778 C92.6569,28.1778 94.9009,26.3118 94.9009,24.0178 C94.9009,21.5908 93.8229,20.1608 89.8209,18.5558 L85.9989,16.9958 C81.6369,15.0878 79.4779,12.3568 79.4779,8.4548 C79.4779,3.9028 84.1539,-0.0002 91.0349,-0.0002 C94.7689,-0.0002 97.4649,0.4338 100.0289,1.6038 L100.0289,1.6038 Z M18.5739,40.0668 C18.0679,39.5908 17.2609,39.3618 16.1669,39.3618 C15.0079,39.3618 14.0609,39.7098 13.3309,40.4098 C12.5989,41.0828 12.2359,41.9888 12.2359,43.1208 C12.2359,43.9908 12.4389,44.8028 12.8449,45.5558 C13.2469,46.3028 13.6929,46.9918 14.1809,47.6248 C14.5509,48.1088 14.8529,48.5248 15.0809,48.8678 C15.3359,49.1788 15.5349,49.4788 15.6759,49.7588 C15.8149,50.0118 15.9139,50.2638 15.9689,50.5138 C16.0239,50.7358 16.0529,51.0158 16.0529,51.3558 C16.0529,51.9438 15.9129,52.5218 15.6309,53.0838 C15.3769,53.6478 15.0239,54.1718 14.5709,54.6528 C11.9909,57.3718 9.1949,57.8348 7.6919,57.8518 C5.0399,57.8798 3.4709,57.2968 1.7219,55.7008 C0.8769,54.9288 0.4029,53.9168 0.1819,53.0698 C-0.0391,52.1998 -0.0591,51.3368 0.1229,50.4798 C0.2919,49.6088 0.5829,49.3788 0.4509,50.1698 C0.3189,50.9348 0.3649,51.6948 0.5889,52.4458 C0.7069,52.8118 0.8409,53.2558 1.0679,53.7298 C1.2959,54.2058 1.6179,54.7138 2.1089,55.2058 C2.9789,56.0758 4.3829,56.8258 6.0659,57.1698 C7.8849,57.5408 9.7969,57.2468 10.8189,56.7918 C11.8169,56.3488 12.6509,55.8598 13.2619,55.1328 C13.9019,54.3768 14.2219,53.4878 14.2219,52.4708 C14.2219,51.9728 14.1049,51.4778 13.8729,50.9838 C13.6399,50.4598 13.1939,49.7848 12.5339,48.9528 C11.9659,48.2128 11.5249,47.5598 11.2119,46.9908 C10.9309,46.4298 10.7909,45.7858 10.7909,45.0508 C10.7909,44.3178 10.9459,43.5848 11.2569,42.8498 C11.5979,42.1118 12.0079,41.4598 12.4889,40.8938 C12.6589,40.6968 12.8849,40.4698 13.1689,40.2148 C13.4799,39.9318 13.8319,39.6788 14.2279,39.4518 C14.6539,39.2248 15.1349,39.0278 15.6729,38.8568 C16.2379,38.6878 16.8589,38.6028 17.5399,38.6028 C17.9899,38.6028 18.4269,38.6738 18.8479,38.8138 C19.2619,38.9248 19.6409,39.1618 19.9769,39.5258 C20.0989,39.6998 20.1609,39.8688 20.1699,40.0328 L19.7449,41.1688 C19.6149,41.5858 19.5099,41.9408 19.4279,42.2388 C19.3409,42.2908 19.3059,42.2798 19.2809,42.2568 C19.3039,42.1418 19.3239,42.0478 19.3389,41.9558 C19.3579,41.8268 19.3689,41.7088 19.3689,41.5778 C19.3689,41.0358 19.0979,40.5328 18.5739,40.0668 L18.5739,40.0668 Z M39.9299,48.1948 C39.6469,48.1948 39.4849,48.0328 39.4849,47.7498 C39.4849,47.4838 39.5789,47.2298 39.7559,46.9948 C39.9569,46.7528 40.2089,46.6218 40.5029,46.6218 C40.8049,46.6218 40.9759,46.7928 40.9759,47.0948 C40.9759,47.3518 40.8589,47.5958 40.6469,47.8278 C40.4469,48.0658 40.2089,48.1948 39.9299,48.1948 L39.9299,48.1948 Z M54.7369,55.9278 C54.2389,56.2598 53.7109,56.5378 53.1569,56.7588 C52.5999,56.9638 52.0569,57.0668 51.5319,57.0668 C50.6249,57.0668 50.1309,56.6448 50.1309,55.8028 C50.1309,55.7038 50.1359,55.6028 50.1449,55.5008 C49.8029,55.8598 49.4349,56.1998 49.0409,56.5228 C48.6339,56.8548 48.2089,57.1328 47.7639,57.3548 C47.3309,57.5798 46.9039,57.6948 46.4819,57.6948 C46.1089,57.6948 45.8129,57.6208 45.6339,57.4418 C45.4579,57.2648 45.3809,57.0018 45.3809,56.6768 C45.3809,56.4488 45.4919,56.0988 45.6929,55.6448 C45.9109,55.1888 46.1489,54.7128 46.4049,54.2198 C46.6579,53.7308 46.8849,53.2678 47.0849,52.8318 C47.3049,52.3738 47.4019,52.0778 47.4019,51.9268 C47.1999,51.9968 46.9379,52.1808 46.6379,52.4278 C46.3499,52.6618 46.0609,52.9228 45.7729,53.2108 C45.4829,53.5018 45.2119,53.7808 44.9579,54.0528 C44.7249,54.3218 44.5469,54.5448 44.4209,54.7238 C44.2969,54.9018 44.1729,55.1158 44.0479,55.3638 C43.9199,55.6198 43.7939,55.8638 43.6659,56.1008 C43.5539,56.3438 43.4349,56.5458 43.3009,56.7188 C43.1929,56.8808 43.0639,57.0128 42.9059,57.0128 C42.7689,57.0128 42.6559,56.9418 42.5679,56.8318 C42.4829,56.7258 42.4329,56.6098 42.4329,56.4858 C42.4329,56.4038 42.4699,56.2948 42.5229,56.1688 C42.5839,56.0098 42.6889,55.8288 42.8379,55.6248 C43.0709,55.3028 43.2779,54.9598 43.4569,54.6018 C43.6549,54.2418 43.8189,53.9048 43.9449,53.5998 C44.0879,53.2948 44.1969,53.0318 44.2679,52.8178 C44.3449,52.5878 44.3709,52.4838 44.3709,52.4728 C44.3709,52.4358 44.3689,52.4098 44.3649,52.3918 C44.2799,52.3988 44.1329,52.4818 43.8829,52.6978 C43.6309,52.9148 43.3519,53.1848 43.0459,53.5088 C42.7379,53.8348 42.4299,54.1798 42.1219,54.5418 C41.8149,54.9028 41.5719,55.2278 41.3939,55.5118 C41.1399,55.8928 40.9209,56.2308 40.7399,56.5208 C40.5729,56.7868 40.4009,57.0128 40.2299,57.0128 C40.0379,57.0128 39.8949,56.9118 39.8419,56.7278 C39.8239,56.5958 39.8119,56.4548 39.8119,56.3218 C39.8119,56.1568 39.8499,56.0158 39.9439,55.8988 C40.1179,55.6208 40.2909,55.3408 40.4629,55.0598 C39.9719,55.4898 39.5159,55.8438 39.0929,56.1208 C38.7219,56.3618 38.3399,56.5488 37.9469,56.6788 C37.5559,56.8098 37.1979,56.8758 36.8729,56.8758 C36.7599,56.8758 36.6269,56.8668 36.4759,56.8478 C36.3149,56.8278 36.1599,56.7748 36.0189,56.6948 C35.8989,56.6148 35.7819,56.5058 35.6849,56.3888 C35.5989,56.2388 35.5539,56.0448 35.5539,55.8308 C35.5539,55.5688 35.6529,55.2318 35.8369,54.8268 C35.5339,55.0788 35.1839,55.3738 34.8149,55.6508 C34.3169,56.0388 33.7899,56.3618 33.2359,56.6208 C32.6759,56.8628 32.1129,56.9848 31.5499,56.9848 C31.0609,56.9848 30.6749,56.8698 30.4259,56.6208 C30.2069,56.3608 30.0939,56.0478 30.0939,55.6938 C30.0939,55.3408 30.2399,54.8558 30.5139,54.2528 C30.7399,53.7738 30.9929,53.2778 31.2719,52.7668 C31.0019,52.8808 30.7419,52.9758 30.4919,53.0498 C30.0089,53.1978 29.5519,53.2728 29.1199,53.2728 C28.7569,53.2728 28.4159,53.1938 28.1079,53.0398 C27.9309,52.9338 27.7759,52.8178 27.6469,52.6938 C27.6169,53.2818 27.4989,53.8218 27.2909,54.3188 C27.0679,54.8918 26.7899,55.3848 26.4539,55.7958 C26.1189,56.2058 25.7509,56.5258 25.3549,56.7528 C24.9619,56.9588 24.5949,57.0668 24.2609,57.0668 C23.9429,57.0668 23.6659,56.9648 23.4419,56.7618 C23.2299,56.5488 23.1329,56.2288 23.1329,55.8308 C23.1329,55.6178 23.1649,55.3768 23.2279,55.1068 C22.8459,55.5258 22.4419,55.9148 22.0169,56.2748 C21.5379,56.6798 21.0589,57.0108 20.5779,57.2708 C20.0919,57.5508 19.6279,57.6948 19.1829,57.6948 C18.8529,57.6948 18.5739,57.6048 18.3649,57.4168 C18.1709,57.2218 18.0829,56.9298 18.0829,56.5678 C18.0829,56.3978 18.1029,56.2048 18.1399,55.9968 L18.1639,55.9078 C18.0409,56.0588 17.8979,56.2058 17.7329,56.3558 C17.5609,56.5088 17.3589,56.6428 17.1319,56.7558 C16.9139,56.8548 16.6679,56.9038 16.3989,56.9038 C16.1759,56.9038 15.9799,56.8388 15.8279,56.7088 C15.6699,56.5508 15.5989,56.3218 15.5989,56.0488 C15.5989,55.9068 15.6299,55.7198 15.6849,55.4988 C15.7589,55.2588 15.8799,54.9498 16.0469,54.5798 C16.2289,54.1958 16.4679,53.7298 16.7599,53.1808 C17.0689,52.6168 17.4599,51.9268 17.9329,51.1058 C18.0159,50.9418 18.1259,50.7718 18.2819,50.7718 C18.4639,50.7718 18.6159,50.8828 18.7519,51.0568 C18.8849,51.1888 19.0009,51.3218 19.0009,51.4358 C19.0009,51.5328 18.9199,51.6748 18.8169,51.8288 C18.5269,52.2628 18.2549,52.6978 18.0019,53.1328 C17.7479,53.5678 17.5219,53.9738 17.3229,54.3548 C17.1419,54.7348 16.9899,55.0738 16.8629,55.3818 C16.7549,55.6698 16.7069,55.8788 16.7069,56.0208 C16.7069,56.2648 16.7849,56.3138 16.8899,56.3138 C17.0239,56.3138 17.2399,56.2068 17.5489,55.9338 C17.8649,55.6528 18.2379,55.1848 18.6729,54.5138 C18.8369,54.2238 18.9989,53.9258 19.1619,53.6178 L19.6809,52.6888 C19.8449,52.3978 19.9919,52.1318 20.1189,51.8948 L20.4779,51.3158 C20.5599,51.1998 20.6689,51.0718 20.7939,51.0718 C20.9449,51.0718 21.0559,51.2228 21.1409,51.3758 C21.2469,51.5448 21.2939,51.7468 21.2939,51.9818 C21.2939,52.1468 21.2499,52.3078 21.1669,52.4528 C20.9469,52.7828 20.7069,53.1148 20.4499,53.4448 C20.2159,53.7518 19.9919,54.0748 19.7759,54.4168 C19.5779,54.7578 19.4089,55.1138 19.2659,55.4898 C19.1259,55.8578 19.0549,56.2618 19.0549,56.7048 C19.0549,57.0438 19.1979,57.1868 19.5109,57.1868 C19.7179,57.1868 19.9999,57.0968 20.3579,56.8988 C20.7299,56.7228 21.1249,56.4628 21.5379,56.1218 C21.9509,55.7808 22.3749,55.3658 22.8089,54.8778 C23.0769,54.5878 23.3389,54.2828 23.5939,53.9618 C23.6579,53.7948 23.7259,53.6288 23.7989,53.4618 C23.9989,53.0248 24.1919,52.6118 24.3739,52.2288 C24.5749,51.8448 24.7489,51.5248 24.8949,51.2688 C25.3869,50.3758 25.9149,49.4568 26.4799,48.5098 C27.0449,47.5428 27.6379,46.5948 28.2579,45.6638 C28.8969,44.7338 29.5639,43.8378 30.2569,42.9808 C30.9699,42.1038 31.7199,41.2978 32.5069,40.5658 C32.7269,40.3648 33.0019,40.1258 33.3319,39.8518 C33.6809,39.5758 34.0479,39.3178 34.4339,39.0798 C34.8229,38.8208 35.2099,38.6088 35.5989,38.4418 C36.0089,38.2738 36.3899,38.1868 36.7359,38.1868 C37.0849,38.1868 37.3639,38.2808 37.5559,38.4948 C37.7649,38.6828 37.8639,38.9188 37.8639,39.2058 C37.8639,39.4768 37.8549,39.6698 37.8339,39.7748 C37.8119,39.8878 37.6919,40.0548 37.5269,39.8888 C37.4429,39.8058 37.3169,39.7058 37.1559,39.5988 C37.0449,39.5008 36.8129,39.4318 36.4359,39.4318 C36.1139,39.4318 35.8189,39.4498 35.5509,39.4858 C35.2859,39.5208 35.0139,39.5918 34.7309,39.6968 C34.4669,39.8038 34.1819,39.9548 33.8769,40.1518 C33.5759,40.3298 33.2329,40.5818 32.8539,40.9068 C32.3179,41.3528 31.7329,42.0178 31.0989,42.9058 C30.4639,43.7768 29.8189,44.7388 29.1659,45.7918 C28.5299,46.8268 27.9209,47.8898 27.3399,48.9798 C26.7579,50.0528 26.2489,51.0168 25.8129,51.8708 C25.6669,52.1608 25.5049,52.5038 25.3239,52.9028 C25.1609,53.2818 25.0079,53.6698 24.8629,54.0678 C24.7369,54.4478 24.6279,54.8078 24.5379,55.1518 C24.4469,55.4768 24.4059,55.7108 24.4059,55.8578 C24.4059,56.3308 24.5549,56.4768 24.7789,56.4768 C24.9249,56.4768 25.1179,56.4038 25.3659,56.2268 C25.6259,56.0368 25.8699,55.7758 26.1009,55.4368 C26.3309,55.0838 26.5259,54.6588 26.6869,54.1578 C26.8469,53.6428 26.9279,53.0638 26.9279,52.4178 C26.9279,52.2048 26.9079,52.0358 26.8759,51.9228 C26.8579,51.7828 26.8309,51.6668 26.7999,51.5878 C26.7909,51.3948 26.8659,51.2568 26.9889,51.1338 C27.0639,51.0598 27.1539,50.9778 27.2659,50.8848 C27.3789,50.7708 27.4829,50.6868 27.5849,50.6248 C27.7199,50.6068 27.8129,50.6328 27.8599,50.7278 C27.8729,51.1308 27.9319,51.4168 28.0489,51.6518 C28.1879,51.8778 28.3459,52.0598 28.5349,52.2148 C28.7439,52.3538 28.9559,52.4548 29.1809,52.5238 C29.4269,52.5948 29.6519,52.6278 29.8569,52.6278 C30.1549,52.6278 30.4789,52.5848 30.8359,52.4958 C31.0869,52.4208 31.3419,52.3138 31.6029,52.1758 C31.9619,51.5478 32.3199,50.9528 32.6789,50.3898 C33.0599,49.7908 33.3409,49.3368 33.5229,49.0288 L34.4769,47.3908 C34.8059,46.8088 35.1329,46.2438 35.4609,45.6968 C35.7899,45.1508 36.1079,44.6318 36.4179,44.1398 C36.7279,43.6288 37.0099,43.1828 37.2659,42.7988 C37.5769,42.3228 37.8969,41.8748 38.2269,41.4528 C38.5609,41.0268 38.9849,40.6028 39.4999,40.1798 C40.1959,39.5938 40.8389,39.1438 41.4309,38.8288 C42.0059,38.5228 42.4249,38.3508 42.6599,38.3508 C42.8319,38.3508 42.9769,38.4018 43.0929,38.5178 C43.2219,38.6208 43.2689,38.7758 43.2689,38.9598 C43.2689,39.2388 43.1609,39.6298 42.9599,40.1238 C42.7579,40.6198 42.4649,41.1968 42.0799,41.8578 C41.7129,42.4988 41.2569,43.1928 40.7079,43.9428 C40.1769,44.6748 39.5649,45.4058 38.8689,46.1378 C38.1919,46.8698 37.4419,47.5748 36.6189,48.2508 C35.8029,48.9028 34.9329,49.4848 34.0099,49.9938 C33.8479,50.2818 33.6249,50.6648 33.3429,51.1408 C33.0529,51.6308 32.7629,52.1458 32.4729,52.6908 C32.2009,53.2338 31.9579,53.7648 31.7399,54.2908 C31.5429,54.8118 31.4479,55.2408 31.4479,55.5848 C31.4479,56.1138 31.6699,56.3408 32.1229,56.3408 C32.5549,56.3408 33.0099,56.2198 33.4879,55.9718 C33.9719,55.7208 34.4299,55.4148 34.8599,55.0568 C35.3109,54.6958 35.7269,54.3158 36.1049,53.9198 L36.4699,53.5338 L37.2089,52.2748 C37.4659,51.8718 37.6659,51.5718 37.8129,51.3698 C37.9209,51.1968 38.0949,51.0698 38.3259,50.9728 C38.5559,50.8668 38.7339,50.7988 38.8379,50.7988 C38.9309,50.7988 39.0919,50.8298 39.0919,50.9988 C39.0919,51.0638 39.0599,51.1438 39.0249,51.2148 C39.0079,51.2858 38.9769,51.3538 38.9219,51.4098 C38.6729,51.7648 38.4349,52.1578 38.2039,52.5838 C37.9689,53.0188 37.7509,53.4448 37.5519,53.8618 C37.3529,54.2578 37.1919,54.6258 37.0659,54.9678 C36.9579,55.3098 36.9079,55.5668 36.9079,55.7488 C36.9079,55.9498 36.9509,56.0718 37.0299,56.1508 C37.1319,56.2238 37.2629,56.2588 37.4459,56.2588 C37.7849,56.2588 38.1639,56.1498 38.5899,55.9188 C39.0209,55.6678 39.4429,55.3708 39.8559,55.0288 C40.2889,54.6868 40.6859,54.3258 41.0459,53.9478 L41.2619,53.7168 L41.3849,53.5058 C41.8579,52.6868 42.3279,51.8818 42.8009,51.0818 C42.8839,50.8948 43.0139,50.7718 43.2059,50.7718 C43.3519,50.7718 43.4619,50.8578 43.5469,50.9838 C43.6309,51.0898 43.6779,51.2018 43.6779,51.3258 C43.5409,51.7388 43.3179,52.1928 43.0069,52.7228 L42.7019,53.2488 C43.1319,52.7888 43.5099,52.4178 43.8389,52.1378 C44.3309,51.6998 44.7599,51.4538 45.1169,51.4538 C45.4139,51.4538 45.5349,51.6808 45.5349,51.9818 C45.5349,52.1898 45.4429,52.4928 45.2789,52.8748 L45.0989,53.2638 C45.2169,53.1388 45.3399,53.0118 45.4699,52.8808 C45.7639,52.5868 46.0689,52.3098 46.3809,52.0538 C46.7099,51.7968 47.0319,51.5578 47.3429,51.3378 C47.6769,51.1158 47.9839,50.9388 48.2609,50.8098 C48.6379,50.7988 48.8379,50.9698 48.8379,51.2988 C48.8379,51.3668 48.8269,51.4338 48.8049,51.4998 C48.7849,51.5588 48.7559,51.6258 48.7169,51.7038 C48.6249,51.9068 48.4529,52.2338 48.1959,52.6928 C47.9599,53.1468 47.7149,53.6358 47.4609,54.1628 C47.2069,54.6698 46.9809,55.1668 46.7819,55.6548 C46.6009,56.1258 46.5179,56.4718 46.5179,56.7048 C46.5179,57.0078 46.6429,57.1328 46.9189,57.1328 C47.2189,57.1328 47.5449,57.0318 47.8949,56.8218 C48.2529,56.6068 48.6119,56.3468 48.9719,56.0408 C49.3319,55.7348 49.6649,55.4208 49.9709,55.0958 L50.2979,54.7278 C50.3579,54.5288 50.4329,54.3248 50.5239,54.1168 C50.8009,53.5248 51.1529,52.9698 51.5769,52.4528 C52.0029,51.9358 52.4649,51.5098 52.9669,51.1748 C53.4729,50.8188 53.9769,50.6358 54.4799,50.6358 C54.7389,50.6358 54.9509,50.6758 55.0779,50.8028 C55.2149,50.9168 55.2799,51.0648 55.2799,51.2448 C55.2799,51.4888 55.1999,51.7428 55.0479,52.0088 C54.9119,52.2808 54.6999,52.5368 54.4189,52.7808 C54.1339,53.0098 53.7639,53.2078 53.3189,53.3748 C52.9029,53.5198 52.4209,53.5938 51.8759,53.5998 C51.7989,53.7558 51.7119,53.9918 51.6169,54.3088 C51.5109,54.6438 51.4589,54.9868 51.4589,55.3388 C51.4589,56.0318 51.7529,56.3408 52.3509,56.3408 C52.7499,56.3408 53.1619,56.2448 53.5849,56.0508 C54.0329,55.8538 54.4629,55.6128 54.8759,55.3258 C55.2899,55.0188 55.6659,54.6968 56.0079,54.3548 C56.3689,53.9938 56.6709,53.6548 56.9029,53.3508 C56.9619,53.2928 57.0529,53.2458 57.1499,53.2948 C57.2449,53.3288 57.2999,53.4048 57.2999,53.5098 C56.9619,53.9698 56.5849,54.3738 56.1449,54.7968 C55.7209,55.2008 55.2519,55.5788 54.7369,55.9278 L54.7369,55.9278 Z M41.3199,39.4198 C41.2289,39.4648 41.0949,39.5718 40.9139,39.7528 C40.7519,39.9148 40.5459,40.1468 40.2949,40.4518 L39.3699,41.6508 L38.7439,42.5208 L37.7359,44.0478 C37.3349,44.6658 36.8439,45.4378 36.2629,46.3658 L34.4939,49.2098 C35.4249,48.6448 36.2999,47.9848 37.1209,47.2268 C38.0799,46.3388 38.9039,45.4348 39.5899,44.5138 C40.2779,43.5908 40.8189,42.6968 41.2149,41.8318 C41.6129,40.9658 41.8059,40.2468 41.8059,39.6698 C41.8059,39.4198 41.7189,39.3508 41.5679,39.3508 C41.4999,39.3508 41.4179,39.3708 41.3199,39.4198 L41.3199,39.4198 Z M52.3239,53.1468 C52.8209,53.1468 53.2559,52.9768 53.6359,52.6328 C54.0149,52.2698 54.1989,51.8548 54.1989,51.3808 C54.1989,51.2088 54.1329,51.1438 53.9619,51.1438 C53.8119,51.1438 53.6439,51.2048 53.4559,51.3398 C53.2849,51.4598 53.1099,51.6258 52.9319,51.8378 C52.7539,52.0538 52.5839,52.2848 52.4219,52.5368 C52.2899,52.7428 52.1749,52.9428 52.0789,53.1368 L52.3239,53.1468 Z"/>
  </g>
</svg>
