<svg xmlns="http://www.w3.org/2000/svg" xmlns:xlink="http://www.w3.org/1999/xlink" width="119" height="122" viewBox="0 0 119 122">
  <defs>
    <polygon id="path-1" points="0 121.83 118.117 121.83 118.117 1.415 0 1.415"/>
  </defs>
  <g fill="none" fill-rule="evenodd">
    <polygon fill="#FFFFFF" points="0 .967 0 5.555 113.534 5.555 113.534 116.799 0 116.799 0 121.382 118.117 121.382 118.117 .967"/>
    <polygon fill="#FFFFFF" points="0 37.408 5.437 37.408 5.437 14.311 0 14.311"/>
    <polygon fill="#FFFFFF" points="6.959 14.309 13.203 14.309 17.669 29.319 17.73 29.319 17.73 14.309 22.782 14.309 22.782 37.408 16.63 37.408 11.873 21.492 11.808 21.492 11.808 37.408 6.959 37.408"/>
    <path fill="#FFFFFF" d="M32.4234098 18.5145574L32.3565246 18.5145574 30.4463607 28.803082 34.3965246 28.803082 32.4234098 18.5145574zM29.1243934 14.3086557L35.9152131 14.3086557 41.6732459 37.4076721 36.0450492 37.4076721 35.203082 33.0070164 29.6693115 33.0070164 28.8627541 37.4076721 23.2345574 37.4076721 29.1243934 14.3086557zM46.6262951 30.3571803L46.6262951 31.1637377C46.6262951 32.910623 47.0787541 34.2365246 48.9908852 34.2365246 50.8971148 34.2365246 51.444 32.8161967 51.444 31.4863607 51.444 26.5034098 41.5174426 29.2889836 41.5174426 20.6509508 41.5174426 16.9624262 43.4885902 13.8581639 49.0853115 13.8581639 54.5187541 13.8581639 56.4623607 16.6398033 56.4623607 20.1670164L56.4623607 20.7158689 51.2236721 20.7158689C51.2236721 19.5827541 51.0603934 18.7722623 50.7712131 18.2883279 50.4446557 17.7375082 49.8918689 17.4817705 49.1207213 17.4817705 47.7299016 17.4817705 46.9508852 18.2883279 46.9508852 19.9722623 46.9508852 24.8234098 56.8833443 22.332918 56.8833443 30.5184918 56.8833443 35.790623 53.9718689 37.8601311 48.9908852 37.8601311 45.0112131 37.8601311 41.3856393 36.6660328 41.3856393 31.8424262L41.3856393 30.3571803 46.6262951 30.3571803z"/>
    <polygon fill="#FFFFFF" points="57.565 14.309 70.928 14.309 70.928 18.712 63 18.712 63 23.337 70.444 23.337 70.444 27.737 63 27.737 63 33.008 71.282 33.008 71.282 37.408 57.565 37.408"/>
    <polygon fill="#FFFFFF" points="76.461 18.711 71.608 18.711 71.608 14.309 86.754 14.309 86.754 18.711 81.9 18.711 81.9 37.408 76.461 37.408"/>
    <path fill="#FFFFFF" d="M9.18963934,43.9114754 L9.12472131,43.9114754 L7.21259016,54.1980328 L11.1607869,54.1980328 L9.18963934,43.9114754 Z M5.88865574,39.7055738 L12.6814426,39.7055738 L18.4375082,62.8045902 L12.8112787,62.8045902 L11.9693115,58.4059016 L6.43947541,58.4059016 L5.62898361,62.8045902 L0.000786885246,62.8045902 L5.88865574,39.7055738 Z"/>
    <polygon fill="#FFFFFF" points="16.113 39.705 21.551 39.705 23.557 56.138 23.62 56.138 26.016 39.705 31.06 39.705 33.649 56.138 33.712 56.138 35.652 39.705 40.896 39.705 36.881 62.804 30.867 62.804 28.507 46.402 28.44 46.402 26.207 62.804 20.189 62.804"/>
    <path fill="#FFFFFF" d="M47.7596066 43.9114754L47.6946885 43.9114754 45.7864918 54.1980328 49.7307541 54.1980328 47.7596066 43.9114754zM44.458623 39.7055738L51.253377 39.7055738 57.0094426 62.8045902 51.3832131 62.8045902 50.5412459 58.4059016 45.0114098 58.4059016 44.1969836 62.8045902 38.5687869 62.8045902 44.458623 39.7055738zM62.9038033 49.4405246L64.5838033 49.4405246C66.787082 49.4405246 67.3674098 47.8215082 67.3674098 46.4306885 67.3674098 44.7192131 66.7201967 43.5231475 64.5542951 43.5231475L62.9038033 43.5231475 62.9038033 49.4405246zM57.464459 39.7047869L66.5903607 39.7047869C71.2172459 39.7047869 72.8028197 42.5533115 72.8028197 45.7224918 72.8028197 49.0864262 71.476918 50.736918 68.9234754 51.3487213L68.9234754 51.4156066C72.4113443 51.9349508 72.5411803 54.0674098 72.6375738 57.1756066 72.7379016 61.7356066 72.9326557 62.1900328 73.6762623 62.5126557L73.6762623 62.8038033 67.8218361 62.8038033C67.396918 62.0267541 67.2356066 60.7323279 67.2356066 58.1080656 67.2356066 54.1008525 66.6867541 53.2608525 64.9733115 53.2608525L62.9038033 53.2608525 62.9038033 62.8038033 57.464459 62.8038033 57.464459 39.7047869zM79.5308852 58.7934426L80.9905574 58.7934426C83.4830164 58.7934426 84.384 57.7862295 84.384 50.867541 84.384 45.237377 83.9354754 43.7147541 81.0554754 43.7147541L79.5308852 43.7147541 79.5308852 58.7934426zM74.0994098 39.7055738L82.1551475 39.7055738C87.5256393 39.7055738 89.8233443 42.4852459 89.8233443 50.5095082 89.8233443 58.8878689 88.7551475 62.8045902 81.6062951 62.8045902L74.0994098 62.8045902 74.0994098 39.7055738zM95.8756721 55.7503607L95.8756721 56.556918C95.8756721 58.3097049 96.3261639 59.6297049 98.2382951 59.6297049 100.146492 59.6297049 100.697311 58.209377 100.697311 56.8834754 100.697311 51.9005246 90.760918 54.6860984 90.760918 46.0460984 90.760918 42.359541 92.736 39.2513443 98.3366557 39.2513443 103.770098 39.2513443 105.711738 42.0329836 105.711738 45.5601967L105.711738 46.1090492 100.471082 46.1090492C100.471082 44.9798689 100.30977 44.169377 100.014689 43.6854426 99.6940328 43.1306885 99.1451803 42.8749508 98.3661639 42.8749508 96.9753443 42.8749508 96.1982951 43.6854426 96.1982951 45.3674098 96.1982951 50.2205246 106.130754 47.7260984 106.130754 55.9116721 106.130754 61.1857705 103.217311 63.2572459 98.2382951 63.2572459 94.2566557 63.2572459 90.6350164 62.0592131 90.6350164 57.2375738L90.6350164 55.7503607 95.8756721 55.7503607z"/>
    <path fill="#02EFF0" d="M.106622951 71.5333115L.106622951 70.9313443C.106622951 67.1877377 2.10334426 65.316918 6.11055738 65.316918 10.6410492 65.316918 11.8784262 67.6106885 11.8784262 70.5339672 11.8784262 73.3274098 11.2469508 74.4034754 8.92760656 76.5890492 7.11186885 78.3536393 5.74072131 79.4887213 5.29613115 80.5431475L11.904 80.5431475 11.904 83.9680656.000393442623 83.9680656C.000393442623 79.5398689 2.6344918 76.9864262 4.21613115 75.5641311 7.40104918 72.7490492 7.45219672 71.9562623 7.45219672 70.5615082 7.45219672 69.0860984 7.16301639 68.1103607 5.90203279 68.1103607 4.21613115 68.1103607 4.21613115 70.1129836 4.21613115 71.5333115L.106622951 71.5333115zM18.5935082 81.5420984C20.1003934 81.5420984 20.3069508 80.1198033 20.3069508 74.8535738 20.3069508 69.5047213 20.1003934 68.1099672 18.5935082 68.1099672 17.0925246 68.1099672 16.8800656 69.5047213 16.8800656 74.8535738 16.8800656 80.1198033 17.0925246 81.5420984 18.5935082 81.5420984M18.5935082 84.335541C13.006623 84.335541 12.4558033 80.8319344 12.4558033 74.8260328 12.4558033 69.4771803 13.0636721 65.3165246 18.5935082 65.3165246 24.176459 65.3165246 24.7312131 68.8220984 24.7312131 74.8260328 24.7312131 80.1748852 24.1253115 84.335541 18.5935082 84.335541M29.052 71.034623L25.4677377 71.034623 25.4677377 68.2431475 26.0224918 68.2431475C29.3667541 68.2431475 30.1575738 66.5041311 30.3621639 65.3159344L33.4742951 65.3159344 33.4742951 83.967082 29.052 83.967082 29.052 71.034623zM42.271082 70.4535082C42.271082 69.1649836 41.9012459 68.1105574 40.7150164 68.1105574 39.5307541 68.1105574 39.1628852 69.1649836 39.1628852 70.4535082 39.1628852 72.2712131 39.6900984 72.851541 40.7150164 72.851541 41.7419016 72.851541 42.271082 72.2712131 42.271082 70.4535082M38.9523934 78.5682623C38.9523934 80.2246557 39.3241967 81.5426885 40.7150164 81.5426885 42.1137049 81.5426885 42.4796066 80.2246557 42.4796066 78.5682623 42.4796066 76.904 42.1137049 75.6449836 40.7150164 75.6449836 39.3241967 75.6449836 38.9523934 76.904 38.9523934 78.5682623M46.3805902 70.1387541C46.3805902 72.2456393 45.4579672 73.6699016 43.7445246 74.061377L43.7445246 74.116459C45.7471475 74.4292459 46.9058361 75.9872787 46.9058361 78.5151475 46.9058361 81.676459 45.7963279 84.3361311 40.7150164 84.3361311 35.6297705 84.3361311 34.5261639 81.8849836 34.5261639 78.5151475 34.5261639 76.4062951 35.3976393 74.4567869 37.6087869 74.116459L37.6087869 74.061377C36.0291148 73.6423607 35.0514098 72.3243279 35.0514098 70.1387541 35.0514098 67.3177705 36.5799344 65.3171148 40.7150164 65.3171148 44.8520656 65.3171148 46.3805902 67.2154754 46.3805902 70.1387541"/>
    <polygon fill="#02EFF0" points="0 85.335 10.883 85.335 10.883 88.916 4.426 88.916 4.426 92.681 10.485 92.681 10.485 96.265 4.426 96.265 4.426 100.558 11.17 100.558 11.17 104.138 0 104.138"/>
    <path fill="#02EFF0" d="M16.5417049,100.876262 L17.7279344,100.876262 C19.7541639,100.876262 20.4899016,100.057902 20.4899016,94.4218361 C20.4899016,89.8382295 20.1220328,88.6008525 17.779082,88.6008525 L16.5417049,88.6008525 L16.5417049,100.876262 Z M12.1154754,85.3352787 L18.6761311,85.3352787 C23.0492459,85.3352787 24.9161311,87.5975738 24.9161311,94.1287213 C24.9161311,100.952984 24.0485902,104.137902 18.2276066,104.137902 L12.1154754,104.137902 L12.1154754,85.3352787 Z"/>
    <mask id="mask-2" fill="white">
      <use xlink:href="#path-1"/>
    </mask>
    <polygon fill="#02EFF0" points="26.256 104.138 30.683 104.138 30.683 85.335 26.256 85.335" mask="url(#mask-2)"/>
    <polygon fill="#02EFF0" points="35.19 88.915 31.238 88.915 31.238 85.335 43.564 85.335 43.564 88.915 39.61 88.915 39.61 104.138 35.19 104.138" mask="url(#mask-2)"/>
    <polygon fill="#02EFF0" points="44.113 104.138 48.541 104.138 48.541 85.335 44.113 85.335" mask="url(#mask-2)"/>
    <path fill="#02EFF0" d="M56.4700328,101.556328 C58.2582295,101.556328 58.5198689,99.8999344 58.5198689,94.7379672 C58.5198689,89.5740328 58.2582295,87.9137049 56.4700328,87.9137049 C54.7074098,87.9137049 54.4654426,89.5740328 54.4654426,94.7379672 C54.4654426,99.8999344 54.7074098,101.556328 56.4700328,101.556328 M56.4936393,104.507148 C50.6726557,104.507148 49.8838033,100.716328 49.8838033,94.7379672 C49.8838033,88.7576393 50.6726557,84.9648525 56.4936393,84.9648525 C62.7375738,84.9648525 63.1054426,89.5228852 63.1054426,94.7379672 C63.1054426,99.9530492 62.7375738,104.507148 56.4936393,104.507148" mask="url(#mask-2)"/>
    <polygon fill="#02EFF0" points="64.366 85.335 69.451 85.335 73.084 97.552 73.141 97.552 73.141 85.335 77.249 85.335 77.249 104.138 72.246 104.138 68.371 91.182 68.322 91.182 68.322 104.138 64.366 104.138" mask="url(#mask-2)"/>
  </g>
</svg>
