<svg xmlns="http://www.w3.org/2000/svg" xmlns:xlink="http://www.w3.org/1999/xlink" viewBox="0 0 450 125">
  <defs>
    <polygon id="path-1" points="0 124.751 449.442 124.751 449.442 .033 0 .033"/>
  </defs>
  <g fill="none" fill-rule="evenodd" transform="translate(0 .216)">
    <path fill="#FEFEFE" d="M0,124.750577 L449.441917,124.750577 L449.441917,0.0330254042 L0,0.0330254042 L0,124.750577 Z M3.11778291,121.633834 L446.324134,121.633834 L446.324134,3.15080831 L3.11778291,3.15080831 L3.11778291,121.633834 Z"/>
    <path fill="#FEFEFE" d="M65.0847575 69.3967321C65.0847575 68.5019284 64.9247113 67.8128984 64.6025404 67.329642 64.2803695 66.8453464 63.8230947 66.6031986 63.2327945 66.6031986 61.9794457 66.6031986 60.5556582 67.727679 58.9614319 69.9745612 57.3682448 72.2204042 56.0130485 75.027448 54.8927252 78.3936143 53.7734411 81.7597806 53.215358 85.0168245 53.215358 88.1678637 53.215358 89.3858776 53.334873 90.2588568 53.57806 90.7868014 53.8191686 91.3157852 54.2078522 91.5797575 54.7461894 91.5797575 55.5339492 91.5797575 56.4193995 91.0258314 57.4046189 89.9138222 58.3898383 88.8049307 59.3646651 87.1888799 60.3322171 85.0656697 61.2976905 82.9445381 62.1581986 80.443037 62.9095843 77.560127L62.6404157 78.9038915 65.0317552 70.336224C65.0670901 70.1221363 65.0847575 69.8082794 65.0847575 69.3967321zM73.4102771 84.8650924L72.0145497 88.8943072C71.2974596 90.9530831 70.2862587 92.4122055 68.9788684 93.2716744 67.6725173 94.1311432 66.2663972 94.560358 64.7615473 94.560358 62.8472286 94.560358 61.4961894 93.9866859 60.7073903 92.8424596 60.2064665 92.1077021 59.9549654 91.1765242 59.9549654 90.0489261 59.9549654 89.1894573 60.1170901 88.097194 60.439261 86.7721363 58.1113164 91.9642841 55.0413395 94.560358 51.2272517 94.560358 49.2048499 94.560358 47.6740185 93.9648614 46.6357968 92.7749076 45.5975751 91.5839145 45.0779446 89.9231755 45.0779446 87.7926905 45.0779446 84.5346074 45.9509238 81.0790647 47.6968822 77.4271016 49.4418014 73.7740993 51.6523095 70.7217898 54.3294457 68.2691339 57.0055427 65.8164781 59.6244804 64.5901501 62.1841801 64.5901501 63.1693995 64.5901501 63.9665127 64.8801039 64.5744804 65.4631293 65.1834873 66.0440762 65.5503464 66.9253695 65.676097 68.1080485L66.4285219 65.3945381C69.3467667 65.3425751 72.004157 65.0734065 74.4038106 64.5901501L67.1809469 89.1094342C67.0011547 89.7361085 66.910739 90.2359931 66.910739 90.6132448 66.910739 91.4363395 67.2599307 91.8478868 67.9583141 91.8478868 69.248037 91.8478868 70.3849885 90.4074711 71.3702079 87.5235219L72.3627021 84.8650924 73.4102771 84.8650924zM97.5393187 76.5802079C96.9926674 77.4666975 96.5364319 78.6171594 96.1695727 80.0305543 95.8016744 81.4460277 95.6187644 82.8791686 95.6187644 84.3278984 95.6187644 85.5469515 95.7892032 86.6475289 96.1300808 87.631709 97.3470554 86.2349423 98.2990185 84.6739723 98.990127 82.944642 99.6781178 81.2173903 100.024192 79.511963 100.024192 77.8293995 100.024192 76.1115012 99.7103349 75.2520323 99.0826212 75.2520323 98.6004042 75.2520323 98.0849307 75.6947575 97.5393187 76.5802079M87.9656467 76.7693533C85.5483256 80.9315935 84.3407044 84.6957968 84.3407044 88.0609238 84.3407044 89.4763972 84.5641455 90.5094226 85.0110277 91.1631178 85.4589492 91.8157737 86.175 92.1441801 87.1602194 92.1441801 88.448903 92.1441801 89.7282333 91.6598845 91.0002887 90.6933718 90.5700346 89.6551501 90.3559469 88.4277829 90.3559469 87.0133487 90.3559469 84.8828637 90.838164 82.8157737 91.8046767 80.81 92.7722286 78.8063048 93.9580254 77.1757044 95.3631062 75.9223557 96.7692263 74.6700462 98.0443995 74.0433718 99.1907044 74.0433718 100.587471 74.0433718 101.284815 75.2520323 101.284815 77.6683141 101.284815 79.6377136 100.891975 81.566582 100.104215 83.4549192 99.3154157 85.3453349 98.1431293 87.0850577 96.5863164 88.6803233 97.4977483 90.3618476 98.8862009 91.2026097 100.748557 91.2026097 102.574538 91.2026097 104.127194 90.4782448 105.407564 89.0284758 106.687933 87.5776674 107.646132 85.7475289 108.28112 83.5370208 108.916109 81.3244342 109.234122 79.101455 109.234122 76.8628868 109.234122 76.2362125 109.208141 75.6459122 109.155139 75.0888684 107.094284 74.2855196 105.381582 73.3127714 104.011836 72.1758199 102.641051 71.0388684 101.957217 69.5672748 101.957217 67.7589607 101.957217 66.8631178 102.247171 66.1117321 102.829157 65.5027252 103.411143 64.8947575 104.20306 64.590254 105.205947 64.590254 106.870843 64.590254 108.101328 65.5598845 108.89948 67.5043418 109.694515 69.4467206 110.1653 71.6624249 110.308718 74.1504157 110.379388 75.0826328 110.416801 75.7976443 110.416801 76.2985681 110.416801 79.2521478 109.932506 82.1309007 108.965993 84.9337875 107.998441 87.7335566 106.552829 90.0396767 104.628118 91.8469515 102.704446 93.6563048 100.380658 94.5604619 97.659873 94.5604619 94.6875866 94.5604619 92.6017898 93.5482217 91.4024827 91.5247806 89.0932448 93.5482217 86.3984411 94.5604619 83.3180716 94.5604619 81.7082564 94.5604619 80.3468245 94.2653118 79.2368938 93.672933 78.126963 93.0836721 77.2986721 92.2813626 76.75306 91.2712009 76.207448 90.2589607 75.9341224 89.1178522 75.9341224 87.846836 75.9341224 85.6810162 76.7229215 83.4829792 78.2974018 81.2537644 79.8729215 79.0255889 81.909873 76.831709 84.4061778 74.673164 86.9045612 72.5166975 90.1844688 69.9164665 94.2490185 66.8724711 93.3365473 67.0158891 92.5082564 67.2975289 91.7651848 67.7194688 91.0221132 68.138291 89.9974018 68.8377136 88.6889723 69.8125404 87.3836605 70.7894457 86.3007506 71.2768591 85.4402425 71.2768591 85.1180716 71.2768591 84.8322748 71.2321709 84.5807737 71.1427945 84.3303118 71.053418 83.976963 70.8788222 83.5207275 70.6190069 83.0634527 70.3591917 82.6477483 70.2292841 82.2725751 70.2292841 81.770612 70.2292841 81.3632217 70.43194 81.0504042 70.8341339 80.7365473 71.2363279 80.4278868 71.9222402 80.1233834 72.8887529L79.6131062 74.3645035 78.5655312 74.3645035 79.7731524 70.3633487C80.4549076 68.2692379 81.229157 66.8111547 82.0979792 65.9870208 82.9657621 65.1639261 83.9364319 64.7503002 85.0110277 64.7503002 85.6553695 64.7503002 86.3672633 64.9217783 87.1456697 65.2616166 87.9251155 65.6024942 88.592321 65.864388 89.1472864 66.0524942 89.7012125 66.242679 90.4089492 66.3362125 91.268418 66.3362125 92.8075635 66.3362125 94.223037 65.9506467 95.5127598 65.1805543L96.1300808 64.13194 97.2836605 64.6972979C93.4893187 68.5820554 90.3819284 72.6060739 87.9656467 76.7693533M133.189815 69.3967321C133.189815 68.5019284 133.029769 67.8128984 132.706559 67.329642 132.384388 66.8453464 131.927113 66.6031986 131.336813 66.6031986 130.084503 66.6031986 128.660716 67.727679 127.06545 69.9745612 125.473303 72.2204042 124.117067 75.027448 122.997783 78.3936143 121.878499 81.7597806 121.320416 85.0168245 121.320416 88.1678637 121.320416 89.3858776 121.439931 90.2588568 121.683118 90.7868014 121.924226 91.3157852 122.31291 91.5797575 122.850208 91.5797575 123.639007 91.5797575 124.524457 91.0258314 125.509677 89.9138222 126.493857 88.8049307 127.469723 87.1888799 128.436236 85.0656697 129.402748 82.9445381 130.263256 80.443037 131.014642 77.560127L130.745473 78.9038915 133.136813 70.336224C133.171109 70.1221363 133.189815 69.8082794 133.189815 69.3967321L133.189815 69.3967321zM141.515335 84.8650924L140.118568 88.8943072C139.402517 90.9530831 138.390277 92.4122055 137.083926 93.2716744 135.776536 94.1311432 134.371455 94.560358 132.866605 94.560358 130.952286 94.560358 129.600208 93.9866859 128.812448 92.8424596 128.311524 92.1077021 128.060023 91.1765242 128.060023 90.0489261 128.060023 89.1894573 128.222148 88.097194 128.543279 86.7721363 126.216374 91.9642841 123.146397 94.560358 119.332309 94.560358 117.309908 94.560358 115.778037 93.9648614 114.739815 92.7749076 113.701594 91.5839145 113.183002 89.9231755 113.183002 87.7926905 113.183002 84.5346074 114.055982 81.0790647 115.800901 77.4271016 117.546859 73.7740993 119.757367 70.7217898 122.434503 68.2691339 125.1106 65.8164781 127.729538 64.5901501 130.289238 64.5901501 131.273418 64.5901501 132.07157 64.8801039 132.679538 65.4631293 133.288545 66.0440762 133.654365 66.9253695 133.780115 68.1080485L134.53358 65.3945381C137.450785 65.3425751 140.109215 65.0734065 142.508868 64.5901501L135.284965 89.1094342C135.105173 89.7361085 135.015797 90.2359931 135.015797 90.6132448 135.015797 91.4363395 135.364988 91.8478868 136.063372 91.8478868 137.353095 91.8478868 138.490046 90.4074711 139.474226 87.5235219L140.46776 84.8650924 141.515335 84.8650924zM160.32627 68.4843649C161.249134 67.0875982 162.229157 66.0899076 163.267379 65.490254 164.304561 64.8895612 165.496594 64.590254 166.840358 64.590254 168.236085 64.590254 169.327309 65.0018014 170.115069 65.8248961 170.902829 66.6479908 171.296709 67.7153118 171.296709 69.0216628 171.296709 70.0411778 171.069111 70.9900231 170.610797 71.8671594 170.1556 72.7453349 169.525808 73.442679 168.718303 73.9623095 167.913915 74.48194 167.026386 74.7417552 166.060912 74.7417552 164.985277 74.7417552 164.158025 74.4590762 163.576039 73.8947575 162.993014 73.3314781 162.70306 72.5218938 162.70306 71.4649654 162.70306 70.6054965 162.904677 69.7907159 163.306871 69.0216628 163.710104 68.2515704 164.260912 67.596836 164.958256 67.0605774 165.657679 66.5232794 166.426732 66.1564203 167.269573 65.9589607 166.840358 65.8519169 166.606524 65.7989145 166.57015 65.7989145 164.636085 65.7989145 162.698903 67.1852887 160.756524 69.9611547 158.813106 72.7359815 156.812529 77.7130023 154.753753 84.8922171L152.470497 93.7810162 144.737356 93.7810162 151.450982 70.0151963C151.647402 69.2814781 151.746132 68.7254734 151.746132 68.349261 151.746132 67.6342494 151.441628 67.2757044 150.833661 67.2757044 150.152945 67.2757044 149.534584 67.6009931 148.979619 68.2557275 148.425693 68.9094226 147.852021 70.0328637 147.261721 71.6250115L146.215185 74.418545 145.16657 74.418545 146.6444 70.2292841C148.004792 66.4702771 150.537471 64.590254 154.243476 64.590254 157.054677 64.590254 158.460797 66.0670439 158.460797 69.0216628 158.460797 70.0411778 158.316339 71.125127 158.030543 72.2703926L157.546247 74.1784758C158.478464 71.7788222 159.403406 69.8811316 160.32627 68.4843649M188.323441 65.851709C186.766628 65.851709 185.123557 66.9751501 183.396305 69.2220323 181.668014 71.4678753 180.231755 74.3196074 179.08545 77.7751501 177.940185 81.2317321 177.366513 84.6425866 177.366513 88.0077136 177.366513 89.2974365 177.505774 90.2504388 177.783256 90.8667206 178.060739 91.4861201 178.513857 91.7947806 179.140531 91.7947806 179.856582 91.7947806 180.716051 91.2616397 181.718938 90.1974365 182.719746 89.1301155 183.759007 87.5649885 184.833603 85.4958199 185.908199 83.4297691 186.883025 80.9895843 187.760162 78.1783834L190.526674 67.7847344C190.168129 66.4960508 189.433372 65.851709 188.323441 65.851709L188.323441 65.851709zM198.447921 84.8649885L197.132217 88.8942032C196.45254 90.9706467 195.457968 92.4339261 194.150577 93.2840416 192.845266 94.134157 191.413164 94.560254 189.855312 94.560254 187.581409 94.560254 186.13164 93.7111778 185.503926 92.0099076 185.218129 91.4185681 185.074711 90.6661432 185.074711 89.7536721 185.074711 88.6250346 185.298152 87.3093303 185.746074 85.8055196L185.800115 85.5644111C184.404388 88.6801155 182.921363 90.956097 181.355196 92.3985912 179.787991 93.8400462 177.930831 94.560254 175.782679 94.560254 173.848614 94.560254 172.274134 93.9159122 171.05612 92.6272286 169.838106 91.3375058 169.230139 89.4138337 169.230139 86.8530947 169.230139 83.8984758 169.999192 80.6684527 171.539376 77.1578291 173.079561 73.6492841 175.245381 70.678037 178.038915 68.2420092 180.831409 65.80806 184.000115 64.5900462 187.545035 64.5900462 189.263972 64.5900462 190.383256 65.2073672 190.900808 66.4430485L193.372171 57.0980139C193.551963 56.4349654 193.641339 55.9246882 193.641339 55.5671824 193.641339 54.8313857 193.355543 54.3003233 192.78291 53.9687991 192.209238 53.6362356 191.251039 53.4720323 189.908314 53.4720323L190.256467 52.3174134C192.78291 52.2987067 195.073441 52.1022864 197.132217 51.7260739 199.190993 51.3498614 201.187413 50.7948961 203.120439 50.0611778L192.325635 89.1093303C192.128176 89.7360046 192.030485 90.2358891 192.030485 90.6131409 192.030485 91.4362356 192.387991 91.8477829 193.105081 91.8477829 193.660046 91.8477829 194.208776 91.5349654 194.755427 90.9072517 195.302079 90.2816166 195.870554 89.1540185 196.460855 87.5244573L197.401386 84.8649885 198.447921 84.8649885zM207.067656 93.4062587C208.446755 93.4062587 209.559804 92.985358 210.411998 92.1435566 211.262113 91.3027945 211.686132 90.1471363 211.686132 88.6796998 211.686132 87.5157275 211.436709 86.311224 210.934746 85.0661894 210.433822 83.8211547 209.66373 82.4036028 208.625508 80.8104157 208.48209 80.5952887 208.052875 79.9374365 207.336824 78.8347806 206.619734 77.7362818 206.088672 76.6793533 205.738441 75.6681524 205.390289 74.6559122 205.215693 73.6582217 205.215693 72.6740416 205.215693 71.0974827 205.61373 69.7007159 206.409804 68.4847806 207.206917 67.2667667 208.356339 66.3127252 209.861189 65.6236952 211.363961 64.9346651 213.154607 64.5896305 215.231051 64.5896305 217.59537 64.5896305 219.578279 65.0230023 221.18082 65.8918245 222.782321 66.7606467 223.58463 68.2332794 223.58463 70.3097229 223.58463 70.9374365 223.45888 71.5630716 223.207379 72.189746 222.956917 72.8164203 222.577587 73.3360508 222.067309 73.7475982 221.555993 74.1591455 220.943868 74.3649192 220.227818 74.3649192 219.313268 74.3649192 218.57955 74.0209238 218.024584 73.3318938 217.469619 72.6428637 217.192136 71.7594919 217.192136 70.6859353 217.192136 69.7900924 217.357379 68.9451732 217.689942 68.14806 218.020427 67.3519861 218.427818 66.6754273 218.911074 66.1204619 218.391443 65.8159584 217.747102 65.6642263 216.977009 65.6642263 215.652991 65.6642263 214.609573 66.0757737 213.847794 66.8988684 213.088095 67.721963 212.698372 68.8776212 212.680704 70.3627252 212.680704 71.3126097 212.872968 72.2032564 213.257494 73.0346651 213.64306 73.8691917 214.122159 74.7276212 214.694792 75.6130716 215.267425 76.4995612 215.697679 77.167806 215.983476 77.6157275 217.147448 79.5487529 217.980935 81.1357044 218.48082 82.380739 218.982783 83.6257737 219.233245 84.8749654 219.233245 86.1272748 219.233245 87.7391686 218.812344 89.1806236 217.971582 90.4506005 217.13082 91.7226559 215.925277 92.7255427 214.36015 93.459261 212.791905 94.1929792 210.97112 94.5598383 208.893637 94.5598383 206.279896 94.5598383 204.114076 94.0547575 202.396178 93.0425173 200.67724 92.0313164 199.816732 90.4069515 199.816732 88.1683834 199.816732 87.0771594 200.090058 86.1470208 200.636709 85.3748499 201.182321 84.6057968 201.937864 84.2202309 202.905416 84.2202309 203.871928 84.2202309 204.637864 84.6234642 205.201143 85.4288915 205.765462 86.235358 206.048141 87.2559122 206.048141 88.4915935 206.048141 89.2253118 205.958764 89.9143418 205.778972 90.5586836 205.59918 91.2030254 205.424584 91.7444804 205.255185 92.1830485 205.085785 92.6226559 204.981859 92.8949423 204.946524 93.0019861 205.483822 93.2711547 206.19052 93.4062587 207.067656 93.4062587M143.554988 30.2234527C139.135012 30.2234527 136.132587 32.7301501 136.132587 35.6546305 136.132587 38.1613279 137.52 39.9156005 140.320808 41.1408891L142.776582 42.1427367C145.346674 43.1736836 146.037783 44.091351 146.037783 45.6512818 146.037783 47.1249538 144.598406 48.324261 142.056374 48.3232217 140.063072 48.3232217 138.154988 47.8493187 136.510878 47.0428522L135.469538 49.5214896C137.373464 50.3851155 139.658799 50.8309584 142.227852 50.8309584 146.475312 50.8309584 149.82485 48.491582 149.82485 45.0661778 149.82485 42.3360393 148.467575 40.6378868 145.287436 39.3294573L143.209954 38.4377714C140.465266 37.3247229 139.859376 36.461097 139.859376 35.1807275 139.859376 33.7631755 141.156374 32.7322286 143.758684 32.7322286 145.54933 32.7311894 147.137321 33.1500115 148.321039 33.7060162L149.333279 31.2533603C147.68709 30.5019746 145.953603 30.2234527 143.554988 30.2234527L143.554988 30.2234527zM173.395289 50.5389261L177.414111 50.5389261C177.24679 46.6572864 177.221848 44.1994342 177.221848 40.1941224 177.221848 37.6427367 177.223926 35.9383487 177.453603 33.1209122 177.45776 33.0803811 177.50037 33.0408891 177.540901 33.0398499 177.540901 33.0398499 181.551409 32.8860393 183.388822 33.0294573L183.388822 30.4375404 167.680393 30.4375404 167.714688 33.0263395C168.381894 32.9587875 169.754758 32.9598268 170.98836 32.9785335 172.286397 32.9993187 173.430624 33.0398499 173.430624 33.0398499 173.475312 33.0408891 173.517921 33.0824596 173.517921 33.1281871 173.517921 36.0640993 173.615612 37.7071709 173.615612 40.1941224 173.615612 44.1994342 173.587552 46.6572864 173.395289 50.5389261L173.395289 50.5389261zM163.706259 38.3598268C162.599446 38.4138684 158.136859 38.5074018 156.647598 38.3546305 156.603949 38.3494342 156.565497 38.3057852 156.567575 38.2662933 156.570693 36.5338453 156.428314 35.4405427 156.567575 33.1219515 156.568614 33.0783025 156.611224 33.0388106 156.655912 33.0388106 159.421386 33.0388106 163.372656 32.9515127 165.185127 33.0346536L165.185127 30.4375404 153.4103 30.4375404C153.549561 34.2734527 153.577621 36.4039376 153.577621 40.3905427 153.577621 43.736963 153.434203 49.347933 153.403025 50.5389261L165.187206 50.5378868 165.187206 47.7318822C163.928661 47.7890416 158.265727 47.9657159 156.643441 47.7256467 156.603949 47.7204503 156.567575 47.6757621 156.567575 47.6383487L156.567575 41.2759931C156.567575 41.2292263 156.608106 41.1886952 156.655912 41.1886952 159.113764 41.1803811 161.646443 41.1616744 163.706259 41.1866166L163.706259 38.3598268zM123.369423 34.235C123.413072 34.1404273 123.508684 34.1456236 123.54194 34.2422748L126.125543 41.9026674C126.149446 41.9681409 126.109954 42.0180254 126.039284 42.0180254L119.988707 42.0180254C119.910762 42.0180254 119.874388 41.9629446 119.904527 41.8943533L123.369423 34.235zM129.656952 50.5659469L133.856605 50.5659469C130.936282 44.6026674 127.770693 36.7177945 125.521732 30.3138684L121.968499 30.3128291C119.549099 36.4018591 115.00649 46.2977021 112.762725 50.5649076L116.059261 50.5649076C116.811686 49.0403118 117.90291 46.9597113 118.946328 44.9383487 118.955681 44.9186028 119.006605 44.8895035 119.02739 44.8895035L127.468268 44.8895035C127.495289 44.8895035 127.544134 44.9217206 127.553487 44.9466628 128.204065 46.6614434 128.919076 48.6942379 129.656952 50.5659469L129.656952 50.5659469zM92.989746 30.3128291C93.0250808 31.3115589 93.2215012 37.078418 93.2215012 40.7802656 93.2215012 44.4883487 93.1310855 46.9462009 92.9918245 50.5649076L96.5034873 50.5649076C96.1865127 45.6949307 96.1542956 41.2988568 96.454642 35.4706813 96.4608776 35.3657159 96.5596074 35.3376559 96.6230023 35.4249538 96.6230023 35.4249538 103.785589 45.3582102 107.338822 50.5649076L111.021963 50.5649076C110.975196 49.5994342 110.723695 44.2493187 110.723695 40.8405427 110.723695 37.1355774 110.872309 31.3125982 110.89933 30.3138684L107.092517 30.3128291C107.151755 31.5162933 107.53836 39.6131755 107.405335 44.4280716 107.401178 44.5361547 107.29933 44.565254 107.238014 44.4758776 107.238014 44.4758776 100.780046 35.1194111 97.1176905 30.3128291L92.989746 30.3128291zM89.1008314 50.5649076L85.272194 50.5649076C85.4135335 46.8994342 85.5101848 42.5813048 85.5101848 38.8794573 85.5101848 34.872067 85.4779677 34.1819977 85.2742725 30.3128291L89.0987529 30.3128291C88.8649192 34.2100577 88.8441339 34.872067 88.8254273 38.8794573 88.8077598 42.1063626 88.8950577 46.8724134 89.1008314 50.5649076L89.1008314 50.5649076z"/>
    <mask id="mask-2" fill="white">
      <use xlink:href="#path-1"/>
    </mask>
    <polygon fill="#FEFEFE" points="265.377 94.56 268.257 94.56 268.257 30.224 265.377 30.224" mask="url(#mask-2)"/>
    <path fill="#FEFEFE" d="M310.329042 84.4771363C309.848903 85.0757506 309.408256 85.8437644 309.00918 86.7811778 308.611143 87.717552 308.329503 88.6601617 308.167379 89.6079677 308.884469 89.2088915 309.520497 88.7381062 310.075462 88.1966513 311.334007 86.9516166 311.96276 85.5881062 311.96276 84.1071594 311.96276 83.7548499 311.851559 83.5792148 311.628118 83.5792148 311.242552 83.5792148 310.80918 83.8785219 310.329042 84.4771363M310.856986 93.758776C309.956986 94.2929561 308.918764 94.5600462 307.741282 94.5600462 307.078233 94.5600462 306.474423 94.4467667 305.92985 94.2202079 305.384238 93.993649 304.951905 93.6600462 304.630774 93.2204388 304.308603 92.7808314 304.148557 92.2497691 304.148557 91.6272517 304.148557 90.2668591 304.498788 88.9345266 305.19821 87.6281755 305.898672 86.3218245 306.855831 85.2555427 308.070727 84.4262125 309.285624 83.5968822 310.623152 83.1832564 312.084353 83.1832564 312.86276 83.1832564 313.487356 83.3381062 313.957102 83.6498845 314.426848 83.9616628 314.66276 84.4178984 314.66276 85.0196305 314.66276 85.8115473 314.347864 86.53903 313.719111 87.2020785 313.089319 87.865127 312.277656 88.430485 311.283083 88.8971132 310.28851 89.3637413 309.229503 89.7264434 308.106062 89.9831409 308.058256 90.3551963 308.035393 90.7106236 308.035393 91.0483834 308.035393 91.8070439 308.180889 92.3308314 308.471882 92.6218245 308.762875 92.9128176 309.19209 93.0583141 309.760566 93.0583141 310.1056 93.0583141 310.550404 92.9398383 311.094977 92.7028868 311.640589 92.4659353 312.166455 92.1011547 312.673614 91.6064665L312.997864 91.7696305C312.470958 92.5605081 311.756986 93.2235566 310.856986 93.758776M327.653418 83.7921594C327.558845 83.711097 327.413349 83.6705658 327.216928 83.6705658 326.790831 83.6705658 326.28679 84.0810739 325.704804 84.9031293 325.122818 85.7251848 324.623972 86.7862702 324.208268 88.0853464 323.791524 89.3844226 323.583672 90.7167552 323.583672 92.0844226 323.583672 92.5032448 323.619007 92.806709 323.690716 92.9927367 323.761386 93.1777252 323.891293 93.2712587 324.080439 93.2712587 324.276859 93.2712587 324.513811 93.1216051 324.791293 92.8202194 325.068776 92.5177945 325.368083 92.0366166 325.689215 91.3735681 326.011386 90.7105196 326.327321 89.8749538 326.63806 88.8668707L327.267852 86.4921594 327.278245 86.4516282 327.278245 86.4609815 327.876859 84.1777252C327.822818 84.0020901 327.747991 83.8732217 327.653418 83.7921594L327.653418 83.7921594zM331.459192 90.8965473L330.94164 92.4190647C330.454226 93.8470092 329.462771 94.5599423 327.968314 94.5599423 327.08806 94.5599423 326.465543 94.29597 326.100762 93.7690647 325.898106 93.4707968 325.796259 93.0810739 325.796259 92.6019746 325.796259 92.3099423 325.829515 92.002321 325.898106 91.6780716 325.458499 92.6653695 324.965889 93.3928522 324.421316 93.8605196 323.875704 94.3271478 323.194988 94.5599423 322.376051 94.5599423 321.875127 94.5599423 321.424088 94.4539376 321.020855 94.2408891 320.617621 94.0278406 320.297529 93.6942379 320.05642 93.2411201 319.816351 92.786963 319.696836 92.2153695 319.696836 91.5253002 319.696836 90.4299192 319.978476 89.2254157 320.543834 87.9128291 321.109192 86.6002425 321.926051 85.4840762 322.99545 84.563291 324.063811 83.6425058 325.311963 83.1831524 326.739908 83.1831524 327.410231 83.1831524 327.83321 83.3556697 328.008845 83.7007044L328.881824 80.4020901C328.949376 80.1516282 328.982633 79.9593649 328.982633 79.824261 328.982633 79.5467783 328.87455 79.3451617 328.658383 79.2204503 328.442217 79.0946998 328.079515 79.0323441 327.572356 79.0323441L327.714734 78.5958545C329.797413 78.5750693 331.675358 78.291351 333.347529 77.7436605L329.276744 92.500127C329.209192 92.6955081 329.175935 92.8586721 329.175935 92.9875404 329.175935 93.2442379 329.294411 93.3731062 329.531363 93.3731062 329.936674 93.3731062 330.302494 92.9366166 330.626744 92.0636374L331.063233 90.8965473 331.459192 90.8965473zM341.648938 78.5704965C342.115566 78.1953233 342.727691 78.0072171 343.486351 78.0072171 344.088083 78.0072171 344.546397 78.1267321 344.861293 78.3678406 345.176189 78.6079099 345.333118 78.9612587 345.333118 79.4278868 345.333118 79.8539838 345.221917 80.2322748 344.998476 80.559642 344.775035 80.8870092 344.468453 81.1416282 344.079769 81.3203811 343.691085 81.5001732 343.255635 81.5895497 342.775497 81.5895497 342.18 81.5895497 341.726882 81.4731524 341.415104 81.2393187 341.104365 81.0065242 340.948476 80.6666859 340.948476 80.2198037 340.948476 79.4964781 341.182309 78.9456697 341.648938 78.5704965M340.187737 84.7260393C340.187737 84.4890878 340.089007 84.370612 339.893626 84.370612 339.67746 84.370612 339.476882 84.4693418 339.293972 84.6647229 339.112102 84.8611432 338.929192 85.1999423 338.746282 85.6800808L338.269261 86.9490185 337.873303 86.9490185 338.452171 85.3246536C338.972841 83.896709 340.007945 83.1827367 341.557483 83.1827367 342.301594 83.1827367 342.848245 83.3625289 343.196397 83.7210739 343.54455 84.0796189 343.719145 84.5400115 343.719145 85.1012125 343.719145 85.433776 343.661986 85.764261 343.546628 86.0957852L341.384965 92.4997113C341.317413 92.7034065 341.283118 92.872806 341.283118 93.0079099 341.283118 93.251097 341.402633 93.3726905 341.638545 93.3726905 342.044896 93.3726905 342.409677 92.9362009 342.734965 92.0632217L343.171455 90.8961316 343.567413 90.8961316 343.049861 92.418649C342.562448 93.8465935 341.570993 94.5605658 340.075497 94.5605658 339.372956 94.5605658 338.827344 94.3953233 338.441778 94.0627598 338.056212 93.7312356 337.86291 93.2407044 337.86291 92.5911663 337.86291 92.1318129 337.964758 91.5934758 338.167413 90.977194L340.075497 85.2435912C340.150323 85.0471709 340.187737 84.8746536 340.187737 84.7260393M353.563857 92.8957737C353.563857 93.2137875 353.709353 93.3727945 354.000346 93.3727945 354.271594 93.3727945 354.545958 93.2221016 354.827598 92.9207159 355.108199 92.6193303 355.332679 92.2431178 355.502079 91.79L355.827367 90.8962356 356.223326 90.8962356 355.827367 92.0435797C355.55612 92.8417321 355.137298 93.4611316 354.568822 93.900739 354.000346 94.3403464 353.32067 94.5606697 352.528753 94.5606697 351.757621 94.5606697 351.180831 94.3569746 350.798383 93.9516628 350.415935 93.5453118 350.224711 92.9976212 350.224711 92.307552 350.224711 91.9012009 350.293303 91.4574365 350.427367 90.9772979L352.437298 83.9955427 350.529215 83.9955427 350.631062 83.5787991 352.558891 83.5787991 353.462009 80.4225635C354.936721 80.4028176 356.199423 80.3040878 357.248037 80.1284527L356.232679 83.5787991 358.303926 83.5787991 358.24261 83.9955427 356.111085 83.9955427 353.625173 92.4998152C353.584642 92.6494688 353.563857 92.781455 353.563857 92.8957737M366.61552 78.5704965C367.082148 78.1953233 367.694273 78.0072171 368.452933 78.0072171 369.054665 78.0072171 369.512979 78.1267321 369.827875 78.3678406 370.142771 78.6079099 370.2997 78.9612587 370.2997 79.4278868 370.2997 79.8539838 370.188499 80.2322748 369.965058 80.559642 369.741617 80.8870092 369.435035 81.1416282 369.046351 81.3203811 368.657667 81.5001732 368.222217 81.5895497 367.742079 81.5895497 367.146582 81.5895497 366.693464 81.4731524 366.381686 81.2393187 366.070947 81.0065242 365.915058 80.6666859 365.915058 80.2198037 365.915058 79.4964781 366.148891 78.9456697 366.61552 78.5704965M365.154319 84.7260393C365.154319 84.4890878 365.055589 84.370612 364.860208 84.370612 364.644042 84.370612 364.443464 84.4693418 364.260554 84.6647229 364.078684 84.8611432 363.895774 85.1999423 363.712864 85.6800808L363.235843 86.9490185 362.839885 86.9490185 363.418753 85.3246536C363.939423 83.896709 364.974527 83.1827367 366.524065 83.1827367 367.268176 83.1827367 367.814827 83.3625289 368.162979 83.7210739 368.511132 84.0796189 368.685727 84.5400115 368.685727 85.1012125 368.685727 85.433776 368.628568 85.764261 368.51321 86.0957852L366.351547 92.4997113C366.283995 92.7034065 366.2497 92.872806 366.2497 93.0079099 366.2497 93.251097 366.369215 93.3726905 366.605127 93.3726905 367.011478 93.3726905 367.376259 92.9362009 367.701547 92.0632217L368.138037 90.8961316 368.533995 90.8961316 368.016443 92.418649C367.52903 93.8465935 366.537575 94.5605658 365.042079 94.5605658 364.339538 94.5605658 363.793926 94.3953233 363.40836 94.0627598 363.022794 93.7312356 362.829492 93.2407044 362.829492 92.5911663 362.829492 92.1318129 362.931339 91.5934758 363.133995 90.977194L365.042079 85.2435912C365.116905 85.0471709 365.154319 84.8746536 365.154319 84.7260393M380.372529 85.1622171C379.781189 86.2045958 379.264677 87.4631409 378.825069 88.9378522 378.385462 90.4125635 378.165139 91.7594457 378.165139 92.9774596 378.165139 93.4035566 378.197356 93.7049423 378.26179 93.8805774 378.325185 94.0562125 378.425993 94.1445497 378.561097 94.1445497 378.933152 94.1445497 379.413291 93.6436259 380.002552 92.6417783 380.590774 91.6399307 381.105208 90.4115242 381.544815 88.9524018 381.984423 87.4943187 382.204746 86.1131409 382.204746 84.8067898 382.204746 84.3266513 382.17149 84.0055196 382.108095 83.8423557 382.043661 83.6802309 381.957402 83.5991686 381.849319 83.5991686 381.456478 83.5991686 380.963868 84.1198383 380.372529 85.1622171M375.526455 87.4454734C376.066871 86.2347344 376.88373 85.221455 377.971836 84.4056351 379.060982 83.5908545 380.388118 83.1834642 381.951166 83.1834642 383.15567 83.1834642 384.074376 83.4879677 384.706247 84.0969746 385.338118 84.7059815 385.655092 85.5810393 385.655092 86.7252656 385.655092 87.8954734 385.383845 89.0864665 384.84343 90.2972055 384.301975 91.5079446 383.485115 92.5222633 382.391813 93.3370439 381.29955 94.1518245 379.974492 94.560254 378.418718 94.560254 377.214215 94.560254 376.295508 94.2557506 375.663637 93.6467436 375.030727 93.0377367 374.714792 92.1647575 374.714792 91.0288453 374.714792 89.8513626 374.985 88.6562125 375.526455 87.4454734M403.385508 90.8964434L402.867956 92.4189607C402.368072 93.8469053 401.375577 94.5598383 399.89463 94.5598383 399.000866 94.5598383 398.375231 94.3093764 398.016686 93.8094919 397.78597 93.4977136 397.671651 93.10903 397.671651 92.6424018 397.671651 92.2027945 397.779734 91.6478291 397.995901 90.9775058L399.78239 85.598291C399.903984 85.2459815 399.9653 84.9768129 399.9653 84.7866282 399.9653 84.5766975 399.891513 84.4717321 399.741859 84.4717321 399.383314 84.4717321 398.917725 84.957067 398.346132 85.928776 397.775577 86.8994457 397.196709 88.1413626 396.610566 89.6534873 396.025462 91.165612 395.532852 92.682933 395.134815 94.2054503L395.144169 94.1649192 395.11403 94.2657275 391.42985 94.2657275 393.966686 85.243903C394.048788 84.9393995 394.089319 84.7388222 394.089319 84.6442494 394.089319 84.4623788 393.987471 84.3709238 393.784815 84.3709238 393.568649 84.3709238 393.368072 84.4686143 393.186201 84.6650346 393.003291 84.8604157 392.820381 85.200254 392.637471 85.6793533L392.16045 86.948291 391.764492 86.948291 392.34336 85.3249654C392.600058 84.5943649 392.96276 84.0539492 393.429388 83.7057968 393.896016 83.3576443 394.485277 83.1830485 395.195092 83.1830485 395.973499 83.1830485 396.532621 83.3659584 396.874538 83.730739 397.216455 84.0965589 397.387933 84.5663048 397.387933 85.1420554 397.387933 85.4392841 397.344284 85.7583372 397.255947 86.096097L396.687471 88.2577598C397.227887 86.904642 397.747517 85.8601848 398.245323 85.1264665 398.74209 84.3927483 399.245092 83.8855889 399.752252 83.6039492 400.259411 83.3233487 400.838279 83.1830485 401.487818 83.1830485 402.847171 83.1830485 403.527887 83.7587991 403.527887 84.9082217 403.527887 85.3072979 403.436432 85.7812009 403.253522 86.3288915L401.20306 92.5000231C401.135508 92.702679 401.102252 92.8679215 401.102252 92.9967898 401.102252 93.248291 401.21657 93.3730023 401.447286 93.3730023 401.859873 93.3730023 402.228811 92.9365127 402.55306 92.0635335L402.98955 90.8964434 403.385508 90.8964434zM321.001732 67.7049192L321.001732 71.5190069 304.124134 71.5190069 304.124134 68.3596536 312.726097 59.4989145C313.55127 58.6727021 314.213279 57.8589607 314.714203 57.055612 315.21097 56.251224 315.461432 55.5559584 315.461432 54.9708545 315.461432 54.1456813 315.135104 53.4971824 314.485566 53.0315935 313.834988 52.5660046 312.931871 52.3321709 311.78037 52.3321709 310.782679 52.3321709 309.717436 52.5815935 308.589838 53.0783603 307.460162 53.5792841 306.394919 54.2745497 305.39515 55.1662356L303.668938 51.8115012C305.013741 50.7670439 306.433372 49.9574596 307.921594 49.381709 309.409815 48.808037 310.902194 48.5191224 312.400808 48.5191224 313.897344 48.5191224 315.221363 48.7591917 316.374942 49.2362125 317.525404 49.7142725 318.423326 50.3939492 319.062471 51.273164 319.702656 52.1513395 320.023788 53.168776 320.023788 54.3192379 320.023788 55.4281293 319.644457 56.5972979 318.883718 57.8381755 318.12194 59.0748961 317.058776 60.4093072 315.692148 61.8434873L309.892032 67.7049192 321.001732 67.7049192zM338.756467 53.9428176C337.886605 55.2585219 337.451155 57.3152194 337.451155 60.1160277 337.451155 62.8981293 337.886605 64.9485912 338.756467 66.2715704 339.624249 67.6007852 340.958661 68.2617552 342.762818 68.2617552 344.565935 68.2617552 345.899307 67.6007852 346.769169 66.2715704 347.636952 64.9485912 348.072402 62.8981293 348.072402 60.1160277 348.072402 57.3152194 347.636952 55.2585219 346.769169 53.9428176 345.899307 52.6302309 344.565935 51.9723788 342.762818 51.9723788 340.958661 51.9723788 339.624249 52.6302309 338.756467 53.9428176M350.028291 51.5161432C351.723326 53.5136028 352.568245 56.381963 352.568245 60.1160277 352.568245 63.8313857 351.723326 66.6872748 350.028291 68.6836952 348.335335 70.6832333 345.910739 71.681963 342.762818 71.681963 339.612818 71.681963 337.191339 70.6832333 335.498383 68.6836952 333.80127 66.6872748 332.95739 63.8313857 332.95739 60.1160277 332.95739 56.381963 333.80127 53.5136028 335.498383 51.5161432 337.191339 49.5186836 339.612818 48.5189145 342.762818 48.5189145 345.910739 48.5189145 348.335335 49.5186836 350.028291 51.5161432" mask="url(#mask-2)"/>
    <polygon fill="#FEFEFE" points="363.385 48.717 372.541 48.717 372.541 71.518 368.172 71.518 368.172 52.559 363.385 52.559" mask="url(#mask-2)"/>
    <path fill="#FEFEFE" d="M392.231744,52.4610393 C391.526085,53.005612 391.171697,53.766351 391.171697,54.7432564 C391.171697,55.7180831 391.526085,56.4798614 392.231744,57.0223557 C392.936363,57.5638106 393.918464,57.8381755 395.180127,57.8381755 C396.437633,57.8381755 397.415577,57.5638106 398.109804,57.0223557 C398.805069,56.4798614 399.153222,55.7180831 399.153222,54.7432564 C399.153222,53.766351 398.805069,53.005612 398.109804,52.4610393 C397.415577,51.918545 396.437633,51.6452194 395.180127,51.6452194 C393.918464,51.6452194 392.936363,51.918545 392.231744,52.4610393 M391.693406,62.1375982 C390.868233,62.7455658 390.455647,63.6029561 390.455647,64.7108083 C390.455647,65.840485 390.868233,66.720739 391.693406,67.3494919 C392.51754,67.9792841 393.679434,68.2941801 395.180127,68.2941801 C396.656917,68.2941801 397.812575,67.9855196 398.64918,67.3650808 C399.484746,66.7477598 399.903568,65.8716628 399.903568,64.7430254 C399.903568,63.6341339 399.484746,62.7725866 398.64918,62.1531871 C397.812575,61.5337875 396.646524,61.225127 395.148949,61.225127 C393.670081,61.225127 392.51754,61.5306697 391.693406,62.1375982 M400.799411,50.1320554 C402.177471,51.2066513 402.86754,52.6688915 402.86754,54.5135797 C402.86754,55.5559584 402.585901,56.5027252 402.020543,57.3466051 C401.455185,58.1956813 400.673661,58.8576905 399.673891,59.3336721 C401.020774,59.8356351 402.078741,60.5953349 402.849873,61.6179677 C403.623083,62.6354042 404.00761,63.8097691 404.00761,65.1327483 C404.00761,66.4588453 403.649065,67.620739 402.933014,68.6215473 C402.214885,69.6202771 401.189134,70.3841339 399.852644,70.9172748 C398.516155,71.4493764 396.960381,71.7164665 395.180127,71.7164665 C393.397794,71.7164665 391.838903,71.4493764 390.503453,70.9172748 C389.168002,70.3841339 388.142252,69.6296305 387.425162,68.6516859 C386.707032,67.6747806 386.348487,66.525358 386.348487,65.199261 C386.348487,63.8513395 386.751721,62.6645035 387.555069,61.6325173 C388.357379,60.6005312 389.465231,59.8356351 390.879665,59.3336721 C389.814423,58.8161201 388.983014,58.1177367 388.386478,57.2499538 C387.789942,56.3811316 387.490635,55.4177367 387.490635,54.3493764 C387.490635,52.5701617 388.180704,51.1526097 389.560843,50.0987991 C390.938903,49.0460277 392.801259,48.5191224 395.148949,48.5191224 C397.536132,48.5191224 399.418233,49.0574596 400.799411,50.1320554" mask="url(#mask-2)"/>
    <polygon fill="#FEFEFE" points="336.08 30.223 344.591 30.223 344.591 32.173 341.477 32.173 341.477 40.408 339.178 40.408 339.178 32.173 336.08 32.173" mask="url(#mask-2)"/>
    <polygon fill="#FEFEFE" points="349.029 30.223 351.328 30.223 351.328 34.472 355.939 34.472 355.939 30.223 358.239 30.223 358.239 40.408 355.939 40.408 355.939 36.393 351.328 36.393 351.328 40.408 349.029 40.408" mask="url(#mask-2)"/>
    <polygon fill="#FEFEFE" points="363.68 30.223 371.435 30.223 371.435 32.129 365.979 32.129 365.979 34.341 370.883 34.341 370.883 36.247 365.979 36.247 365.979 38.502 371.595 38.502 371.595 40.408 363.68 40.408" mask="url(#mask-2)"/>
    <polygon fill="#FEFEFE" points="382.244 36.756 390.452 36.756 390.452 33.877 382.244 33.877" mask="url(#mask-2)"/>
    <polygon fill="#FEFEFE" points="316.897 36.754 325.107 36.754 325.107 33.874 316.897 33.874" mask="url(#mask-2)"/>
  </g>
</svg>
