<svg xmlns="http://www.w3.org/2000/svg" viewBox="0 0 29 30">
  <g fill="#9C1F40" fill-rule="evenodd">
    <path d="M28.4915245 28.2661721L26.1148188 20.3515747 24.5967484 20.8059825 26.6677505 27.7025019 1.8575693 27.7025019 3.92857143 20.8059825 2.41050107 20.3515747.0337953092 28.2661721C-.0386993603 28.5061552.00676972281 28.7659994.157462687 28.9662071.306716418 29.1678526.542697228 29.2856877.792857143 29.2856877L27.7338486 29.2856877C27.9840085 29.2856877 28.2199893 29.1678526 28.3692431 28.9662071 28.5184968 28.7659994 28.5639659 28.5061552 28.4915245 28.2661721M14.2626546 7.9145761C16.0096162 7.9145761 17.4325373 9.33450727 17.4325373 11.0810008 17.4325373 12.8274943 16.0110554 14.2474255 14.2626546 14.2474255 12.5142537 14.2474255 11.0927719 12.8274943 11.0927719 11.0810008 11.0927719 9.33450727 12.515693 7.9145761 14.2626546 7.9145761M14.2626546 15.8291735C16.8838699 15.8291735 19.017452 13.6993034 19.017452 11.0795631 19.017452 8.45982286 16.8838699 6.33139039 14.2626546 6.33139039 11.6414392 6.33139039 9.50785714 8.46126052 9.50785714 11.0810008 9.50785714 13.700741 11.6414392 15.8291735 14.2626546 15.8291735"/>
    <path d="M14.2626546,1.58175338 C19.505032,1.58175338 23.7708102,5.8429313 23.7708102,11.0795897 C23.7708102,12.4256677 23.495064,13.7234508 22.9492217,14.9402988 C22.5199041,15.9058755 21.930032,16.7904638 21.2150533,17.5543949 L14.2626546,24.499156 L7.32875267,17.5728183 C6.59527719,16.7918482 6.00540512,15.9058755 5.57470149,14.9389144 C5.0302452,13.7248884 4.7530597,12.4270521 4.7530597,11.0809742 C4.75449893,5.8429313 9.02027719,1.58175338 14.2626546,1.58175338 M6.19015991,18.673269 L13.70258,26.1774936 C13.8575373,26.3322819 14.059403,26.4089573 14.2626546,26.4089573 C14.4659062,26.4089573 14.6677719,26.3322819 14.8227292,26.1774936 L22.3522068,18.6548456 C23.2079104,17.7446456 23.8944776,16.7109664 24.3962367,15.5863949 C25.0330704,14.1679014 25.3557249,12.6514339 25.3557249,11.0809742 C25.3557249,4.97106896 20.3792324,-4.79220779e-05 14.2626546,-4.79220779e-05 C8.14607676,-4.79220779e-05 3.16958422,4.96968455 3.16958422,11.0809742 C3.16958422,12.6514339 3.4921855,14.1679014 4.12757996,15.5849573 C4.62939232,16.7109664 5.31739872,17.7446456 6.19015991,18.673269"/>
  </g>
</svg>
