<svg xmlns="http://www.w3.org/2000/svg" viewBox="0 0 21 33">
  <path fill="#FFFFFF" fill-rule="evenodd" d="M16.5652011,18.5289495 C14.7105943,22.0079918 11.8971197,24.2016048 7.59361297,25.2038595 C9.86602384,22.4715586 11.9018714,19.600216 13.6576555,16.5831001 C13.8652,16.241209 13.7562519,15.7958567 13.4143607,15.5883123 C13.2836343,15.5089487 13.1311862,15.4730286 12.9788511,15.4856431 C12.7423444,15.5062901 12.5310099,15.6415984 12.4131808,15.8477287 C10.5983407,18.9663824 8.48052749,21.9298161 6.08898644,24.7513232 C5.72378967,16.5442386 7.96548464,12.6105105 11.3270372,9.7836861 L12.741213,12.894873 C12.9090474,13.2579202 13.3393528,13.4161947 13.7024001,13.2483603 C13.9148658,13.15016 14.0668049,12.95523 14.1101918,12.7251719 L15.1510252,6.84220036 C16.6554255,5.75260615 18.1544519,4.63653858 19.48406,3.17665658 C19.3293492,9.68808782 18.511107,14.8785091 16.5652011,18.5289495 M20.2762247,0.291398461 C20.2685882,0.291398461 20.2609516,0.291511595 20.2533151,0.291737863 C20.0213903,0.298808743 19.8068315,0.416581307 19.6763879,0.608513252 C18.1366898,2.86955415 16.1974588,4.31789648 14.0649382,5.85793397 C13.9097748,5.96790028 13.804051,6.13454677 13.7707896,6.32178365 L13.0919852,10.1796553 L12.2434797,8.32425664 C12.0804535,7.95911644 11.6521845,7.79518517 11.2869877,7.95821136 C11.2370956,7.98055534 11.189749,8.00849946 11.1460227,8.04142147 C6.91158424,11.2943653 3.90747879,16.1608272 4.70869425,26.3465135 C3.30079735,27.9094607 1.80182753,29.4178206 0.228585189,30.8945596 C-0.0630744367,31.1681744 -0.0777252984,31.626537 0.19594601,31.9182532 C0.469673886,32.2099694 0.927979992,32.2245637 1.21975275,31.9508924 C1.22122349,31.9494782 1.22269424,31.9481206 1.22422155,31.9466499 C2.92473971,30.3503848 4.53090406,28.7012295 6.04373281,27.0026911 C11.7132203,26.1681577 15.5409984,23.5174265 17.8322461,19.2190673 C20.1936934,14.7893029 20.9999999,8.70681949 20.9999999,1.01579589 C21.0001696,0.615866966 20.6760971,0.291568162 20.2762247,0.291398461"/>
</svg>
