<svg xmlns="http://www.w3.org/2000/svg" viewBox="0 0 30 30">
  <path fill="#FFFFFF" fill-rule="evenodd" d="M24.0494491,34.5315903 C20.0718842,30.5607814 20.0718842,24.0631806 24.0494491,20.0923717 C26.0640915,18.0811951 28.6469574,17.1014222 31.2815431,17.1014222 C33.9160421,17.1014222 36.5505411,18.0811951 38.5135504,20.0923717 C42.4912021,24.0631806 42.4912021,30.5607814 38.5135504,34.5315903 C34.5358987,38.5023126 28.0271008,38.5023126 24.0494491,34.5315903 L24.0494491,34.5315903 Z M49,43.5044386 L40.6831786,35.2019247 C44.7640096,30.3545179 44.5573908,23.1349519 40.0115155,18.596897 C35.2074751,13.8010343 27.4071575,13.8010343 22.6030303,18.596897 C17.7989899,23.3927596 17.7989899,31.1796582 22.6030303,35.9754342 C24.9793641,38.34768 28.1820867,39.5852605 31.3331762,39.5852605 C34.174294,39.5852605 36.9637788,38.6054877 39.2883061,36.6974861 L47.6052142,45 L49,43.5044386 Z" transform="translate(-19 -15)"/>
</svg>
