<svg xmlns="http://www.w3.org/2000/svg" viewBox="0 0 25 25">
  <g fill="#FFFFFF">
    <path d="M24.4645604,22.5406593 L19.4107143,17.4868132 C19.6618132,17.1634615 19.8972527,16.8271978 20.1107143,16.4760989 C20.2002747,16.3288462 20.2862637,16.1791209 20.3686813,16.0274725 C20.5335165,15.7239011 20.6843407,15.4112637 20.8197802,15.0909341 C21.1585165,14.2898352 21.4027473,13.4387363 21.5381868,12.5521978 C21.5923077,12.1975275 21.6291209,11.8370879 21.6478022,11.471978 C21.6571429,11.2892857 21.6618132,11.1054945 21.6618132,10.9206044 C21.6618132,5.0032967 16.8648352,0.206318681 10.9475275,0.206318681 C10.7626374,0.206318681 10.5788462,0.210989011 10.3961538,0.22032967 C10.031044,0.238736264 9.6706044,0.275549451 9.31593407,0.329945055 C8.42912088,0.465384615 7.5782967,0.709615385 6.7771978,1.04835165 C6.45659341,1.18379121 6.14423077,1.33461538 5.84065934,1.49945055 C5.68873626,1.58186813 5.53928571,1.66785714 5.39203297,1.75741758 C4.95027473,2.02582418 4.5293956,2.32527473 4.13241758,2.65302198 C3.86785714,2.87142857 3.61401099,3.1021978 3.37142857,3.34450549 C3.12884615,3.58681319 2.89835165,3.84065934 2.67994505,4.10549451 C1.15137363,5.95714286 0.233241758,8.33159341 0.233241758,10.9203297 C0.233241758,11.1052198 0.237912088,11.289011 0.247252747,11.4717033 C0.265659341,11.8368132 0.302472527,12.1972527 0.356868132,12.5519231 C0.492307692,13.4387363 0.736538462,14.2895604 1.07527473,15.0906593 C1.21071429,15.4112637 1.36153846,15.7236264 1.52637363,16.0271978 C1.60879121,16.1791209 1.69478022,16.3285714 1.78434066,16.4758242 C2.67912088,17.9486264 3.91895604,19.1884615 5.39175824,20.0832418 C5.53901099,20.1728022 5.68873626,20.2587912 5.84038462,20.3412088 C6.14395604,20.506044 6.45659341,20.6568681 6.77692308,20.7923077 C7.57802198,21.131044 8.42912088,21.3752747 9.31565934,21.5107143 C9.67032967,21.5648352 10.0307692,21.6016484 10.3958791,21.6203297 C10.5785714,21.6296703 10.7623626,21.6343407 10.9472527,21.6343407 C13.3989011,21.6343407 15.6568681,20.8090659 17.4626374,19.4236264 L22.521978,24.482967 C22.7901099,24.7513736 23.1417582,24.8854396 23.4931319,24.8854396 C23.8445055,24.8854396 24.1964286,24.7513736 24.4642857,24.482967 C25.0010989,23.9467033 25.0010989,23.0769231 24.4645604,22.5406593 Z M2.43104396,10.9203297 C2.43104396,6.22417582 6.25164835,2.40384615 10.9475275,2.40384615 C15.6436813,2.40384615 19.464011,6.22417582 19.464011,10.9203297 C19.464011,15.6162088 15.6436813,19.4368132 10.9475275,19.4368132 C6.25164835,19.4368132 2.43104396,15.6162088 2.43104396,10.9203297 Z"/>
    <path d="M14.793956,9.82142857 L12.0467033,9.82142857 L12.0467033,7.07417582 C12.0467033,6.46730769 11.5546703,5.97527473 10.9478022,5.97527473 C10.3409341,5.97527473 9.8489011,6.46730769 9.8489011,7.07417582 L9.8489011,9.82142857 L7.10164835,9.82142857 C6.49478022,9.82142857 6.00274725,10.3134615 6.00274725,10.9203297 C6.00274725,11.5271978 6.49478022,12.0192308 7.10164835,12.0192308 L9.8489011,12.0192308 L9.8489011,14.7664835 C9.8489011,15.3733516 10.3409341,15.8653846 10.9478022,15.8653846 C11.5546703,15.8653846 12.0467033,15.3733516 12.0467033,14.7664835 L12.0467033,12.0192308 L14.793956,12.0192308 C15.4008242,12.0192308 15.8928571,11.5271978 15.8928571,10.9203297 C15.8928571,10.3134615 15.4008242,9.82142857 14.793956,9.82142857 Z"/>
  </g>
</svg>
