<svg xmlns="http://www.w3.org/2000/svg" width="220" height="50" viewBox="0 0 220 50">
  <path fill="#FEFEFE" fill-rule="evenodd" d="M168.953064,16.1673376 C168.675611,17.9028153 167.98058,19.3061911 166.853255,20.3557452 C165.737841,21.4074013 164.373701,21.9321783 162.776949,21.9321783 C161.182299,21.9314777 159.944274,21.4045987 159.123127,20.3158089 C158.321599,19.2326242 158.086885,17.8019236 158.362936,16.072051 C158.639688,14.3372739 159.329115,12.9331975 160.441726,11.8836433 C161.570452,10.8326879 162.943,10.3072102 164.539752,10.3072102 C166.176439,10.3072102 167.422873,10.8467006 168.21249,11.9726242 C168.993701,13.0670191 169.222809,14.4781019 168.953064,16.1673376 M164.812299,9.19179618 C166.964656,9.19179618 168.506758,9.89873885 169.500261,11.2719873 C170.413892,12.5184204 170.733382,14.1011592 170.422299,16.0517325 C170.083892,18.1662548 169.143637,19.8681019 167.602936,21.1733885 C166.158924,22.3945987 164.466185,23.0048535 162.510707,23.0048535 C160.621089,23.0041529 159.190389,22.4415414 158.177968,21.3471465 C157.003,20.0754904 156.566503,18.372242 156.91542,16.1869554 C157.247522,14.1130701 158.149242,12.4378471 159.618478,11.1479745 C161.10593,9.84198726 162.832299,9.19109554 164.812299,9.19179618 Z M172.115529,22.7966943 L174.270688,9.30382803 L180.744573,9.30452866 L180.153936,10.3996242 L175.650242,10.3989236 C175.511516,10.3989236 175.378395,10.5117261 175.356675,10.649051 L174.649732,15.0735732 C174.620306,15.2578408 174.75693,15.4182866 174.943299,15.4182866 L179.233299,15.4182866 L179.061643,16.4909618 L174.676357,16.4909618 C174.537631,16.4909618 174.40521,16.6037643 174.38349,16.7410892 L173.415911,22.7966943 L172.115529,22.7966943 Z M185.126567,10.3996943 C184.987841,10.3996943 184.85472,10.5124968 184.833,10.6498217 L184.126057,15.0750446 C184.096631,15.2586115 184.232554,15.4190573 184.419624,15.4190573 L188.709624,15.419758 L188.537968,16.4924331 L184.152682,16.4917325 C184.013955,16.4917325 183.881535,16.604535 183.859815,16.7418599 L182.891535,22.797465 L181.591153,22.797465 L183.747013,9.30529936 L190.220898,9.306 L189.630261,10.4003949 L185.126567,10.3996943 Z M193.110325,10.158535 C193.913955,9.52375796 194.932682,9.19726115 196.189624,9.19726115 C197.287522,9.19726115 198.22007,9.39203822 198.995675,9.76968153 L198.786885,10.9943949 C197.941217,10.4976433 197.014274,10.2489172 196.012363,10.2489172 C195.273892,10.2489172 194.632108,10.3995541 194.102427,10.7190446 C193.508987,11.0763694 193.14886,11.5997452 193.040962,12.2730573 C192.888223,13.230828 193.408096,14.0708917 194.411408,14.786242 C195.309624,15.4140127 196.209943,16.0354777 197.110261,16.6492357 C197.946822,17.4465605 198.26421,18.3819108 198.089051,19.477707 C197.923,20.5181529 197.382809,21.3624204 196.448159,22.0182166 C195.522618,22.6761146 194.431025,23.0103185 193.160771,23.0103185 C191.833764,23.0103185 190.700834,22.690828 189.75007,22.0630573 L190.476631,21.0807643 C191.289369,21.6826115 192.253446,21.9796815 193.356248,21.9803822 C194.101025,21.9803822 194.766631,21.8143312 195.353064,21.4710191 C196.062809,21.0765605 196.495803,20.5076433 196.614911,19.7635669 C196.773255,18.7728662 196.275102,17.9026752 195.282299,17.1670064 C194.415611,16.5574522 193.553828,15.9598089 192.674529,15.3502548 C191.835866,14.5767516 191.499561,13.6470064 191.674019,12.5589172 C191.827459,11.596242 192.30179,10.7989172 193.110325,10.158535 Z M199.985675,22.7950127 L202.142236,9.30284713 L208.600006,9.30354777 L208.023382,10.3979427 L203.52179,10.397242 C203.382363,10.397242 203.249943,10.5107452 203.228223,10.6473694 L202.531089,15.0081338 C202.502363,15.1924013 202.638287,15.3528471 202.825357,15.3528471 L207.114656,15.3528471 L206.943,16.4262229 L202.557713,16.4255223 C202.418987,16.4255223 202.287268,16.5383248 202.264847,16.6756497 L201.516567,21.3573057 C201.48714,21.5408726 201.623764,21.7013185 201.810134,21.7013185 L206.805675,21.7020191 L206.631217,22.796414 L199.985675,22.7950127 Z M209.736089,9.306 L219.474943,9.30670064 L218.926344,10.4017962 L215.175834,10.4003949 C215.037108,10.4003949 214.905389,10.5138981 214.882968,10.6512229 L212.941503,22.7988662 L211.620102,22.7988662 L213.546153,10.7451083 C213.57558,10.5608408 213.438955,10.4003949 213.252586,10.4003949 L209.56093,10.4003949 L209.736089,9.306 Z M113.766344,9.24784713 L116.654369,9.24784713 C118.10749,9.24784713 119.144433,9.62899363 119.819146,10.3401401 C120.487554,11.0288662 120.745389,12.0153631 120.530994,13.3577834 C120.337618,14.5684841 119.806535,15.5591847 118.938446,16.3424968 C117.930229,17.2589299 116.623541,17.7262548 114.995962,17.7262548 L113.989146,17.7255541 C113.956917,17.7255541 113.916981,17.7591847 113.910675,17.7907134 L112.943096,22.8023694 L111.599975,22.8023694 L113.766344,9.24784713 Z M119.089783,13.4670828 C119.233414,12.5660637 119.071567,11.8037707 118.552395,11.2236433 C118.043032,10.6372102 117.238701,10.3793758 116.212268,10.3793758 L115.163414,10.3786752 C115.131185,10.3786752 115.090548,10.4123057 115.084242,10.444535 L113.987045,16.558293 C113.979338,16.6010318 114.009465,16.645172 114.052904,16.6521783 L115.384115,16.6577834 C117.495834,16.6591847 118.753478,15.5703949 119.089783,13.4670828 Z M123.272726,21.3474968 C123.265019,21.3965414 123.29865,21.437879 123.347694,21.4399809 L128.46935,21.6648854 L128.287885,22.804121 L121.701197,22.8034204 L123.867567,9.24889809 L125.205783,9.24889809 L123.272726,21.3474968 Z M139.743229,18.0968217 L141.157115,9.25057962 L142.495331,9.25057962 L141.07514,18.136758 C140.837624,19.6235096 140.225968,20.7823631 139.253484,21.6329363 C138.220045,22.5472675 136.814567,23.0187962 135.007624,23.0187962 C133.305777,23.0187962 132.150427,22.5928089 131.465904,21.8080955 C130.785586,21.0289873 130.541064,19.7888599 130.825522,18.0099427 L132.226096,9.24987898 L133.563611,9.24987898 L132.184758,17.8782229 C132.013803,18.9459936 132.119599,19.8526178 132.546987,20.5707707 C133.071764,21.4865032 134.028134,21.9089873 135.318006,21.9096879 C137.843102,21.9096879 139.341064,20.6149108 139.743229,18.0968217 Z M146.059541,10.1120127 C146.868076,9.47233121 147.893108,9.14443312 149.155656,9.14443312 C150.263363,9.14513376 151.204318,9.34201274 151.987631,9.72596178 L151.771134,10.9906115 C150.91986,10.4854522 149.986611,10.2332229 148.977694,10.2332229 C148.239924,10.2332229 147.600943,10.3831592 147.072662,10.7012484 C146.482726,11.0564713 146.124701,11.5770446 146.018204,12.2468535 C145.865465,13.1969172 146.381134,14.0327771 147.383745,14.7481274 C148.283363,15.3765987 149.173873,15.9903567 150.076293,16.6048153 C150.935274,17.4126497 151.253363,18.3508025 151.076102,19.4662166 C150.90865,20.5136688 150.364255,21.3635414 149.424701,22.0228408 C148.493554,22.6849427 147.396357,23.0205478 146.120497,23.0205478 C144.780879,23.0198471 143.636739,22.6961529 142.678268,22.0578726 L143.427248,21.0454522 C144.241389,21.6536051 145.208968,21.9534777 146.315975,21.9534777 C147.05935,21.9534777 147.724255,21.7881274 148.308586,21.4455159 C149.015529,21.0531592 149.44572,20.4863439 149.564127,19.747172 C149.721771,18.7627771 149.228522,17.8967898 148.23642,17.1618217 C147.364127,16.5480637 146.496038,15.9448153 145.610433,15.331758 C144.759159,14.5512484 144.436866,13.6306115 144.613427,12.5278089 C144.768968,11.5581274 145.246102,10.7558981 146.059541,10.1120127 Z M11.2091401,36.5603567 C11.2091401,36.9716306 11.111051,37.3744968 10.914172,37.7675541 C10.7369108,38.1613121 10.4902866,38.5270446 10.1742994,38.8626497 C8.37296178,40.7606752 6.42028662,41.0850701 5.37073248,41.0962803 C3.51894904,41.1158981 2.42315287,40.7095287 1.20194268,39.5948153 C0.611305732,39.0553248 0.280605096,38.3483822 0.126464968,37.7570446 C-0.0276751592,37.150293 -0.0409872611,36.5470446 0.0858280255,35.9487006 C0.203535032,35.3412484 0.406019108,35.1801019 0.314235669,35.7322038 C0.221751592,36.2667898 0.254681529,36.797172 0.410923567,37.321949 C0.493598726,37.5776815 0.587484076,37.8873631 0.745828025,38.2180637 C0.904872611,38.5508662 1.12907643,38.9053885 1.47308917,39.2487006 C2.0805414,39.8561529 3.06003185,40.3802293 4.235,40.6198471 C5.50525478,40.8790828 6.84066879,40.6737962 7.5539172,40.3571083 C8.25175159,40.0467261 8.83398089,39.7062166 9.25996815,39.1982548 C9.70697452,38.6699745 9.93047771,38.0492102 9.93047771,37.339465 C9.93047771,36.991949 9.84920382,36.6458344 9.68665605,36.3004204 C9.52410828,35.9353885 9.21232484,35.4631592 8.75200637,34.8830318 C8.35474522,34.3659618 8.04716561,33.9105478 7.82856688,33.5132866 C7.63308917,33.1216306 7.53429936,32.671121 7.53429936,32.1582548 C7.53429936,31.6460892 7.64289809,31.1346242 7.86009554,30.6210573 C8.09761146,30.1053885 8.38487261,29.6513758 8.72047771,29.2555159 C8.83888535,29.1174904 8.99652866,28.9598471 9.19550955,28.7804841 C9.41200637,28.5836051 9.65863057,28.4063439 9.93538217,28.2487006 C10.2317516,28.0903567 10.5673567,27.9523312 10.9435987,27.8332229 C11.3380573,27.7148153 11.7717516,27.6559618 12.2467834,27.6559618 C12.5613694,27.6559618 12.8668471,27.7050064 13.1611146,27.8030955 C13.4497771,27.8801656 13.7139172,28.0462166 13.9486306,28.2998471 C14.0341083,28.421758 14.0775478,28.5387643 14.0838535,28.6543694 L13.7874841,29.4467898 C13.6964013,29.7382548 13.623535,29.9862803 13.5653822,30.1950701 C13.5051274,30.2308025 13.4806051,30.2237962 13.4630892,30.2069809 C13.4792038,30.1271083 13.4932166,30.0612484 13.5030255,29.9967898 C13.5170382,29.9064076 13.5240446,29.8244331 13.5240446,29.7326497 C13.5240446,29.3543057 13.3355732,29.0032866 12.9691401,28.6774904 C12.6167197,28.3453885 12.052707,28.1856433 11.2883121,28.1856433 C10.4790764,28.1856433 9.81767516,28.4287643 9.30761146,28.9178089 C8.79684713,29.3879363 8.5439172,30.0206115 8.5439172,30.8109299 C8.5439172,31.4176815 8.68544586,31.9844968 8.96920382,32.5113758 C9.2494586,33.0326497 9.5605414,33.5139873 9.90175159,33.9553885 C10.1609873,34.2937962 10.3704777,34.5845605 10.5302229,34.8227771 C10.7081847,35.0406752 10.8476115,35.2501656 10.9457006,35.4456433 C11.0430892,35.6215032 11.1117516,35.7987643 11.1509873,35.9732229 C11.1895223,36.1273631 11.2091401,36.3235414 11.2091401,36.5603567 Z M36.9016369,16.6433503 C36.8785159,16.6433503 36.8238662,16.6762803 36.8126561,16.6965987 C35.6783248,18.8944968 34.4921465,21.1568535 33.6738025,22.8138599 L30.0914459,22.8138599 C32.5310637,18.1749427 37.4677516,7.41666242 40.1007452,0.797044586 L43.9612548,0.797044586 C46.4050764,7.76067516 49.8480064,16.3322675 53.0204904,22.8138599 L48.457242,22.8138599 C47.6543121,20.7806115 46.8794076,18.5701019 46.1696624,16.7064076 C46.1598535,16.6790828 46.1066051,16.6433503 46.0764777,16.6433503 L36.9016369,16.6433503 Z M41.6239299,5.06112102 L37.8559045,13.3874904 C37.8222739,13.461758 37.8622102,13.5220127 37.9469873,13.5220127 L44.5245669,13.5220127 C44.6009363,13.5220127 44.6422739,13.4666624 44.6191529,13.3965987 L41.8095987,5.06952866 C41.7738662,4.96513376 41.6694713,4.95952866 41.6239299,5.06112102 Z M8.59646497,22.8137898 C8.74990446,18.8790127 8.84729299,16.2067834 8.84729299,12.1774204 C8.84729299,8.15226115 8.63359873,1.88296178 8.59576433,0.796974522 L13.0833439,0.796974522 C17.0657643,6.02232484 24.0840446,16.1934713 24.0840446,16.1934713 C24.1513057,16.2908599 24.2634076,16.2600318 24.2662102,16.1430255 C24.4126433,10.9078662 23.9915605,2.10716561 23.9271019,0.796974522 L28.0650637,0.796974522 C28.0363376,1.88436306 27.8730892,8.21461783 27.8730892,12.2425796 C27.8730892,15.948949 28.1477389,21.7649363 28.1988854,22.8137898 L24.1940446,22.8137898 C20.333535,17.1540446 12.5445541,6.35512739 12.5445541,6.35512739 C12.4765924,6.26124204 12.3693949,6.29066879 12.3630892,6.40487261 C12.0358917,12.7421338 12.0702229,17.5197771 12.4149363,22.8137898 L8.59646497,22.8137898 Z M4.36735032,22.8137898 L0.206267516,22.8137898 C0.360407643,18.8292675 0.464802548,14.1342994 0.464802548,10.111242 C0.464802548,5.75468153 0.429770701,5.00359873 0.209070064,0.796974522 L4.36664968,0.796974522 C4.11161783,5.03442675 4.08989809,5.75398089 4.06817834,10.1105414 C4.04996178,13.6179299 4.14384713,18.7998408 4.36735032,22.8137898 Z M89.7920191,0.931566879 L106.869344,0.931566879 L106.870045,3.7502293 C104.871828,3.59398726 100.513866,3.76073885 100.513866,3.76073885 C100.469025,3.76284076 100.422083,3.80628025 100.41858,3.84901911 C100.168452,6.91150318 100.162847,8.7646879 100.162847,11.5385096 C100.162847,15.8936688 100.193675,18.5637962 100.374439,22.7844331 L96.0038662,22.7844331 C96.214758,18.5644968 96.245586,15.8929682 96.245586,11.5385096 C96.245586,8.83615287 96.1390892,7.04812739 96.1390892,3.85672611 C96.1390892,3.80838217 96.0928471,3.76284076 96.0431019,3.76073885 C96.0431019,3.76073885 94.800172,3.71729936 93.3897898,3.69557962 C92.0480701,3.67456051 90.5543121,3.67385987 89.8305541,3.74672611 L89.7920191,0.931566879 Z M67.6888854,36.1907006 C67.8192038,36.1907006 67.9285032,36.2229299 68.0216879,36.3014013 C68.1197771,36.3574522 68.1905414,36.4324204 68.1905414,36.5396178 C68.0973567,36.6790446 68.0174841,36.7827389 67.9292038,36.9088535 C67.853535,37.0356688 67.8051911,37.1267516 67.7827707,37.1835032 C67.7505414,37.233949 67.7021975,37.2892994 67.6321338,37.2892994 C67.5627707,37.2892994 67.515828,37.2388535 67.4871019,37.195414 C67.4730892,37.1596815 67.454172,37.133758 67.4107325,37.100828 C67.3686943,37.0496815 67.3168471,37.0118471 67.2348726,36.9768153 C67.1746178,36.9459873 67.0849363,36.9270701 66.9644268,36.9270701 C66.8179936,36.9270701 66.6477389,36.9782166 66.4522611,37.0882166 C66.2539809,37.1996178 66.0809236,37.3236306 65.9330892,37.4588535 C65.6955732,37.6718471 65.481879,37.8974522 65.2948089,38.1342675 C65.1182484,38.3612739 64.9486943,38.6071975 64.7847452,38.8713376 C64.6207962,39.1235669 64.4617516,39.3905096 64.310414,39.6679618 C64.1576752,39.9356051 63.9909236,40.2116561 63.8122611,40.4926115 C63.7695223,40.5556688 63.7036624,40.5864968 63.6286943,40.5864968 C63.5880573,40.5864968 63.5474204,40.5619745 63.5214968,40.5444586 C63.4906688,40.5241401 63.4493312,40.4912102 63.4016879,40.4505732 C63.3302229,40.3791083 63.2608599,40.2964331 63.2608599,40.2186624 C63.2608599,40.1184713 63.3162102,39.9874522 63.4051911,39.8347134 L63.6448089,39.4157325 C63.4619427,39.5663694 63.2685669,39.7107006 63.0646815,39.8487261 C62.7171656,40.0806369 62.3479299,40.2740127 61.961879,40.4288535 C61.5723248,40.5717834 61.1932803,40.643949 60.8268471,40.643949 C60.1927707,40.643949 59.848758,40.3489809 59.848758,39.7611465 C59.848758,39.3919108 59.941242,38.9981529 60.122707,38.5840764 C59.879586,38.7473248 59.6098408,38.9231847 59.3330892,39.073121 C58.5644904,39.4829936 57.7566561,39.7842675 56.9102866,39.976242 C56.6167197,40.04 56.3616879,40.0911465 56.1444904,40.1296815 L55.533535,40.2375796 C55.172707,40.8478344 54.8300955,41.4524841 54.5064013,42.050828 C54.1757006,42.6736943 53.8457006,43.2895541 53.515,43.8998089 C53.0329618,44.8015287 52.5943631,45.6521019 52.2013057,46.4515287 C51.8061465,47.253758 51.3794586,48.0496815 50.921242,48.8392994 C50.8245541,49.0053503 50.6942357,49.1300637 50.5274841,49.2134395 C50.3684395,49.3059236 50.1869745,49.3829936 49.9788854,49.4481529 C49.7735987,49.5119108 49.5367834,49.5763694 49.2684395,49.6401274 C49.0042994,49.7031847 48.7191401,49.7893631 48.4045541,49.9028662 C48.3120701,49.9491083 48.1880573,49.9547134 48.1586306,49.8075796 C48.1292038,49.689172 48.2202866,49.6261146 48.306465,49.5973885 C48.6329618,49.4719745 48.9090127,49.3465605 49.1346178,49.2211465 C49.3574204,49.1097452 49.5620064,48.9738217 49.7469745,48.8133758 C49.9207325,48.6522293 50.0874841,48.4602548 50.2500318,48.2353503 C50.4146815,48.0076433 50.6038535,47.7238854 50.818949,47.3826752 C51.0347452,47.0267516 51.3009873,46.5832484 51.6183758,46.0493631 C51.9238535,45.5280892 52.266465,44.9500637 52.6483121,44.314586 C53.028758,43.6791083 53.4295223,42.9994904 53.8485032,42.2757325 C54.254172,41.5863057 54.6661465,40.8912739 55.0844268,40.1906369 C55.0227707,40.1338854 54.9996497,40.047707 54.9996497,39.953121 C54.9996497,39.8361146 55.0690127,39.7583439 55.1839172,39.7387261 C55.251879,39.7296178 55.3086306,39.7191083 55.354172,39.71 L55.8123885,38.9610191 C55.4669745,39.3190446 55.1152548,39.6448408 54.7572293,39.9391083 C54.3971019,40.2347771 54.0369745,40.4729936 53.6747452,40.653758 C53.3237261,40.8359236 52.9937261,40.9298089 52.6847452,40.9298089 C52.4199045,40.9298089 52.2111146,40.863949 52.0864013,40.7084076 C51.9714968,40.5640764 51.9161465,40.3868153 51.9161465,40.180828 C51.9161465,39.9895541 51.9707962,39.7429299 52.0737898,39.4472611 C52.1039172,39.3659873 52.1382484,39.2833121 52.1760828,39.1999363 C51.9175478,39.4878981 51.6926433,39.7128025 51.4621338,39.9180892 C51.2295223,40.1247771 50.9955096,40.2936306 50.7607962,40.423949 C50.5253822,40.5549682 50.3081847,40.6250318 50.1113057,40.6250318 C49.7988217,40.6250318 49.6285669,40.4547771 49.6285669,40.142293 C49.6285669,39.8312102 49.7497771,39.4486624 49.9809873,38.9995541 C50.2135987,38.5469427 50.5232803,38.1153503 50.9093312,37.7033758 C51.3079936,37.2787898 51.7585032,36.9179618 52.2608599,36.622293 C52.752707,36.3196178 53.2648726,36.1626752 53.7966561,36.1535669 C53.852707,36.0463694 53.9073567,35.9629936 53.9606051,35.9104459 C54.0166561,35.8543949 54.0811146,35.8074522 54.1413694,35.7773248 L54.7130892,35.6133758 L54.8819427,35.6974522 C54.7425159,35.836879 54.6836624,35.9132484 54.622707,36.0106369 L54.5232166,36.1780892 L54.6752548,36.1914013 C54.8055732,36.2040127 54.9106688,36.2194268 54.9765287,36.2327389 C55.0430892,36.2593631 55.1299682,36.3126115 55.1299682,36.4064968 C55.1299682,36.4898726 55.0746178,36.5459236 54.991242,36.5459236 C54.8980573,36.5192994 54.7915605,36.5010828 54.6409236,36.4884713 C54.520414,36.4786624 54.4244268,36.4723567 54.3522611,36.4702548 C53.781242,37.4770701 53.3580573,38.28 53.0834076,38.8804459 C52.8171656,39.4766879 52.6903503,39.9075796 52.6903503,40.180828 C52.6903503,40.283121 52.7106688,40.3580892 52.7506051,40.4176433 C52.7891401,40.464586 52.8746178,40.4989172 53.0469745,40.4989172 C53.2326433,40.4989172 53.4596497,40.4351592 53.7328981,40.298535 C54.0075478,40.1485987 54.2997134,39.9496178 54.615,39.6980892 C54.9302866,39.4325478 55.251879,39.1298726 55.5804777,38.7886624 C55.9216879,38.4481529 56.241879,38.090828 56.5452548,37.7117834 C56.5613694,37.6865605 56.5851911,37.6627389 56.6139172,37.6494268 C56.886465,37.195414 57.1590127,36.7294904 57.4315605,36.2530573 C57.8407325,35.537707 58.2653185,34.8952229 58.6990127,34.3333121 C58.7627707,34.2702548 58.848949,34.2226115 58.9477389,34.1938854 C58.9855732,34.1777707 59.0416242,34.1651592 59.109586,34.153949 L59.3386943,34.1161146 C59.4192675,34.1021019 59.4942357,34.0957962 59.5614968,34.0957962 C59.6049363,34.0852866 59.6525796,34.076879 59.6757006,34.076879 C59.7240446,34.076879 59.8151274,34.0971975 59.8151274,34.1966879 C59.8151274,34.2695541 59.7681847,34.335414 59.7142357,34.3893631 C59.1957643,34.8819108 58.7648726,35.3317197 58.4236624,35.7366879 C58.2744268,35.913949 58.1265924,36.1017197 57.9808599,36.3 C58.0579299,36.2292357 58.1357006,36.1612739 58.2127707,36.0968153 C58.3690127,35.9664968 58.5245541,35.8621019 58.6835987,35.7829299 C58.8440446,35.6890446 58.9960828,35.64 59.1425159,35.64 C59.2868471,35.64 59.4080573,35.6813376 59.5026433,35.7759236 C59.6182484,35.8747134 59.6623885,36.0281529 59.6623885,36.2173248 C59.6623885,36.3630573 59.6000318,36.5718471 59.4851274,36.8387898 C59.3793312,37.1169427 59.1901592,37.4210191 58.920414,37.7552229 C58.661879,38.0915287 58.3143631,38.4383439 57.8792675,38.7970701 C57.5422611,39.0738217 57.1421975,39.3351592 56.6790764,39.5810828 C56.886465,39.5502548 57.1043631,39.5145223 57.3348726,39.4724841 C57.7615605,39.3842038 58.2001592,39.246879 58.6520701,39.0584076 C59.1039809,38.8573248 59.5551911,38.594586 60.0085032,38.2673885 C60.2158917,38.1111465 60.4176752,37.9366879 60.6145541,37.7412102 C60.6916242,37.6326115 60.7728981,37.5261146 60.8590764,37.4217197 C61.0020064,37.2472611 61.151242,37.0882166 61.3067834,36.9431847 C61.4798408,36.7834395 61.6507962,36.6482166 61.828758,36.5298089 C62.181879,36.2810828 62.5342994,36.1528662 62.8853185,36.1528662 C63.0660828,36.1528662 63.2146178,36.1808917 63.3028981,36.2698726 C63.3988854,36.3497452 63.4444268,36.4534395 63.4444268,36.5781529 C63.4444268,36.7491083 63.3883758,36.9263694 63.281879,37.1127389 C63.1865924,37.3019108 63.0394586,37.4812739 62.8425796,37.6515287 C62.6435987,37.8105732 62.3850637,37.9492994 62.0746815,38.0656051 C61.7839172,38.1671975 61.4476115,38.2190446 61.0671656,38.2232484 C61.0132166,38.3318471 60.9529618,38.4957962 60.8864013,38.7178981 C60.8128344,38.9512102 60.7757006,39.1915287 60.7757006,39.4374522 C60.7757006,39.9208917 60.9816879,40.1366879 61.3985669,40.1366879 C61.6774204,40.1366879 61.9646815,40.0701274 62.261051,39.9342038 C62.573535,39.796879 62.8734076,39.6280255 63.1613694,39.4276433 C63.4507325,39.213949 63.7134713,38.9890446 63.9523885,38.7501274 L64.1345541,38.5630573 C64.3041083,38.2708917 64.4617516,37.9955414 64.6060828,37.737707 C64.7959554,37.4210191 64.9557006,37.1470701 65.0825159,36.9186624 C65.2219427,36.6776433 65.3221338,36.5031847 65.3851911,36.3889809 C65.4118153,36.3294268 65.4377389,36.2824841 65.4650637,36.2467516 C65.4902866,36.2145223 65.5323248,36.1717834 65.591879,36.1717834 C65.6276115,36.1717834 65.6661465,36.19 65.6955732,36.2040127 C65.7292038,36.2215287 65.7726433,36.246051 65.8265924,36.2796815 C65.9506051,36.3574522 66.0171656,36.4716561 66.0171656,36.6159873 C66.0171656,36.6790446 65.9821338,36.7561146 65.9323885,36.8429936 C65.8931529,36.9354777 65.842707,37.0293631 65.7768471,37.1351592 C65.732707,37.2115287 65.686465,37.2850955 65.6339172,37.361465 C65.7228981,37.2787898 65.8181847,37.1940127 65.9211783,37.1057325 C66.1138535,36.9515924 66.313535,36.8100637 66.5195223,36.6811465 C66.7269108,36.5382166 66.927293,36.4226115 67.1213694,36.3315287 C67.3308599,36.2397452 67.5214331,36.1907006 67.6888854,36.1907006 Z M55.8621338,39.6441401 C56.2005414,39.5306369 56.5221338,39.3631847 56.8262102,39.1431847 C57.2024522,38.8797452 57.528949,38.5903822 57.8035987,38.2778981 C58.0929618,37.9647134 58.3178662,37.658535 58.4783121,37.3607643 C58.6415605,37.0475796 58.7172293,36.7953503 58.7172293,36.5984713 C58.7172293,36.5599363 58.7053185,36.4996815 58.6814968,36.4275159 C58.6786943,36.41 58.6674841,36.3756688 58.5700955,36.3756688 C58.5315605,36.3756688 58.4523885,36.4029936 58.3255732,36.4786624 C58.2169745,36.5389172 58.0852548,36.6328025 57.9346178,36.7582166 C57.7867834,36.8689172 57.6305414,37.0132484 57.4679936,37.1884076 C57.3047452,37.3635669 57.1485032,37.5576433 56.9978662,37.7706369 C56.7834713,38.0733121 56.5746815,38.4026115 56.3728981,38.7557325 C56.2026433,39.0429936 56.0323885,39.3393631 55.8621338,39.6441401 Z M52.5971656,38.2288535 C52.798949,37.9261783 52.9951274,37.6038854 53.1842994,37.2626752 C53.3482484,36.967707 53.4981847,36.7007643 53.6341083,36.4618471 C53.2662739,36.4870701 52.9061465,36.6250955 52.563535,36.8906369 C52.1760828,37.1905096 51.8313694,37.5478344 51.5307962,37.9612102 C51.2288217,38.3640764 50.9835987,38.7655414 50.795828,39.1663057 C50.6178662,39.5726752 50.5365924,39.8564331 50.5365924,40.0280892 C50.5365924,40.070828 50.5435987,40.0869427 50.5478025,40.0925478 C50.6171656,40.0988535 50.7145541,40.0617197 50.867293,39.9594268 C51.0277389,39.8606369 51.2035987,39.7289172 51.3913694,39.5656688 C51.5931529,39.3898089 51.8005414,39.1880255 52.0149363,38.9617197 C52.2279299,38.7361146 52.4213057,38.492293 52.5971656,38.2288535 Z M61.4490127,37.4805732 C61.355828,37.6242038 61.2759554,37.7643312 61.2086943,37.8995541 L61.3796497,37.9065605 C61.7271656,37.9065605 62.031242,37.7881529 62.2953822,37.5471338 C62.5609236,37.2942038 62.6891401,37.0048408 62.6891401,36.6734395 C62.6891401,36.5536306 62.6428981,36.5080892 62.5230892,36.5080892 C62.4186943,36.5080892 62.3016879,36.5494268 62.1706688,36.6447134 C62.0508599,36.7287898 61.9282484,36.8443949 61.8049363,36.9929299 C61.6795223,37.1428662 61.5611146,37.305414 61.4490127,37.4805732 Z M65.451051,10.5991656 C68.9051911,12.0221592 70.3814331,13.8683376 70.3814331,16.835535 C70.3814331,20.5587197 66.7388217,23.1027325 62.1223248,23.1027325 C59.3288854,23.1027325 56.8472293,22.6178917 54.7754459,21.6797389 L55.9062739,18.9836879 C57.6957006,19.861586 59.7681847,20.3758535 61.9345541,20.3758535 C64.6992675,20.3758535 66.2658917,19.0733694 66.2658917,17.4717134 C66.2658917,15.7768726 65.5134076,14.7777643 62.7185669,13.6581465 L60.0498408,12.5686561 C57.004172,11.2360446 55.4971019,9.32891083 55.4971019,6.60413376 C55.4971019,3.42604459 58.7627707,0.700566879 63.5670382,0.700566879 C66.1741083,0.700566879 68.0567197,1.00324204 69.8468471,1.82088535 L68.7475478,4.48610828 C67.4604777,3.88075796 65.7334076,3.42674522 63.7870382,3.42674522 C60.9592675,3.42674522 59.5488854,4.54846497 59.5488854,6.08986624 C59.5488854,7.48133121 60.2074841,8.41948408 63.1907962,9.63018471 L65.451051,10.5991656 Z M74.461172,11.7538153 C74.461172,7.41897452 74.4310446,5.10336943 74.2818089,0.93177707 L87.0817452,0.93177707 L87.0817452,3.75604459 C85.1115541,3.66566242 80.8138471,3.76164968 77.8088153,3.76094904 C77.7597707,3.76094904 77.7121274,3.80438854 77.7093248,3.85133121 C77.5600892,6.37012102 77.7135287,7.56050318 77.7093248,9.44381529 C77.7093248,9.48725478 77.7527643,9.53419745 77.7983057,9.53910191 C79.418879,9.7058535 84.2693885,9.60356051 85.4723822,9.54540764 L85.4723822,12.6177006 C83.2324459,12.5917771 80.4796433,12.6113949 77.8081146,12.6191019 C77.7555669,12.6191019 77.7093248,12.6639427 77.7093248,12.7150892 L77.7093248,19.6324777 C77.7093248,19.6731146 77.7520637,19.720758 77.7934013,19.7270637 C79.5569045,19.9884013 85.712,19.7964268 87.0817452,19.7333694 L87.0817452,22.7846433 L74.2698981,22.7846433 C74.3042293,21.4905669 74.461172,15.3915223 74.461172,11.7538153 Z M27.7603567,33.5155987 C27.9004841,33.3467452 28.0763439,33.2556624 28.2816306,33.2556624 C28.4925223,33.2556624 28.6116306,33.3754713 28.6116306,33.5856624 C28.6116306,33.7650255 28.5303567,33.9352803 28.3818217,34.0971274 C28.2423949,34.263879 28.0763439,34.3535605 27.8815669,34.3535605 C27.6839873,34.3535605 27.5704841,34.240758 27.5704841,34.0431783 C27.5704841,33.8575096 27.6370446,33.6802484 27.7603567,33.5155987 Z M39.7335414,37.9542038 C39.7741783,37.9135669 39.8379363,37.8806369 39.9058981,37.9142675 C39.971758,37.9387898 40.0109936,37.9920382 40.0109936,38.0649045 C39.774879,38.3864968 39.5114395,38.6688535 39.2038599,38.963121 C38.9081911,39.2461783 38.580293,39.5096178 38.2208662,39.7534395 C37.8733503,39.9853503 37.5041146,40.1794268 37.1180637,40.3342675 C36.7285096,40.4764968 36.349465,40.5486624 35.9830318,40.5486624 C35.3489554,40.5486624 35.0049427,40.2536943 35.0049427,39.6665605 C35.0049427,39.5971975 35.0077452,39.5264331 35.0147516,39.4556688 C34.7758344,39.7057962 34.5187006,39.9426115 34.2433503,40.1682166 C33.9588917,40.400828 33.6625223,40.5942038 33.3521401,40.7497452 C33.049465,40.9073885 32.7516943,40.9872611 32.4567261,40.9872611 C32.1960892,40.9872611 31.9901019,40.9361146 31.8646879,40.8107006 C31.7413758,40.6873885 31.6881274,40.503121 31.6881274,40.2761146 C31.6881274,40.1170701 31.7658981,39.8732484 31.9053248,39.5558599 C32.0580637,39.2377707 32.2241146,38.9049682 32.4027771,38.5609554 C32.5800382,38.2197452 32.7383822,37.896051 32.8778089,37.5919745 C33.0312484,37.2717834 33.0985096,37.0650955 33.0985096,36.96 C32.9583822,37.0083439 32.7748153,37.1365605 32.5653248,37.3089172 C32.3649427,37.4728662 32.1631592,37.6550318 31.9613758,37.8568153 C31.7588917,38.0585987 31.5704204,38.2540764 31.3931592,38.443949 C31.2299108,38.6317197 31.1058981,38.7879618 31.0176178,38.9133758 C30.9314395,39.0373885 30.8438599,39.1859236 30.7569809,39.3603822 C30.668,39.5383439 30.5797197,39.7085987 30.4900382,39.8746497 C30.4122675,40.0442038 30.3295924,40.1850318 30.235707,40.3055414 C30.1600382,40.4190446 30.0703567,40.510828 29.9596561,40.510828 C29.8643694,40.510828 29.7851975,40.4617834 29.7235414,40.3847134 C29.6646879,40.3111465 29.6296561,40.2298726 29.6296561,40.1429936 C29.6296561,40.086242 29.654879,40.0098726 29.6927134,39.9215924 C29.734051,39.8101911 29.8083185,39.6847771 29.9120127,39.5418471 C30.0745605,39.3169427 30.2188917,39.0780255 30.3443057,38.8278981 C30.4823312,38.5763694 30.5972357,38.3409554 30.6848153,38.1272611 C30.7850064,37.9149682 30.8606752,37.7321019 30.911121,37.581465 C30.9643694,37.4210191 30.982586,37.3488535 30.982586,37.3411465 C30.982586,37.3152229 30.9804841,37.2970064 30.9783822,37.2843949 C30.918828,37.2885987 30.8172357,37.3467516 30.6420764,37.4980892 C30.4662166,37.6494268 30.2707389,37.8378981 30.0570446,38.0642038 C29.841949,38.2919108 29.6275541,38.5322293 29.411758,38.7858599 C29.1980637,39.0373885 29.0278089,39.2643949 28.9037962,39.4626752 C28.726535,39.7296178 28.5737962,39.9650318 28.4469809,40.1675159 C28.3306752,40.3531847 28.2108662,40.510828 28.0910573,40.510828 C27.9579363,40.510828 27.8570446,40.4407643 27.8206115,40.3125478 C27.8072994,40.2200637 27.7995924,40.1212739 27.7995924,40.0287898 C27.7995924,39.9131847 27.8262166,39.8150955 27.8913758,39.733121 C28.0132866,39.5390446 28.1337962,39.3442675 28.2536051,39.1473885 C27.9109936,39.4479618 27.5922038,39.694586 27.2972357,39.8879618 C27.038,40.0561146 26.7710573,40.1864331 26.4971083,40.2782166 C26.2245605,40.3685987 25.9737325,40.4155414 25.7467261,40.4155414 C25.6675541,40.4155414 25.5750701,40.4092357 25.4699745,40.3959236 C25.357172,40.3819108 25.2492739,40.3447771 25.1511847,40.2887261 C25.0671083,40.2333758 24.9851338,40.1570064 24.917172,40.0750318 C24.8569172,39.9706369 24.8260892,39.8347134 24.8260892,39.6854777 C24.8260892,39.5026115 24.8954522,39.2678981 25.0236688,38.9848408 C24.8120764,39.1607006 24.5675541,39.3666879 24.3097197,39.5600637 C23.9622038,39.8305096 23.5943694,40.0561146 23.2069172,40.236879 C22.8166624,40.4057325 22.4229045,40.4919108 22.0298471,40.4919108 C21.6886369,40.4919108 21.4195924,40.4106369 21.2451338,40.236879 C21.0916943,40.0561146 21.0139236,39.8375159 21.0139236,39.5901911 C21.0139236,39.3428662 21.1155159,39.0051592 21.3067898,38.5833758 C21.4644331,38.249172 21.6409936,37.9030573 21.8357707,37.5457325 C21.6472994,37.6263057 21.4658344,37.691465 21.2913758,37.7433121 C20.9543694,37.8470064 20.634879,37.8995541 20.3336051,37.8995541 C20.0799745,37.8995541 19.841758,37.8449045 19.6266624,37.7370064 C19.5033503,37.6627389 19.3947516,37.5821656 19.3043694,37.4952866 C19.2833503,37.9051592 19.2013758,38.2835032 19.0563439,38.6296178 C18.9008025,39.0303822 18.7067261,39.3736943 18.4713121,39.6616561 C18.2372994,39.9475159 17.9808662,40.1710191 17.7041146,40.3293631 C17.4301656,40.4729936 17.1737325,40.5486624 16.9404204,40.5486624 C16.7183185,40.5486624 16.5249427,40.4771975 16.3694013,40.3356688 C16.2208662,40.1871338 16.1529045,39.9636306 16.1529045,39.6854777 C16.1529045,39.5369427 16.1753248,39.3680892 16.219465,39.1803185 C15.9525223,39.4724841 15.6701656,39.7443312 15.3730955,39.9958599 C15.0388917,40.2789172 14.7053885,40.5101274 14.3690828,40.6908917 C14.0299745,40.8870701 13.7055796,40.9872611 13.3951975,40.9872611 C13.1639873,40.9872611 12.9692102,40.9242038 12.8241783,40.7931847 C12.6882548,40.6572611 12.6265987,40.4526752 12.6265987,40.2004459 C12.6265987,40.0813376 12.6399108,39.9468153 12.666535,39.8017834 L12.6826497,39.7394268 C12.597172,39.8445223 12.4976815,39.9475159 12.3820764,40.0512102 C12.2615669,40.1584076 12.1207389,40.252293 11.9623949,40.331465 C11.8103567,40.400828 11.638,40.4344586 11.4502293,40.4344586 C11.2953885,40.4344586 11.1580637,40.3896178 11.0515669,40.298535 C10.9422675,40.188535 10.8918217,40.0287898 10.8918217,39.8382166 C10.8918217,39.7387261 10.9135414,39.6084076 10.9520764,39.4535669 C11.0039236,39.2861146 11.0887006,39.0703185 11.2043057,38.8124841 C11.3318217,38.5448408 11.4985732,38.2176433 11.7024586,37.8357962 C11.9189554,37.4413376 12.1915032,36.9592994 12.5222038,36.386879 C12.5796561,36.2712739 12.6560255,36.1535669 12.7660255,36.1535669 C12.8928408,36.1535669 12.9993376,36.2306369 13.0939236,36.3525478 C13.1864076,36.4443312 13.2669809,36.5368153 13.2669809,36.6166879 C13.2669809,36.6846497 13.2109299,36.7834395 13.1387643,36.8906369 C12.9369809,37.1947134 12.7471083,37.4980892 12.5698471,37.801465 C12.392586,38.1055414 12.2356433,38.3885987 12.0962166,38.6548408 C11.9694013,38.9196815 11.8629045,39.1578981 11.7746242,39.372293 C11.6996561,39.5733758 11.6660255,39.7198089 11.6660255,39.8192994 C11.6660255,39.9888535 11.7206752,40.0224841 11.7935414,40.0224841 C11.8867261,40.0224841 12.0373631,39.9482166 12.2538599,39.7576433 C12.4745605,39.561465 12.7351975,39.2342675 13.0385732,38.766242 C13.1527771,38.5630573 13.2655796,38.3556688 13.3797834,38.1405732 L13.7427134,37.4910828 C13.8569172,37.2885987 13.9592102,37.1022293 14.0481911,36.9375796 L14.2990191,36.5326115 C14.3564713,36.4520382 14.4321401,36.3630573 14.5197197,36.3630573 C14.6248153,36.3630573 14.702586,36.4681529 14.7614395,36.5746497 C14.835707,36.6930573 14.8686369,36.8338854 14.8686369,36.9978344 C14.8686369,37.1141401 14.8378089,37.2255414 14.7796561,37.3264331 C14.6262166,37.5569427 14.4587643,37.7895541 14.2794013,38.0200637 C14.1154522,38.2344586 13.9592102,38.4593631 13.8078726,38.6989809 C13.6705478,38.9364968 13.5528408,39.1852229 13.4526497,39.4479618 C13.3545605,39.7043949 13.3055159,39.9867516 13.3055159,40.2957325 C13.3055159,40.5332484 13.405707,40.6327389 13.6236051,40.6327389 C13.7679363,40.6327389 13.9655159,40.5696815 14.2156433,40.4323567 C14.4741783,40.3083439 14.7502293,40.1275796 15.0388917,39.8893631 C15.3275541,39.6504459 15.6239236,39.3610828 15.9265987,39.0205732 C16.1136688,38.8180892 16.296535,38.6050955 16.4744968,38.3801911 C16.5193376,38.2638854 16.5669809,38.1475796 16.6174268,38.0319745 C16.7575541,37.7264968 16.8920764,37.4378344 17.0195924,37.1708917 C17.1597197,36.9025478 17.2809299,36.6783439 17.3832229,36.5003822 C17.7272357,35.8768153 18.0957707,35.2350318 18.4902293,34.5729299 C18.8846879,33.8982166 19.2987643,33.2361146 19.731758,32.5866242 C20.1773631,31.9364331 20.6432866,31.311465 21.1274268,30.713121 C21.624879,30.1000637 22.1489554,29.5374522 22.6982548,29.0266879 C22.8516943,28.8858599 23.0443694,28.7191083 23.2741783,28.5278344 C23.518,28.3351592 23.7744331,28.1557962 24.0441783,27.9890446 C24.3153248,27.8075796 24.5864713,27.6597452 24.8569172,27.5434395 C25.1434777,27.4264331 25.4090191,27.3654777 25.6514395,27.3654777 C25.8952611,27.3654777 26.0893376,27.4306369 26.2245605,27.5805732 C26.3695924,27.7108917 26.4389554,27.8769427 26.4389554,28.0766242 C26.4389554,28.2657962 26.4326497,28.4010191 26.4179363,28.4738854 C26.4025223,28.553758 26.3191465,28.6700637 26.2035414,28.553758 C26.1453885,28.4963057 26.0571083,28.426242 25.9450064,28.3519745 C25.8672357,28.2833121 25.7053885,28.2349682 25.441949,28.2349682 C25.2170446,28.2349682 25.0110573,28.2475796 24.8232866,28.2728025 C24.6390191,28.2973248 24.4484459,28.3463694 24.2515669,28.4199363 C24.0672994,28.4942038 23.8676178,28.6 23.6553248,28.7373248 C23.4444331,28.8613376 23.2048153,29.0371975 22.9406752,29.2642038 C22.566535,29.5759873 22.1580637,30.0405096 21.7152611,30.6598726 C21.271758,31.2687261 20.8212484,31.9406369 20.3651338,32.6756051 C19.9209299,33.3986624 19.4963439,34.1406369 19.0906752,34.9015287 C18.6843057,35.6505096 18.3283822,36.3238217 18.0236051,36.9200637 C17.9227134,37.1225478 17.8092102,37.3621656 17.6823949,37.6410191 C17.5688917,37.9065605 17.4616943,38.1763057 17.3608025,38.4544586 C17.2725223,38.7192994 17.1968535,38.9715287 17.1337962,39.2111465 C17.0707389,39.4388535 17.0413121,39.6021019 17.0413121,39.7043949 C17.0413121,40.0350955 17.145707,40.1373885 17.3026497,40.1373885 C17.404242,40.1373885 17.5387643,40.0855414 17.7118217,39.9622293 C17.8932866,39.8291083 18.064242,39.6469427 18.2253885,39.4115287 C18.3858344,39.1642038 18.5224586,38.8671338 18.6345605,38.5168153 C18.7466624,38.1573885 18.8027134,37.7538217 18.8027134,37.3026115 C18.8027134,37.1533758 18.7887006,37.0356688 18.7662803,36.9571975 C18.7543694,36.8591083 18.7347516,36.7778344 18.7130318,36.7231847 C18.7067261,36.5879618 18.7592739,36.4919745 18.8454522,36.4057962 C18.898,36.3532484 18.9603567,36.2971975 19.038828,36.2320382 C19.118,36.1528662 19.1901656,36.0933121 19.2616306,36.0505732 C19.3555159,36.0386624 19.4206752,36.0561783 19.4536051,36.1220382 C19.4620127,36.4036943 19.5033503,36.6040764 19.5853248,36.7673248 C19.6827134,36.9249682 19.7920127,37.0524841 19.9244331,37.1603822 C20.0708662,37.2577707 20.2187006,37.328535 20.3756433,37.376879 C20.5472994,37.4259236 20.7049427,37.4497452 20.8478726,37.4497452 C21.0559618,37.4497452 21.2829682,37.4196178 21.5316943,37.3572611 C21.7061529,37.3047134 21.8848153,37.2297452 22.0669809,37.1330573 C22.3178089,36.6951592 22.5679363,36.2796815 22.8180637,35.8859236 C23.0843057,35.4676433 23.2811847,35.1509554 23.4072994,34.9358599 L24.0743057,33.7924204 C24.303414,33.3853503 24.5325223,32.9915924 24.7616306,32.6097452 C24.9900382,32.2271975 25.2128408,31.8656688 25.4293376,31.5216561 C25.6458344,31.1650318 25.8427134,30.8532484 26.0213758,30.5856051 C26.2385732,30.2535032 26.4620764,29.9403185 26.692586,29.646051 C26.9258981,29.3482803 27.2222675,29.0526115 27.5816943,28.7569427 C28.0672357,28.3477707 28.5163439,28.0331847 28.9297197,27.8138854 C29.3318854,27.6001911 29.624051,27.4796815 29.788,27.4796815 C29.9078089,27.4796815 30.0087006,27.515414 30.0906752,27.5966879 C30.1803567,27.6688535 30.2132866,27.7767516 30.2132866,27.9049682 C30.2132866,28.0997452 30.1376178,28.3729936 29.9974904,28.717707 C29.8559618,29.0638217 29.6513758,29.4673885 29.3823312,29.9291083 C29.1265987,30.3761146 28.8078089,30.8609554 28.4245605,31.3850318 C28.0539236,31.8957962 27.626535,32.4065605 27.1409936,32.9173248 C26.6680637,33.4287898 26.1439873,33.9206369 25.569465,34.3928662 C25.0005478,34.8482803 24.3923949,35.2546497 23.7485096,35.6098726 C23.6343057,35.8109554 23.479465,36.0778981 23.2818854,36.4107006 C23.0794013,36.7526115 22.8769172,37.1127389 22.6744331,37.4931847 C22.4845605,37.8722293 22.3150064,38.2435669 22.1629682,38.61 C22.0249427,38.9743312 21.9597834,39.2735032 21.9597834,39.5138217 C21.9597834,39.8830573 22.1139236,40.0414013 22.4299108,40.0414013 C22.7318854,40.0414013 23.0499745,39.9573248 23.3834777,39.7842675 C23.7211847,39.6091083 24.0406752,39.395414 24.3412484,39.1452866 C24.656535,38.8930573 24.9465987,38.6282166 25.2107389,38.351465 L25.4657707,38.0817197 L25.9821401,37.2024204 C26.1608025,36.9207643 26.3009299,36.7112739 26.4032229,36.5704459 C26.4781911,36.4499363 26.6001019,36.3609554 26.761949,36.2936943 C26.9223949,36.2194268 27.0464076,36.1724841 27.1192739,36.1724841 C27.1837325,36.1724841 27.296535,36.1942038 27.296535,36.3112102 C27.296535,36.3567516 27.2748153,36.4128025 27.250293,36.4625478 C27.2376815,36.5115924 27.2159618,36.5599363 27.1774268,36.5984713 C27.0043694,36.8471975 26.8376178,37.1211465 26.677172,37.4182166 C26.5125223,37.722293 26.3597834,38.0200637 26.2210573,38.310828 C26.0823312,38.5875796 25.9695287,38.8440127 25.8812484,39.0829299 C25.8062803,39.3218471 25.771949,39.5012102 25.771949,39.6280255 C25.771949,39.7688535 25.8013758,39.8536306 25.8567261,39.9089809 C25.9281911,39.9601274 26.0192739,39.9846497 26.1467898,39.9846497 C26.3836051,39.9846497 26.6484459,39.9082803 26.9455159,39.7471338 C27.2467898,39.5719745 27.5410573,39.364586 27.8304204,39.1263694 C28.1323949,38.8867516 28.4098471,38.6345223 28.6606752,38.3710828 L28.8120127,38.2092357 L28.8967898,38.0621019 C29.2274904,37.4903822 29.5560892,36.9284713 29.8867898,36.3693631 C29.944242,36.2390446 30.0346242,36.1535669 30.1691465,36.1535669 C30.2707389,36.1535669 30.3478089,36.213121 30.4066624,36.3014013 C30.4662166,36.3749682 30.4991465,36.4534395 30.4991465,36.5403185 C30.4031592,36.8282803 30.2476178,37.1449682 30.0304204,37.5156051 L29.8174268,37.8827389 C30.1172994,37.5611465 30.3814395,37.3026115 30.6105478,37.1071338 C30.9552611,36.8016561 31.2537325,36.63 31.5038599,36.63 C31.7105478,36.63 31.7953248,36.7876433 31.7953248,36.9978344 C31.7953248,37.1435669 31.7315669,37.3544586 31.6166624,37.6214013 L31.4912484,37.893949 C31.5732229,37.8063694 31.6594013,37.7166879 31.7504841,37.6263057 C31.9557707,37.4210191 32.1680637,37.2276433 32.3866624,37.0482803 C32.6157707,36.8696178 32.8413758,36.7021656 33.0585732,36.5487261 C33.2911847,36.3938854 33.504879,36.2705732 33.6989554,36.1801911 C33.9623949,36.1717834 34.1018217,36.2908917 34.1018217,36.5207006 C34.1018217,36.5690446 34.093414,36.6152866 34.0787006,36.6615287 C34.0646879,36.7028662 34.0450701,36.7498089 34.0177452,36.8044586 C33.9532866,36.9452866 33.8327771,37.1736943 33.653414,37.494586 C33.4887643,37.8112739 33.3178089,38.1531847 33.1398471,38.5210191 C32.9632866,38.8748408 32.8049427,39.2223567 32.6662166,39.5635669 C32.5401019,39.891465 32.4812484,40.1331847 32.4812484,40.2957325 C32.4812484,40.5080255 32.5695287,40.5942038 32.7615032,40.5942038 C32.9716943,40.5942038 33.1987006,40.5241401 33.4439236,40.377707 C33.6933503,40.2277707 33.9441783,40.0463057 34.1950064,39.8326115 C34.4472357,39.6182166 34.6791465,39.3989172 34.8935414,39.1726115 L35.1212484,38.9161783 C35.1632866,38.776051 35.2158344,38.6338217 35.2788917,38.4887898 C35.4729682,38.0761146 35.7181911,37.6879618 36.0145605,37.3264331 C36.3116306,36.9656051 36.6346242,36.6678344 36.9849427,36.4345223 C37.3380637,36.1857962 37.6904841,36.0575796 38.0415032,36.0575796 C38.2222675,36.0575796 38.3708025,36.0863057 38.4590828,36.174586 C38.5550701,36.2544586 38.5999108,36.3581529 38.5999108,36.4828662 C38.5999108,36.6538217 38.5445605,36.8310828 38.4380637,37.0174522 C38.3427771,37.2073248 38.1956433,37.3859873 37.9987643,37.556242 C37.7997834,37.7159873 37.5412484,37.8540127 37.2308662,37.9710191 C36.9401019,38.0719108 36.6037962,38.123758 36.2233503,38.1279618 C36.1694013,38.2365605 36.1091465,38.4012102 36.042586,38.6233121 C35.9683185,38.8566242 35.9318854,39.096242 35.9318854,39.3421656 C35.9318854,39.8256051 36.1378726,40.0414013 36.5547516,40.0414013 C36.8336051,40.0414013 37.1208662,39.9748408 37.4172357,39.8389172 C37.7297197,39.7015924 38.0295924,39.5334395 38.3175541,39.3330573 C38.6069172,39.1193631 38.8696561,38.893758 39.1085732,38.6548408 C39.3608025,38.4033121 39.5709936,38.1664968 39.7335414,37.9542038 Z M25.3207389,33.0763694 L24.0862166,35.0619745 C24.735707,34.6682166 25.3466624,34.2064968 25.9197834,33.6782166 C26.590293,33.0581529 27.1648153,32.4261783 27.644051,31.7829936 C28.1246879,31.1384076 28.5023312,30.5141401 28.7790828,29.9108917 C29.056535,29.3055414 29.1910573,28.8038854 29.1910573,28.4010191 C29.1910573,28.2265605 29.1308025,28.1782166 29.025707,28.1782166 C28.9780637,28.1782166 28.9213121,28.1922293 28.8526497,28.2265605 C28.7888917,28.2580892 28.6950064,28.3323567 28.5688917,28.459172 C28.4560892,28.5719745 28.3124586,28.7338217 28.1365987,28.9475159 L27.4899108,29.7840764 L27.053414,30.3915287 L26.3492739,31.4571975 C26.0697197,31.8894904 25.7271083,32.4282803 25.3207389,33.0763694 Z M36.6051975,37.3852866 C36.5120127,37.5296178 36.4321401,37.6690446 36.364879,37.8049682 L36.5358344,37.8112739 C36.8833503,37.8112739 37.1874268,37.6928662 37.4515669,37.4525478 C37.7171083,37.1996178 37.8453248,36.9095541 37.8453248,36.5781529 C37.8453248,36.4583439 37.7990828,36.4128025 37.6792739,36.4128025 C37.574879,36.4128025 37.4578726,36.4548408 37.3268535,36.5501274 C37.2070446,36.6335032 37.0844331,36.7498089 36.961121,36.8976433 C36.835707,37.0475796 36.7172994,37.2101274 36.6051975,37.3852866 Z M51.4192548,35.7322038 C51.0430127,36.0565987 50.5826943,36.3284459 50.0418025,36.5470446 C49.5093185,36.7551338 48.9011656,36.8581274 48.2194459,36.8581274 C47.8943503,36.8581274 47.6063885,36.812586 47.3541592,36.7201019 C47.2840955,36.6969809 47.2420573,36.6416306 47.2420573,36.5666624 C47.2420573,36.4699745 47.3037134,36.4076178 47.4004013,36.4076178 C47.4844777,36.4356433 47.5909745,36.459465 47.7556242,36.4853885 C47.9293822,36.5099108 48.089828,36.5225223 48.2390637,36.5225223 C48.7105924,36.5225223 49.143586,36.4286369 49.5387452,36.2436688 C49.9493185,36.0572994 50.297535,35.8141783 50.5819936,35.5178089 C50.8797643,35.2193376 51.1102739,34.8830318 51.2714204,34.5116943 C51.4444777,34.1403567 51.5306561,33.7697197 51.5306561,33.4018854 C51.5306561,32.8841146 51.3709108,32.5569172 51.0759427,32.3859618 C50.7732675,32.2044968 50.4005287,32.1113121 49.9542229,32.1113121 C49.6424395,32.1113121 49.3649873,32.1421401 49.1183631,32.2037962 C48.9761338,32.2479363 48.8661338,32.3418217 48.7862611,32.4896561 C48.5326306,32.8960255 48.2397643,33.3864713 47.9097643,33.9574904 L46.8994459,35.7111847 C46.5568344,36.3081274 46.2261338,36.8924586 45.9087452,37.4634777 C45.5913567,38.0351975 45.3251146,38.5291465 45.1100191,38.9481274 C44.9719936,39.2234777 44.9089363,39.4378726 44.9089363,39.5969172 C44.9089363,39.8099108 44.9930127,39.9507389 45.1667707,40.0376178 C45.3538408,40.1195924 45.6432038,40.1630318 46.0467707,40.1630318 C46.1189363,40.1630318 46.1798917,40.1679363 46.2254331,40.1805478 C46.2597643,40.1896561 46.3382357,40.2190828 46.3382357,40.3024586 C46.3382357,40.4054522 46.2443503,40.4460892 46.1756879,40.4594013 C45.9451783,40.4979363 45.6817389,40.5301656 45.3867707,40.5553885 C45.104414,40.5813121 44.822758,40.5939236 44.5411019,40.5939236 C44.4745414,40.5939236 44.3883631,40.5876178 44.2832675,40.5743057 C44.1746688,40.5609936 44.0709745,40.5350701 43.9637771,40.4951338 C43.8544777,40.4678089 43.7570892,40.4243694 43.6723121,40.3676178 C43.5770255,40.2884459 43.5244777,40.1805478 43.5244777,40.0544331 C43.5244777,39.9605478 43.5630127,39.8323312 43.6267707,39.6788917 C43.8054331,39.2823312 44.042949,38.8339236 44.3365159,38.3357707 C44.6286815,37.8397197 44.9089363,37.3695924 45.175879,36.9246879 C45.4932675,36.3908025 45.835879,35.8008662 46.2037134,35.1534777 C46.5722484,34.4934777 46.8980446,33.8993376 47.1768981,33.3787643 C47.2014204,33.3423312 47.2399554,33.2722675 47.2882994,33.174879 C47.3387452,33.0739873 47.3891911,32.9667898 47.4396369,32.8539873 C47.4893822,32.7411847 47.5328217,32.6360892 47.5706561,32.5358981 C47.6063885,32.4287006 47.6204013,32.3684459 47.6225032,32.341121 C47.2070255,32.3530318 46.8111656,32.3845605 46.4195096,32.4350064 C46.0348599,32.4861529 45.6375987,32.5120764 45.2270255,32.5120764 C44.9860064,32.5120764 44.7828217,32.4406115 44.7828217,32.2199108 C44.7828217,32.1764713 44.8101465,32.0937962 44.845879,31.9985096 C44.8725032,31.9389554 44.9005287,31.8864076 44.9285541,31.8506752 C44.9537771,31.8184459 44.9958153,31.775707 45.0553694,31.775707 C45.1016115,31.775707 45.1338408,31.8002293 45.1548599,31.8289554 C45.1751783,31.8562803 45.1863885,31.8899108 45.1926943,31.916535 C45.1933949,31.9207389 45.2137134,31.9606752 45.3573439,31.9872994 C45.4687452,32.0118217 45.6032675,32.0307389 45.7637134,32.0426497 L46.2373439,32.0426497 C46.6170892,32.0426497 47.0024395,32.0300382 47.3947962,32.0048153 C47.7871529,31.9795924 48.1549873,31.9473631 48.4968981,31.9095287 C48.8528217,31.8716943 49.1653057,31.839465 49.4322484,31.814242 C49.7153057,31.7883185 49.9339045,31.775707 50.0880446,31.775707 C50.3725032,31.775707 50.6562611,31.8016306 50.9407197,31.8534777 C51.2426943,31.9060255 51.5103376,32.003414 51.7485541,32.1484459 C52.0028854,32.2829682 52.200465,32.4672357 52.349,32.7089554 C52.512949,32.9415669 52.5907197,33.2302293 52.5907197,33.5735414 C52.5907197,33.9210573 52.4842229,34.2832866 52.2761338,34.6609299 C52.0799554,35.0392739 51.7940955,35.3965987 51.4192548,35.7322038 Z"/>
</svg>
