<svg xmlns="http://www.w3.org/2000/svg" width="207" height="49" viewBox="0 0 207 49">
  <path fill="#FEFEFE" fill-rule="evenodd" d="M50.5164196,36.70768 C50.2200208,37.1009542 49.9804375,37.4921836 49.7963006,37.8840947 C49.621747,38.2807767 49.5416577,38.5575 49.5416577,38.7258513 C49.5416577,38.767428 49.5491875,38.783786 49.5532946,38.7878755 C49.6210625,38.7940098 49.7162113,38.7578858 49.866122,38.6583745 C50.0235625,38.5615895 50.195378,38.4334516 50.3801994,38.2746425 C50.5780268,38.1022016 50.7813304,37.9059053 50.9907946,37.6843904 C51.1995744,37.4642387 51.389872,37.2263657 51.562372,36.9694084 C51.7601994,36.6736008 51.9518661,36.3587088 52.1380565,36.0260957 C52.2982351,35.7377855 52.4454077,35.4774203 52.5782054,35.2443184 C52.2174613,35.2688555 51.8649315,35.4038092 51.5288304,35.6634928 C51.1489196,35.9558925 50.8107649,36.3041821 50.5164196,36.70768 L50.5164196,36.70768 Z M53.6796042,38.6386085 C53.3270744,38.9276003 52.9738601,39.1600206 52.6185923,39.3365509 C52.2742768,39.5144444 51.950497,39.6057767 51.6479375,39.6057767 C51.3878185,39.6057767 51.1831458,39.5410262 51.0613006,39.3897145 C50.9483542,39.2493081 50.8942768,39.0755041 50.8942768,38.8744367 C50.8942768,38.6876826 50.9476696,38.4470833 51.0482946,38.1587731 C51.0784137,38.0797094 51.1119554,37.9986008 51.1489196,37.9168107 C50.8956458,38.198305 50.6752292,38.4177752 50.4486518,38.618161 C50.2213899,38.81991 49.9920744,38.9848534 49.7620744,39.1116281 C49.5307054,39.2397659 49.3178185,39.3079244 49.1247827,39.3079244 C48.8188006,39.3079244 48.6517768,39.1422994 48.6517768,38.8369496 C48.6517768,38.532963 48.7708839,38.1594547 48.9974613,37.721196 C49.2254077,37.2795293 49.5286518,36.8583102 49.9071935,36.4561754 C50.2987411,36.0410905 50.7402589,35.6900746 51.2324315,35.4004012 C51.7143363,35.1052752 52.2160923,34.9519187 52.7376994,34.9430581 C52.7931458,34.8387757 52.8465387,34.7576672 52.8985625,34.7058668 C52.9533244,34.65134 53.0169851,34.6056739 53.0758542,34.5763657 L53.6364792,34.4161934 L53.8014494,34.4986651 C53.6652292,34.634982 53.6070446,34.7092747 53.5474911,34.8040149 L53.4502887,34.9675952 L53.5988304,34.9798637 C53.7268363,34.9934954 53.8301994,35.0084902 53.8945446,35.0207587 C53.9595744,35.046659 54.0451399,35.0984594 54.0451399,35.1904733 C54.0451399,35.2715818 53.990378,35.3261085 53.9089196,35.3261085 C53.817878,35.3002083 53.7131458,35.2818056 53.5652887,35.2702186 C53.4475506,35.2606764 53.3530863,35.2545422 53.2825804,35.253179 C52.7226399,36.2353421 52.308503,37.0191641 52.0388006,37.6053266 C51.7773125,38.1873997 51.6534137,38.6072557 51.6534137,38.8744367 C51.6534137,38.9746296 51.6732649,39.0475592 51.7115982,39.1054938 C51.7499315,39.15116 51.8334435,39.1845576 52.0025208,39.1845576 C52.1846042,39.1845576 52.4070744,39.123215 52.6754077,38.9896245 C52.9444256,38.8437654 53.2312411,38.6488323 53.5399613,38.4034619 C53.8493661,38.1444599 54.1649315,37.8486523 54.4866577,37.5160391 C54.8207054,37.1827443 55.1349018,36.8337731 55.4319851,36.4636728 C55.4484137,36.4398174 55.4716875,36.4166435 55.499753,36.4036934 C55.7667173,35.9606636 56.0343661,35.5060468 56.3013304,35.0405247 C56.7017768,34.3419007 57.1186518,33.7155247 57.5444256,33.1668493 C57.6060327,33.1048251 57.6909137,33.0584774 57.7874315,33.0305324 C57.8250804,33.0155376 57.8791577,33.003269 57.9462411,32.9916821 L58.1700804,32.954195 C58.2501696,32.9405633 58.3227292,32.9351106 58.389128,32.9351106 C58.4315685,32.9248868 58.4781161,32.9160262 58.5013899,32.9160262 C58.548622,32.9160262 58.6376101,32.9364738 58.6376101,33.0332587 C58.6376101,33.1048251 58.591747,33.168894 58.5390387,33.221376 C58.0304375,33.7025746 57.6080863,34.1415149 57.2733542,34.5361523 C57.1275506,34.7092747 56.9831161,34.8933025 56.8393661,35.0861908 C56.9153482,35.0173508 56.9913304,34.9512371 57.066628,34.8885314 C57.2206458,34.7603935 57.3726101,34.6588374 57.5286815,34.5818184 C57.686122,34.4904861 57.8346637,34.441412 57.9777292,34.441412 C58.1194256,34.441412 58.2392173,34.4829887 58.331628,34.574321 C58.4445744,34.671106 58.4883839,34.8210545 58.4883839,35.0057639 C58.4883839,35.1475334 58.4260923,35.3520087 58.3145149,35.612374 C58.2104673,35.8836445 58.0256458,36.1808153 57.7614196,36.5066127 C57.5074613,36.8351363 57.1665685,37.1732022 56.7401101,37.5235365 C56.4094851,37.7948071 56.017253,38.0497197 55.5634137,38.2882742 C55.7667173,38.2596476 55.9802887,38.2242052 56.2061815,38.1833102 C56.6251101,38.0974306 57.0543065,37.9631584 57.497878,37.7784491 C57.9407649,37.5828344 58.3829673,37.3258771 58.8272232,37.006214 C59.0305268,36.8542207 59.2283542,36.6838246 59.4213899,36.492981 C59.497372,36.3873354 59.5767768,36.283053 59.6609732,36.1814969 C59.8013006,36.0111008 59.9477887,35.855018 60.1004375,35.71393 C60.2695149,35.5585288 60.4372232,35.4263014 60.6117768,35.3104321 C60.9581458,35.0677881 61.3031458,34.9430581 61.6474613,34.9430581 C61.824753,34.9430581 61.9705565,34.9703215 62.0568065,35.0568827 C62.1505863,35.1345833 62.1950804,35.2361394 62.1950804,35.358143 C62.1950804,35.5251312 62.1403185,35.697572 62.0362708,35.879555 C61.9431756,36.064946 61.7980565,36.23875 61.6057054,36.4057382 C61.4106161,36.5611394 61.1573423,36.6960931 60.8527292,36.8099177 C60.5686518,36.9087474 60.2380268,36.9591847 59.8656458,36.9632742 C59.8129375,37.0696013 59.7526994,37.2297737 59.6876696,37.4465175 C59.6157946,37.6748483 59.5795149,37.9086317 59.5795149,38.1485494 C59.5795149,38.6208873 59.7814494,38.8314969 60.1901101,38.8314969 C60.4632351,38.8314969 60.7452589,38.7667464 61.035497,38.6338374 C61.3421637,38.4995653 61.6358244,38.3353035 61.9185327,38.1396888 C62.2019256,37.931124 62.4593065,37.7109722 62.6934137,37.478552 L62.8727589,37.2945242 C63.0384137,37.0109851 63.1931161,36.7417593 63.3348125,36.489573 C63.521003,36.1808153 63.6770744,35.9129527 63.8016577,35.6907562 C63.937878,35.454928 64.0364494,35.2852135 64.0980565,35.1727521 C64.1240685,35.1148174 64.1493958,35.0691512 64.1767768,35.0343904 C64.2014196,35.0030376 64.2424911,34.9614609 64.3013601,34.9614609 C64.3355863,34.9614609 64.3739196,34.9785005 64.4026696,34.9934954 C64.4355268,35.0091718 64.4779673,35.0337088 64.5306756,35.0664249 C64.6525208,35.1420808 64.7182351,35.2538606 64.7182351,35.3949486 C64.7182351,35.4562912 64.6833244,35.531947 64.6347232,35.6171451 C64.5957054,35.7071142 64.5471042,35.7984465 64.4820744,35.9013657 C64.4396339,35.97634 64.3937708,36.0479064 64.3424315,36.1221991 C64.4293661,36.0410905 64.5224613,35.9593004 64.6237708,35.8727392 C64.8126994,35.7221091 65.0084732,35.584429 65.2097232,35.4583359 C65.4137113,35.3192927 65.6094851,35.2061497 65.8004673,35.1175437 C66.0058244,35.0282562 66.1920149,34.9798637 66.3569851,34.9798637 C66.4843065,34.9798637 66.5910923,35.0112166 66.6828185,35.087554 C66.7793363,35.1420808 66.8484732,35.2150103 66.8484732,35.3206559 C66.756747,35.4562912 66.6787113,35.5578472 66.5924613,35.6805324 C66.5178482,35.8045808 66.4706161,35.8938683 66.4487113,35.9490766 C66.4165387,35.9981507 66.3693065,36.0519959 66.3008542,36.0519959 C66.2330863,36.0519959 66.1872232,36.0022402 66.1591577,35.9606636 C66.1447827,35.9259028 66.1269851,35.9000026 66.0838601,35.8679681 C66.0427887,35.8182124 65.9914494,35.7807253 65.9113601,35.7466461 C65.8524911,35.717338 65.7641875,35.6982536 65.6464494,35.6982536 C65.5026994,35.6982536 65.3363601,35.7480093 65.1440089,35.8556996 C64.9496042,35.9640715 64.7798423,36.0853935 64.6354077,36.2176209 C64.4019851,36.4255041 64.1932054,36.6456559 64.0090685,36.876713 C63.8365685,37.0982279 63.6702292,37.3381456 63.5093661,37.596466 C63.348503,37.842518 63.1931161,38.1028832 63.0445744,38.3741538 C62.8946637,38.6358822 62.7310625,38.905108 62.5558244,39.1784234 C62.514753,39.2411291 62.4497232,39.2711188 62.3764792,39.2711188 C62.3360923,39.2711188 62.2970744,39.2465818 62.2710625,39.2295422 C62.2409435,39.2097762 62.2005565,39.1777418 62.1540089,39.1382099 C62.083503,39.0680067 62.0157351,38.9868981 62.0157351,38.9112423 C62.0157351,38.8137757 62.0698125,38.6856379 62.1574315,38.5370525 L62.3922232,38.1274203 C62.2121935,38.2746425 62.0225804,38.4157305 61.8233839,38.5500026 C61.4824911,38.7762886 61.1210625,38.965769 60.7425208,39.1163992 C60.3605565,39.256124 59.9888601,39.3263272 59.6294851,39.3263272 C59.008622,39.3263272 58.6704673,39.0386986 58.6704673,38.4648045 C58.6704673,38.1042464 58.7621935,37.7198328 58.9394851,37.3156533 C58.7005863,37.475144 58.4363601,37.6469033 58.1652887,37.7927623 C57.411628,38.1928524 56.6196339,38.4872968 55.7906756,38.6754141 C55.5031756,38.7374383 55.2519554,38.7871939 55.039753,38.8246811 L54.4407946,38.9296451 C54.0868958,39.5260314 53.7514792,40.1156019 53.4338601,40.6997197 C53.1093958,41.3076929 52.7856161,41.9095319 52.4618363,42.5052366 C51.9888304,43.385162 51.5596339,44.2146502 51.1735625,44.9957459 C50.7868065,45.7788863 50.3685625,46.5552109 49.9188304,47.3260828 C49.8243661,47.4876183 49.6970446,47.6096219 49.5327589,47.691412 C49.377372,47.7813812 49.1987113,47.857037 48.9954077,47.9204244 C48.7948423,47.9831301 48.5621042,48.0458359 48.2985625,48.1078601 C48.039128,48.1692027 47.7605268,48.2537191 47.4518065,48.3641358 C47.3614494,48.4091204 47.2396042,48.414573 47.2108542,48.2707587 C47.1821042,48.155571 47.2717768,48.0942284 47.3559732,48.0662834 C47.6756458,47.9442798 47.9460327,47.8209131 48.1678185,47.6982279 C48.385497,47.589856 48.5860625,47.4576286 48.7681458,47.3001826 C48.9379077,47.1434182 49.1015089,46.9559825 49.261003,46.7365123 C49.4225506,46.5143158 49.6080565,46.236911 49.8182054,45.9036163 C50.0304077,45.5566898 50.2912113,45.1238837 50.6026696,44.6031533 C50.9018065,44.0946914 51.2379077,43.5296579 51.6116577,42.9094162 C51.9854077,42.289856 52.3776399,41.6259928 52.7883542,40.9191898 C53.186747,40.246466 53.5906161,39.5682896 54.0006458,38.8839789 C53.9404077,38.8287706 53.9171339,38.7442541 53.9171339,38.6529218 C53.9171339,38.5377341 53.9849018,38.4613966 54.0978482,38.4429938 C54.164247,38.4334516 54.220378,38.4239095 54.2641875,38.4143673 L54.7139196,37.6837088 C54.3750804,38.0333616 54.0307649,38.3516615 53.6796042,38.6386085 L53.6796042,38.6386085 Z M60.171628,36.6545165 C60.5125208,36.6545165 60.8102887,36.5393287 61.0697232,36.3041821 C61.3291577,36.056767 61.4551101,35.7739095 61.4551101,35.4508385 C61.4551101,35.333606 61.4099315,35.289303 61.292878,35.289303 C61.1901994,35.289303 61.0751994,35.330198 60.9471935,35.4228935 C60.8294554,35.5053652 60.7096637,35.6178266 60.588503,35.7630041 C60.4659732,35.9088632 60.3496042,36.0676723 60.2387113,36.23875 C60.1483542,36.3791564 60.0696339,36.5154733 60.0039196,36.6477006 L60.171628,36.6545165 Z M57.4177887,35.1604835 C57.3794554,35.1604835 57.3021042,35.1863837 57.1775208,35.261358 C57.0714196,35.3199743 56.9420446,35.4113066 56.794872,35.5339918 C56.649753,35.6416821 56.4964196,35.7820885 56.3362411,35.9531662 C56.176747,36.1242438 56.0234137,36.3144059 55.8762411,36.5216075 C55.6660923,36.8180967 55.4614196,37.1384414 55.2635923,37.483323 C55.0965685,37.7634542 54.9295446,38.0531276 54.7625208,38.3502984 C55.0945149,38.2398817 55.4093958,38.076983 55.7078482,37.8616024 C56.0768065,37.6046451 56.3964792,37.3217876 56.6661815,37.0171193 C56.9495744,36.711088 57.1693065,36.4118724 57.3281161,36.1215175 C57.4869256,35.8168493 57.5615387,35.5701157 57.5615387,35.377909 C57.5615387,35.3404218 57.5499018,35.2818056 57.526628,35.2109208 C57.5232054,35.1938812 57.512253,35.1604835 57.4177887,35.1604835 L57.4177887,35.1604835 Z M46.6858244,31.2229707 C46.2785327,31.233876 45.8897232,31.2652289 45.5063899,31.3136214 C45.1292173,31.3640586 44.7390387,31.3892773 44.3372232,31.3892773 C44.1010625,31.3892773 43.9018661,31.3197557 43.9018661,31.104375 C43.9018661,31.0614352 43.9285625,30.9810082 43.9634732,30.8876312 C43.9894851,30.8296965 44.0168661,30.7792593 44.0449315,30.7438169 C44.0688899,30.712464 44.1099613,30.6702058 44.1688304,30.6702058 C44.2140089,30.6702058 44.2461815,30.6940612 44.2660327,30.7220062 C44.2858839,30.748588 44.2968363,30.7819856 44.3036815,30.8078858 C44.3043661,30.8126569 44.3242173,30.8508256 44.4652292,30.8767258 C44.5740685,30.9005813 44.705497,30.9189841 44.863622,30.9312526 L45.3277292,30.9312526 C45.6994256,30.9312526 46.0779673,30.9189841 46.4619851,30.894447 C46.847372,30.8692284 47.2074315,30.8385571 47.5428482,30.80107 C47.8912708,30.7642644 48.197253,30.7329115 48.4594256,30.7076929 C48.7366577,30.6831559 48.9509137,30.6702058 49.1021935,30.6702058 C49.3807946,30.6702058 49.6600804,30.6954244 49.9386815,30.7465432 C50.2337113,30.7969805 50.4965685,30.8924023 50.7306756,31.0341718 C50.9791577,31.165036 51.1735625,31.3456559 51.317997,31.5814841 C51.4802292,31.8091332 51.5562113,32.089946 51.5562113,32.4252855 C51.5562113,32.7647145 51.4514792,33.1177752 51.2474911,33.4865123 C51.0551399,33.8566127 50.7744851,34.2049023 50.4075804,34.5320628 C50.0379375,34.8489995 49.5868363,35.1148174 49.0570149,35.3281533 C48.5354077,35.5305838 47.9391875,35.6314583 47.2710923,35.6314583 C46.9521042,35.6314583 46.6693958,35.5871553 46.4222827,35.4965046 C46.3538304,35.4740123 46.3120744,35.4201672 46.3120744,35.3465561 C46.3120744,35.253179 46.372997,35.1918364 46.4674613,35.1918364 C46.5496042,35.2190998 46.6536518,35.2422737 46.8158839,35.2668107 C46.9856458,35.2913477 47.1437708,35.3036163 47.2895744,35.3036163 C47.7523125,35.3036163 48.1767173,35.212284 48.5641577,35.0316641 C48.9666577,34.8496811 49.3075506,34.6131713 49.5861518,34.3234979 C49.8784435,34.0324614 50.1043363,33.7039378 50.2624613,33.3420165 C50.4322232,32.978732 50.5164196,32.6174923 50.5164196,32.2576157 C50.5164196,31.7525617 50.3596637,31.4322171 50.0701101,31.2665921 C49.7743958,31.0886986 49.4088601,30.9987294 48.9714494,30.9987294 C48.6647827,30.9987294 48.3937113,31.0280376 48.1520744,31.0886986 C48.0124315,31.1316384 47.9042768,31.2229707 47.8262411,31.3674666 C47.5777589,31.7641487 47.2902589,32.2433025 46.9664792,32.8001569 L45.9766577,34.5116152 C45.6405565,35.0950514 45.3167768,35.664856 45.0053185,36.2230736 C44.6945446,36.779928 44.4337411,37.2631713 44.2222232,37.6714403 C44.0866875,37.9406662 44.0250804,38.1499126 44.0250804,38.3053138 C44.0250804,38.5125154 44.1079077,38.6501955 44.2776696,38.7347119 C44.4618065,38.8151389 44.7451994,38.8573971 45.1401696,38.8573971 C45.2106756,38.8573971 45.2709137,38.8621682 45.3160923,38.8744367 C45.3496339,38.8832973 45.4263006,38.9119239 45.4263006,38.9930324 C45.4263006,39.0939069 45.3345744,39.1334388 45.2668065,39.1463889 C45.0409137,39.1845576 44.7828482,39.2152289 44.4932946,39.2411291 C44.2174315,39.2649846 43.9408839,39.2786163 43.6643363,39.2786163 C43.5993065,39.2786163 43.5151101,39.2718004 43.411747,39.2588503 C43.3049613,39.2452186 43.2036518,39.2206816 43.0989196,39.1818313 C42.9907649,39.1545679 42.8963006,39.1129913 42.8127887,39.0571013 C42.7190089,38.9800823 42.6683542,38.8737551 42.6683542,38.7517515 C42.6683542,38.6604192 42.7053185,38.5343261 42.7682946,38.3843776 C42.9435327,37.9979192 43.1762708,37.5603421 43.4644554,37.0736908 C43.7505863,36.5897659 44.0250804,36.1303781 44.2865685,35.6962088 C44.5980268,35.1754784 44.934128,34.6002212 45.294872,33.9677109 C45.6556161,33.3229321 45.9752887,32.7435854 46.2490982,32.2351235 C46.2730565,32.1996811 46.3107054,32.130841 46.3579375,32.0354192 C46.4072232,31.9379527 46.4565089,31.8336703 46.5057946,31.7232536 C46.5550804,31.6128369 46.5975208,31.5105993 46.6344851,31.4124511 C46.6693958,31.3081687 46.6830863,31.2488709 46.6858244,31.2229707 L46.6858244,31.2229707 Z M4.28162798,21.9227521 L0.202550595,21.9227521 C0.353145833,18.0329501 0.456508929,13.45134 0.456508929,9.52405093 C0.456508929,5.27164609 0.421598214,4.53826132 0.20528869,0.432397119 L4.28094345,0.432397119 C4.03109226,4.56825103 4.00987202,5.27028292 3.98865179,9.52336934 C3.97085417,12.9469676 4.06258036,18.0043236 4.28162798,21.9227521 L4.28162798,21.9227521 Z M12.8265387,0.432397119 C16.730378,5.5326929 23.6105268,15.4613323 23.6105268,15.4613323 C23.6762411,15.5553909 23.7857649,15.5254012 23.7891875,15.4115766 C23.9315685,10.3010571 23.5194851,1.71104938 23.4565089,0.432397119 L27.512997,0.432397119 C27.4849315,1.49362397 27.324753,7.6728678 27.324753,11.6042464 C27.324753,15.2220962 27.5944554,20.8990123 27.6444256,21.9227521 L23.717997,21.9227521 C19.9332649,16.3985108 12.2974018,5.85712706 12.2974018,5.85712706 C12.231003,5.76579475 12.1262708,5.7944213 12.1201101,5.90620113 C11.7990685,12.0915792 11.8326101,16.7549794 12.1707649,21.9227521 L8.42710417,21.9227521 C8.5776994,18.0820242 8.67353274,15.4742824 8.67353274,11.5401775 C8.67353274,7.61152521 8.46406845,1.4922608 8.42710417,0.432397119 L12.8265387,0.432397119 Z M45.2613304,15.9609336 C45.2510625,15.9350334 45.1990387,15.899591 45.1696042,15.899591 L36.1756458,15.899591 C36.152372,15.899591 36.0989792,15.9316255 36.0887113,15.9513915 C34.9756756,18.097019 33.8126696,20.3053524 33.0110923,21.9227521 L29.4988006,21.9227521 C31.8912113,17.3949871 36.7301101,6.89381687 39.3114494,0.432397119 L43.0961815,0.432397119 C45.4913304,7.22915638 48.8667173,15.5956044 51.9765089,21.9227521 L47.5031458,21.9227521 C46.716628,19.9379784 45.956122,17.7807639 45.2613304,15.9609336 L45.2613304,15.9609336 Z M37.1107054,12.7220448 C37.0778482,12.7942927 37.1175506,12.852909 37.1996935,12.852909 L43.6479077,12.852909 C43.7232054,12.852909 43.7642768,12.7990638 43.7403185,12.7302238 L40.9864792,4.60301183 C40.952253,4.50009259 40.8495744,4.4953215 40.8043958,4.59415123 L37.1107054,12.7220448 Z M83.789753,11.9702572 C81.5938006,11.944357 78.8960923,11.9641229 76.2771042,11.9709388 C76.2257649,11.9716204 76.1799018,12.0152418 76.1799018,12.0649974 L76.1799018,18.8174537 C76.1799018,18.8569856 76.2216577,18.9033333 76.2620446,18.9094676 C77.9904673,19.1650617 84.0252292,18.977626 85.3675804,18.9156019 L85.3675804,21.8934439 L72.808622,21.8934439 C72.8421637,20.6311497 72.995497,14.6775103 72.995497,11.1271373 C72.995497,6.89586163 72.9660625,4.6350463 72.8195744,0.563942901 L85.3675804,0.563942901 L85.3675804,3.32027006 C83.4365387,3.23234568 79.2239792,3.32572274 76.2771042,3.32504115 C76.2291875,3.32504115 76.1826399,3.36729938 76.1799018,3.41364712 C76.0334137,5.87212191 76.1840089,7.03354167 76.1799018,8.87245628 C76.1799018,8.91471451 76.2223423,8.96106224 76.2668363,8.96515175 C77.8549315,9.12805041 82.611003,9.02785751 83.789753,8.97128601 L83.789753,11.9702572 Z M94.3512708,10.9165278 C94.3512708,8.2787963 94.2458542,6.53394033 94.2458542,3.41909979 C94.2458542,3.37138889 94.2013601,3.32708591 94.1520744,3.32504115 C94.1520744,3.32504115 92.933622,3.28278292 91.5515685,3.26165381 C90.2359137,3.24120628 88.7717173,3.23984311 88.0618661,3.31140947 L88.0249018,0.563942901 L104.765616,0.563942901 L104.766301,3.31481739 C102.807878,3.16214249 98.5350804,3.32504115 98.5350804,3.32504115 C98.4912708,3.32708591 98.4454077,3.36934414 98.4413006,3.41160237 C98.1969256,6.40034979 98.1914494,8.20995628 98.1914494,10.9165278 C98.1914494,15.1675694 98.2208839,17.773948 98.3988601,21.8934439 L94.1137411,21.8934439 C94.3211518,17.7753112 94.3512708,15.1675694 94.3512708,10.9165278 L94.3512708,10.9165278 Z M68.4721637,1.43091821 L67.3947232,4.0332073 C66.1324613,3.44227366 64.4396339,2.99924383 62.5311815,2.99924383 C59.7595446,2.99924383 58.3768065,4.09318673 58.3768065,5.598125 C58.3768065,6.95652263 59.022997,7.87257202 61.9465982,9.0544393 L64.1630863,9.99979681 C67.5487411,11.3881842 68.9958244,13.1916564 68.9958244,16.0870267 C68.9958244,19.7212346 65.4253482,22.2042464 60.8999613,22.2042464 C58.1611815,22.2042464 55.7283839,21.7305453 53.6967173,20.8151775 L54.8063304,18.1842618 C56.5600804,19.0403318 58.591747,19.543341 60.7151399,19.543341 C63.4258542,19.543341 64.9619256,18.2715046 64.9619256,16.7079501 C64.9619256,15.0537449 64.2240089,14.0790792 61.4845446,12.9851363 L58.8682946,11.9218647 C55.8824018,10.6214017 54.4045149,8.75999486 54.4045149,6.10045267 C54.4045149,2.99788066 57.6053482,0.337656893 62.3155565,0.337656893 C64.8715685,0.337656893 66.7170446,0.633464506 68.4721637,1.43091821 L68.4721637,1.43091821 Z M12.7142768,27.6466975 C12.3679077,27.3222634 11.815497,27.1661806 11.066628,27.1661806 C10.2732649,27.1661806 9.62502083,27.4033719 9.12531845,27.880481 C8.62424702,28.3391872 8.37576488,28.9567027 8.37576488,29.7282562 C8.37576488,30.3212346 8.51472321,30.8746811 8.79263988,31.3879141 C9.06781845,31.8970576 9.37311607,32.3666692 9.70716369,32.7981121 C9.9604375,33.127999 10.1671637,33.4115381 10.3232351,33.6453215 C10.4977887,33.8572942 10.6340089,34.0617695 10.7305268,34.2526132 C10.8256756,34.425054 10.8934435,34.5968133 10.9310923,34.7672094 C10.9687411,34.9185211 10.9885923,35.1093647 10.9885923,35.3411034 C10.9885923,35.741875 10.8927589,36.1358308 10.6997232,36.5188812 C10.5258542,36.9032948 10.2842173,37.260445 9.97412798,37.588287 C8.20805655,39.4415149 6.29412798,39.7570885 5.26528869,39.7686754 C3.44993155,39.7877598 2.37591369,39.3903961 1.17868155,38.3025874 C0.600258929,37.7764043 0.275794643,37.0866409 0.124514881,36.509339 C-0.026764881,35.9163606 -0.0404553571,35.3281533 0.0841279762,34.7440355 C0.1998125,34.1503755 0.399008929,33.9936111 0.308651786,34.5327443 C0.218294643,35.0541564 0.249782738,35.5721605 0.403116071,36.0840303 C0.483889881,36.3334902 0.575616071,36.6361137 0.731002976,36.9591847 C0.887074405,37.2836188 1.10749107,37.6298637 1.44359226,37.9652032 C2.03912798,38.5581816 3.0001994,39.0693699 4.15225298,39.3038349 C5.39740179,39.5567027 6.70621131,39.3563169 7.40579464,39.046196 C8.0889494,38.7442541 8.65984226,38.4109594 9.07808631,37.9154475 C9.51618155,37.4001698 9.73522917,36.7942413 9.73522917,36.10107 C9.73522917,35.7616409 9.65513988,35.4242567 9.49633036,35.087554 C9.33683631,34.7304038 9.03153869,34.2703344 8.57975298,33.7032562 C8.19094345,33.1988837 7.88906845,32.7538092 7.6748125,32.3659877 C7.48246131,31.9836188 7.38662798,31.5446785 7.38662798,31.043714 C7.38662798,30.5441127 7.49272917,30.0445113 7.70561607,29.5435468 C7.93903869,29.0405376 8.21969345,28.5961445 8.5489494,28.2103678 C8.66531845,28.0760957 8.82002083,27.921376 9.0144256,27.747572 C9.2273125,27.5546836 9.46826488,27.3822428 9.73933631,27.2275231 C10.0309435,27.0728035 10.3601994,26.9385314 10.7284732,26.8219805 C11.1152292,26.7067927 11.5403185,26.648858 12.0064792,26.648858 C12.3145149,26.648858 12.6136518,26.6972505 12.9018363,26.7926723 C13.1852292,26.8683282 13.4446637,27.0298637 13.6746637,27.2779604 C13.7581756,27.3965561 13.8006161,27.5117438 13.8067768,27.6235237 L13.5158542,28.3978035 C13.4268661,28.6820242 13.3549911,28.9239866 13.2988601,29.1270988 C13.2393065,29.1625412 13.2153482,29.1550437 13.1982351,29.1393673 C13.2139792,29.0609851 13.2276696,28.9969162 13.2379375,28.9342104 C13.2509435,28.846286 13.2584732,28.7658591 13.2584732,28.6765715 C13.2584732,28.3071528 13.0729673,27.9643158 12.7142768,27.6466975 L12.7142768,27.6466975 Z M27.3329673,33.1866152 C27.139247,33.1866152 27.0283542,33.0761986 27.0283542,32.8833102 C27.0283542,32.7020087 27.0926994,32.5288863 27.2138601,32.368714 C27.3514494,32.2037706 27.5239494,32.114483 27.7251994,32.114483 C27.9319256,32.114483 28.0489792,32.231034 28.0489792,32.4368724 C28.0489792,32.6120396 27.9688899,32.7783462 27.8237708,32.9364738 C27.6868661,33.0986908 27.5239494,33.1866152 27.3329673,33.1866152 L27.3329673,33.1866152 Z M37.4687113,38.4573071 C37.1278185,38.6835931 36.7663899,38.8730736 36.3871637,39.0237037 C36.0058839,39.1634285 35.6341875,39.2336317 35.2748125,39.2336317 C34.6539494,39.2336317 34.3157946,38.9460031 34.3157946,38.3721091 C34.3157946,38.3046322 34.3192173,38.2357922 34.325378,38.1662706 C34.0912708,38.4109594 33.8393661,38.642698 33.5696637,38.8628498 C33.2910625,39.0891358 33.0001399,39.2786163 32.6955268,39.429928 C32.399128,39.5832845 32.1068363,39.6616667 31.8179673,39.6616667 C31.5626399,39.6616667 31.3600208,39.6112294 31.2374911,39.4892258 C31.1170149,39.3685854 31.0643065,39.1893287 31.0643065,38.9678138 C31.0643065,38.8124126 31.1402887,38.573858 31.277878,38.2644187 C31.4271042,37.9536163 31.5900208,37.6291821 31.7652589,37.293161 C31.9384435,36.9598663 32.0938304,36.6442927 32.2307351,36.3471219 C32.3813304,36.0349563 32.4477292,35.8332073 32.4477292,35.7302881 C32.3094554,35.777999 32.1301101,35.9034105 31.924753,36.0717618 C31.7276101,36.2312526 31.5297827,36.4091461 31.3326399,36.6054424 C31.134128,36.8037834 30.948622,36.9939455 30.774753,37.1793364 C30.6152589,37.3626826 30.4934137,37.5146759 30.4071637,37.6366795 C30.3222827,37.7580015 30.2374018,37.9038606 30.1518363,38.0728935 C30.0642173,38.2473791 29.9779673,38.4136857 29.8903482,38.5752212 C29.8136815,38.7408462 29.7322232,38.8785262 29.640497,38.9964403 C29.5665685,39.106857 29.4782649,39.1968261 29.3701101,39.1968261 C29.2763304,39.1968261 29.1989792,39.1484336 29.1387411,39.0734594 C29.0805565,39.0012114 29.0463304,38.9221476 29.0463304,38.8376312 C29.0463304,38.7817413 29.0716577,38.7074486 29.1079375,38.6215689 C29.1496935,38.513197 29.2215685,38.3898302 29.3235625,38.250787 C29.4830565,38.0313169 29.624753,37.7975334 29.7472827,37.5535262 C29.8828185,37.3081559 29.9950804,37.0784619 30.0813304,36.8705787 C30.1792173,36.6626955 30.2538304,36.4834388 30.3024315,36.3375797 C30.3551399,36.1808153 30.3729375,36.1099306 30.3729375,36.1024331 C30.3729375,36.0772145 30.3715685,36.0594933 30.3688304,36.0472248 C30.3106458,36.0519959 30.2100208,36.1085674 30.0388899,36.2557896 C29.8663899,36.4036934 29.6754077,36.5877212 29.4659435,36.8085545 C29.2551101,37.030751 29.0442768,37.2658976 28.8334435,37.5126312 C28.6232946,37.7586831 28.4569554,37.980198 28.3351101,38.173768 C28.1612411,38.4334516 28.0113304,38.6638272 27.8874315,38.8614866 C27.7731161,39.0427881 27.655378,39.1968261 27.5383244,39.1968261 C27.4068958,39.1968261 27.3090089,39.1279861 27.2727292,39.0025746 C27.2604077,38.9126055 27.2521935,38.8165021 27.2521935,38.7258513 C27.2521935,38.6133899 27.2782054,38.5172865 27.3425506,38.4375412 C27.4616577,38.2480607 27.5800804,38.0572171 27.6978185,37.8656919 C27.3617173,38.1587731 27.0495744,38.400054 26.7600208,38.5888529 C26.5060625,38.7531147 26.2445744,38.880571 25.9755565,38.969177 C25.7079077,39.0584645 25.4628482,39.1034491 25.240378,39.1034491 C25.1630268,39.1034491 25.0719851,39.0973148 24.968622,39.0843647 C24.8584137,39.070733 24.7523125,39.0346091 24.6557946,38.9800823 C24.5736518,38.9255556 24.4935625,38.8512629 24.4271637,38.7715175 C24.3682946,38.6692798 24.3374911,38.5370525 24.3374911,38.3911934 C24.3374911,38.2126183 24.4052589,37.9829244 24.5312113,37.7068827 C24.3238006,37.878642 24.0842173,38.0797094 23.831628,38.2685082 C23.4907351,38.532963 23.1299911,38.7531147 22.7507649,38.9296451 C22.3674315,39.0945885 21.9820446,39.1777418 21.5966577,39.1777418 C21.2619256,39.1777418 20.9976994,39.0993596 20.827253,38.9296451 C20.6773423,38.7524331 20.5999911,38.5390972 20.5999911,38.2978164 C20.5999911,38.0572171 20.6999315,37.7266487 20.8874911,37.3156533 C21.0421935,36.9891744 21.215378,36.6511085 21.4063601,36.3028189 C21.2215387,36.3805195 21.0435625,36.4452701 20.8724315,36.4957073 C20.5418065,36.5965818 20.2289792,36.6477006 19.9332649,36.6477006 C19.6847827,36.6477006 19.4513601,36.5938555 19.2405268,36.4888915 C19.1193661,36.4166435 19.0132649,36.3375797 18.9249613,36.2530633 C18.9044256,36.6538349 18.8236518,37.0218904 18.6812708,37.3606379 C18.528622,37.7511857 18.3383244,38.0872068 18.1083244,38.367338 C17.8790089,38.6467876 17.6271042,38.8648945 17.3560327,39.0196142 C17.0870149,39.1600206 16.8357946,39.2336317 16.6071637,39.2336317 C16.3894851,39.2336317 16.199872,39.1641101 16.0465387,39.0257485 C15.9014196,38.880571 15.8350208,38.662464 15.8350208,38.3911934 C15.8350208,38.2460159 15.8569256,38.0817541 15.9000506,37.8977263 C15.6385625,38.1833102 15.3620149,38.4484465 15.0710923,38.6938169 C14.7432054,38.9698585 14.4153185,39.195463 14.0860625,39.3726749 C13.7533839,39.5635185 13.4357649,39.6616667 13.1311518,39.6616667 C12.9052589,39.6616667 12.7142768,39.6003241 12.5712113,39.4721862 C12.4384137,39.3392773 12.3781756,39.1402546 12.3781756,38.8935211 C12.3781756,38.7776517 12.3918661,38.646106 12.4171935,38.5043364 L12.433622,38.4436754 C12.3494256,38.5465947 12.2515387,38.6467876 12.1385923,38.7490252 C12.0208542,38.8533076 11.8825804,38.9446399 11.7271935,39.021659 C11.5779673,39.0891358 11.4095744,39.1225334 11.2254375,39.1225334 C11.0727887,39.1225334 10.938622,39.0782305 10.8345744,38.9896245 C10.7264196,38.8819342 10.6778185,38.7258513 10.6778185,38.5397788 C10.6778185,38.4429938 10.6990387,38.3155376 10.7366875,38.1649074 C10.7873423,38.0013272 10.8701696,37.7907176 10.9844851,37.5385314 C11.1090685,37.276803 11.2726696,36.9591847 11.4725506,36.5849949 C11.6840685,36.2005813 11.9517173,35.7302881 12.275497,35.1707073 C12.3323125,35.0589275 12.4076101,34.9430581 12.5143958,34.9430581 C12.6389792,34.9430581 12.7430268,35.018714 12.836122,35.1373097 C12.9271637,35.2272788 13.0065685,35.3179295 13.0065685,35.3956301 C13.0065685,35.4617438 12.951122,35.5585288 12.8806161,35.6634928 C12.6821042,35.9593004 12.4959137,36.2557896 12.3227292,36.5522788 C12.1488601,36.848768 11.9941577,37.1254913 11.8579375,37.3851749 C11.7340387,37.644177 11.6299911,37.8752341 11.5430565,38.085162 C11.469128,38.2814583 11.4362708,38.4239095 11.4362708,38.5206944 C11.4362708,38.687001 11.4896637,38.7203987 11.5615387,38.7203987 C11.6532649,38.7203987 11.801122,38.6474691 12.0126399,38.4613966 C12.2289494,38.2698714 12.4842768,37.9508899 12.7820446,37.4935468 C12.8943065,37.2958873 13.0051994,37.0927752 13.1167768,36.8828472 L13.4720446,36.2496553 C13.5843065,36.0513143 13.6849315,35.8700129 13.7718661,35.7084774 L14.0176101,35.31384 C14.0737411,35.2347762 14.1483542,35.1475334 14.2339196,35.1475334 C14.3372827,35.1475334 14.4132649,35.2504527 14.4714494,35.3547351 C14.5440089,35.4699228 14.5761815,35.6076029 14.5761815,35.7677752 C14.5761815,35.8802366 14.5460625,35.9899717 14.489247,36.0888014 C14.3386518,36.3137243 14.1743661,36.5400103 13.9984435,36.7649331 C13.8382649,36.9741795 13.6849315,37.1943313 13.5370744,37.4274331 C13.4015387,37.6598534 13.2858542,37.9024974 13.1879673,38.1587731 C13.0921339,38.4095962 13.0435327,38.6849563 13.0435327,38.9868981 C13.0435327,39.2179552 13.1414196,39.3154218 13.3556756,39.3154218 C13.497372,39.3154218 13.6904077,39.2540792 13.9354673,39.1191255 C14.1901101,38.9991667 14.460497,38.8219547 14.7432054,38.5895345 C15.0259137,38.3571142 15.3161518,38.0742567 15.6132351,37.7416435 C15.7966875,37.5439841 15.9760327,37.3361008 16.1505863,37.1173122 C16.1943958,37.0034877 16.2409435,36.8903447 16.2909137,36.7765201 C16.4278185,36.4786677 16.5599315,36.1971734 16.6845149,35.9361265 C16.8221042,35.6743981 16.9412113,35.4562912 17.0411518,35.2818056 C17.3779375,34.6731507 17.7393661,34.0467747 18.126122,33.4013143 C18.512878,32.7422222 18.9188006,32.0960802 19.3432054,31.4615252 C19.7806161,30.8276517 20.2371935,30.2169522 20.7115685,29.6328344 C21.1996339,29.0350849 21.7130268,28.4857279 22.251747,27.9868081 C22.4023423,27.8498097 22.5905863,27.686911 22.8164792,27.5001569 C23.055378,27.3120396 23.3065982,27.1361908 23.5708244,26.9739738 C23.8371042,26.7974434 24.1020149,26.6529475 24.3682946,26.5391229 C24.6489494,26.4246168 24.909753,26.3653189 25.1465982,26.3653189 C25.385497,26.3653189 25.5764792,26.4293879 25.7079077,26.5752469 C25.8509732,26.7033848 25.9187411,26.8642387 25.9187411,27.0598534 C25.9187411,27.2445628 25.9125804,27.3761085 25.8982054,27.4476749 C25.8831458,27.5246939 25.801003,27.6385185 25.6880565,27.5253755 C25.6305565,27.468804 25.5443065,27.4006456 25.4340982,27.327716 C25.3581161,27.2609208 25.1993065,27.2138915 24.9412411,27.2138915 C24.7208244,27.2138915 24.5188899,27.22616 24.3354375,27.250697 C24.1540387,27.2745525 23.9678482,27.322945 23.774128,27.3945113 C23.5934137,27.4674408 23.3983244,27.5703601 23.1895446,27.7046322 C22.983503,27.8259542 22.7487113,27.9977135 22.4892768,28.2192284 C22.122372,28.523215 21.7219256,28.9764686 21.2879375,29.5817155 C20.8532649,30.1753755 20.411747,30.8310597 19.964753,31.548768 C19.5293958,32.2542078 19.1125208,32.978732 18.7148125,33.721659 C18.3164196,34.452999 17.967997,35.1100463 17.6695446,35.6921193 C17.5696042,35.8897788 17.4587113,36.1235622 17.3348125,36.3955144 C17.2232351,36.6538349 17.118503,36.9182896 17.019247,37.1895602 C16.932997,37.4485622 16.8583839,37.6939326 16.7967768,37.9283976 C16.7344851,38.1499126 16.7064196,38.3094033 16.7064196,38.4095962 C16.7064196,38.7319856 16.8084137,38.8314969 16.961747,38.8314969 C17.0616875,38.8314969 17.1938006,38.7817413 17.3635625,38.6611008 C17.5415387,38.5315998 17.7085625,38.3537063 17.8666875,38.1226492 C18.024128,37.8820499 18.1576101,37.5923765 18.2678185,37.2509028 C18.3773423,36.8998868 18.4327887,36.5052495 18.4327887,36.064946 C18.4327887,35.9197685 18.4190982,35.8045808 18.3971935,35.7275617 C18.384872,35.6321399 18.3663899,35.5530761 18.3451696,35.499231 C18.3390089,35.3676852 18.3903482,35.2736265 18.4745446,35.1897917 C18.5258839,35.1393544 18.5874911,35.0834645 18.6641577,35.0200772 C18.7415089,34.9423765 18.8126994,34.8851235 18.8825208,34.8428652 C18.9749315,34.8305967 19.0385923,34.8483179 19.0707649,34.9130684 C19.0796637,35.1877469 19.1200506,35.38268 19.2001399,35.5428524 C19.2952887,35.6968904 19.4034435,35.8209388 19.5328185,35.9265844 C19.6758839,36.0213246 19.821003,36.0901646 19.9750208,36.1371939 C20.1434137,36.1855864 20.2974315,36.2080787 20.4377589,36.2080787 C20.641747,36.2080787 20.8635327,36.1787706 21.1079077,36.1181096 C21.2797232,36.0669907 21.4542768,35.9940612 21.6329375,35.9000026 C21.8786815,35.4719676 22.1237411,35.0664249 22.3694851,34.6826929 C22.6302887,34.2744239 22.8226399,33.9649846 22.9472232,33.7550566 L23.6002589,32.6386214 C23.8254673,32.2419393 24.0493065,31.8568441 24.2738304,31.4840175 C24.4990387,31.1118724 24.7167173,30.7581301 24.9289196,30.4227906 C25.141122,30.074501 25.3341577,29.7705144 25.5093958,29.508786 C25.7222827,29.1843519 25.9413304,28.8790021 26.1672232,28.5913735 C26.3958542,28.3010185 26.6860923,28.0120267 27.038622,27.7237166 C27.5150506,27.3243081 27.9551994,27.0175952 28.3604375,26.8028961 C28.7540387,26.5943313 29.0408542,26.4770988 29.2017173,26.4770988 C29.3194554,26.4770988 29.4187113,26.5118596 29.4981161,26.5909234 C29.5864196,26.6611265 29.6185923,26.7667721 29.6185923,26.8921836 C29.6185923,27.0823457 29.5446637,27.3488452 29.4070744,27.6855478 C29.2688006,28.0236137 29.0682351,28.4168879 28.8046935,28.8674151 C28.5534732,29.3043107 28.2413304,29.7773302 27.8655268,30.2885185 C27.5020446,30.7874383 27.0831161,31.2856764 26.6066875,31.7845962 C26.1432649,32.2835159 25.629872,32.7640329 25.0665089,33.224784 C24.5079375,33.669177 23.9124018,34.0658591 23.2805863,34.4127855 C23.1696935,34.6090818 23.0170446,34.8701286 22.8240089,35.1945628 C22.625497,35.5285391 22.4269851,35.879555 22.2284732,36.2510185 C22.0422827,36.6211188 21.8759435,36.9830401 21.7267173,37.3415535 C21.5918661,37.696659 21.5268363,37.9890586 21.5268363,38.2235237 C21.5268363,38.5840818 21.6788006,38.7388014 21.9888899,38.7388014 C22.2846042,38.7388014 22.5960625,38.6563297 22.9232649,38.4872968 C23.2545744,38.3162191 23.5680863,38.1076543 23.8624315,37.8636471 C24.1711518,37.6175952 24.4559137,37.3585931 24.7146637,37.0886857 L24.9645149,36.8255941 L25.470378,35.9674794 C25.6463006,35.6928009 25.7832054,35.4883256 25.8838304,35.3506456 C25.9577589,35.2327315 26.0768661,35.1461703 26.2349911,35.0800566 C26.3924315,35.0078086 26.5142768,34.9614609 26.5854673,34.9614609 C26.649128,34.9614609 26.7593363,34.98259 26.7593363,35.0977778 C26.7593363,35.1420808 26.7374315,35.1966075 26.7134732,35.245 C26.7018363,35.2933925 26.6806161,35.3397402 26.6429673,35.377909 C26.4725208,35.6198714 26.3096042,35.8877341 26.1514792,36.178089 C25.9906161,36.4745782 25.8413899,36.7649331 25.7051696,37.0491538 C25.5689494,37.3190612 25.4587411,37.5698843 25.3724911,37.8029861 C25.2985625,38.036088 25.2643363,38.2112551 25.2643363,38.3353035 C25.2643363,38.472302 25.2937708,38.5554552 25.3478482,38.6093004 C25.4176696,38.6590561 25.5073423,38.6829115 25.6326101,38.6829115 C25.8646637,38.6829115 26.1240982,38.6086188 26.4157054,38.4511728 C26.7107351,38.2800952 26.9996042,38.0776646 27.2823125,37.8445628 C27.5787113,37.6114609 27.8504673,37.365409 28.0968958,37.1077701 L28.244753,36.9503241 L28.3289494,36.8065098 C28.6527292,36.2482922 28.9744554,35.6996168 29.2982351,35.1543493 C29.3550506,35.026893 29.4440387,34.9430581 29.5754673,34.9430581 C29.6754077,34.9430581 29.7507054,35.0016744 29.8088899,35.087554 C29.8663899,35.159802 29.8985625,35.2361394 29.8985625,35.3206559 C29.8047827,35.6021502 29.6521339,35.9115895 29.439247,36.2728292 L29.2304673,36.6313426 C29.5248125,36.3178138 29.7835625,36.064946 30.0087708,35.8741024 C30.3455565,35.5755684 30.6392173,35.4078987 30.8835923,35.4078987 C31.0868958,35.4078987 31.1697232,35.5626183 31.1697232,35.7677752 C31.1697232,35.9095448 31.106747,36.1160648 30.9944851,36.37643 L30.8712708,36.6415664 C30.9520446,36.5563683 31.0362411,36.4698071 31.1252292,36.3805195 C31.3264792,36.1801337 31.5352589,35.9913349 31.7488304,35.8168493 C31.9740387,35.6416821 32.1944554,35.4787834 32.4073423,35.3288349 C32.6359732,35.1775231 32.846122,35.0568827 33.0357351,34.9689583 C33.2938006,34.9614609 33.4307054,35.0780118 33.4307054,35.3022531 C33.4307054,35.3486008 33.4231756,35.394267 33.4081161,35.4392515 C33.3944256,35.479465 33.3745744,35.5251312 33.347878,35.5782948 C33.2849018,35.7166564 33.1671637,35.9395345 32.9912411,36.2523817 C32.8296935,36.561821 32.6619851,36.8951157 32.4881161,37.2543107 C32.314247,37.599874 32.1595446,37.9386214 32.0233244,38.2712346 C31.8994256,38.5922608 31.8426101,38.828089 31.8426101,38.9868981 C31.8426101,39.1934182 31.9281756,39.2786163 32.1171042,39.2786163 C32.3224613,39.2786163 32.5456161,39.2097762 32.7851994,39.0666435 C33.0302589,38.9201029 33.276003,38.7428909 33.5224315,38.5343261 C33.7688601,38.3257613 33.9968065,38.1117438 34.2062708,37.8902289 L34.4301101,37.6394059 C34.4711815,37.5037706 34.5225208,37.3647274 34.5848125,37.2229578 C34.7744256,36.8194599 35.015378,36.4411806 35.3056161,36.0888014 C35.5972232,35.7364223 35.9134732,35.4460674 36.2571042,35.2177366 C36.6034732,34.9750926 36.9484732,34.8503627 37.2927887,34.8503627 C37.4700804,34.8503627 37.6151994,34.877626 37.7021339,34.9641872 C37.7959137,35.0418879 37.8404077,35.1427623 37.8404077,35.2654475 C37.8404077,35.4317541 37.7856458,35.6048765 37.6815982,35.786178 C37.588503,35.9715689 37.4433839,36.1460545 37.2510327,36.3123611 C37.0559435,36.4684439 36.8026696,36.6033976 36.4980565,36.7172222 C36.2132946,36.816052 35.8833542,36.8664892 35.5102887,36.8705787 C35.4575804,36.9769059 35.3980268,37.1377598 35.332997,37.353822 C35.2604375,37.5821528 35.2248423,37.8159362 35.2248423,38.0558539 C35.2248423,38.5281919 35.4260923,38.7388014 35.8354375,38.7388014 C36.1085625,38.7388014 36.3905863,38.6733693 36.6801399,38.541142 C36.9868065,38.4068699 37.2811518,38.242608 37.5638601,38.0469933 C37.847253,37.8377469 38.1046339,37.6182767 38.3387411,37.3851749 C38.5858542,37.1391229 38.7925804,36.9080658 38.9513899,36.7008642 C38.9917768,36.6613323 39.0540685,36.6292978 39.1204673,36.6626955 C39.185497,36.6858693 39.2231458,36.7376698 39.2231458,36.8092361 C38.9917768,37.1227649 38.7337113,37.398125 38.4325208,37.6864352 C38.1422827,37.9617953 37.8212411,38.2194342 37.4687113,38.4573071 L37.4687113,38.4573071 Z M28.2844554,27.2057124 C28.2221637,27.2363837 28.1304375,27.3093133 28.0065387,27.43268 C27.8956458,27.5430967 27.7546339,27.7012243 27.5828185,27.9091075 L26.9496339,28.7263272 L26.521122,29.3193056 L25.831122,30.3600849 C25.556628,30.781304 25.2205268,31.3074871 24.8228185,31.9399974 L23.6118958,33.8784234 C24.2491875,33.4933282 24.8481458,33.0434825 25.4101399,32.5268416 C26.0665982,31.9215947 26.6306458,31.3054424 27.1002292,30.6777032 C27.5711815,30.0486008 27.9415089,29.4392644 28.2125804,28.8496939 C28.4850208,28.2594419 28.6171339,27.7693827 28.6171339,27.3761085 C28.6171339,27.2057124 28.5575804,27.1586831 28.4542173,27.1586831 C28.4076696,27.1586831 28.3515387,27.1723148 28.2844554,27.2057124 L28.2844554,27.2057124 Z M35.8169554,36.561821 L35.649247,36.5550051 C35.7149613,36.4227778 35.7936815,36.2864609 35.8840387,36.1460545 C35.9949315,35.9742953 36.1113006,35.8168493 36.2331458,35.6696271 C36.3549911,35.5251312 36.4747827,35.4119882 36.5918363,35.330198 C36.7205268,35.2381842 36.8355268,35.1966075 36.9382054,35.1966075 C37.0552589,35.1966075 37.1004375,35.2409105 37.1004375,35.358143 C37.1004375,35.681214 36.9744851,35.9640715 36.7150506,36.2114866 C36.4549315,36.4459516 36.1571637,36.561821 35.8169554,36.561821 Z M188.221498,10.1135501 L186.382698,21.6869628 L185.130973,21.6869628 L186.95531,10.2028358 C186.982921,10.0275713 186.854067,9.8747935 186.677222,9.8747935 L183.18107,9.8747935 L183.34674,8.83180409 L192.570321,8.83246546 L192.050303,9.87545488 L188.498928,9.8747935 C188.367445,9.8747935 188.241878,9.98259774 188.221498,10.1135501 Z M161.895568,9.90521678 C162.974392,10.9898729 163.391195,12.8919893 163.06906,15.2603755 C162.50368,19.2623596 160.328283,21.6519099 157.248934,21.6519099 L153.879007,21.6519099 L155.663241,8.82981996 L158.992408,8.82915858 C160.20929,8.82915858 161.186871,9.19159245 161.895568,9.90521678 Z M155.210937,20.5520422 L157.444845,20.5520422 C159.695189,20.5520422 161.323614,18.5586559 161.8009,15.2193702 C162.084247,13.143312 161.766714,11.5229417 160.907468,10.6578623 C160.426895,10.1743967 159.776051,9.92968768 158.975315,9.92968768 L156.69999,9.92968768 L155.210937,20.5520422 Z M166.31868,8.82955541 L167.502691,8.83021678 L165.718457,21.6523067 L164.534446,21.6523067 L166.31868,8.82955541 Z M173.504724,15.809185 L177.092257,15.809185 L176.326365,21.2549522 L176.24353,21.2847141 C175.211383,21.6570686 174.183838,21.8310104 173.009688,21.8310104 C171.831594,21.8303491 170.877023,21.4712221 170.172927,20.7635501 C169.051371,19.6345819 168.623392,17.6663279 168.969194,15.2205607 C169.401118,12.0446348 171.161685,8.65111626 174.806413,8.65111626 C175.846449,8.65111626 176.800363,8.82968768 177.724694,9.19807393 L177.830538,9.24040197 L177.683934,10.3435766 L177.51169,10.277439 C176.619573,9.93286229 175.61701,9.75098398 174.610502,9.75098398 C171.941383,9.75098398 170.601564,12.5968835 170.237354,15.2609046 C169.938229,17.3508517 170.288633,19.0743967 171.197843,19.9884178 C171.68762,20.4818041 172.333205,20.7318041 173.11619,20.7311427 C173.968204,20.7318041 174.541473,20.6458252 175.262662,20.4877565 L175.75967,16.9090528 L173.358778,16.9090528 L173.504724,15.809185 Z M180.424317,8.82955541 L181.608985,8.82955541 L179.825409,21.6523067 L178.640741,21.6523067 L180.424317,8.82955541 Z M119.897176,20.2796215 C119.889944,20.3252565 119.921501,20.364939 119.968177,20.3669231 L124.776536,20.577902 L124.605607,21.6552829 L118.421272,21.6552829 L120.457297,8.84972737 L121.714281,8.84972737 L119.897176,20.2796215 Z M135.365773,17.2068702 L136.693759,8.84972737 L137.950743,8.84972737 L136.616183,17.2439073 C136.392661,18.6486692 135.818077,19.7439073 134.904923,20.5474787 C133.933916,21.4112353 132.613819,21.8570025 130.917022,21.8570025 C129.31818,21.8570025 128.234755,21.4548861 127.591142,20.713484 C126.952131,19.9773729 126.722692,18.8060766 126.990262,17.125521 L128.306413,8.84972737 L129.56274,8.84972737 L128.266311,17.0011824 C128.105901,18.0097803 128.205828,18.8662618 128.606854,19.5441718 C129.09926,20.4099126 129.997294,20.8087221 131.208259,20.8087221 C133.580225,20.8087221 134.9871,19.5858385 135.365773,17.2068702 Z M139.939434,11.9448993 C140.085381,11.0295554 140.533083,10.2709575 141.298318,9.66183054 C142.056979,9.05865594 143.019439,8.74847075 144.205422,8.74913213 C145.246116,8.74913213 146.129029,8.93497869 146.864023,9.29741255 L146.661538,10.491857 C145.862117,10.0156665 144.986436,9.77690991 144.038438,9.77690991 C143.345519,9.77690991 142.744639,9.9184443 142.248945,10.2193702 C141.695399,10.5553491 141.3588,11.0467512 141.258215,11.6796877 C141.115555,12.5771745 141.599416,13.366857 142.540839,14.0421215 C143.386279,14.6366983 144.221858,15.2160633 145.06927,15.7967512 C145.875923,16.5593173 146.174391,17.4455607 146.007407,18.4991321 C145.849626,19.4892115 145.338812,20.2914602 144.455899,20.914476 C143.58219,21.5407988 142.5507,21.8575977 141.352884,21.8575977 C140.095242,21.8575977 139.021678,21.5513808 138.121014,20.9488676 L138.824452,19.991857 C139.58903,20.5659311 140.497582,20.8496612 141.536961,20.8496612 C142.235139,20.8503226 142.859687,20.6929152 143.407974,20.3688411 C144.071309,19.9984708 144.476936,19.4627565 144.58804,18.7650051 C144.735302,17.8344496 144.272479,17.0169893 143.34026,16.3225448 C142.522431,15.7425184 141.707232,15.1730739 140.875598,14.5937088 C140.076177,13.8569364 139.773764,12.986566 139.939434,11.9448993 Z M115.944316,15.6247935 C114.995661,16.491857 113.766946,16.9336559 112.236475,16.9336559 L111.289793,16.9329946 C111.260209,16.9329946 111.221421,16.965402 111.216162,16.9945025 L110.306952,21.7359046 L109.044709,21.7359046 L111.080076,8.91315329 L113.79653,8.91315329 C115.161988,8.91315329 116.137597,9.27360303 116.772663,9.94622208 C117.400498,10.5976771 117.643085,11.5308782 117.441258,12.8007194 C117.259153,13.9462221 116.76083,14.8833914 115.944316,15.6247935 Z M111.288478,15.8291586 C111.280589,15.8695025 111.308858,15.9105078 111.349618,15.9171215 L112.602,15.9224126 C114.588061,15.9243967 115.7701,14.8946348 116.085661,12.9052168 C116.221089,12.0520422 116.069225,11.3304813 115.580763,10.7822009 C115.102163,10.2279681 114.346131,9.98392049 113.380384,9.98325911 L112.393598,9.98325911 C112.363357,9.98325911 112.325884,10.0150051 112.319968,10.044767 L111.288478,15.8291586 Z M204.143714,8.86890726 L202.105716,20.2577961 C202.074818,20.4337221 202.202357,20.5871612 202.379203,20.5871612 L206.967326,20.5871612 L206.781277,21.6241983 L200.639016,21.6241983 L202.920915,8.86890726 L204.143714,8.86890726 Z M196.986596,18.1488676 L191.864648,18.1488676 C191.776554,18.1488676 191.662821,18.2169893 191.620746,18.295693 L189.832568,21.6237353 L188.705752,21.6237353 L195.864382,8.82876176 L196.619756,8.82876176 L199.276384,21.6237353 L197.935908,21.6237353 L197.258767,18.3710898 C197.23247,18.2493967 197.11019,18.1488676 196.986596,18.1488676 Z M195.790094,10.9160633 C195.692139,10.9160633 195.56197,10.9762485 195.515293,11.0833914 C195.335818,11.4960898 195.067591,12.0337882 194.710613,12.6991321 L192.522067,16.7388147 C192.41425,16.9378887 192.541132,17.1528358 192.765969,17.1528358 L196.661831,17.1528358 C196.837362,17.1528358 196.964901,17.0007194 196.936632,16.8267776 L196.27001,12.8069364 C196.158906,12.1052168 196.091192,11.5622274 196.067525,11.1786295 C196.058978,11.0344496 195.933411,10.9160633 195.790094,10.9160633 Z"/>
</svg>
