<svg xmlns="http://www.w3.org/2000/svg" width="208" height="50" viewBox="0 0 208 50">
  <path fill="#FEFEFE" fill-rule="evenodd" d="M51.7029856,37.8423775 C51.3996255,38.2515724 51.1544153,38.6586399 50.9659537,39.0664165 C50.7873005,39.4791573 50.7053302,39.767083 50.7053302,39.9422497 C50.7053302,39.9855095 50.7130368,40.0025297 50.7172404,40.0067848 C50.7865999,40.0131673 50.8839834,39.975581 51.0374149,39.8720412 C51.1985531,39.7713381 51.3744039,39.6380129 51.5635661,39.4727747 C51.7660397,39.293353 51.9741181,39.0891101 52.1885019,38.8586277 C52.4021851,38.6295636 52.5969521,38.382061 52.7735035,38.1147013 C52.9759771,37.8069187 53.1721453,37.479279 53.3627087,37.1332008 C53.5266493,36.8332191 53.6772784,36.5623136 53.813195,36.3197751 C53.4439784,36.3453055 53.083169,36.4857225 52.7391741,36.7559188 C52.3503407,37.0601556 52.0042439,37.4225449 51.7029856,37.8423775 L51.7029856,37.8423775 Z M54.9404615,39.8514751 C54.5796522,40.152166 54.2181422,40.3939952 53.8545304,40.577672 C53.5021283,40.7627671 53.1707441,40.8577968 52.8610786,40.8577968 C52.5948503,40.8577968 52.3853707,40.790425 52.2606638,40.6329878 C52.1450647,40.4868974 52.0897172,40.3060573 52.0897172,40.0968502 C52.0897172,39.9025358 52.1443641,39.6521964 52.2473524,39.3522147 C52.2781788,39.2699502 52.3125082,39.1855581 52.3503407,39.1004569 C52.0911184,39.3933469 51.865525,39.6217018 51.6336261,39.8301998 C51.4010267,40.0401161 51.1663255,40.2117368 50.9309236,40.3436437 C50.6941206,40.4769689 50.4762338,40.5478866 50.2786644,40.5478866 C49.9654958,40.5478866 49.7945493,40.3755566 49.7945493,40.0578455 C49.7945493,39.7415527 49.9164538,39.3529238 50.1483526,38.8969232 C50.3816527,38.4373767 50.6920188,37.9991055 51.079451,37.5806913 C51.4801946,37.1488027 51.9320821,36.7835767 52.435814,36.4821766 C52.9290369,36.1751031 53.4425772,36.0155383 53.976435,36.006319 C54.0331836,35.897815 54.0878305,35.813423 54.1410761,35.7595255 C54.1971242,35.7027914 54.26228,35.6552766 54.3225317,35.624782 L54.8963237,35.4581254 L55.0651685,35.5439358 C54.9257489,35.6857712 54.8661979,35.7630714 54.8052456,35.861647 L54.7057603,36.0318494 L54.8577907,36.0446146 C54.988803,36.0587981 55.0945937,36.0744 55.1604502,36.0871652 C55.2270072,36.1141139 55.3145823,36.1680113 55.3145823,36.2637502 C55.3145823,36.3481422 55.2585343,36.4048763 55.1751628,36.4048763 C55.0819829,36.3779276 54.974791,36.3587798 54.8234612,36.3467238 C54.7029579,36.3367954 54.606275,36.3304128 54.5341131,36.3289944 C53.9610217,37.350918 53.5371583,38.1664712 53.2611216,38.7763632 C52.9934921,39.3820001 52.8666834,39.8188529 52.8666834,40.0968502 C52.8666834,40.2010992 52.8870008,40.2769811 52.9262345,40.3372611 C52.9654681,40.3847759 53.0509414,40.4195256 53.2239898,40.4195256 C53.4103496,40.4195256 53.6380448,40.3556997 53.9126803,40.2167011 C54.1880164,40.0649372 54.4815681,39.8621127 54.797539,39.6068091 C55.1142105,39.337322 55.4371875,39.0295393 55.7664698,38.683461 C56.1083629,38.3366736 56.4299387,37.9735752 56.7339994,37.5884922 C56.7508138,37.563671 56.7746342,37.539559 56.8033589,37.5260847 C57.0765931,37.0651198 57.350528,36.592099 57.6237623,36.1077313 C58.0336137,35.3808252 58.4602796,34.7290918 58.8960532,34.1582046 C58.9591073,34.0936695 59.0459818,34.0454455 59.1447665,34.0163692 C59.1832995,34.0007673 59.238647,33.9880022 59.3073058,33.9759462 L59.5364023,33.9369414 C59.6183725,33.9227579 59.6926362,33.9170845 59.7605945,33.9170845 C59.8040317,33.9064468 59.8516726,33.8972275 59.875493,33.8972275 C59.9238345,33.8972275 60.0149126,33.9185028 60.0149126,34.0192059 C60.0149126,34.0936695 59.9679723,34.1603321 59.914026,34.2149387 C59.3934797,34.7156175 58.9612091,35.1723272 58.6186153,35.5829405 C58.4693874,35.7630714 58.3215606,35.9545491 58.1744345,36.1552461 C58.2522011,36.0836193 58.3299678,36.0148292 58.4070339,35.9495849 C58.5646691,35.8162597 58.7202024,35.7105924 58.8799394,35.6304554 C59.0410776,35.5354257 59.1931079,35.484365 59.3395335,35.484365 C59.4845578,35.484365 59.6071629,35.5276248 59.701744,35.6226544 C59.8173431,35.7233575 59.8621816,35.8793764 59.8621816,36.0715633 C59.8621816,36.219072 59.7984269,36.431825 59.684229,36.7027305 C59.5777377,36.9849829 59.3885755,37.2941839 59.1181436,37.6331704 C58.8582208,37.9749935 58.5093216,38.3267452 58.0728474,38.691262 C57.7344572,38.9735143 57.333013,39.2387464 56.8685147,39.4869582 C57.0765931,39.4571728 57.2951806,39.4202956 57.5263788,39.377745 C57.9551464,39.2883888 58.3944231,39.148681 58.8484124,38.9564941 C59.301701,38.7529604 59.7542891,38.4856007 60.208979,38.1529969 C60.4170574,37.9948505 60.619531,37.8175563 60.8171004,37.6189868 C60.8948671,37.5090644 60.9761367,37.4005604 61.0623106,37.2948931 C61.2059338,37.1175989 61.3558623,36.9551974 61.5120963,36.8083979 C61.6851447,36.6467056 61.8567918,36.5091253 62.035445,36.3885653 C62.389949,36.1360984 62.7430518,36.006319 63.0954539,36.006319 C63.2769095,36.006319 63.4261375,36.0346861 63.5144131,36.1247515 C63.6103954,36.2055977 63.6559345,36.311265 63.6559345,36.4382076 C63.6559345,36.6119559 63.5998864,36.7913776 63.4933951,36.9807278 C63.3981134,37.1736239 63.2495861,37.3544639 63.0527173,37.5282122 C62.8530461,37.6899045 62.5938238,37.8303215 62.2820565,37.948754 C61.9913072,38.0515846 61.652917,38.1040637 61.2717902,38.1083187 C61.217844,38.2189503 61.1561911,38.3856068 61.0896341,38.611125 C61.016071,38.8486992 60.9789391,39.0919468 60.9789391,39.341577 C60.9789391,39.8330365 61.1856164,40.0521721 61.603875,40.0521721 C61.8834147,40.0521721 62.1720622,39.9848003 62.4691169,39.8465108 C62.782986,39.706803 63.0835437,39.5358914 63.3728918,39.3323577 C63.6629405,39.1153497 63.9263664,38.8862856 64.1659718,38.6444563 L64.3495292,38.4529786 C64.5190746,38.1579611 64.6774103,37.8778363 64.8224347,37.6154409 C65.0129981,37.2941839 65.172735,37.0154775 65.3002444,36.7842859 C65.4396639,36.5389107 65.5405504,36.3623257 65.6036045,36.2453116 C65.6302273,36.1850316 65.6561495,36.1375167 65.6841736,36.1013487 C65.7093952,36.0687266 65.7514312,36.0254668 65.8116829,36.0254668 C65.8467129,36.0254668 65.8859466,36.0431962 65.9153718,36.0587981 C65.9490006,36.0751092 65.9924379,36.1006395 66.0463841,36.13468 C66.1710911,36.2133986 66.2383487,36.3297036 66.2383487,36.4765032 C66.2383487,36.5403291 66.2026181,36.6190477 66.1528755,36.7076948 C66.1129412,36.8013061 66.0631986,36.8963358 65.9966415,37.0034215 C65.9532042,37.0814309 65.906264,37.1558945 65.8537189,37.2331947 C65.9426952,37.1488027 66.0379769,37.0637015 66.1416658,36.973636 C66.3350316,36.816908 66.5354034,36.6736543 66.7413801,36.5424566 C66.9501591,36.3977846 67.1505309,36.2800612 67.3459985,36.1878683 C67.5561787,36.0949661 67.7467421,36.0446146 67.9155869,36.0446146 C68.0458986,36.0446146 68.1551923,36.0772367 68.2490728,36.1566645 C68.3478575,36.2133986 68.4186182,36.2892805 68.4186182,36.3992029 C68.3247377,36.5403291 68.2448692,36.6459964 68.1565935,36.7736482 C68.080228,36.9027184 68.0318866,36.9956205 68.0094674,37.0530638 C67.9765391,37.1041246 67.9281977,37.1601495 67.8581376,37.1601495 C67.7887781,37.1601495 67.7418379,37.1083796 67.7131133,37.0651198 C67.6984006,37.0289518 67.680185,37.0020031 67.6360472,36.9686718 C67.5940111,36.9169019 67.5414661,36.8778972 67.4594958,36.8424384 C67.3992441,36.8119438 67.3088666,36.7920868 67.1883633,36.7920868 C67.0412372,36.7920868 66.8709912,36.8438567 66.6741224,36.9559066 C66.4751518,37.0686657 66.3014028,37.1948992 66.1535761,37.3324794 C65.9146712,37.5487783 65.700988,37.7778424 65.5125264,38.0182533 C65.335975,38.2487357 65.165729,38.4983659 65.0010879,38.7671439 C64.8364467,39.0231567 64.6774103,39.2940622 64.52538,39.5763145 C64.3719484,39.8486384 64.2045049,40.1287631 64.0251511,40.413143 C63.983115,40.4783873 63.916558,40.509591 63.8415937,40.509591 C63.8002582,40.509591 63.760324,40.4840607 63.7337012,40.4663313 C63.7028747,40.4457651 63.6615393,40.4124338 63.6138984,40.3713016 C63.5417366,40.2982564 63.4723771,40.2138643 63.4723771,40.1351457 C63.4723771,40.0337335 63.5277246,39.9004083 63.6174014,39.7458077 L63.8577075,39.3195925 C63.6734495,39.4727747 63.4793831,39.6195743 63.2755083,39.7592821 C62.9266091,39.9947288 62.556692,40.1918799 62.1692598,40.3486079 C61.7783246,40.4939891 61.3978984,40.5670343 61.030083,40.5670343 C60.3946381,40.5670343 60.0485414,40.2677618 60.0485414,39.670635 C60.0485414,39.2954805 60.1424219,38.8955049 60.3238775,38.4749631 C60.0793678,38.6409104 59.8089359,38.819623 59.5314981,38.9713868 C58.7601367,39.3876735 57.9495416,39.6940378 57.1011142,39.8897706 C56.8068619,39.9543057 56.5497414,40.0060756 56.3325552,40.0450803 L55.7195295,40.1542935 C55.357319,40.7748231 55.0140246,41.388261 54.6889459,41.9960254 C54.3568611,42.628611 54.025477,43.254814 53.6940929,43.8746344 C53.2099778,44.7901815 52.7707011,45.6532496 52.3755623,46.4659661 C51.9797229,47.2808101 51.5516559,48.0885623 51.0913612,48.8906412 C50.9946783,49.0587161 50.8643666,49.1856587 50.6962224,49.2707599 C50.537186,49.3643712 50.3543292,49.4430898 50.1462508,49.5090433 C49.9409748,49.5742875 49.7027706,49.6395318 49.4330393,49.7040668 C49.1675116,49.7678928 48.8823671,49.8558307 48.5663962,49.9707173 C48.4739169,50.0175229 48.34921,50.0231964 48.3197847,49.8735601 C48.2903595,49.7537092 48.3821382,49.6898833 48.4683121,49.6608071 C48.7954926,49.5338644 49.0722299,49.4055035 49.2992246,49.2778517 C49.5220156,49.1650926 49.7272916,49.0275123 49.9136514,48.8636925 C50.0874004,48.7005818 50.2548439,48.5055582 50.4180839,48.2772033 C50.5834257,48.0460117 50.7732885,47.7573768 50.9883729,47.4105894 C51.2055591,47.0496185 51.472488,46.5992913 51.7912613,46.0574803 C52.0974238,45.5284345 52.4414188,44.940527 52.8239468,44.2951762 C53.2064748,43.6505346 53.607919,42.9597965 54.0282794,42.2243803 C54.436029,41.5244229 54.8493834,40.8187921 55.2690433,40.1067787 C55.2073904,40.0493354 55.18357,39.9613974 55.18357,39.8663678 C55.18357,39.7465169 55.2529295,39.6670891 55.3685286,39.6479413 C55.4364869,39.6380129 55.4939361,39.6280844 55.5387746,39.6181559 L55.9990692,38.8579185 C55.6522719,39.2217262 55.2998697,39.5529117 54.9404615,39.8514751 L54.9404615,39.8514751 Z M61.5849588,37.7870617 C61.9338579,37.7870617 62.2386192,37.6672108 62.5041469,37.4225449 C62.7696746,37.1651137 62.8985851,36.8708054 62.8985851,36.5346557 C62.8985851,36.4126773 62.8523455,36.3665808 62.7325427,36.3665808 C62.6274526,36.3665808 62.5097517,36.4091314 62.3787394,36.5055794 C62.2582361,36.5913898 62.1356309,36.708404 62.0116246,36.8594586 C61.8862171,37.0112224 61.7671149,37.1764606 61.6536176,37.3544639 C61.5611383,37.5005543 61.4805693,37.6423897 61.4133116,37.7799699 L61.5849588,37.7870617 Z M58.7664421,36.2325464 C58.7272084,36.2325464 58.6480405,36.2594951 58.5205312,36.3375045 C58.4119381,36.3984937 58.2795246,36.4935234 58.1288954,36.6211752 C57.9803681,36.7332251 57.8234335,36.8793155 57.6594929,37.0573189 C57.496253,37.2353222 57.3393184,37.4331825 57.1886893,37.6487723 C56.9736048,37.9572641 56.7641252,38.2905772 56.5616516,38.6494206 C56.390705,38.9408922 56.2197585,39.2422923 56.0488119,39.5514933 C56.3886032,39.4366067 56.7108796,39.2671135 57.0163415,39.0430136 C57.3939653,38.775654 57.7211458,38.4813457 57.9971825,38.1643437 C58.2872312,37.8459234 58.512124,37.5345948 58.6746634,37.2324855 C58.8372027,36.9154836 58.9135682,36.6587616 58.9135682,36.4587738 C58.9135682,36.419769 58.901658,36.3587798 58.8778376,36.2850255 C58.8743346,36.2672961 58.863125,36.2325464 58.7664421,36.2325464 L58.7664421,36.2325464 Z M47.782424,32.1356326 C47.3655666,32.1469795 46.9676254,32.1796016 46.575289,32.2299531 C46.189258,32.2824322 45.7899156,32.3086718 45.3786629,32.3086718 C45.1369557,32.3086718 44.9330809,32.2363357 44.9330809,32.0122359 C44.9330809,31.9675578 44.9604043,31.8838749 44.9961349,31.7867177 C45.0227578,31.7264377 45.0507818,31.6739586 45.0795064,31.6370814 C45.1040274,31.6044593 45.1460635,31.5604903 45.2063152,31.5604903 C45.2525548,31.5604903 45.285483,31.5853115 45.3058005,31.6143878 C45.3261179,31.6420457 45.3373275,31.6767953 45.3443335,31.703744 C45.3450341,31.7087083 45.3653515,31.7484222 45.5096753,31.7753709 C45.6210708,31.8001921 45.7555861,31.8193398 45.9174249,31.832105 L46.3924322,31.832105 C46.7728584,31.832105 47.1602906,31.8193398 47.5533276,31.7938095 C47.9477658,31.7675699 48.3162817,31.735657 48.6595761,31.6966523 C49.0161819,31.6583567 49.3293504,31.6257346 49.5976805,31.5994951 C49.8814238,31.5739647 50.1007118,31.5604903 50.2555445,31.5604903 C50.540689,31.5604903 50.8265341,31.5867299 51.1116786,31.6399181 C51.4136375,31.6923972 51.6826682,31.7916819 51.9222736,31.9391907 C52.1765917,32.0753526 52.3755623,32.2632844 52.5233891,32.5086596 C52.6894314,32.7455246 52.7671981,33.0377054 52.7671981,33.3866203 C52.7671981,33.7397903 52.6600062,34.1071439 52.4512272,34.4908084 C52.2543584,34.8758914 51.9671121,35.2382807 51.5915901,35.5786855 C51.2132657,35.9084526 50.7515698,36.1850316 50.2093049,36.4070039 C49.6754471,36.6176293 49.0652239,36.7225875 48.3814376,36.7225875 C48.0549577,36.7225875 47.7656096,36.676491 47.5126927,36.5821705 C47.4426326,36.5587677 47.399896,36.5027427 47.399896,36.4261516 C47.399896,36.3289944 47.4622495,36.2651685 47.5589324,36.2651685 C47.6430045,36.2935356 47.7494958,36.3176476 47.9155381,36.343178 C48.0892871,36.3687083 48.2511259,36.3814735 48.4003538,36.3814735 C48.8739599,36.3814735 49.3083324,36.2864438 49.7048724,36.098512 C50.1168256,35.9091618 50.4657248,35.6630775 50.7508692,35.3616774 C51.0500257,35.058859 51.281224,34.7170358 51.4430628,34.340463 C51.6168117,33.9624718 51.7029856,33.5866082 51.7029856,33.2121629 C51.7029856,32.6866629 51.5425481,32.3533499 51.246194,32.18102 C50.9435344,31.9959248 50.5694137,31.9023135 50.1217298,31.9023135 C49.8078607,31.9023135 49.5304228,31.9328081 49.2831107,31.9959248 C49.1401882,32.040603 49.0294933,32.1356326 48.9496248,32.2859781 C48.6953067,32.6987189 48.4010544,33.1972702 48.0696703,33.7766675 L47.0566017,35.5574102 C46.7126067,36.1644654 46.3812226,36.7573372 46.0624492,37.3381529 C45.7443765,37.9175502 45.4774476,38.4203565 45.260962,38.8451533 C45.1222431,39.1252781 45.059189,39.3429954 45.059189,39.5046877 C45.059189,39.7202774 45.1439617,39.8635311 45.3177107,39.951469 C45.5061723,40.0351518 45.796221,40.0791208 46.2004676,40.0791208 C46.2726294,40.0791208 46.3342823,40.084085 46.380522,40.0968502 C46.4148514,40.1060695 46.4933187,40.1358549 46.4933187,40.2202469 C46.4933187,40.3252051 46.3994382,40.3663373 46.3300787,40.3798117 C46.0988805,40.4195256 45.834754,40.4514385 45.5383999,40.4783873 C45.2560578,40.5032084 44.9730151,40.517392 44.6899724,40.517392 C44.6234154,40.517392 44.5372415,40.5103002 44.4314508,40.4968258 C44.322157,40.4826423 44.2184681,40.457112 44.1112762,40.4166889 C44.0005813,40.3883218 43.9038984,40.345062 43.8184251,40.2869095 C43.7224428,40.2067726 43.6705984,40.096141 43.6705984,39.9691984 C43.6705984,39.8741687 43.7084308,39.742971 43.7728861,39.5869522 C43.9522399,39.184849 44.1904441,38.7295575 44.485397,38.2232054 C44.7782481,37.7196899 45.059189,37.2417048 45.3268185,36.7899593 C45.6455918,36.2481483 45.9895868,35.6496032 46.3588033,34.9914872 C46.7280199,34.320606 47.0552004,33.7178058 47.3354407,33.18876 C47.3599618,33.1518828 47.3984948,33.080256 47.4468363,32.9809713 C47.4972795,32.879559 47.5477228,32.771055 47.598166,32.6561683 C47.6486093,32.5412817 47.6920465,32.4349052 47.7298789,32.3327838 C47.7656096,32.2242797 47.7796216,32.1625814 47.782424,32.1356326 L47.782424,32.1356326 Z M4.38231125,22.4589167 L0.207431568,22.4589167 C0.361563727,18.4116453 0.467354435,13.6445596 0.467354435,9.55828346 C0.467354435,5.13373008 0.431623799,4.37065596 0.210233971,0.0985755603 L4.38161065,0.0985755603 C4.12589139,4.40185973 4.10417277,5.13231172 4.08245415,9.55757429 C4.06423853,13.1197688 4.15811902,18.3818599 4.38231125,22.4589167 L4.38231125,22.4589167 Z M13.12791,0.0985755603 C17.1234359,5.40534475 24.1651738,15.7359216 24.1651738,15.7359216 C24.2324314,15.833788 24.3445275,15.8025842 24.3480305,15.6841517 C24.4937555,10.3667449 24.0719939,1.42899104 24.0075386,0.0985755603 L28.1592985,0.0985755603 C28.1305738,1.20276367 27.9666333,7.63215956 27.9666333,11.7226907 C27.9666333,15.4870006 28.2426699,21.3937333 28.2938138,22.4589167 L24.2751681,22.4589167 C20.4015467,16.7110396 12.5863457,5.74291286 12.5863457,5.74291286 C12.5183874,5.64788318 12.4111955,5.6776686 12.4048901,5.79397358 C12.0763083,12.2297521 12.1106378,17.081939 12.4567345,22.4589167 L8.62514921,22.4589167 C8.77928137,18.462706 8.87736547,15.749396 8.87736547,11.6560281 C8.87736547,7.56833366 8.66298165,1.20134532 8.62514921,0.0985755603 L13.12791,0.0985755603 Z M46.3244739,16.2557481 C46.3139649,16.2287994 46.2607192,16.1919222 46.2305934,16.1919222 L37.0254006,16.1919222 C37.0015801,16.1919222 36.9469333,16.2252535 36.9364243,16.2458197 C35.7972475,18.4783079 34.6069269,20.7760404 33.7865234,22.4589167 L30.1917411,22.4589167 C32.6403407,17.7478559 37.5928871,6.82157061 40.2348524,0.0985755603 L44.1084738,0.0985755603 C46.5598757,7.17048554 50.0145379,15.8756294 53.197367,22.4589167 L48.6189413,22.4589167 C47.813951,20.3937941 47.0355836,18.1492499 46.3244739,16.2557481 L46.3244739,16.2557481 Z M37.9824211,12.8857405 C37.9487923,12.9609132 37.9894271,13.0219024 38.0734992,13.0219024 L44.673158,13.0219024 C44.7502241,13.0219024 44.7922601,12.9658775 44.7677391,12.8942506 L41.9492224,4.43802774 C41.9141924,4.33094206 41.8091023,4.32597782 41.7628626,4.42880844 L37.9824211,12.8857405 Z M85.7577854,12.1035186 C83.5102583,12.0765699 80.7491908,12.097136 78.0686925,12.1042278 C78.0161474,12.104937 77.9692072,12.1503243 77.9692072,12.2020942 L77.9692072,19.2279077 C77.9692072,19.2690399 78.0119438,19.3172639 78.0532793,19.3236465 C79.8222961,19.5895878 85.998792,19.3945642 87.37267,19.3300291 L87.37267,22.4284221 L74.5187486,22.4284221 C74.5530781,21.1150268 74.7100126,14.9203684 74.7100126,11.226267 C74.7100126,6.82369814 74.6798868,4.47135905 74.5299582,0.235446662 L87.37267,0.235446662 L87.37267,3.10335721 C85.3962754,3.01187341 81.0847786,3.10903062 78.0686925,3.10832144 C78.0196504,3.10832144 77.9720096,3.1522904 77.9692072,3.20051441 C77.8192786,5.75851474 77.9734108,6.96695183 77.9692072,8.88031054 C77.9692072,8.9242795 78.0126444,8.97250351 78.0581835,8.97675857 C79.6835771,9.1462518 84.5513509,9.04200283 85.7577854,8.98314116 L85.7577854,12.1035186 Z M96.5673539,11.0071314 C96.5673539,8.26261764 96.4594614,6.44712531 96.4594614,3.20618783 C96.4594614,3.15654546 96.4139223,3.11044897 96.3634791,3.10832144 C96.3634791,3.10832144 95.1164098,3.06435249 93.7018969,3.04236801 C92.3553423,3.02109271 90.8567574,3.01967436 90.1302345,3.09413791 L90.092402,0.235446662 L107.226293,0.235446662 L107.226994,3.09768379 C105.222575,2.93882821 100.849425,3.10832144 100.849425,3.10832144 C100.804587,3.11044897 100.757647,3.15441793 100.753443,3.19838688 C100.503329,6.30812668 100.497724,8.1909908 100.497724,11.0071314 C100.497724,15.4302665 100.52785,18.1421581 100.710006,22.4284221 L96.3242454,22.4284221 C96.5365274,18.1435765 96.5673539,15.4302665 96.5673539,11.0071314 L96.5673539,11.0071314 Z M70.0804431,1.13751941 L68.9776975,3.84515603 C67.6857898,3.23029983 65.9532042,2.76933498 63.9999294,2.76933498 C61.1631971,2.76933498 59.7479837,3.90756358 59.7479837,5.47342571 C59.7479837,6.88681486 60.4093508,7.83994834 63.4016164,9.06966072 L65.6701616,10.0532888 C69.1353327,11.4978817 70.6164026,13.3743632 70.6164026,16.3869458 C70.6164026,20.168276 66.9620693,22.7518066 62.3303979,22.7518066 C59.5272945,22.7518066 57.0373595,22.2589288 54.9579766,21.3065046 L56.0936503,18.5690825 C57.8885894,19.4598084 59.9679723,19.9831808 62.1412357,19.9831808 C64.9156146,19.9831808 66.4877626,18.6598571 66.4877626,17.0330058 C66.4877626,15.311834 65.732515,14.2977113 62.9287109,13.1594827 L60.251015,12.0531671 C57.1949947,10.7000579 55.6823977,8.76329639 55.6823977,5.99608894 C55.6823977,2.76791663 58.9584067,0 63.7792402,0 C66.3952833,0 68.2841028,0.307782685 70.0804431,1.13751941 L70.0804431,1.13751941 Z M13.0130115,28.4145825 C12.6585075,28.0770144 12.0931228,27.914613 11.3266656,27.914613 C10.5146693,27.914613 9.85120047,28.1614065 9.33976194,28.6578301 C8.82692221,29.1351061 8.57260415,29.7776201 8.57260415,30.5804082 C8.57260415,31.1973919 8.7148261,31.7732434 8.99926999,32.3072534 C9.28091148,32.8370084 9.5933794,33.3256311 9.93527255,33.77454 C10.1944948,34.1177815 10.4060762,34.412799 10.5658132,34.6560466 C10.7444664,34.8766006 10.8838859,35.0893536 10.9826706,35.287923 C11.0800541,35.4673447 11.1494136,35.6460573 11.1879466,35.8233514 C11.2264797,35.9807887 11.2467971,36.1793581 11.2467971,36.4204782 C11.2467971,36.8374741 11.148713,37.2473782 10.9511436,37.6459355 C10.773191,38.0459112 10.525879,38.4175198 10.2085068,38.7586338 C8.40095698,40.6868852 6.44207737,41.015234 5.38907449,41.02729 C3.53108138,41.047147 2.43183885,40.633697 1.20648819,39.501851 C0.614480586,38.9543665 0.282395845,38.2366797 0.127563086,37.6360071 C-0.0272696725,37.0190233 -0.0412816868,36.4070039 0.086227644,35.7992394 C0.204629166,35.1815465 0.408503975,35.0184359 0.31602468,35.5793947 C0.223545385,36.1219148 0.255773018,36.6608891 0.412707579,37.1934808 C0.495378464,37.4530395 0.58925896,37.7679139 0.748295324,38.1040637 C0.908032287,38.4416318 1.13362572,38.8018936 1.47762067,39.1508085 C2.0871433,39.7677922 3.07078671,40.2996747 4.24989772,40.5436315 C5.52429043,40.8067361 6.863839,40.5982381 7.57985294,40.2755627 C8.27905245,39.9613974 8.86335345,39.61461 9.29142049,39.0990386 C9.73980495,38.562901 9.96399718,37.9324429 9.96399718,37.2112102 C9.96399718,36.8580402 9.8820269,36.5069978 9.71948753,36.1566645 C9.55624756,35.7850559 9.24377964,35.3063616 8.78138317,34.7163266 C8.38344196,34.1915359 8.07447704,33.7284435 7.85518902,33.324922 C7.65832022,32.9270738 7.56023611,32.470364 7.56023611,31.9491192 C7.56023611,31.4292927 7.66882923,30.9094661 7.88671605,30.3882213 C8.1256209,29.8648489 8.41286719,29.4024657 8.74985614,29.0010717 C8.86895826,28.8613639 9.02729402,28.7003807 9.22626462,28.5195407 C9.44415145,28.3188437 9.6907629,28.139422 9.96820079,27.9784389 C10.2666567,27.8174558 10.6036456,27.677748 10.9805688,27.5564787 C11.3764082,27.4366279 11.8114813,27.3763479 12.2885904,27.3763479 C12.6038607,27.3763479 12.9100232,27.4266994 13.2049761,27.5259841 C13.4950248,27.6047028 13.7605525,27.7727776 13.9959543,28.0309179 C14.0814276,28.1543147 14.1248649,28.2741656 14.1311703,28.3904705 L13.833415,29.1960953 C13.7423369,29.4918219 13.6687738,29.7435797 13.6113245,29.9549143 C13.5503723,29.9917915 13.5258512,29.9839906 13.5083362,29.9676795 C13.52445,29.8861242 13.5384621,29.8194616 13.5489711,29.7542173 C13.5622825,29.6627335 13.5699891,29.5790507 13.5699891,29.4861485 C13.5699891,29.1017748 13.3801263,28.7450589 13.0130115,28.4145825 L13.0130115,28.4145825 Z M27.9750405,34.1787707 C27.7767705,34.1787707 27.6632731,34.0638841 27.6632731,33.8631871 C27.6632731,33.6745461 27.7291296,33.4944152 27.8531359,33.3277587 C27.9939567,33.1561379 28.1705081,33.0632358 28.3764847,33.0632358 C28.5880661,33.0632358 28.7078688,33.184505 28.7078688,33.3986763 C28.7078688,33.5809347 28.6258985,33.7539739 28.4773712,33.9185028 C28.337251,34.0872869 28.1705081,34.1787707 27.9750405,34.1787707 L27.9750405,34.1787707 Z M38.3488353,39.6628341 C37.9999362,39.8982807 37.630019,40.0954318 37.2418862,40.2521599 C36.8516516,40.3975411 36.4712254,40.4705863 36.10341,40.4705863 C35.4679652,40.4705863 35.1218684,40.1713137 35.1218684,39.574187 C35.1218684,39.5039785 35.1253714,39.4323516 35.1316768,39.3600156 C34.8920714,39.61461 34.6342503,39.8557301 34.3582136,40.0847942 C34.0730691,40.3202409 33.7753138,40.517392 33.4635465,40.6748292 C33.1601864,40.834394 32.8610299,40.9159493 32.5653764,40.9159493 C32.3040523,40.9159493 32.0966745,40.8634702 31.971267,40.7365276 C31.8479612,40.6110033 31.794015,40.4244898 31.794015,40.1940074 C31.794015,40.0323151 31.8717817,39.7841033 32.0126024,39.4621371 C32.1653334,39.1387525 32.3320763,38.8011844 32.5114301,38.4515603 C32.6886821,38.1047729 32.8477185,37.7764241 32.9878386,37.467223 C33.1419708,37.1424201 33.209929,36.9325038 33.209929,36.8254181 C33.0684077,36.8750605 32.8848503,37.005549 32.6746701,37.1807156 C32.4728971,37.346663 32.2704235,37.5317581 32.0686505,37.736001 C31.8654763,37.9423714 31.6756135,38.1402317 31.4976609,38.3331278 C31.3344209,38.5238963 31.209714,38.6820427 31.1214383,38.8089853 C31.0345638,38.9352188 30.9476893,39.0869826 30.8601142,39.2628584 C30.7704373,39.4444076 30.6821616,39.6174468 30.5924848,39.7855216 C30.5140175,39.9578516 30.430646,40.1011053 30.3367655,40.2237928 C30.2611006,40.3386794 30.1707231,40.4322908 30.0600282,40.4322908 C29.9640459,40.4322908 29.884878,40.3819392 29.8232252,40.3039298 C29.7636741,40.2287571 29.7286441,40.1464926 29.7286441,40.0585547 C29.7286441,40.0004022 29.7545663,39.9231019 29.7916981,39.8337456 C29.8344348,39.7209865 29.9079979,39.5926256 30.0123874,39.4479535 C30.1756273,39.2195986 30.3206517,38.976351 30.4460592,38.7224658 C30.5847781,38.4671622 30.6996767,38.2281696 30.7879524,38.0118707 C30.8881383,37.7955718 30.9645037,37.6090584 31.0142464,37.4572945 C31.0681926,37.2941839 31.0864083,37.2204295 31.0864083,37.2126286 C31.0864083,37.186389 31.0850071,37.1679505 31.0822047,37.1551853 C31.0226536,37.1601495 30.9196653,37.2190112 30.7445151,37.3721933 C30.5679637,37.5260847 30.3724961,37.7175624 30.1581123,37.9473356 C29.9423273,38.1785272 29.7265423,38.4231932 29.5107572,38.6799152 C29.2956728,38.9359279 29.1254268,39.1664104 29.0007199,39.3678166 C28.8227673,39.6380129 28.6693358,39.8777146 28.542527,40.0833758 C28.4255267,40.2720168 28.3050234,40.4322908 28.1852207,40.4322908 C28.0507053,40.4322908 27.9505194,40.3606639 27.9133876,40.2301754 C27.9007768,40.1365641 27.8923696,40.0365702 27.8923696,39.9422497 C27.8923696,39.8252355 27.9189924,39.7252416 27.9848489,39.6422679 C28.1067534,39.4451168 28.2279573,39.2465473 28.3484607,39.0472687 C28.0044657,39.3522147 27.6849918,39.6032632 27.3886377,39.7997052 C27.1287148,39.9706167 26.8610853,40.1032328 26.5857492,40.1954258 C26.3118144,40.2883279 26.0609993,40.3351336 25.8333041,40.3351336 C25.7541362,40.3351336 25.6609563,40.328751 25.5551656,40.3152766 C25.4423689,40.3010931 25.3337758,40.2635067 25.2349911,40.2067726 C25.150919,40.1500384 25.0689487,40.0727382 25.0009904,39.9897645 C24.9407388,39.883388 24.9092117,39.7458077 24.9092117,39.5940439 C24.9092117,39.4082396 24.9785712,39.1692471 25.1074817,38.8820305 C24.8951997,39.060743 24.6499895,39.2699502 24.3914678,39.4663921 C24.0425686,39.7415527 23.6733521,39.9706167 23.2852193,40.1542935 C22.8928829,40.3259143 22.4984446,40.4124338 22.1040064,40.4124338 C21.7614127,40.4124338 21.4909808,40.3308785 21.3165312,40.1542935 C21.1630997,39.9699076 21.0839318,39.7479353 21.0839318,39.4968867 C21.0839318,39.2465473 21.1862195,38.9025966 21.3781841,38.4749631 C21.5365199,38.1352675 21.7137718,37.7835158 21.9092394,37.4211265 C21.7200772,37.5019727 21.5379211,37.5693445 21.3627709,37.6218235 C21.0243807,37.7267817 20.7042062,37.7799699 20.4015467,37.7799699 C20.1472286,37.7799699 19.9083238,37.723945 19.6925388,37.6147318 C19.5685324,37.539559 19.4599393,37.4572945 19.3695618,37.3693566 C19.3485438,37.7863525 19.2658729,38.1693079 19.120148,38.5217688 C18.963914,38.928127 18.769147,39.2777511 18.5337452,39.5692227 C18.2990439,39.8599852 18.0412229,40.0869217 17.763785,40.2479048 C17.4884489,40.3939952 17.2313284,40.4705863 16.9973278,40.4705863 C16.7745368,40.4705863 16.5804704,40.3982503 16.4235358,40.2542874 C16.2750085,40.1032328 16.2070502,39.8762962 16.2070502,39.5940439 C16.2070502,39.4429893 16.2294694,39.2720777 16.2736073,39.0806 C16.0059778,39.377745 15.7229351,39.6536148 15.4251798,39.9089184 C15.089592,40.1961349 14.7540043,40.4308724 14.4170154,40.6152584 C14.0765234,40.8138278 13.7514447,40.9159493 13.4396773,40.9159493 C13.2084791,40.9159493 13.0130115,40.8521234 12.866586,40.7187982 C12.7306694,40.5805087 12.6690166,40.3734291 12.6690166,40.1167071 C12.6690166,39.9961471 12.6830286,39.859276 12.7089508,39.7117673 L12.7257652,39.6486505 C12.6395913,39.7557362 12.5394054,39.8599852 12.4238063,39.9663617 C12.303303,40.0748657 12.1617816,40.1698954 12.0027453,40.2500324 C11.8500143,40.3202409 11.6776665,40.3549905 11.4892049,40.3549905 C11.332971,40.3549905 11.1956532,40.308894 11.0891619,40.2167011 C10.978467,40.1046511 10.9287244,39.9422497 10.9287244,39.7486444 C10.9287244,39.6479413 10.950443,39.5153253 10.988976,39.3585973 C11.0408205,39.1883949 11.1255932,38.9692593 11.2425935,38.7068639 C11.3701028,38.43454 11.5375464,38.1040637 11.7421218,37.7147257 C11.9586074,37.31475 12.2325423,36.8254181 12.5639265,36.243184 C12.6220763,36.1268791 12.6991424,36.006319 12.8084361,36.006319 C12.9359454,36.006319 13.0424367,36.0850376 13.1377184,36.2084344 C13.2308983,36.3020457 13.312168,36.3963662 13.312168,36.4772124 C13.312168,36.5460025 13.2554194,36.6467056 13.1832575,36.7559188 C12.9800833,37.0637015 12.7895199,37.3721933 12.6122679,37.6806852 C12.4343153,37.9891771 12.2759796,38.2771028 12.13656,38.5472991 C12.0097513,38.8167863 11.90326,39.0571972 11.8142837,39.2756236 C11.7386188,39.4798665 11.70499,39.6280844 11.70499,39.7287875 C11.70499,39.9018266 11.7596368,39.9365763 11.8331999,39.9365763 C11.9270804,39.9365763 12.0784102,39.8606944 12.2948958,39.6670891 C12.5162856,39.4678105 12.7776097,39.1359158 13.082371,38.6600582 C13.1972695,38.454397 13.3107668,38.2430623 13.4249647,38.0246359 L13.7885765,37.3658108 C13.903475,37.1594403 14.0064633,36.9707993 14.0954396,36.8027245 L14.3469553,36.3921112 C14.4044045,36.3098467 14.48077,36.219072 14.5683451,36.219072 C14.6741358,36.219072 14.7519025,36.3261577 14.8114536,36.4346618 C14.8857172,36.5545126 14.9186455,36.6977663 14.9186455,36.8644228 C14.9186455,36.981437 14.887819,37.0956144 14.8296692,37.1984451 C14.675537,37.4324734 14.5073928,37.66792 14.3273385,37.9019483 C14.1633979,38.1196656 14.0064633,38.3487296 13.8551336,38.5912681 C13.7164146,38.8330973 13.5980131,39.0855642 13.4978272,39.3522147 C13.3997431,39.6131917 13.3500005,39.8996991 13.3500005,40.2138643 C13.3500005,40.4542752 13.4501864,40.5556875 13.6694744,40.5556875 C13.8144987,40.5556875 14.0120681,40.4918616 14.2628832,40.3514446 C14.5235067,40.2266295 14.8002439,40.0422436 15.089592,39.8004143 C15.3789401,39.5585851 15.6759948,39.2642768 15.9800556,38.9181985 C16.1678165,38.7125373 16.3513739,38.4962384 16.5300271,38.2685927 C16.5748656,38.1501602 16.6225064,38.0324368 16.6736503,37.9140043 C16.8137704,37.6040941 16.9489864,37.3112041 17.0764957,37.0395895 C17.2173164,36.7672656 17.339221,36.5403291 17.4415087,36.3587798 C17.7862042,35.7254851 18.1561214,35.0737517 18.5519608,34.4021614 C18.9478002,33.7163875 19.3632564,33.044088 19.7976289,32.3838445 C20.2453127,31.7243102 20.7126134,31.0888878 21.1981297,30.4811234 C21.697658,29.8591755 22.2231086,29.287579 22.7744813,28.7684617 C22.9286135,28.6259172 23.1212787,28.456424 23.3524769,28.2621096 C23.5969866,28.0663768 23.854107,27.8834092 24.1245389,27.7146251 C24.3970726,27.5309484 24.6682051,27.3806029 24.9407388,27.2621704 C25.227985,27.1430287 25.4949139,27.0813304 25.7373218,27.0813304 C25.9818314,27.0813304 26.177299,27.147993 26.3118144,27.2997568 C26.4582399,27.433082 26.5275994,27.6004477 26.5275994,27.8039814 C26.5275994,27.9961683 26.521294,28.1330394 26.5065814,28.2075029 C26.4911681,28.2876399 26.4070961,28.4060724 26.2914969,28.2883491 C26.2326465,28.2294874 26.1443708,28.1585698 26.0315741,28.0826878 C25.9538074,28.0131885 25.791268,27.9642553 25.5271416,27.9642553 C25.3015481,27.9642553 25.0948709,27.9770205 24.9071099,28.0025509 C24.7214507,28.0273721 24.5308873,28.0777236 24.3326173,28.1521872 C24.1476587,28.2280691 23.9479875,28.3351547 23.7343043,28.4748626 C23.5234235,28.601096 23.2831175,28.7798085 23.0175898,29.010291 C22.6420678,29.3265838 22.2322164,29.7981863 21.7880355,30.4279352 C21.3431541,31.0456281 20.8912666,31.727856 20.4337743,32.4746191 C19.9881923,33.208617 19.5615264,33.9624718 19.1544774,34.7354744 C18.7467278,35.496421 18.390122,36.1800673 18.0846601,36.7857042 C17.9823724,36.9913655 17.8688751,37.2346131 17.7420664,37.5175746 C17.6278684,37.7863525 17.5206765,38.0615131 17.4190894,38.3437654 C17.3308137,38.6132526 17.2544483,38.8685562 17.1913942,39.1125129 C17.1276395,39.3429954 17.0989149,39.5089427 17.0989149,39.6131917 C17.0989149,39.9486323 17.2033044,40.0521721 17.360239,40.0521721 C17.4625267,40.0521721 17.5977426,40.0004022 17.7714916,39.8748779 C17.9536478,39.7401343 18.1245944,39.5550392 18.2864331,39.3146283 C18.4475713,39.0642889 18.5841884,38.7628888 18.6969851,38.4075913 C18.8090813,38.0423653 18.8658299,37.631752 18.8658299,37.1736239 C18.8658299,37.0225692 18.8518179,36.9027184 18.8293987,36.8225814 C18.8167879,36.7232967 18.7978716,36.6410322 18.776153,36.5850072 C18.7698476,36.4481361 18.8223927,36.3502697 18.9085666,36.263041 C18.9611116,36.2105619 19.0241657,36.1524094 19.102633,36.086456 C19.1818008,36.0056099 19.2546633,35.946039 19.3261246,35.9020701 C19.4207057,35.8893049 19.4858616,35.9077435 19.5187898,35.9751153 C19.5278976,36.2609135 19.569233,36.463738 19.6512033,36.6303945 C19.7485868,36.7906685 19.8592817,36.9197386 19.9916953,37.029661 C20.1381208,37.1282366 20.2866482,37.1998634 20.4442833,37.2487966 C20.6166311,37.2991481 20.7742663,37.322551 20.9178894,37.322551 C21.1266684,37.322551 21.3536631,37.2920564 21.6037775,37.2289397 C21.7796283,37.1757514 21.9582815,37.0998695 22.1411383,37.0020031 C22.3926539,36.5566401 22.643469,36.13468 22.8949847,35.7354135 C23.1619135,35.3106167 23.3587823,34.9886505 23.4862917,34.7702241 L24.1546647,33.6085926 C24.3851624,33.1958518 24.6142588,32.795167 24.8440559,32.4072473 C25.0745535,32.0200368 25.2973445,31.6519741 25.5145307,31.3030592 C25.731717,30.9406699 25.9292864,30.6243771 26.1086402,30.3520533 C26.326527,30.0144852 26.5507192,29.696774 26.7819174,29.3975014 C27.0159181,29.0953922 27.3129728,28.7947012 27.6737822,28.4947195 C28.1614003,28.079142 28.6118865,27.7600125 29.0266421,27.5366218 C29.4294876,27.3196137 29.7230393,27.1976353 29.8876804,27.1976353 C30.0081838,27.1976353 30.1097709,27.2338033 30.1910405,27.3160678 C30.281418,27.389113 30.3143463,27.4990354 30.3143463,27.6295239 C30.3143463,27.8273842 30.2386814,28.1046723 30.0978606,28.4550056 C29.9563393,28.8067573 29.7510633,29.2159522 29.481332,29.684718 C29.2242115,30.1393003 28.9047376,30.6314689 28.5201078,31.1633514 C28.1480888,31.6824687 27.7193212,32.2008769 27.2317031,32.7199942 C26.7573964,33.2391116 26.2319459,33.7390811 25.6553515,34.2184846 C25.0836613,34.6808678 24.4741387,35.0936086 23.8274842,35.4545796 C23.7139869,35.6588225 23.5577529,35.9304371 23.3601835,36.2680052 C23.1570093,36.6155018 22.9538351,36.9807278 22.7506609,37.3672291 C22.5600975,37.752312 22.3898515,38.1288849 22.2371206,38.5019118 C22.0991022,38.8713929 22.0325452,39.1756297 22.0325452,39.4195865 C22.0325452,39.7947409 22.1880785,39.955724 22.5054507,39.955724 C22.8081102,39.955724 23.1268835,39.8699137 23.4617706,39.6940378 C23.8008614,39.5160345 24.1217365,39.2990264 24.4229948,39.0451412 C24.7389657,38.7891284 25.0304156,38.5196412 25.2952427,38.2388073 L25.550962,37.9650651 L26.0687059,37.0722116 C26.2487603,36.7864134 26.3888804,36.5736604 26.4918687,36.4304067 C26.5675336,36.3077191 26.6894381,36.2176537 26.8512769,36.1488635 C27.0124151,36.0736908 27.137122,36.0254668 27.2099845,36.0254668 C27.2751403,36.0254668 27.3879371,36.0474513 27.3879371,36.1673021 C27.3879371,36.2133986 27.3655178,36.2701328 27.3409968,36.3204843 C27.3290866,36.3708359 27.307368,36.4190599 27.2688349,36.4587738 C27.0943854,36.7105315 26.9276424,36.9892379 26.7658036,37.2913472 C26.6011625,37.5998391 26.4484315,37.9019483 26.309012,38.197675 C26.1695924,38.478509 26.0567957,38.739486 25.96852,38.9820244 C25.8928551,39.2245629 25.8578251,39.4068213 25.8578251,39.5358914 C25.8578251,39.6784359 25.8879509,39.7649555 25.9432984,39.8209805 C26.0147597,39.8727504 26.1065383,39.8975715 26.2347483,39.8975715 C26.4722519,39.8975715 26.7377796,39.8202713 27.0362355,39.6564515 C27.3381944,39.4784481 27.6338479,39.2678226 27.923196,39.0252842 C28.2265561,38.7827458 28.5046946,38.526733 28.7569109,38.2586642 L28.9082406,38.0948444 L28.9944145,37.9452081 C29.3257987,37.3643924 29.655081,36.7935052 29.9864651,36.2261638 C30.044615,36.0935478 30.1356931,36.006319 30.2702084,36.006319 C30.3724961,36.006319 30.4495622,36.0673082 30.5091133,36.1566645 C30.5679637,36.2318372 30.600892,36.311265 30.600892,36.3992029 C30.5049097,36.6920929 30.3486757,37.0140591 30.1307889,37.3899228 L29.9171057,37.7629497 C30.218364,37.4367284 30.483191,37.1736239 30.7136887,36.9750544 C31.0583842,36.664435 31.3589419,36.4899775 31.6090564,36.4899775 C31.8171348,36.4899775 31.9019075,36.6509606 31.9019075,36.8644228 C31.9019075,37.0119316 31.8374522,37.2268121 31.7225537,37.4977176 L31.5964456,37.7735874 C31.6791165,37.6849403 31.7652904,37.5948748 31.8563685,37.5019727 C32.0623451,37.2934747 32.2760283,37.0970328 32.4946157,36.9154836 C32.7251133,36.7332251 32.9507068,36.5637319 33.1685936,36.407713 C33.4025942,36.2502758 33.6176787,36.1247515 33.8117451,36.0332677 C34.0758715,36.0254668 34.2159917,36.146736 34.2159917,36.3800551 C34.2159917,36.4282792 34.2082851,36.475794 34.1928718,36.5225997 C34.1788598,36.5644411 34.1585424,36.6119559 34.131219,36.6672717 C34.0667637,36.8112346 33.9462604,37.0431354 33.766206,37.3686475 C33.6008642,37.6906137 33.4292171,38.0374011 33.2512645,38.4111372 C33.0733119,38.7706898 32.9149761,39.1231506 32.7755566,39.4692288 C32.6487479,39.803251 32.590598,40.0486262 32.590598,40.2138643 C32.590598,40.4287449 32.6781731,40.517392 32.8715389,40.517392 C33.0817191,40.517392 33.3101149,40.4457651 33.5553252,40.296838 C33.8061403,40.144365 34.0576559,39.9599791 34.3098722,39.742971 C34.5620884,39.525963 34.7953885,39.3032815 35.0097723,39.0727991 L35.2388687,38.811822 C35.2809048,38.6706959 35.3334498,38.5260238 35.3972045,38.3785151 C35.5912709,37.9586825 35.8378823,37.5650894 36.134937,37.1984451 C36.4333929,36.8318007 36.7570705,36.5296914 37.108772,36.2921172 C37.463276,36.0396503 37.8163788,35.909871 38.1687809,35.909871 C38.3502365,35.909871 38.4987639,35.9382381 38.5877402,36.0283035 C38.6837225,36.1091497 38.7292615,36.2141078 38.7292615,36.3417596 C38.7292615,36.5147987 38.6732134,36.6949296 38.5667221,36.8835706 C38.4714404,37.0764667 38.3229131,37.2580159 38.1260443,37.431055 C37.9263731,37.5934565 37.6671508,37.7338735 37.3553835,37.852306 C37.0639336,37.9551366 36.726244,38.0076157 36.3444167,38.0118707 C36.2904704,38.1225023 36.2295181,38.289868 36.1629611,38.514677 C36.0886974,38.7522512 36.0522662,38.9954988 36.0522662,39.245129 C36.0522662,39.7365884 36.2582428,39.955724 36.677202,39.955724 C36.9567417,39.955724 37.2453892,39.8876431 37.5417433,39.7500628 C37.8556124,39.610355 38.1568707,39.4394434 38.4462188,39.2359097 C38.7362675,39.0181924 38.9996934,38.7898376 39.2392988,38.5472991 C39.4922157,38.2912863 39.7037971,38.0508754 39.8663365,37.8352857 C39.9076719,37.7941535 39.9714266,37.7608222 40.0393848,37.7955718 C40.1059419,37.8196838 40.144475,37.8735813 40.144475,37.9480448 C39.9076719,38.2742661 39.6435454,38.5607735 39.3352811,38.8607552 C39.0382264,39.1472626 38.7096447,39.4153314 38.3488353,39.6628341 L38.3488353,39.6628341 Z M28.9488755,27.9557452 C28.8851208,27.9876582 28.7912403,28.0635401 28.6644316,28.1919011 C28.5509343,28.3067877 28.4066105,28.4713167 28.2307597,28.6876156 L27.5827041,29.5379184 L27.144128,30.1549021 L26.4379225,31.237815 C26.1569816,31.6760861 25.8129866,32.2235706 25.4059376,32.8816865 L24.166575,34.898585 C24.8188342,34.4979002 25.4318599,34.0298436 26.007053,33.4922877 C26.6789291,32.8625388 27.2562241,32.221443 27.7368362,31.5682913 C28.2188495,30.9137212 28.5978745,30.2797172 28.8753124,29.6662794 C29.1541515,29.0521324 29.2893674,28.5422343 29.2893674,28.1330394 C29.2893674,27.9557452 29.2284152,27.906812 29.1226244,27.906812 C29.0749836,27.906812 29.0175343,27.9209956 28.9488755,27.9557452 L28.9488755,27.9557452 Z M36.6582858,37.6906137 L36.4866386,37.6835219 C36.5538963,37.5459416 36.6344654,37.4041063 36.7269446,37.2580159 C36.840442,37.0793034 36.9595441,36.9154836 37.084251,36.7623014 C37.2089579,36.6119559 37.3315631,36.4942326 37.4513658,36.4091314 C37.5830787,36.3133925 37.7007796,36.2701328 37.8058698,36.2701328 C37.9256725,36.2701328 37.9719121,36.3162292 37.9719121,36.4382076 C37.9719121,36.7743574 37.8430016,37.0686657 37.5774739,37.3260969 C37.3112456,37.5700536 37.0064843,37.6906137 36.6582858,37.6906137 Z M123.626025,21.0555269 C123.618318,21.1051693 123.651947,21.1477199 123.70169,21.1498474 L128.832889,21.3760748 L128.650733,22.532742 L122.051074,22.532742 L124.225039,8.78393343 L125.565288,8.78393343 L123.626025,21.0555269 Z M140.130777,17.7564369 L141.548792,8.78393343 L142.889742,8.78393343 L141.466122,17.79686 C141.227217,19.3052788 140.614892,20.4803846 139.639656,21.3427435 C138.603467,22.2703466 137.19526,22.7490409 135.384907,22.7490409 C133.679645,22.7490409 132.521552,22.3178614 131.835664,21.5221652 C131.15468,20.7314332 130.90947,19.4740629 131.194614,17.6692082 L132.599319,8.78393343 L133.940269,8.78393343 L132.557283,17.535883 C132.385636,18.6187958 132.491426,19.538598 132.919493,20.2662133 C133.444944,21.1952347 134.403366,21.6235774 135.695974,21.6235774 C138.225843,21.6235774 139.727931,20.3101822 140.130777,17.7564369 Z M145.012562,12.1078446 C145.167395,11.1242165 145.645905,10.3107909 146.461405,9.65763912 C147.272,9.00874244 148.29908,8.67613857 149.564365,8.67613857 C150.674117,8.67613857 151.617125,8.8761264 152.401798,9.26546441 L152.184612,10.5476559 C151.331981,10.0356303 150.39738,9.77961751 149.385712,9.77961751 C148.646578,9.77961751 148.005529,9.93279967 147.476575,10.2554751 C146.885268,10.6157368 146.526561,11.1433643 146.419369,11.8220464 C146.267338,12.7865267 146.78298,13.6339928 147.787642,14.3587714 C148.689315,14.9970304 149.58118,15.6182692 150.485655,16.2423447 C151.345993,17.0614438 151.665467,18.0131589 151.486113,19.1435866 C151.317969,20.2066424 150.772902,21.0690013 149.831294,21.7377549 C148.898795,22.4093452 147.798151,22.7490409 146.520956,22.7490409 C145.177904,22.7490409 144.031721,22.4206921 143.071198,21.7739229 L143.822242,20.7463259 C144.637741,21.3633096 145.607372,21.6675464 146.717124,21.6675464 C147.461162,21.6675464 148.127433,21.4994715 148.713135,21.1519749 C149.421443,20.7534176 149.853013,20.1789845 149.971414,19.4293848 C150.12975,18.430864 149.635126,17.5529032 148.641674,16.8075585 C147.767324,16.1849014 146.89858,15.5728819 146.010918,14.9516431 C145.157587,14.1602019 144.836011,13.2262162 145.012562,12.1078446 Z M161.361781,8.74492871 L159.173104,21.0548177 C159.139475,21.2441679 159.276793,21.4101153 159.467356,21.4101153 L164.395382,21.4101153 L164.195711,22.5313236 L157.596753,22.5313236 L160.048855,8.74492871 L161.361781,8.74492871 Z M174.815416,18.7755239 L169.313599,18.7755239 C169.219018,18.7755239 169.096413,18.8492782 169.051574,18.9336703 L167.130527,22.5313236 L165.92059,22.5313236 L173.609683,8.70166893 L174.421679,8.70166893 L177.275226,22.5313236 L175.83479,22.5313236 L175.107567,19.0152256 C175.080244,18.8840279 174.94783,18.7755239 174.815416,18.7755239 Z M173.530515,10.95756 C173.424724,10.95756 173.285304,11.0235134 173.234861,11.1391092 C173.042196,11.5844722 172.754249,12.1659971 172.371021,12.8843931 L170.019805,17.2515031 C169.903505,17.4663837 170.040122,17.6982845 170.281829,17.6982845 L174.467218,17.6982845 C174.654979,17.6982845 174.792297,17.5344646 174.76147,17.3465328 L174.046157,13.0021164 C173.926354,12.2432973 173.854192,11.6568082 173.828971,11.2419398 C173.819162,11.085921 173.683946,10.95756 173.530515,10.95756 Z M179.022524,21.7852697 L179.781274,20.7746929 C180.590468,21.3909675 181.558698,21.6944951 182.671252,21.6944951 C183.421596,21.6944951 184.096975,21.5250019 184.693887,21.1746686 C185.415505,20.7739838 185.862489,20.1945864 185.997705,19.4364765 C186.177759,18.4251906 185.692243,17.5344646 184.702994,16.781319 C183.841255,16.1586619 182.984421,15.5487699 182.10867,14.9261128 C181.28056,14.1389266 180.960385,13.1907574 181.157254,12.0780592 C181.332404,11.0930127 181.82913,10.2760412 182.660743,9.62005275 C183.48535,8.9704469 184.52294,8.63642468 185.791728,8.63642468 C186.897976,8.63642468 187.833278,8.83428498 188.607442,9.21865874 L188.369238,10.4774474 C187.523613,9.96754933 186.591814,9.71366408 185.578745,9.71366408 C184.834007,9.71366408 184.183849,9.86684624 183.644387,10.1923583 C183.041169,10.556166 182.66845,11.0880485 182.546545,11.7745315 C182.372096,12.751777 182.880732,13.6120084 183.880489,14.3445879 C184.772354,14.9835561 185.66632,15.6168509 186.560287,16.2430539 C187.389798,17.0564795 187.693859,18.0103222 187.494188,19.1329489 C187.305025,20.1981323 186.741742,21.0626187 185.78262,21.734209 C184.833306,22.4079269 183.722854,22.7490409 182.441455,22.7490409 C181.102607,22.7490409 179.967634,22.4242379 179.022524,21.7852697 Z M198.288343,8.74492871 L197.681623,9.86613706 L193.134724,9.86613706 C192.998107,9.86613706 192.864993,9.97889616 192.841172,10.1150581 L192.048793,14.5693969 C192.015164,14.7587471 192.152482,14.9246944 192.343045,14.9246944 L196.666452,14.9246944 L196.471685,16.0239183 L192.040386,16.0239183 C191.902367,16.0239183 191.769954,16.1359682 191.746133,16.2728393 L190.895604,21.0548177 C190.861975,21.2441679 190.999293,21.4101153 191.189156,21.4101153 L196.225074,21.4101153 L196.026103,22.5313236 L189.319953,22.5313236 L191.771355,8.74492871 L198.288343,8.74492871 Z M202.7862,16.5777853 L201.295321,16.5699843 C201.158003,16.5699843 201.02559,16.6820343 201.001069,16.8181962 L199.985198,22.5313236 L198.671572,22.5313236 L201.123674,8.74492871 L204.110335,8.74492871 C205.71401,8.74492871 206.778923,9.12362907 207.39405,9.80372952 C207.925806,10.3987288 208.122675,11.2249196 207.924405,12.3418729 C207.766069,13.2283438 207.375835,13.9956729 206.745995,14.6516614 C206.179909,15.2296404 205.505231,15.6636565 204.713552,15.9551281 C204.628079,15.9863319 204.539103,16.0941268 204.522288,16.1849014 C204.501971,16.3004972 204.54821,16.4579344 204.668714,16.5253062 C204.768199,16.5813312 205.109392,17.1174687 205.694393,18.3975327 C205.881454,18.79609 206.490976,20.1747295 207.520859,22.5313236 L205.931897,22.5313236 C204.87469,20.0860824 204.263766,18.7031878 204.097023,18.374839 C203.637429,17.4103587 203.208662,16.6763608 202.7862,16.5777853 Z M202.193491,10.1150581 L201.289016,15.2026917 C201.254686,15.3920419 201.392004,15.5586984 201.582568,15.5586984 L202.98447,15.5586984 C203.818885,15.5586984 204.57133,15.2771552 205.230595,14.7247066 C205.903873,14.1602019 206.322832,13.4737189 206.466455,12.667385 C206.797139,10.8057962 205.816998,9.86613706 203.82449,9.86613706 L202.487043,9.86613706 C202.349725,9.86613706 202.217312,9.97889616 202.193491,10.1150581 Z M119.408409,16.0586679 C118.396041,16.9891078 117.085217,17.463547 115.452116,17.463547 L114.442551,17.463547 C114.410323,17.463547 114.369688,17.4975875 114.363383,17.5295004 L113.393051,22.6199707 L112.045796,22.6192615 L114.219059,8.85272357 L117.116744,8.85272357 C118.573993,8.85272357 119.615086,9.24064322 120.292567,9.96187592 C120.962341,10.6618333 121.221563,11.6639 121.006479,13.0262284 C120.812412,14.2559408 120.279255,15.2629717 119.408409,16.0586679 Z M114.440449,16.2778035 C114.432042,16.3210633 114.462868,16.3650323 114.505605,16.3728332 L115.842351,16.3785066 C117.960967,16.379925 119.222749,15.2743185 119.559738,13.1382783 C119.704062,12.2227312 119.542223,11.4483103 119.020976,10.8596936 C118.509538,10.2646944 117.703146,10.002299 116.673263,10.002299 L115.620961,10.002299 C115.588033,10.002299 115.547398,10.0356303 115.541793,10.0682524 L114.440449,16.2778035 Z"/>
</svg>
