<svg xmlns="http://www.w3.org/2000/svg" viewBox="0 0 171 50">
  <g fill="#000000" fill-rule="evenodd">
    <path d="M62.1660211 4.64577392C63.536161 4.64577392 64.4338827 3.91758443 64.4338827 2.83606473L64.4338827 2.81326923C64.4338827 1.63803471 63.5488946 1.02762195 62.2131356 1.02762195L60.123545 1.02762195 60.123545 4.64577392 62.1660211 4.64577392zM59.1888957.168991557L62.2857174.168991557C64.1511959.168991557 65.378719 1.15679644 65.378719 2.77780957L65.378719 2.80060507C65.378719 4.5748546 63.8914296 5.49174015 62.1316403 5.49174015L60.123545 5.49174015 60.123545 8.39310038 59.1888957 8.39310038 59.1888957.168991557zM71.1392912 4.36386961C72.3795479 4.36386961 73.2658093 3.72939493 73.2658093 2.67193715L73.2658093 2.64914165C73.2658093 1.63854128 72.4852371 1.0268621 71.1507514 1.0268621L68.5989296 1.0268621 68.5989296 4.36386961 71.1392912 4.36386961zM67.6642803.169498124L71.2207865.169498124C72.2369311.169498124 73.0518842.474704503 73.5714167.991402439 73.9750732 1.39159006 74.2106456 1.96654315 74.2106456 2.61368199L74.2106456 2.63647749C74.2106456 3.99914165 73.2658093 4.79825047 71.9644311 5.03380394L74.506066 8.39360694 73.3600383 8.39360694 70.9610202 5.19843809 70.9380996 5.19843809 68.5989296 5.19843809 68.5989296 8.39360694 67.6642803 8.39360694 67.6642803.169498124zM83.9027296 4.30510788L83.9027296 4.28104597C83.9027296 2.41308161 82.5325898.885783302 80.641644.885783302 78.7519716.885783302 77.4047523 2.39028612 77.4047523 4.25825047L77.4047523 4.28104597C77.4047523 6.15027674 78.7761655 7.67757505 80.6658379 7.67757505 82.5555104 7.67757505 83.9027296 6.17307223 83.9027296 4.30510788M76.4369955 4.30510788L76.4369955 4.28104597C76.4369955 2.01416041 78.1496703.0284193246 80.6658379.0284193246 83.1820055.0284193246 84.8717598 1.9900985 84.8717598 4.25825047 84.8832201 4.26964822 84.8832201 4.26964822 84.8717598 4.28104597 84.8717598 6.54919794 83.159085 8.53493902 80.641644 8.53493902 78.1254764 8.53493902 76.4369955 6.57325985 76.4369955 4.30510788M90.3130996 7.53611632C92.4039636 7.53611632 93.7384492 6.12659475 93.7384492 4.3054878L93.7384492 4.28142589C93.7384492 2.46031895 92.4039636 1.02673546 90.3130996 1.02673546L88.3763127 1.02673546 88.3763127 7.53611632 90.3130996 7.53611632zM87.4416634.169371482L90.3130996.169371482C92.9120359.169371482 94.7074794 1.94362101 94.7074794 4.25863039L94.7074794 4.28142589C94.7074794 6.59643527 92.9120359 8.3934803 90.3130996 8.3934803L87.4416634 8.3934803 87.4416634.169371482zM97.1362942 4.95123358L97.1362942.169244841 98.0683968.169244841 98.0683968 4.89297842C98.0683968 6.66596154 99.0145064 7.66516417 100.598571 7.66516417 102.121515 7.66516417 103.090545 6.74827861 103.090545 4.95123358L103.090545.169244841 104.022648.169244841 104.022648 4.88031426C104.022648 7.27764071 102.641048 8.52252814 100.573104 8.52252814 98.530628 8.52252814 97.1362942 7.27764071 97.1362942 4.95123358M106.462668 4.30510788L106.462668 4.28104597C106.462668 1.95590525 108.210997.0284193246 110.644396.0284193246 112.145692.0284193246 113.043414.557781426 113.868554 1.33282833L113.231872 2.01416041C112.535342 1.35562383 111.75477.885783302 110.632936.885783302 108.801838.885783302 107.431698 2.3662242 107.431698 4.25825047L107.431698 4.28104597C107.431698 6.18446998 108.813298 7.67757505 110.632936 7.67757505 111.767503 7.67757505 112.511148 7.24192777 113.301907 6.49094278L113.916942 7.08995779C113.054874 7.95871951 112.110038 8.53493902 110.608742 8.53493902 108.223731 8.53493902 106.462668 6.66697467 106.462668 4.30510788"/>
    <polygon points="116.145 .169 122.121 .169 122.121 1.015 117.077 1.015 117.077 3.823 121.59 3.823 121.59 4.669 117.077 4.669 117.077 7.548 122.18 7.548 122.18 8.394 116.145 8.394"/>
    <path d="M127.514179,7.53611632 C129.605043,7.53611632 130.939529,6.12659475 130.939529,4.3054878 L130.939529,4.28142589 C130.939529,2.46031895 129.605043,1.02673546 127.514179,1.02673546 L125.577392,1.02673546 L125.577392,7.53611632 L127.514179,7.53611632 Z M124.642743,0.169371482 L127.514179,0.169371482 C130.113116,0.169371482 131.908559,1.94362101 131.908559,4.25863039 L131.908559,4.28142589 C131.908559,6.59643527 130.113116,8.3934803 127.514179,8.3934803 L124.642743,8.3934803 L124.642743,0.169371482 Z"/>
    <polygon points="59.273 22.114 60.206 22.114 60.206 13.89 59.273 13.89"/>
    <polygon points="63.22 13.889 64.095 13.889 69.305 20.481 69.305 13.889 70.214 13.889 70.214 22.113 69.47 22.113 64.131 15.37 64.131 22.113 63.22 22.113"/>
    <path d="M80.2517399 18.3654972C81.6218797 18.3654972 82.5196015 17.6373077 82.5196015 16.555788L82.5196015 16.5329925C82.5196015 15.357758 81.6346134 14.7473452 80.2988544 14.7473452L78.2092637 14.7473452 78.2092637 18.3654972 80.2517399 18.3654972zM77.2746144 13.8887148L80.3714361 13.8887148C82.2369146 13.8887148 83.4644377 14.8765197 83.4644377 16.4975328L83.4644377 16.5203283C83.4644377 18.2945779 81.9771483 19.2114634 80.217359 19.2114634L78.2092637 19.2114634 78.2092637 22.1128236 77.2746144 22.1128236 77.2746144 13.8887148zM92.8511691 18.0248311L92.8511691 18.0007692C92.8511691 16.1328049 91.4810292 14.6055066 89.5900834 14.6055066 87.700411 14.6055066 86.3531917 16.1100094 86.3531917 17.9779737L86.3531917 18.0007692C86.3531917 19.87 87.7246049 21.3972983 89.6142773 21.3972983 91.5039498 21.3972983 92.8511691 19.8927955 92.8511691 18.0248311M85.3854349 18.0248311L85.3854349 18.0007692C85.3854349 15.7338837 87.0981097 13.7481426 89.6142773 13.7481426 92.1304449 13.7481426 93.8201992 15.7098218 93.8201992 17.9779737 93.8316595 17.9893715 93.8316595 17.9893715 93.8201992 18.0007692 93.8201992 20.2689212 92.1075244 22.2546623 89.5900834 22.2546623 87.0739158 22.2546623 85.3854349 20.2929831 85.3854349 18.0248311M99.8646043 18.0835929C101.104861 18.0835929 101.991122 17.4491182 101.991122 16.3916604L101.991122 16.3688649C101.991122 15.3582645 101.21055 14.7465854 99.8760646 14.7465854L97.3242427 14.7465854 97.3242427 18.0835929 99.8646043 18.0835929zM96.3895934 13.8892214L99.9460996 13.8892214C100.962244 13.8892214 101.777197 14.1944278 102.29673 14.7111257 102.700386 15.1113133 102.935959 15.6862664 102.935959 16.3334053L102.935959 16.3562008C102.935959 17.7188649 101.991122 18.5179737 100.689744 18.7535272L103.231379 22.1133302 102.085351 22.1133302 99.6863333 18.9181614 99.6634127 18.9181614 97.3242427 18.9181614 97.3242427 22.1133302 96.3895934 22.1133302 96.3895934 13.8892214z"/>
    <polygon points="107.666 14.747 104.89 14.747 104.89 13.889 111.387 13.889 111.387 14.747 108.611 14.747 108.611 22.114 107.666 22.114"/>
    <path d="M113.601784 18.6709568L113.601784 13.8889681 114.53516 13.8889681 114.53516 18.6127017C114.53516 20.3856848 115.48127 21.3848874 117.062788 21.3848874 118.587005 21.3848874 119.556035 20.4680019 119.556035 18.6709568L119.556035 13.8889681 120.489411 13.8889681 120.489411 18.6000375C120.489411 20.997364 119.106538 22.2422514 117.039868 22.2422514 114.996118 22.2422514 113.601784 20.997364 113.601784 18.6709568M122.929432 18.0248311L122.929432 18.0007692C122.929432 15.7452814 124.596265 13.7481426 127.075505 13.7481426 128.471113 13.7481426 129.331907 14.1470638 130.159593 14.84106L129.557292 15.5451876C128.918063 14.99303 128.2088 14.6055066 127.041125 14.6055066 125.210027 14.6055066 123.898462 16.145469 123.898462 17.9779737L123.898462 18.0007692C123.898462 19.9637148 125.162912 21.4200938 127.169734 21.4200938 128.114571 21.4200938 128.990645 21.0566323 129.557292 20.5981895L129.557292 18.5529268 127.041125 18.5529268 127.041125 17.7196248 130.455014 17.7196248 130.455014 20.9971107C129.687175 21.6784428 128.528414 22.2546623 127.135354 22.2546623 124.536417 22.2546623 122.929432 20.3740338 122.929432 18.0248311M138.505732 19.1057176L136.627519 14.9113462 134.737847 19.1057176 138.505732 19.1057176zM136.202216 13.8298265L137.077017 13.8298265 140.846175 22.1134568 139.841491 22.1134568 138.87246 19.9402861 134.372391 19.9402861 133.390628 22.1134568 132.434331 22.1134568 136.202216 13.8298265z"/>
    <polygon points="143.06 13.889 143.993 13.889 143.993 21.256 148.648 21.256 148.648 22.113 143.06 22.113"/>
    <path d="M158.803666,21.2792683 C160.055383,21.2792683 160.835955,20.7271107 160.835955,19.8102251 L160.835955,19.7874296 C160.835955,18.894606 160.079577,18.3766417 158.638129,18.3766417 L156.026459,18.3766417 L156.026459,21.2792683 L158.803666,21.2792683 Z M158.472591,17.5547373 C159.595698,17.5547373 160.373724,17.0494371 160.373724,16.0856942 L160.373724,16.0628987 C160.373724,15.2523921 159.725582,14.72303 158.5439,14.72303 L156.026459,14.72303 L156.026459,17.5547373 L158.472591,17.5547373 Z M155.10709,13.889728 L158.625395,13.889728 C159.571505,13.889728 160.315149,14.1594747 160.788841,14.6179174 C161.130102,14.9699812 161.319834,15.4043621 161.319834,15.9337242 L161.319834,15.9565197 C161.319834,17.0266417 160.657684,17.5787992 160.008268,17.8599437 C160.988759,18.1537523 161.780791,18.7185741 161.780791,19.8456848 L161.780791,19.8697467 C161.780791,21.2792683 160.587649,22.1138368 158.779472,22.1138368 L155.10709,22.1138368 L155.10709,13.889728 Z"/>
    <polygon points="166.465 18.859 163.028 13.89 164.161 13.89 166.95 18.002 169.76 13.89 170.847 13.89 167.41 18.848 167.41 22.114 166.465 22.114"/>
    <polygon points="61.646 29.278 59.13 29.278 59.13 27.61 65.982 27.61 65.982 29.278 63.467 29.278 63.467 35.834 61.646 35.834"/>
    <polygon points="67.961 27.609 69.78 27.609 69.78 30.864 73.135 30.864 73.135 27.609 74.954 27.609 74.954 35.834 73.135 35.834 73.135 32.532 69.78 32.532 69.78 35.834 67.961 35.834"/>
    <polygon points="77.524 27.609 83.76 27.609 83.76 29.219 79.332 29.219 79.332 30.887 83.228 30.887 83.228 32.497 79.332 32.497 79.332 34.224 83.82 34.224 83.82 35.834 77.524 35.834"/>
    <polygon points="90.173 27.609 91.85 27.609 95.725 32.674 95.725 27.609 97.521 27.609 97.521 35.834 95.973 35.834 91.968 30.606 91.968 35.834 90.173 35.834"/>
    <path d="M104.839893,32.3913133 L103.742253,29.7242402 L102.642066,32.3913133 L104.839893,32.3913133 Z M102.926026,27.5510694 L104.603047,27.5510694 L108.148093,35.8334334 L106.245687,35.8334334 L105.490582,33.989531 L101.993924,33.989531 L101.237546,35.8334334 L99.3822539,35.8334334 L102.926026,27.5510694 Z"/>
    <polygon points="108.141 27.609 110.15 27.609 112.312 33.402 114.474 27.609 116.435 27.609 113.091 35.893 111.484 35.893"/>
    <polygon points="118.378 35.834 120.197 35.834 120.197 27.61 118.378 27.61"/>
    <path d="M122.47917 31.7451876L122.47917 31.7211257C122.47917 29.3833208 124.310268 27.4684991 126.814975 27.4684991 128.303538 27.4684991 129.20126 27.8674203 130.0646 28.5968762L128.918573 29.9709381C128.280617 29.4428424 127.712697 29.1363696 126.7564 29.1363696 125.433375 29.1363696 124.381576 30.3002064 124.381576 31.6983302L124.381576 31.7211257C124.381576 33.2256285 125.421915 34.3299437 126.886283 34.3299437 127.547159 34.3299437 128.138 34.1653096 128.600232 33.8360413L128.600232 32.6620732 126.767861 32.6620732 126.767861 31.0993152 130.358748 31.0993152 130.358748 34.6706098C129.509414 35.3874015 128.339192 35.9750188 126.826435 35.9750188 124.252966 35.9750188 122.47917 34.1767073 122.47917 31.7451876M137.442473 32.3913133L136.344833 29.7242402 135.244646 32.3913133 137.442473 32.3913133zM135.528606 27.5510694L137.205627 27.5510694 140.750673 35.8334334 138.848267 35.8334334 138.093162 33.989531 134.596504 33.989531 133.840125 35.8334334 131.984834 35.8334334 135.528606 27.5510694z"/>
    <polygon points="143.497 29.278 140.98 29.278 140.98 27.61 147.832 27.61 147.832 29.278 145.316 29.278 145.316 35.834 143.497 35.834"/>
    <path d="M155.977179 31.7451876L155.977179 31.7211257C155.977179 30.3116041 154.938114 29.1363696 153.472472 29.1363696 152.008103 29.1363696 150.991959 30.2888086 150.991959 31.6983302L150.991959 31.7211257C150.991959 33.1319137 152.031024 34.3058818 153.496666 34.3058818 154.961035 34.3058818 155.977179 33.1547092 155.977179 31.7451876M149.090826 31.7451876L149.090826 31.7211257C149.090826 29.3833208 150.944844 27.4684991 153.496666 27.4684991 156.048488 27.4684991 157.879586 29.3605253 157.879586 31.6983302L157.879586 31.7211257C157.879586 34.060197 156.024294 35.9750188 153.472472 35.9750188 150.92065 35.9750188 149.090826 34.0829925 149.090826 31.7451876M163.756671 31.6041088C164.641659 31.6041088 165.151004 31.1342683 165.151004 30.4415385L165.151004 30.4174765C165.151004 29.6424296 164.607278 29.242242 163.72229 29.242242L161.914113 29.242242 161.914113 31.6041088 163.756671 31.6041088zM160.094475 27.6098311L163.875093 27.6098311C164.925619 27.6098311 165.741845 27.9036398 166.284298 28.4431332 166.74653 28.901576 166.993562 29.5474484 166.993562 30.3237617L166.993562 30.3465572C166.993562 31.6750281 166.274112 32.5083302 165.221039 32.8971201L167.240595 35.83394 165.114077 35.83394 163.344101 33.2023265 163.318633 33.2023265 161.914113 33.2023265 161.914113 35.83394 160.094475 35.83394 160.094475 27.6098311zM59.11937 45.4655441L59.11937 45.4414822C59.11937 43.1036773 60.8906196 41.1888555 63.4309811 41.1888555 64.9895789 41.1888555 65.9242282 41.7055535 66.6907934 42.4578049L65.5333054 43.7850094C64.8953499 43.2100563 64.2446608 42.8567261 63.4195208 42.8567261 62.0239137 42.8567261 61.0205027 44.0091651 61.0205027 45.4186867L61.0205027 45.4414822C61.0205027 46.8522702 62.0022665 48.0262383 63.4195208 48.0262383 64.3643571 48.0262383 64.9424644 47.651379 65.5931535 47.0637617L66.7493682 48.2263321C65.8987609 49.1318199 64.9539247 49.6953752 63.3596727 49.6953752 60.9262738 49.6953752 59.11937 47.8274109 59.11937 45.4655441M75.0849374 45.4655441L75.0849374 45.4414822C75.0849374 44.0319606 74.0458722 42.8567261 72.5802301 42.8567261 71.1158613 42.8567261 70.0997166 44.0091651 70.0997166 45.4186867L70.0997166 45.4414822C70.0997166 46.8522702 71.1387818 48.0262383 72.604424 48.0262383 74.0687928 48.0262383 75.0849374 46.8750657 75.0849374 45.4655441M68.1973106 45.4655441L68.1973106 45.4414822C68.1973106 43.1036773 70.0526022 41.1888555 72.604424 41.1888555 75.1562458 41.1888555 76.9860701 43.0808818 76.9860701 45.4186867L76.9860701 45.4414822C76.9860701 47.7805535 75.1320519 49.6953752 72.5802301 49.6953752 70.0284082 49.6953752 68.1973106 47.803349 68.1973106 45.4655441"/>
    <polygon points="79.202 41.33 81.163 41.33 83.337 44.807 85.51 41.33 87.471 41.33 87.471 49.554 85.663 49.554 85.663 44.184 83.337 47.697 83.29 47.697 80.985 44.22 80.985 49.554 79.202 49.554"/>
    <path d="M93.3037227 45.4771951C94.2141781 45.4771951 94.7451709 44.9364353 94.7451709 44.2323077L94.7451709 44.2082458C94.7451709 43.3977392 94.1785239 42.9633583 93.2693419 42.9633583L91.8622744 42.9633583 91.8622744 45.4771951 93.3037227 45.4771951zM90.042637 41.3296811L93.4221456 41.3296811C95.39586 41.3296811 96.5877289 42.4935178 96.5877289 44.1727861L96.5877289 44.196848C96.5877289 46.100272 95.0991662 47.0868105 93.2438746 47.0868105L91.8622744 47.0868105 91.8622744 49.5537899 90.042637 49.5537899 90.042637 41.3296811zM102.463541 46.1116698L101.364627 43.4445966 100.265714 46.1116698 102.463541 46.1116698zM100.549674 41.2714259L102.226695 41.2714259 105.771741 49.5537899 103.869335 49.5537899 103.112956 47.7098874 99.6162983 47.7098874 98.8599199 49.5537899 97.0059017 49.5537899 100.549674 41.2714259z"/>
    <polygon points="107.633 41.33 109.31 41.33 113.185 46.394 113.185 41.33 114.981 41.33 114.981 49.554 113.434 49.554 109.428 44.326 109.428 49.554 107.633 49.554"/>
    <polygon points="119.89 46.311 116.712 41.329 118.838 41.329 120.811 44.631 122.82 41.329 124.887 41.329 121.709 46.276 121.709 49.555 119.89 49.555"/>
    <path d="M38.2966823,25.7989822 L43.7976155,25.7989822 C43.6931997,30.7721998 41.8595553,35.7124906 38.2966823,39.6434475 L38.2966823,25.7989822 Z M22.8074804,41.2036726 L36.7215308,41.2036726 C32.7741019,44.7521717 27.8016148,46.5720122 22.8074804,46.6796576 L22.8074804,41.2036726 Z M21.9059386,41.2036726 L21.9059386,46.6796576 C16.9105309,46.5720122 11.9393172,44.7521717 7.98806816,41.2036726 L21.9059386,41.2036726 Z M6.41801013,25.7989822 L6.41801013,39.6396482 C2.94809274,35.8264681 1.01130583,30.9634287 0.900523146,25.7989822 L6.41801013,25.7989822 Z M6.41801013,24.9086914 L0.900523146,24.9086914 C1.01130583,19.7379128 2.94809274,14.8850047 6.41801013,11.0667589 L6.41801013,24.9086914 Z M21.9059386,9.50020169 L7.98806816,9.50020169 C11.9393172,5.95550188 16.9105309,4.13692777 21.9059386,4.0318152 L21.9059386,9.50020169 Z M22.8074804,9.50020169 L22.8074804,4.0318152 C27.8016148,4.13692777 32.7741019,5.95550188 36.7215308,9.50020169 L22.8074804,9.50020169 Z M38.2966823,11.0667589 C41.8595553,14.9977158 43.6931997,19.9367402 43.7976155,24.9086914 L38.2966823,24.9086914 L38.2966823,11.0667589 Z M23.435249,24.9086914 L37.3951405,11.0237008 L37.3951405,24.9086914 L23.435249,24.9086914 Z M23.4327023,25.7989822 L37.3951405,25.7989822 L37.3951405,39.6839728 L23.4327023,25.7989822 Z M22.8074804,26.4296576 L36.757185,40.3146482 L22.8074804,40.3146482 L22.8074804,26.4296576 Z M21.9059386,26.4296576 L21.9059386,40.3146482 L7.94477377,40.3146482 L21.9059386,26.4296576 Z M21.2705299,25.7989822 L7.31445851,39.6839728 L7.31445851,25.7989822 L21.2705299,25.7989822 Z M21.2679832,24.9086914 L7.31445851,24.9086914 L7.31445851,11.0262336 L21.2679832,24.9086914 Z M22.8074804,10.3917589 L36.757185,10.3917589 L22.8074804,24.2780159 L22.8074804,10.3917589 Z M21.9059386,24.2805488 L7.93968032,10.3917589 L21.9059386,10.3917589 L21.9059386,24.2805488 Z M38.1642524,9.63317542 L38.1642524,9.63317542 C29.4480746,0.963287992 15.260251,0.963287992 6.54916664,9.63317542 C2.32923775,13.8326126 0.000254672836,19.4111773 0.000254672836,25.3506707 C0.000254672836,31.292697 2.32669102,36.8763274 6.54916664,41.0732317 C10.9053455,45.4107083 16.6316642,47.5750141 22.3516161,47.5750141 C28.0792081,47.5750141 33.8029801,45.4107083 38.1642524,41.0732317 C46.8778835,32.4058771 46.8778835,18.3030629 38.1642524,9.63317542 L38.1642524,9.63317542 Z"/>
    <path d="M36.7576944,41.6716135 L8.30055173,13.3697373 L8.298005,40.6711445 C8.25471061,41.7995216 7.4270239,42.1807129 6.87438385,42.1807129 C6.08107796,42.1807129 5.44821597,41.5449719 5.44821597,40.76106 L5.44821597,9.94787992 C5.44821597,9.17536585 6.07343778,8.54342402 6.84509647,8.53202627 C7.22328563,8.52442777 7.59892806,8.67133208 7.88034155,8.94994371 C8.13883447,9.20322702 29.176084,30.1269606 36.4329865,37.3392026 L36.4329865,10.5494278 C32.6154407,6.96040338 27.6404068,4.98732645 22.3661324,4.98732645 C21.5804667,4.98732645 20.9412379,4.35285178 20.9412379,3.56893996 C20.9412379,2.78249531 21.5804667,2.15181989 22.3661324,2.15181989 C28.6005234,2.15181989 34.4618187,4.56307692 38.8638387,8.94994371 C39.1248784,9.21335835 39.2789554,9.57302064 39.2789554,9.94787992 L39.2789554,40.76106 C39.2789554,41.3347467 38.9364205,41.8501782 38.3977874,42.065469 C38.2500772,42.1376548 38.0603459,42.1832458 37.8527875,42.1832458 C37.525533,42.1832458 37.1460704,42.0629362 36.7576944,41.6716135 Z"/>
  </g>
</svg>
