<svg xmlns="http://www.w3.org/2000/svg" width="309" height="71" viewBox="0 0 309 71">
  <g fill="none" fill-rule="evenodd" transform="translate(0 -1)">
    <path fill="#B21C45" d="M6.2056,32.1255 L0.2536,32.1255 C0.4736,26.4245 0.6236,19.7105 0.6236,13.9565 C0.6226,7.7245 0.5726,6.6495 0.2556,0.6345 L6.2026,0.6345 C5.8386,6.6945 5.8076,7.7235 5.7766,13.9555 C5.7516,18.9715 5.8856,26.3835 6.2056,32.1255 L6.2056,32.1255 Z M12.2516,0.6345 C12.3066,2.1865 12.6116,11.1545 12.6116,16.9105 C12.6126,22.6755 12.4736,26.4965 12.2536,32.1255 L17.7156,32.1255 C17.2226,24.5525 17.1736,17.7195 17.6416,8.6545 C17.6496,8.4915 17.8026,8.4495 17.8996,8.5835 C17.8996,8.5835 29.0406,24.0305 34.5636,32.1255 L40.2926,32.1255 C40.2186,30.6245 39.8256,22.3065 39.8246,17.0045 C39.8246,11.2445 40.0576,2.1895 40.0996,0.6345 L34.1806,0.6345 C34.2736,2.5075 34.8746,15.0955 34.6666,22.5845 C34.6626,22.7505 34.5026,22.7955 34.4066,22.6565 C34.4066,22.6565 24.3676,8.1075 18.6716,0.6345 L12.2516,0.6345 Z M69.2676,32.1265 L75.7946,32.1265 C71.2576,22.8545 66.3316,10.5945 62.8366,0.6345 L57.3146,0.6345 C53.5486,10.1025 46.4886,25.4905 42.9976,32.1255 L48.1226,32.1255 C49.2926,29.7555 50.9896,26.5195 52.6126,23.3755 C52.6276,23.3465 52.7056,23.2995 52.7396,23.2995 L65.8626,23.3005 C65.9056,23.2995 65.9816,23.3515 65.9956,23.3895 C67.0096,26.0555 68.1196,29.2175 69.2676,32.1265 L69.2676,32.1265 Z M59.4926,6.7335 C59.5586,6.5875 59.7076,6.5955 59.7586,6.7455 L63.7766,18.6555 C63.8116,18.7565 63.7516,18.8355 63.6416,18.8355 L54.2336,18.8355 C54.1136,18.8355 54.0556,18.7505 54.1036,18.6435 L59.4926,6.7335 Z M122.2106,13.1475 C120.4896,13.2305 113.5516,13.3775 111.2336,13.1395 C111.1686,13.1325 111.1066,13.0645 111.1076,13.0025 C111.1136,10.3085 110.8946,8.6065 111.1076,5.0035 C111.1106,4.9365 111.1796,4.8735 111.2496,4.8735 C115.5476,4.8745 121.6946,4.7385 124.5126,4.8675 L124.5126,0.8275 L106.2036,0.8275 C106.4176,6.7935 106.4616,10.1055 106.4616,16.3065 C106.4616,21.5085 106.2376,30.2325 106.1886,32.0845 L124.5136,32.0835 L124.5136,27.7195 C122.5546,27.8105 113.7506,28.0845 111.2286,27.7105 C111.1686,27.7015 111.1086,27.6335 111.1076,27.5755 L111.1076,17.6805 C111.1076,17.6085 111.1736,17.5445 111.2496,17.5445 C115.0706,17.5335 119.0066,17.5045 122.2106,17.5415 L122.2106,13.1475 Z M137.2746,32.0845 L143.5266,32.0845 C143.2666,26.0475 143.2236,22.2275 143.2236,15.9985 C143.2236,12.0325 143.2306,9.3805 143.5876,5.0005 C143.5926,4.9395 143.6606,4.8775 143.7236,4.8755 C143.7236,4.8755 149.9586,4.6355 152.8156,4.8585 L152.8146,0.8275 L128.3886,0.8275 L128.4446,4.8535 C129.4786,4.7495 131.6156,4.7505 133.5346,4.7805 C135.5516,4.8125 137.3306,4.8755 137.3306,4.8755 C137.4016,4.8775 137.4666,4.9425 137.4666,5.0115 C137.4666,9.5765 137.6196,12.1335 137.6196,15.9985 C137.6196,22.2265 137.5766,26.0485 137.2746,32.0845 L137.2746,32.0845 Z M90.8786,0.4965 C84.0066,0.4965 79.3356,4.3935 79.3356,8.9405 C79.3366,12.8375 81.4926,15.5665 85.8486,17.4715 L89.6666,19.0305 C93.6636,20.6315 94.7396,22.0595 94.7396,24.4845 C94.7396,26.7755 92.4986,28.6395 88.5446,28.6395 C85.4466,28.6395 82.4816,27.9025 79.9216,26.6485 L78.3046,30.5025 C81.2686,31.8455 84.8186,32.5385 88.8136,32.5385 C95.4166,32.5395 100.6256,28.9005 100.6256,23.5755 C100.6256,19.3315 98.5146,16.6895 93.5736,14.6545 L90.3406,13.2685 C86.0746,11.5365 85.1316,10.1945 85.1326,8.2045 C85.1326,5.9995 87.1486,4.3955 91.1926,4.3955 C93.9776,4.3955 96.4476,5.0455 98.2886,5.9105 L99.8606,2.0985 C97.3006,0.9295 94.6076,0.4965 90.8786,0.4965 L90.8786,0.4965 Z M19.3606,42.0815 C19.3606,42.2125 19.3506,42.3305 19.3306,42.4595 C19.3156,42.5535 19.2966,42.6465 19.2726,42.7605 C19.2976,42.7845 19.3326,42.7945 19.4196,42.7435 C19.5026,42.4455 19.6066,42.0895 19.7366,41.6725 L20.1606,40.5385 C20.1526,40.3725 20.0896,40.2055 19.9686,40.0305 C19.6316,39.6675 19.2536,39.4305 18.8396,39.3195 C18.4186,39.1795 17.9816,39.1075 17.5316,39.1075 C16.8516,39.1075 16.2306,39.1935 15.6656,39.3625 C15.1276,39.5325 14.6466,39.7305 14.2216,39.9575 C13.8256,40.1835 13.4736,40.4375 13.1636,40.7195 C12.8786,40.9755 12.6526,41.2015 12.4836,41.3995 C12.0026,41.9655 11.5926,42.6155 11.2516,43.3545 C10.9406,44.0885 10.7856,44.8215 10.7856,45.5545 C10.7866,46.2885 10.9266,46.9325 11.2066,47.4945 C11.5196,48.0625 11.9606,48.7155 12.5296,49.4555 C13.1876,50.2855 13.6346,50.9615 13.8666,51.4845 C14.0996,51.9795 14.2156,52.4745 14.2166,52.9725 C14.2166,53.9885 13.8976,54.8765 13.2576,55.6325 C12.6466,56.3595 11.8136,56.8485 10.8156,57.2925 C9.7946,57.7465 7.8826,58.0395 6.0636,57.6685 C4.3816,57.3245 2.9786,56.5755 2.1086,55.7055 C1.6176,55.2145 1.2956,54.7055 1.0676,54.2305 C0.8416,53.7555 0.7066,53.3125 0.5886,52.9465 C0.3646,52.1955 0.3186,51.4355 0.4506,50.6715 C0.5816,49.8805 0.2916,50.1105 0.1226,50.9815 C-0.0584,51.8375 -0.0394,52.7015 0.1816,53.5695 C0.4036,54.4165 0.8766,55.4285 1.7216,56.2005 C3.4706,57.7965 5.0386,58.3785 7.6886,58.3505 C9.1916,58.3345 11.9876,57.8695 14.5656,55.1535 C15.0186,54.6725 15.3716,54.1485 15.6256,53.5845 C15.9066,53.0225 16.0466,52.4455 16.0466,51.8565 C16.0466,51.5175 16.0186,51.2375 15.9636,51.0165 C15.9076,50.7655 15.8086,50.5125 15.6686,50.2615 C15.5286,49.9805 15.3296,49.6805 15.0746,49.3695 C14.8466,49.0275 14.5456,48.6115 14.1756,48.1275 C13.6866,47.4945 13.2416,46.8065 12.8396,46.0595 C12.4336,45.3065 12.2306,44.4935 12.2306,43.6255 C12.2316,42.4935 12.5936,41.5885 13.3246,40.9155 C14.0546,40.2145 15.0006,39.8675 16.1596,39.8675 C17.2536,39.8675 18.0606,40.0965 18.5666,40.5715 C19.0896,41.0375 19.3596,41.5405 19.3606,42.0815 L19.3606,42.0815 Z M40.6306,48.3305 C40.8426,48.0985 40.9586,47.8555 40.9596,47.5975 C40.9586,47.2965 40.7876,47.1255 40.4876,47.1255 C40.1936,47.1255 39.9406,47.2565 39.7396,47.4975 C39.5636,47.7335 39.4686,47.9875 39.4696,48.2525 C39.4686,48.5355 39.6316,48.6985 39.9136,48.6975 C40.1916,48.6975 40.4306,48.5695 40.6306,48.3305 L40.6306,48.3305 Z M56.1236,55.2975 C56.5626,54.8755 56.9396,54.4705 57.2776,54.0105 C57.2786,53.9065 57.2216,53.8315 57.1276,53.7955 C57.0306,53.7475 56.9396,53.7945 56.8806,53.8525 C56.6486,54.1565 56.3476,54.4945 55.9856,54.8555 C55.6446,55.1975 55.2686,55.5195 54.8546,55.8265 C54.4416,56.1125 54.0126,56.3535 53.5646,56.5515 C53.1416,56.7455 52.7296,56.8415 52.3306,56.8405 C51.7336,56.8405 51.4386,56.5325 51.4386,55.8395 C51.4386,55.4885 51.4916,55.1445 51.5966,54.8105 C51.6926,54.4925 51.7786,54.2575 51.8556,54.1005 C52.4006,54.0955 52.8826,54.0205 53.2976,53.8765 C53.7426,53.7095 54.1126,53.5105 54.3976,53.2825 C54.6796,53.0385 54.8906,52.7835 55.0256,52.5115 C55.1786,52.2445 55.2586,51.9905 55.2586,51.7465 C55.2586,51.5675 55.1936,51.4195 55.0566,51.3045 C54.9296,51.1785 54.7176,51.1385 54.4586,51.1385 C53.9556,51.1385 53.4516,51.3205 52.9466,51.6765 C52.4446,52.0105 51.9826,52.4375 51.5576,52.9535 C51.1326,53.4705 50.7806,54.0265 50.5046,54.6175 C50.4136,54.8255 50.3386,55.0295 50.2786,55.2295 L49.9516,55.5965 C49.6456,55.9215 49.3136,56.2345 48.9526,56.5415 C48.5926,56.8465 48.2346,57.1065 47.8766,57.3215 C47.5256,57.5325 47.2016,57.6325 46.9006,57.6315 C46.6256,57.6325 46.4996,57.5085 46.4996,57.2035 C46.4996,56.9725 46.5836,56.6265 46.7646,56.1555 C46.9636,55.6675 47.1896,55.1705 47.4426,54.6635 C47.6966,54.1365 47.9406,53.6485 48.1766,53.1945 C48.4336,52.7345 48.6056,52.4085 48.6976,52.2055 C48.7376,52.1285 48.7656,52.0605 48.7846,52.0015 C48.8076,51.9365 48.8186,51.8685 48.8186,51.8005 C48.8186,51.4715 48.6186,51.3005 48.2416,51.3125 C47.9646,51.4415 47.6576,51.6185 47.3246,51.8405 C47.0146,52.0595 46.6916,52.2995 46.3626,52.5555 C46.0506,52.8125 45.7466,53.0885 45.4526,53.3825 C45.3226,53.5125 45.1986,53.6395 45.0816,53.7655 L45.2616,53.3765 C45.4246,52.9935 45.5166,52.6915 45.5166,52.4835 C45.5166,52.1825 45.3956,51.9555 45.0986,51.9565 C44.7426,51.9555 44.3136,52.2015 43.8216,52.6395 C43.4936,52.9195 43.1146,53.2895 42.6856,53.7505 L42.9906,53.2245 C43.3016,52.6935 43.5236,52.2415 43.6606,51.8275 C43.6606,51.7035 43.6146,51.5915 43.5296,51.4855 C43.4446,51.3585 43.3346,51.2735 43.1896,51.2735 C42.9966,51.2735 42.8666,51.3975 42.7846,51.5825 C42.3106,52.3835 41.8406,53.1875 41.3686,54.0065 L41.2456,54.2175 L41.0296,54.4485 C40.6706,54.8265 40.2736,55.1875 39.8406,55.5295 C39.4276,55.8705 39.0056,56.1675 38.5746,56.4195 C38.1486,56.6495 37.7696,56.7595 37.4316,56.7595 C37.2486,56.7595 37.1186,56.7235 37.0166,56.6505 C36.9376,56.5715 36.8946,56.4495 36.8946,56.2485 C36.8946,56.0665 36.9436,55.8095 37.0516,55.4685 C37.1776,55.1265 37.3386,54.7595 37.5366,54.3625 C37.7356,53.9465 37.9536,53.5205 38.1896,53.0855 C38.4196,52.6595 38.6586,52.2675 38.9066,51.9105 C38.9606,51.8565 38.9936,51.7875 39.0096,51.7165 C39.0446,51.6455 39.0766,51.5655 39.0766,51.5005 C39.0766,51.3325 38.9156,51.3005 38.8226,51.3005 C38.7186,51.3005 38.5406,51.3685 38.3116,51.4745 C38.0786,51.5715 37.9056,51.6985 37.7976,51.8715 C37.6516,52.0725 37.4506,52.3735 37.1946,52.7765 L36.4556,54.0345 L36.0916,54.4205 C35.7136,54.8175 35.2976,55.1965 34.8466,55.5565 C34.4166,55.9155 33.9586,56.2215 33.4756,56.4715 C32.9976,56.7195 32.5426,56.8405 32.1106,56.8405 C31.6586,56.8405 31.4366,56.6135 31.4366,56.0855 C31.4366,55.7405 31.5316,55.3125 31.7286,54.7905 C31.9456,54.2665 32.1886,53.7345 32.4596,53.1915 C32.7506,52.6475 33.0396,52.1325 33.3296,51.6415 C33.6126,51.1665 33.8346,50.7845 33.9976,50.4955 C34.9196,49.9875 35.7896,49.4055 36.6046,48.7535 C37.4276,48.0775 38.1766,47.3735 38.8536,46.6415 C39.5486,45.9085 40.1606,45.1785 40.6906,44.4475 C41.2396,43.6965 41.6966,43.0035 42.0626,42.3625 C42.4476,41.7015 42.7396,41.1245 42.9416,40.6285 C43.1436,40.1355 43.2516,39.7445 43.2506,39.4665 C43.2516,39.2825 43.2046,39.1275 43.0746,39.0235 C42.9586,38.9065 42.8146,38.8565 42.6426,38.8565 C42.4076,38.8565 41.9886,39.0295 41.4136,39.3345 C40.8216,39.6495 40.1786,40.0995 39.4836,40.6855 C38.9686,41.1085 38.5446,41.5315 38.2116,41.9585 C37.8816,42.3785 37.5616,42.8265 37.2506,43.3035 C36.9956,43.6865 36.7126,44.1325 36.4026,44.6435 C36.0926,45.1355 35.7746,45.6535 35.4476,46.2005 C35.1186,46.7465 34.7916,47.3105 34.4636,47.8945 L33.5096,49.5305 C33.3276,49.8395 33.0466,50.2925 32.6656,50.8905 C32.3066,51.4545 31.9486,52.0495 31.5906,52.6765 C31.3296,52.8155 31.0746,52.9225 30.8236,52.9975 C30.4676,53.0855 30.1426,53.1295 29.8456,53.1295 C29.6406,53.1295 29.4156,53.0955 29.1696,53.0255 C28.9446,52.9565 28.7326,52.8555 28.5236,52.7155 C28.3346,52.5615 28.1766,52.3795 28.0376,52.1525 C27.9206,51.9185 27.8616,51.6325 27.8486,51.2285 C27.8016,51.1355 27.7086,51.1085 27.5736,51.1255 C27.4726,51.1885 27.3686,51.2725 27.2556,51.3855 C27.1436,51.4795 27.0536,51.5605 26.9796,51.6355 C26.8556,51.7585 26.7796,51.8965 26.7886,52.0895 C26.8206,52.1675 26.8476,52.2845 26.8646,52.4245 C26.8976,52.5365 26.9176,52.7055 26.9176,52.9195 C26.9176,53.5645 26.8366,54.1435 26.6766,54.6575 C26.5156,55.1595 26.3216,55.5845 26.0916,55.9385 C25.8606,56.2745 25.6156,56.5355 25.3556,56.7255 C25.1086,56.9035 24.9146,56.9775 24.7706,56.9765 C24.5466,56.9765 24.3966,56.8305 24.3966,56.3575 C24.3966,56.2115 24.4386,55.9775 24.5286,55.6515 C24.6186,55.3085 24.7276,54.9475 24.8536,54.5675 C24.9986,54.1705 25.1516,53.7825 25.3136,53.4035 C25.4946,53.0055 25.6576,52.6625 25.8026,52.3715 C26.2386,51.5175 26.7476,50.5545 27.3296,49.4825 C27.9096,48.3925 28.5176,47.3305 29.1526,46.2955 C29.8066,45.2425 30.4506,44.2805 31.0866,43.4095 C31.7196,42.5215 32.3046,41.8565 32.8396,41.4105 C33.2196,41.0865 33.5616,40.8345 33.8626,40.6575 C34.1666,40.4605 34.4526,40.3085 34.7166,40.2025 C34.9996,40.0975 35.2716,40.0265 35.5356,39.9915 C35.8036,39.9555 36.0986,39.9375 36.4206,39.9375 C36.7976,39.9375 37.0286,40.0075 37.1406,40.1045 C37.3006,40.2115 37.4276,40.3115 37.5106,40.3945 C37.6766,40.5605 37.7956,40.3945 37.8186,40.2805 C37.8396,40.1755 37.8486,39.9825 37.8486,39.7115 C37.8486,39.4245 37.7486,39.1875 37.5406,39.0005 C37.3476,38.7855 37.0696,38.6935 36.7206,38.6935 C36.3746,38.6935 35.9936,38.7795 35.5836,38.9485 C35.1956,39.1145 34.8076,39.3265 34.4196,39.5845 C34.0336,39.8235 33.6666,40.0815 33.3176,40.3565 C32.9886,40.6315 32.7126,40.8695 32.4926,41.0705 C31.7066,41.8035 30.9576,42.6075 30.2436,43.4845 C29.5516,44.3425 28.8846,45.2365 28.2466,46.1675 C27.6266,47.0975 27.0336,48.0455 26.4696,49.0115 C25.9046,49.9585 25.3776,50.8775 24.8856,51.7705 C24.7396,52.0265 24.5646,52.3475 24.3646,52.7305 C24.1816,53.1125 23.9896,53.5255 23.7896,53.9635 C23.7166,54.1295 23.6496,54.2955 23.5846,54.4625 C23.3296,54.7835 23.0686,55.0885 22.7996,55.3775 C22.3666,55.8655 21.9426,56.2805 21.5296,56.6225 C21.1166,56.9635 20.7216,57.2225 20.3506,57.3985 C19.9936,57.5955 19.7106,57.6865 19.5036,57.6865 C19.1916,57.6865 19.0476,57.5445 19.0486,57.2035 C19.0476,56.7615 19.1186,56.3575 19.2586,55.9905 C19.4016,55.6145 19.5706,55.2585 19.7676,54.9175 C19.9846,54.5755 20.2086,54.2535 20.4426,53.9455 C20.6986,53.6165 20.9396,53.2835 21.1586,52.9535 C21.2416,52.8095 21.2856,52.6485 21.2856,52.4825 C21.2856,52.2485 21.2376,52.0465 21.1326,51.8775 C21.0476,51.7245 20.9366,51.5735 20.7856,51.5735 C20.6606,51.5735 20.5526,51.7015 20.4706,51.8165 L20.1116,52.3965 C19.9846,52.6325 19.8376,52.8985 19.6736,53.1885 L19.1546,54.1185 C18.9916,54.4265 18.8296,54.7235 18.6656,55.0145 C18.2316,55.6845 17.8586,56.1525 17.5426,56.4335 C17.2336,56.7065 17.0176,56.8135 16.8836,56.8135 C16.7796,56.8135 16.7016,56.7645 16.7016,56.5215 C16.7016,56.3795 16.7496,56.1695 16.8566,55.8825 C16.9836,55.5745 17.1356,55.2345 17.3166,54.8555 C17.5156,54.4745 17.7416,54.0685 17.9946,53.6335 C18.2476,53.1985 18.5196,52.7635 18.8096,52.3295 C18.9116,52.1755 18.9936,52.0345 18.9936,51.9365 C18.9936,51.8225 18.8766,51.6915 18.7446,51.5585 C18.6096,51.3845 18.4566,51.2735 18.2756,51.2735 C18.1186,51.2735 18.0086,51.4425 17.9256,51.6085 C17.4526,52.4275 17.0626,53.1175 16.7536,53.6815 C16.4616,54.2295 16.2236,54.6975 16.0406,55.0805 C15.8736,55.4495 15.7526,55.7585 15.6796,55.9985 C15.6236,56.2205 15.5926,56.4075 15.5936,56.5485 C15.5936,56.8225 15.6646,57.0505 15.8216,57.2075 C15.9746,57.3385 16.1696,57.4025 16.3936,57.4025 C16.6616,57.4025 16.9086,57.3535 17.1256,57.2545 C17.3516,57.1425 17.5546,57.0075 17.7266,56.8545 C17.8916,56.7055 18.0346,56.5585 18.1566,56.4085 L18.1336,56.4975 C18.0956,56.7045 18.0766,56.8975 18.0756,57.0675 C18.0766,57.4285 18.1636,57.7215 18.3586,57.9165 C18.5676,58.1045 18.8456,58.1945 19.1766,58.1945 C19.6206,58.1945 20.0856,58.0505 20.5706,57.7695 C21.0526,57.5115 21.5296,57.1795 22.0076,56.7755 C22.4336,56.4155 22.8376,56.0255 23.2186,55.6075 C23.1566,55.8765 23.1246,56.1175 23.1246,56.3305 C23.1246,56.7285 23.2216,57.0495 23.4336,57.2615 C23.6576,57.4645 23.9336,57.5675 24.2516,57.5675 C24.5856,57.5675 24.9526,57.4575 25.3446,57.2525 C25.7416,57.0255 26.1086,56.7055 26.4436,56.2955 C26.7806,55.8845 27.0586,55.3925 27.2806,54.8185 C27.4886,54.3225 27.6066,53.7825 27.6356,53.1945 C27.7646,53.3195 27.9206,53.4345 28.0966,53.5405 C28.4056,53.6945 28.7456,53.7735 29.1086,53.7735 C29.5406,53.7735 29.9976,53.6995 30.4796,53.5505 C30.7296,53.4765 30.9896,53.3825 31.2596,53.2675 C30.9806,53.7795 30.7276,54.2745 30.5026,54.7525 C30.2286,55.3555 30.0826,55.8395 30.0826,56.1935 C30.0826,56.5475 30.1946,56.8605 30.4136,57.1205 C30.6636,57.3695 31.0496,57.4855 31.5376,57.4855 C32.1006,57.4855 32.6636,57.3625 33.2226,57.1205 C33.7766,56.8615 34.3036,56.5385 34.8016,56.1515 C35.1696,55.8745 35.5196,55.5795 35.8236,55.3285 C35.6396,55.7325 35.5406,56.0685 35.5406,56.3305 C35.5406,56.5445 35.5846,56.7395 35.6706,56.8895 C35.7676,57.0055 35.8866,57.1155 36.0056,57.1945 C36.1466,57.2755 36.3016,57.3275 36.4616,57.3475 C36.6126,57.3665 36.7456,57.3755 36.8586,57.3755 C37.1836,57.3755 37.5426,57.3095 37.9326,57.1795 C38.3246,57.0485 38.7066,56.8615 39.0786,56.6205 C39.5006,56.3445 39.9566,55.9915 40.4466,55.5605 C40.2756,55.8415 40.1026,56.1215 39.9276,56.3985 C39.8346,56.5155 39.7976,56.6575 39.7976,56.8215 C39.7976,56.9545 39.8086,57.0955 39.8276,57.2285 C39.8796,57.4115 40.0236,57.5125 40.2146,57.5125 C40.3856,57.5125 40.5576,57.2865 40.7246,57.0205 C40.9046,56.7305 41.1236,56.3935 41.3776,56.0125 C41.5556,55.7285 41.7986,55.4035 42.1056,55.0425 C42.4136,54.6795 42.7216,54.3365 43.0286,54.0105 C43.3356,53.6855 43.6136,53.4155 43.8656,53.2005 C44.1166,52.9835 44.2626,52.8995 44.3476,52.8935 C44.3516,52.9115 44.3536,52.9375 44.3536,52.9745 C44.3536,52.9855 44.3276,53.0885 44.2506,53.3185 C44.1796,53.5335 44.0706,53.7955 43.9276,54.1005 C43.8016,54.4065 43.6376,54.7435 43.4396,55.1035 C43.2606,55.4605 43.0546,55.8035 42.8216,56.1255 C42.6726,56.3295 42.5666,56.5095 42.5066,56.6685 C42.4536,56.7955 42.4176,56.9045 42.4166,56.9855 C42.4166,57.1105 42.4676,57.2255 42.5516,57.3325 C42.6406,57.4425 42.7536,57.5125 42.8896,57.5125 C43.0476,57.5125 43.1766,57.3805 43.2846,57.2185 C43.4186,57.0465 43.5366,56.8445 43.6496,56.6015 C43.7766,56.3635 43.9036,56.1215 44.0316,55.8645 C44.1556,55.6165 44.2796,55.4025 44.4046,55.2245 C44.5296,55.0455 44.7076,54.8225 44.9406,54.5535 C45.1946,54.2825 45.4656,54.0025 45.7556,53.7125 C46.0426,53.4245 46.3316,53.1625 46.6196,52.9285 C46.9196,52.6825 47.1816,52.4985 47.3826,52.4285 C47.3826,52.5805 47.2866,52.8755 47.0666,53.3335 C46.8676,53.7685 46.6396,54.2315 46.3866,54.7215 C46.1316,55.2135 45.8936,55.6895 45.6756,56.1455 C45.4746,56.5985 45.3646,56.9495 45.3646,57.1765 C45.3636,57.5015 45.4406,57.7655 45.6166,57.9425 C45.7956,58.1215 46.0916,58.1945 46.4636,58.1945 C46.8856,58.1945 47.3136,58.0795 47.7456,57.8545 C48.1896,57.6325 48.6146,57.3545 49.0216,57.0215 C49.4166,56.6995 49.7836,56.3595 50.1256,56.0015 C50.1166,56.1035 50.1116,56.2035 50.1116,56.3045 C50.1116,57.1445 50.6056,57.5675 51.5126,57.5675 C52.0376,57.5675 52.5796,57.4635 53.1366,57.2595 C53.6906,57.0375 54.2176,56.7605 54.7156,56.4285 C55.2306,56.0795 55.6996,55.7025 56.1236,55.2975 L56.1236,55.2975 Z M41.5506,39.8555 C41.7016,39.8555 41.7876,39.9255 41.7876,40.1755 C41.7876,40.7515 41.5946,41.4715 41.1986,42.3365 C40.8016,43.2005 40.2616,44.0945 39.5736,45.0175 C38.8876,45.9385 38.0646,46.8425 37.1046,47.7305 C36.2856,48.4875 35.4096,49.1475 34.4806,49.7115 L36.2476,46.8695 C36.8296,45.9405 37.3206,45.1695 37.7196,44.5515 L38.7276,43.0255 L39.3526,42.1555 L40.2776,40.9585 C40.5296,40.6525 40.7356,40.4205 40.8976,40.2585 C41.0786,40.0775 41.2126,39.9705 41.3026,39.9255 C41.4016,39.8775 41.4826,39.8555 41.5506,39.8555 L41.5506,39.8555 Z M52.0586,53.6385 C52.1546,53.4445 52.2696,53.2445 52.4016,53.0375 C52.5626,52.7875 52.7326,52.5545 52.9116,52.3395 C53.0886,52.1285 53.2646,51.9615 53.4356,51.8425 C53.6226,51.7055 53.7906,51.6455 53.9406,51.6455 C54.1116,51.6455 54.1776,51.7115 54.1776,51.8825 C54.1776,52.3575 53.9936,52.7725 53.6146,53.1345 C53.2356,53.4785 52.8006,53.6485 52.3026,53.6485 L52.0586,53.6385 Z M68.0996,46.0955 C68.0456,46.2395 67.9836,46.3895 67.9116,46.5515 C67.8396,46.7135 67.7686,46.8665 67.6956,47.0105 C67.6266,47.1495 67.5716,47.2505 67.5366,47.3025 C67.1366,48.0485 66.6706,48.8975 66.1436,49.8435 C65.6166,50.7705 65.1266,51.6155 64.6716,52.3795 C64.2896,53.0165 63.8896,53.6885 63.4706,54.3985 C63.0506,55.1125 62.7116,55.7545 62.4546,56.3215 C62.3636,56.5415 62.3086,56.7255 62.3086,56.8605 C62.3096,57.0395 62.3836,57.1955 62.5196,57.3085 C62.6416,57.3895 62.7806,57.4515 62.9376,57.4905 C63.0906,57.5475 63.2386,57.5845 63.3946,57.6045 C63.5456,57.6235 63.6686,57.6315 63.7636,57.6325 C64.1676,57.6325 64.5706,57.6145 64.9746,57.5775 C65.3966,57.5405 65.7736,57.4945 66.1036,57.4395 C66.2016,57.4205 66.3376,57.3625 66.3366,57.2145 C66.3366,57.0955 66.2246,57.0535 66.1756,57.0395 C66.1096,57.0215 66.0216,57.0155 65.9196,57.0155 C65.3416,57.0155 64.9276,56.9525 64.6586,56.8355 C64.4106,56.7115 64.2906,56.5105 64.2906,56.2045 C64.2906,55.9775 64.3796,55.6705 64.5776,55.2755 C64.8866,54.6765 65.2676,53.9685 65.7216,53.1515 C66.1756,52.3325 66.6486,51.4965 67.1396,50.6415 L68.5856,48.1315 C69.0576,47.3145 69.4766,46.6115 69.8406,46.0295 C69.9536,45.8185 70.1116,45.6835 70.3166,45.6205 C70.6686,45.5325 71.0646,45.4885 71.5126,45.4885 C72.1506,45.4885 72.6846,45.6215 73.1166,45.8815 C73.5406,46.1255 73.7686,46.5955 73.7696,47.3355 C73.7686,47.8625 73.6456,48.3925 73.3976,48.9255 C73.1676,49.4565 72.8366,49.9385 72.4116,50.3645 C72.0036,50.7895 71.5056,51.1375 70.9176,51.4045 C70.3516,51.6695 69.7316,51.8025 69.0576,51.8025 C68.8436,51.8025 68.6136,51.7845 68.3646,51.7495 C68.1286,51.7135 67.9766,51.6785 67.8566,51.6395 C67.7176,51.6395 67.6286,51.7285 67.6296,51.8655 C67.6296,51.9745 67.6906,52.0535 67.7896,52.0865 C68.1516,52.2195 68.5646,52.2835 69.0296,52.2835 C70.0046,52.2835 70.8766,52.1365 71.6376,51.8385 C72.4116,51.5255 73.0706,51.1365 73.6096,50.6715 C74.1456,50.1905 74.5556,49.6805 74.8366,49.1385 C75.1336,48.5975 75.2866,48.0795 75.2866,47.5815 C75.2866,47.0905 75.1756,46.6775 74.9396,46.3435 C74.7286,45.9975 74.4446,45.7335 74.0816,45.5415 C73.7396,45.3335 73.3556,45.1945 72.9236,45.1195 C72.5166,45.0445 72.1106,45.0075 71.7036,45.0075 C71.4826,45.0085 71.1696,45.0265 70.7646,45.0625 C70.3816,45.0995 69.9356,45.1455 69.4256,45.1995 C68.9356,45.2545 68.4096,45.2995 67.8486,45.3355 C67.2866,45.3715 66.7346,45.3895 66.1916,45.3895 L65.5136,45.3905 C65.2836,45.3725 65.0906,45.3455 64.9316,45.3105 C64.7256,45.2735 64.6966,45.2155 64.6956,45.2095 C64.6866,45.1715 64.6706,45.1225 64.6416,45.0835 C64.6116,45.0435 64.5656,45.0075 64.4996,45.0075 C64.4136,45.0085 64.3536,45.0685 64.3176,45.1145 C64.2766,45.1665 64.2366,45.2415 64.1996,45.3265 C64.1476,45.4635 64.1086,45.5805 64.1086,45.6435 C64.1086,45.9595 64.3996,46.0615 64.7446,46.0615 C65.3326,46.0615 65.9006,46.0255 66.4516,45.9515 C67.0126,45.8795 67.5796,45.8335 68.1746,45.8175 C68.1706,45.8565 68.1506,45.9425 68.0996,46.0955 L68.0996,46.0955 Z M84.0056,51.6675 C84.0396,51.7705 84.0566,51.8575 84.0566,51.9125 C84.0566,52.1945 83.9486,52.5555 83.7156,53.0035 C83.4846,53.4295 83.1636,53.8675 82.7496,54.3165 C82.3566,54.7635 81.8886,55.1775 81.3506,55.5555 C80.9146,55.8705 80.4546,56.1095 79.9706,56.2725 C80.2136,55.8355 80.4576,55.4115 80.7016,55.0005 C80.9906,54.4945 81.2886,54.0245 81.5956,53.5895 C81.8106,53.2855 82.0346,53.0075 82.2686,52.7565 C82.5016,52.5055 82.7256,52.2995 82.9366,52.1405 C83.1516,51.9615 83.3406,51.8265 83.4966,51.7415 C83.6786,51.6315 83.7916,51.5935 83.8466,51.5925 C83.9856,51.5935 84.0016,51.6415 84.0056,51.6675 L84.0056,51.6675 Z M87.6236,53.7755 C87.7196,53.5805 87.8346,53.3805 87.9676,53.1745 C88.1286,52.9245 88.2986,52.6925 88.4766,52.4765 C88.6536,52.2635 88.8296,52.0985 89.0006,51.9785 C89.1876,51.8425 89.3556,51.7825 89.5056,51.7825 C89.6776,51.7825 89.7426,51.8485 89.7426,52.0195 C89.7426,52.4935 89.5586,52.9085 89.1796,53.2705 C88.8016,53.6155 88.3656,53.7845 87.8686,53.7845 L87.6236,53.7755 Z M79.8986,55.2945 L79.2426,56.3655 C79.1786,56.3805 79.0966,56.3945 78.9986,56.4085 C78.8346,56.4355 78.7356,56.5465 78.7356,56.7145 C78.7356,56.8505 78.7696,56.9735 78.8566,57.0545 C78.2586,58.0585 77.6686,59.0535 77.0876,60.0395 C76.4876,61.0765 75.9146,62.0485 75.3696,62.9585 C74.8236,63.8685 74.3326,64.6965 73.8956,65.4425 C73.4416,66.2065 73.0606,66.8415 72.7516,67.3515 C72.4436,67.8395 72.1726,68.2465 71.9376,68.5715 C71.7056,68.8945 71.4656,69.1685 71.2166,69.3995 C70.9526,69.6285 70.6596,69.8235 70.3406,69.9825 C70.0166,70.1625 69.6216,70.3425 69.1546,70.5215 C69.0316,70.5625 68.9016,70.6525 68.9436,70.8225 C68.9856,71.0325 69.1636,71.0245 69.2946,70.9585 C69.7456,70.7965 70.1536,70.6725 70.5316,70.5835 C70.9166,70.4905 71.2556,70.3995 71.5496,70.3085 C71.8466,70.2155 72.1066,70.1035 72.3336,69.9725 C72.5736,69.8525 72.7596,69.6735 72.8976,69.4365 C73.5546,68.3065 74.1646,67.1665 74.7296,66.0175 C75.2936,64.8725 75.9206,63.6555 76.6106,62.3655 C77.0836,61.4915 77.5566,60.6095 78.0296,59.7175 C78.4936,58.8605 78.9836,57.9955 79.5006,57.1215 L80.3746,56.9675 C80.6846,56.9125 81.0506,56.8395 81.4716,56.7485 C82.6816,56.4735 83.8386,56.0405 84.9396,55.4545 C85.3346,55.2405 85.7206,54.9885 86.0696,54.7545 C85.8096,55.3475 85.6776,55.9105 85.6766,56.4395 C85.6766,57.2815 86.1706,57.7035 87.0776,57.7035 C87.6026,57.7035 88.1456,57.5995 88.7026,57.3955 C89.2556,57.1745 89.7836,56.8965 90.2806,56.5645 C90.5726,56.3675 90.8486,56.1605 91.1116,55.9455 L90.7686,56.5455 C90.6406,56.7645 90.5626,56.9515 90.5616,57.0955 C90.5616,57.2065 90.6606,57.3245 90.7636,57.4275 C90.8306,57.4855 90.8906,57.5325 90.9346,57.5615 C90.9716,57.5865 91.0306,57.6225 91.0886,57.6225 C91.1956,57.6225 91.2906,57.5775 91.3506,57.4875 C91.6066,57.0845 91.8446,56.6905 92.0646,56.3065 C92.2816,55.9095 92.5086,55.5275 92.7436,55.1665 C92.9766,54.7875 93.2206,54.4355 93.4726,54.1115 C93.7416,53.7715 94.0466,53.4485 94.3876,53.1435 C94.5986,52.9495 94.8456,52.7735 95.1296,52.6135 C95.4096,52.4555 95.6536,52.3825 95.8636,52.3825 C96.0356,52.3825 96.1636,52.4105 96.2506,52.4535 C96.3676,52.5035 96.4416,52.5585 96.5026,52.6315 C96.5656,52.6785 96.5906,52.7155 96.6116,52.7665 C96.6526,52.8285 96.7196,52.9015 96.8186,52.9015 C96.9186,52.9015 96.9886,52.8215 97.0346,52.7505 C97.0666,52.6685 97.1366,52.5375 97.2446,52.3555 C97.3706,52.1775 97.4846,52.0275 97.6186,51.8285 C97.6186,51.6735 97.5176,51.5675 97.3766,51.4865 C97.2426,51.3745 97.0866,51.3285 96.9006,51.3285 C96.6596,51.3295 96.3876,51.3995 96.0876,51.5305 C95.8096,51.6605 95.5226,51.8265 95.2256,52.0305 C94.9306,52.2145 94.6466,52.4175 94.3696,52.6385 C94.2226,52.7655 94.0856,52.8865 93.9586,53.0035 C94.0336,52.8955 94.1006,52.7905 94.1636,52.6795 C94.2576,52.5295 94.3296,52.3945 94.3856,52.2635 C94.4576,52.1385 94.5076,52.0275 94.5076,51.9375 C94.5076,51.7315 94.4116,51.5665 94.2346,51.4565 C94.1576,51.4085 94.0946,51.3725 94.0466,51.3485 C94.0046,51.3275 93.9486,51.3015 93.8986,51.3015 C93.8126,51.3015 93.7526,51.3635 93.7166,51.4085 C93.6766,51.4605 93.6406,51.5265 93.6026,51.6115 C93.5116,51.7755 93.3686,52.0265 93.1696,52.3715 C92.9876,52.6975 92.7596,53.0895 92.4876,53.5435 C92.2816,53.9125 92.0546,54.3065 91.8126,54.7245 L91.5516,54.9925 C91.2096,55.3345 90.8336,55.6565 90.4196,55.9625 C90.0066,56.2505 89.5776,56.4905 89.1306,56.6875 C88.7066,56.8815 88.2956,56.9775 87.8966,56.9775 C87.2986,56.9775 87.0036,56.6685 87.0036,55.9765 C87.0036,55.6245 87.0566,55.2805 87.1626,54.9465 C87.2576,54.6295 87.3446,54.3935 87.4216,54.2375 C87.9656,54.2315 88.4476,54.1575 88.8636,54.0135 C89.3076,53.8465 89.6776,53.6485 89.9626,53.4195 C90.2446,53.1755 90.4556,52.9205 90.5916,52.6475 C90.7436,52.3815 90.8236,52.1285 90.8236,51.8825 C90.8236,51.7035 90.7586,51.5555 90.6216,51.4415 C90.4946,51.3145 90.2826,51.2745 90.0246,51.2735 C89.5206,51.2735 89.0166,51.4575 88.5116,51.8135 C88.2566,51.9835 88.0116,52.1775 87.7646,52.4065 C87.5416,52.6135 87.3276,52.8415 87.1226,53.0915 C87.0006,53.2395 86.8836,53.3925 86.7726,53.5485 C86.4916,53.8275 86.2026,54.0785 85.9056,54.3005 C85.2566,54.7695 84.6106,55.1465 83.9636,55.4335 C83.3166,55.7035 82.6896,55.9015 82.0786,56.0265 C81.7486,56.0865 81.4356,56.1385 81.1396,56.1825 C81.8026,55.8295 82.3756,55.4565 82.8576,55.0595 C83.4806,54.5465 83.9776,54.0495 84.3486,53.5675 C84.7346,53.0895 85.0046,52.6545 85.1566,52.2565 C85.3206,51.8745 85.4106,51.5745 85.4106,51.3665 C85.4096,51.0955 85.3466,50.8755 85.1816,50.7345 C85.0466,50.5995 84.8726,50.5395 84.6656,50.5395 C84.4556,50.5395 84.2386,50.6105 84.0086,50.7445 C83.7816,50.8585 83.5586,51.0075 83.3346,51.1945 C83.2236,51.2865 83.1126,51.3835 83.0026,51.4845 C83.2116,51.2005 83.4236,50.9325 83.6356,50.6775 C84.1246,50.0985 84.7416,49.4545 85.4836,48.7495 C85.5616,48.6715 85.6286,48.5775 85.6286,48.4735 C85.6286,48.3315 85.4976,48.3015 85.4286,48.3015 C85.3956,48.3015 85.3266,48.3145 85.2656,48.3285 C85.1686,48.3285 85.0616,48.3385 84.9456,48.3575 L84.6186,48.4125 C84.5206,48.4285 84.4416,48.4465 84.3866,48.4695 C84.2446,48.5105 84.1216,48.5785 84.0306,48.6695 C83.4096,49.4735 82.8016,50.3935 82.2156,51.4175 C81.8256,52.0995 81.4356,52.7665 81.0456,53.4165 C81.0056,53.4355 80.9706,53.4695 80.9476,53.5055 C80.5136,54.0475 80.0546,54.5595 79.5666,55.0485 C79.0976,55.5365 78.6356,55.9685 78.1846,56.3495 C77.7336,56.7095 77.3146,56.9945 76.9226,57.2095 C76.5306,57.4045 76.2056,57.4965 75.9396,57.4965 C75.6926,57.4965 75.5716,57.4475 75.5156,57.3795 C75.4586,57.2945 75.4296,57.1875 75.4296,57.0395 C75.4286,56.6495 75.6106,56.0325 75.9926,55.1795 C76.3856,54.3205 76.9916,53.1705 77.8076,51.7285 C77.9116,51.7315 78.0496,51.7395 78.2216,51.7535 C78.4366,51.7715 78.5896,51.7985 78.7226,51.8365 C78.8416,51.8365 78.9226,51.7565 78.9226,51.6365 C78.9226,51.5025 78.7976,51.4265 78.7016,51.3885 C78.6076,51.3705 78.4566,51.3485 78.2706,51.3295 L78.0536,51.3095 L78.1956,51.0695 C78.2816,50.9305 78.3666,50.8215 78.5656,50.6225 L78.3256,50.5025 L77.5066,50.7365 C77.4206,50.7795 77.3276,50.8465 77.2476,50.9265 C77.1706,51.0025 77.0936,51.1215 77.0136,51.2745 C76.2506,51.2875 75.5176,51.5115 74.8146,51.9455 C74.0956,52.3705 73.4506,52.8865 72.8786,53.4945 C72.3276,54.0825 71.8836,54.7015 71.5506,55.3495 C71.2196,55.9925 71.0466,56.5395 71.0466,56.9855 C71.0466,57.4325 71.2906,57.6765 71.7366,57.6755 C72.0186,57.6755 72.3306,57.5765 72.6676,57.3885 C73.0046,57.2015 73.3386,56.9595 73.6706,56.6645 C74.0016,56.3705 74.3236,56.0485 74.6926,55.6355 C74.6396,55.7555 74.5906,55.8745 74.5466,55.9915 C74.3996,56.4145 74.3216,56.7665 74.3216,57.0405 C74.3216,57.3355 74.4006,57.5895 74.5656,57.7965 C74.7436,58.0185 75.0416,58.1135 75.4216,58.1135 C75.8636,58.1125 76.3366,57.9795 76.8396,57.7185 C77.3576,57.4595 77.8736,57.1185 78.3886,56.6955 C78.9006,56.2735 79.4036,55.8075 79.8986,55.2945 L79.8986,55.2945 Z M75.2476,52.3305 C75.7376,51.9505 76.2536,51.7525 76.7796,51.7165 C76.5856,52.0575 76.3716,52.4395 76.1366,52.8625 C75.8656,53.3515 75.5856,53.8125 75.2956,54.2465 C75.0446,54.6225 74.7676,54.9715 74.4626,55.2955 C74.1556,55.6195 73.8586,55.9075 73.5696,56.1605 C73.3006,56.3945 73.0496,56.5815 72.8206,56.7235 C72.6016,56.8695 72.4626,56.9235 72.3626,56.9145 C72.3566,56.9065 72.3456,56.8825 72.3456,56.8225 C72.3456,56.5765 72.4626,56.1705 72.7176,55.5875 C72.9866,55.0145 73.3366,54.4395 73.7686,53.8635 C74.1996,53.2705 74.6926,52.7605 75.2476,52.3305 L75.2476,52.3305 Z" transform="translate(0 .503)"/>
    <path fill="#A1A7A9" d="M280.1235 15.2837L277.3265 32.7827 275.4225 32.7827 278.1975 15.4187C278.2395 15.1537 278.0435 14.9227 277.7745 14.9227L272.4565 14.9227 272.7085 13.3457 286.7385 13.3467 285.9475 14.9237 280.5455 14.9227C280.3455 14.9227 280.1545 15.0857 280.1235 15.2837M240.0791 14.9687C239.0011 13.8897 237.5141 13.3417 235.6631 13.3417L230.5991 13.3427 227.8851 32.7297 233.0111 32.7297C237.6951 32.7297 241.0041 29.1167 241.8641 23.0657 242.3541 19.4847 241.7201 16.6087 240.0791 14.9687L240.0791 14.9687zM229.9111 31.0667L232.1761 15.0057 235.6371 15.0057C236.8551 15.0057 237.8451 15.3757 238.5761 16.1067 239.8831 17.4147 240.3661 19.8647 239.9351 23.0037 239.2091 28.0527 236.7321 31.0667 233.3091 31.0667L229.9111 31.0667z"/>
    <polygon fill="#A1A7A9" points="246.807 13.342 244.093 32.73 245.894 32.73 248.608 13.343"/>
    <path fill="#A1A7A9" d="M257.7378,23.8955 L257.5158,25.5585 L261.1678,25.5585 L260.4118,30.9695 C259.3148,31.2085 258.4428,31.3385 257.1468,31.3375 C255.9558,31.3385 254.9738,30.9605 254.2288,30.2145 C252.8458,28.8325 252.3128,26.2265 252.7678,23.0665 C253.3218,19.0385 255.3598,14.7355 259.4198,14.7355 C260.9508,14.7355 262.4758,15.0105 263.8328,15.5315 L264.0948,15.6315 L264.3178,13.9635 L264.1568,13.8995 C262.7508,13.3425 261.2998,13.0725 259.7178,13.0725 C254.1738,13.0725 251.4958,18.2035 250.8388,23.0055 C250.3128,26.7035 250.9638,29.6795 252.6698,31.3865 C253.7408,32.4565 255.1928,32.9995 256.9848,33.0005 C258.7708,33.0005 260.3338,32.7375 261.9038,32.1745 L262.0298,32.1295 L263.1948,23.8955 L257.7378,23.8955 Z"/>
    <polygon fill="#A1A7A9" points="268.263 13.342 265.55 32.73 267.352 32.73 270.065 13.342"/>
    <path fill="#A1A7A9" d="M176.1953 30.6548C176.1843 30.7238 176.2323 30.7838 176.3033 30.7868L183.6173 31.1058 183.3573 32.7348 173.9503 32.7348 177.0473 13.3728 178.9593 13.3728 176.1953 30.6548zM199.7246 26.0088L201.7446 13.3728 203.6566 13.3728 201.6266 26.0648C201.2866 28.1888 200.4126 29.8448 199.0236 31.0598 197.5466 32.3658 195.5386 33.0398 192.9576 33.0398 190.5256 33.0398 188.8776 32.4318 187.8986 31.3108 186.9266 30.1978 186.5776 28.4268 186.9846 25.8858L188.9866 13.3728 190.8976 13.3728 188.9256 25.6978C188.6816 27.2228 188.8336 28.5178 189.4436 29.5428 190.1926 30.8518 191.5586 31.4548 193.4006 31.4548 197.0086 31.4548 199.1486 29.6058 199.7246 26.0088M206.6816 18.0527C206.9036 16.6687 207.5846 15.5217 208.7486 14.6007 209.9026 13.6887 211.3666 13.2197 213.1706 13.2207 214.7536 13.2207 216.0966 13.5017 217.2146 14.0497L216.9066 15.8557C215.6906 15.1357 214.3586 14.7747 212.9166 14.7747 211.8626 14.7747 210.9486 14.9887 210.1946 15.4437 209.3526 15.9517 208.8406 16.6947 208.6876 17.6517 208.4706 19.0087 209.2066 20.2027 210.6386 21.2237 211.9246 22.1227 213.1956 22.9987 214.4846 23.8767 215.7116 25.0297 216.1656 26.3697 215.9116 27.9627 215.6716 29.4597 214.8946 30.6727 213.5516 31.6147 212.2226 32.5617 210.6536 33.0407 208.8316 33.0407 206.9186 33.0407 205.2856 32.5777 203.9156 31.6667L204.9856 30.2197C206.1486 31.0877 207.5306 31.5167 209.1116 31.5167 210.1736 31.5177 211.1236 31.2797 211.9576 30.7897 212.9666 30.2297 213.5836 29.4197 213.7526 28.3647 213.9766 26.9577 213.2726 25.7217 211.8546 24.6717 210.6106 23.7947 209.3706 22.9337 208.1056 22.0577 206.8896 20.9437 206.4296 19.6277 206.6816 18.0527M170.1826 23.6167C168.7396 24.9277 166.8706 25.5957 164.5426 25.5957L163.1026 25.5947C163.0576 25.5947 162.9986 25.6437 162.9906 25.6877L161.6076 32.8567 159.6876 32.8567 162.7836 13.4687 166.9156 13.4687C168.9926 13.4687 170.4766 14.0137 171.4426 15.0307 172.3976 16.0157 172.7666 17.4267 172.4596 19.3467 172.1826 21.0787 171.4246 22.4957 170.1826 23.6167L170.1826 23.6167zM163.1006 23.9257C163.0886 23.9867 163.1316 24.0487 163.1936 24.0587L165.0986 24.0667C168.1196 24.0697 169.9176 22.5127 170.3976 19.5047 170.6036 18.2147 170.3726 17.1237 169.6296 16.2947 168.9016 15.4567 167.7516 15.0877 166.2826 15.0867L164.7816 15.0867C164.7356 15.0867 164.6786 15.1347 164.6696 15.1797L163.1006 23.9257zM304.3428 13.4018L301.2428 30.6218C301.1958 30.8878 301.3898 31.1198 301.6588 31.1198L308.6378 31.1198 308.3548 32.6878 299.0118 32.6878 302.4828 13.4018 304.3428 13.4018zM293.4561 27.4331L285.6651 27.4331C285.5311 27.4331 285.3581 27.5361 285.2941 27.6551L282.5741 32.6871 280.8601 32.6871 291.7491 13.3411 292.8981 13.3411 296.9391 32.6871 294.9001 32.6871 293.8701 27.7691C293.8301 27.5851 293.6441 27.4331 293.4561 27.4331M291.6361 16.4971C291.4871 16.4971 291.2891 16.5881 291.2181 16.7501 290.9451 17.3741 290.5371 18.1871 289.9941 19.1931L286.6651 25.3011C286.5011 25.6021 286.6941 25.9271 287.0361 25.9271L292.9621 25.9271C293.2291 25.9271 293.4231 25.6971 293.3801 25.4341L292.3661 19.3561C292.1971 18.2951 292.0941 17.4741 292.0581 16.8941 292.0451 16.6761 291.8541 16.4971 291.6361 16.4971"/>
  </g>
</svg>
