<svg xmlns="http://www.w3.org/2000/svg" viewBox="0 0 52 52">
  <g fill="#D31144" fill-rule="evenodd" transform="translate(0 -1)">
    <polygon points="8.301 19.711 12.206 19.711 12.206 17.976 8.301 17.976"/>
    <polygon points="12.767 30.347 15.587 27.961 14.466 26.637 11.646 29.023"/>
    <path d="M32.292,15.3735 C30.751,12.1715 27.484,9.9515 23.701,9.9515 C18.439,9.9515 14.159,14.2325 14.159,19.4945 C14.159,22.3945 15.454,25.1015 17.711,26.9185 L17.836,27.0195 C18.4,27.4695 19.255,28.1495 19.255,29.2515 L19.255,33.1555 L23.701,33.1555 L23.701,33.8595 L19.255,33.8595 L19.255,41.9925 L23.701,44.1495 L23.701,49.4685 C12.192,48.3735 3.158,38.6565 3.158,26.8655 C3.158,19.3245 6.857,12.6345 12.532,8.5025 L11.646,9.5505 L14.466,11.9355 L15.587,10.6115 L12.837,8.2855 C16.528,5.6895 21.021,4.1595 25.867,4.1595 C34.197,4.1595 41.49,8.6695 45.442,15.3735 L32.292,15.3735 Z M18.917,25.6625 L18.801,25.5695 C16.953,24.0815 15.894,21.8675 15.894,19.4945 C15.894,15.1885 19.396,11.6865 23.701,11.6865 C26.492,11.6865 28.938,13.1645 30.318,15.3735 L23.701,15.3735 L23.701,31.4205 L20.989,31.4205 L20.989,29.2515 C20.989,27.3125 19.59,26.1985 18.917,25.6625 L18.917,25.6625 Z M23.701,42.2205 L20.989,40.9055 L20.989,35.5945 L23.701,35.5945 L23.701,42.2205 Z M25.867,0.9995 C11.604,0.9995 0,12.6035 0,26.8655 C0,41.1295 11.604,52.7335 25.867,52.7335 C40.131,52.7335 51.735,41.1295 51.735,26.8655 C51.735,12.6035 40.131,0.9995 25.867,0.9995 L25.867,0.9995 Z"/>
  </g>
</svg>
