<svg xmlns="http://www.w3.org/2000/svg" width="51" height="55" viewBox="0 0 51 55">
  <g fill="#FFFFFF" fill-rule="evenodd">
    <path d="M25.200358 43.4797984L4.06158894 33.9998427 10.7997315 30.9461259 24.9414637 37.3261259C25.0226757 37.3368338 25.147201 37.3368338 25.200358 37.3368338 25.2540072 37.3368338 25.3785324 37.3368338 25.4597445 37.3261259L25.5055185 37.2818338 39.6009844 30.9451524 46.3376504 33.9993559 25.200358 43.4797984zM46.3376504 42.6309489L25.200358 52.1113913 4.06158894 42.6309489 10.7997315 39.5767453 24.9414637 45.9572321C25.0231679 45.96794 25.147201 45.96794 25.200358 45.96794 25.2540072 45.96794 25.3785324 45.96794 25.4597445 45.9572321L25.5055185 45.9124533 25.6659739 45.8409046 39.6009844 39.5767453 46.3376504 42.6309489zM4.05076066 25.3638692L25.200358 15.8790462 46.3489709 25.3638692 25.200358 34.8482055 4.05076066 25.3638692zM50.4007159 33.9949754C50.4007159 33.6518338 50.3101521 33.2566126 49.6358457 32.9236922L42.4183057 29.679179 49.6688227 26.4186037C50.3101521 26.1017453 50.4007159 25.7065241 50.4007159 25.3638692 50.4007159 25.0207276 50.3101521 24.6255064 49.6358457 24.292586L25.6659739 13.5184267C25.605434 13.4892232 25.4971512 13.4444444 25.2820622 13.4444444 25.0965049 13.4444444 24.8907676 13.4775418 24.6840459 13.5413029L.732385403 24.3076745C.0905637864 24.6255064 0 25.0207276 0 25.3638692 0 25.7065241.0905637864 26.1017453.76487024 26.4346657L7.98388684 29.679179.732385403 32.9387807C.0905637864 33.2566126 0 33.6518338 0 33.9949754 0 34.3371436.0905637864 34.7323648.765362434 35.0662586L7.98142587 38.3097984.732385403 41.5694002C.0905637864 41.8872321 0 42.28294 0 42.6260816 0 42.9857719.0925325644 43.3654179.765854629 43.698825L24.896674 54.5445329 24.9414637 54.5883382C25.0231679 54.5995329 25.147201 54.5995329 25.200358 54.5995329 25.2540072 54.5995329 25.3785324 54.5995329 25.4597445 54.5883382L25.5055185 54.5435595 25.6659739 54.4720108 49.6693149 43.6832498C50.3081834 43.3654179 50.4007159 42.9857719 50.4007159 42.6260816 50.4007159 42.2834267 50.3101521 41.8877188 49.6358457 41.5533382L42.4202744 38.3102852 49.6688227 35.0511701C50.3101521 34.7328515 50.4007159 34.3376303 50.4007159 33.9949754L50.4007159 33.9949754zM9.56571244 6.77930973L9.56571244 8.31152212C9.56374366 10.8546637 10.3881694 12.6633363 11.1860167 13.8173628 10.7253227 13.5608584 10.2990822 13.2644425 9.91172517 12.9315221 8.51192403 11.7263894 7.70964701 10.1352832 7.7111236 8.57143363L7.71752212 6.77930973C7.71752212 6.24829204 7.28045342 5.81607965 6.74396142 5.81607965L4.94892811 5.79661062 4.93268569 5.75621239 4.96320175 5.6880708 8.01579199 2.6689115C8.35245302 2.33550442 8.92733618 2.33550442 9.26645819 2.66939823L12.3200328 5.68855752 12.3505489 5.75767257 12.3239704 5.82435398 10.5402575 5.81607965C10.2838242 5.81607965 10.032805 5.91877876 9.85118524 6.09838053 9.66956548 6.27700885 9.56571244 6.52523894 9.56571244 6.77930973M4.97009247 7.7420531L5.76843194 7.74253982 5.76892413 8.30324779C5.76547877 8.39377876 5.7630178 8.48284956 5.7630178 8.56607965 5.76449438 10.6979381 6.81089987 12.8190885 8.63349607 14.3853717 10.4556001 15.9501947 12.8107507 16.8126726 15.2668012 16.813646 15.7516128 16.813646 16.1566889 16.469531 16.2295337 15.9954602 16.3023784 15.5209027 16.0188744 15.0736018 15.5542428 14.9300177 14.9124212 14.7363009 13.8640469 14.1249735 13.02141 13.0390885 12.0227473 11.7551062 11.515787 10.1644867 11.5138182 8.31152212L11.5138182 7.74302655 12.3220016 7.74302655C12.8767048 7.74302655 13.4063061 7.51572566 13.7734831 7.1200177 14.1239256 6.74718584 14.3173581 6.26240708 14.3188346 5.75475221 14.3227722 5.23687611 14.1076832 4.72776106 13.7296778 4.35833628L10.6436184 1.30656637C10.1090952.777495575 9.39885851.486433628 8.63694143.486433628 7.89323556.486433628 7.16429552.785769912 6.63764741 1.3070531L3.55454112 4.35590265C3.17505916 4.72727434 2.95997017 5.23638938 2.96390773 5.75183186 2.96439992 6.25997345 3.15832455 6.74523894 3.50827483 7.11758407 3.8774207 7.51426549 4.40751417 7.7420531 4.97009247 7.7420531"/>
  </g>
</svg>
