<svg xmlns="http://www.w3.org/2000/svg" viewBox="0 0 54 54">
  <g fill="#D31144" fill-rule="evenodd">
    <path d="M24.3306,23.648 L24.3306,43.915 L26.2586,43.915 L26.2586,35.228 L33.3256,35.228 C34.2366,35.228 35.0606,35.106 35.7976,34.861 C36.5346,34.595 37.1676,34.216 37.7016,33.725 C38.2286,33.213 38.6356,32.598 38.9166,31.88 C39.2066,31.159 39.3466,30.347 39.3466,29.44 C39.3466,28.531 39.2066,27.716 38.9166,26.997 C38.6356,26.279 38.2286,25.672 37.7016,25.18 C37.1676,24.67 36.5346,24.29 35.7976,24.045 C35.0606,23.781 34.2366,23.648 33.3256,23.648 L24.3306,23.648 Z M26.2586,33.585 L26.2586,25.295 L32.9006,25.295 C34.2466,25.295 35.3336,25.634 36.1666,26.316 C36.9986,26.997 37.4146,28.037 37.4146,29.44 C37.4146,30.838 36.9986,31.88 36.1666,32.559 C35.3336,33.242 34.2466,33.585 32.9006,33.585 L26.2586,33.585 Z"/>
    <path d="M26.8042,50.4424 C22.9102,50.4424 19.2372,49.4904 15.9942,47.8164 L15.9942,15.7654 L47.7032,15.7654 C49.4512,19.0614 50.4462,22.8164 50.4462,26.7994 C50.4462,39.8364 39.8402,50.4424 26.8042,50.4424 L26.8042,50.4424 Z M14.1922,46.7834 C7.5692,42.5894 3.1592,35.2024 3.1592,26.7994 C3.1592,13.7644 13.7662,3.1594 26.8042,3.1594 C35.1102,3.1594 42.4232,7.4674 46.6412,13.9634 L14.1922,13.9634 L14.1922,46.7834 Z M26.8042,0.0004 C12.0242,0.0004 0.0002,12.0224 0.0002,26.7994 C0.0002,41.5784 12.0242,53.6014 26.8042,53.6014 C41.5822,53.6014 53.6052,41.5784 53.6052,26.7994 C53.6052,12.0224 41.5822,0.0004 26.8042,0.0004 L26.8042,0.0004 Z"/>
  </g>
</svg>
