<svg xmlns="http://www.w3.org/2000/svg" xmlns:xlink="http://www.w3.org/1999/xlink" width="314" height="71" viewBox="0 0 314 71">
  <defs>
    <polygon id="path-1" points="14.25 .016 14.25 19.274 .101 19.274 .101 .016 14.25 .016"/>
    <polygon id="path-3" points="152.532 .734 0 .734 0 71 152.532 71 152.532 .734"/>
  </defs>
  <g fill="none" fill-rule="evenodd" transform="translate(0 -1)">
    <path fill="#A1A7A9" d="M228.9941 16.9609C227.4061 18.4589 226.4221 20.4629 226.0271 22.9389 225.6331 25.4079 225.9681 27.4499 227.1121 28.9959 228.2841 30.5499 230.0511 31.3019 232.3271 31.3029 234.6061 31.3029 236.5531 30.5539 238.1451 29.0529 239.7541 27.5549 240.7461 25.5519 241.1421 23.0749 241.5271 20.6639 241.2001 18.6499 240.0851 17.0879 238.9581 15.4809 237.1791 14.7109 234.8431 14.7109 232.5641 14.7109 230.6051 15.4609 228.9941 16.9609M241.9231 16.0879C243.2271 17.8669 243.6831 20.1259 243.2391 22.9099 242.7561 25.9279 241.4141 28.3569 239.2151 30.2199 237.1541 31.9629 234.7381 32.8339 231.9471 32.8339 229.2501 32.8329 227.2081 32.0299 225.7631 30.4679 224.0861 28.6529 223.4631 26.2219 223.9611 23.1029 224.4351 20.1429 225.7221 17.7519 227.8191 15.9109 229.9421 14.0469 232.4061 13.1179 235.2321 13.1189 238.3041 13.1189 240.5051 14.1279 241.9231 16.0879M250.2817 15.1992L249.2727 21.5142C249.2307 21.7772 249.4257 22.0062 249.6917 22.0062L255.8147 22.0062 255.5697 23.5372 249.3107 23.5372C249.1127 23.5372 248.9237 23.6982 248.8927 23.8942L247.5117 32.5372 245.6557 32.5372 248.7317 13.2792 257.9717 13.2802 257.1287 14.8432 250.7007 14.8422C250.5027 14.8422 250.3127 15.0032 250.2817 15.1992M263.8071 15.2007L262.7981 21.5167C262.7561 21.7787 262.9501 22.0077 263.2171 22.0077L269.3401 22.0087 269.0951 23.5397 262.8361 23.5387C262.6381 23.5387 262.4491 23.6997 262.4181 23.8957L261.0361 32.5387 259.1801 32.5387 262.2571 13.2817 271.4971 13.2827 270.6541 14.8447 264.2261 14.8437C264.0281 14.8437 263.8381 15.0047 263.8071 15.2007M270.8247 31.4897L271.8617 30.0877C273.0217 30.9467 274.3977 31.3707 275.9717 31.3717 277.0347 31.3717 277.9847 31.1347 278.8217 30.6447 279.8347 30.0817 280.4527 29.2697 280.6227 28.2077 280.8487 26.7937 280.1377 25.5517 278.7207 24.5017 277.4837 23.6317 276.2537 22.7787 274.9987 21.9087 273.8017 20.8047 273.3217 19.4777 273.5707 17.9247 273.7897 16.5507 274.4667 15.4127 275.6207 14.4987 276.7677 13.5927 278.2217 13.1267 280.0157 13.1267 281.5827 13.1267 282.9137 13.4047 284.0207 13.9437L283.7227 15.6917C282.5157 14.9827 281.1927 14.6277 279.7627 14.6277 278.7087 14.6277 277.7927 14.8427 277.0367 15.2987 276.1897 15.8087 275.6757 16.5557 275.5217 17.5167 275.3037 18.8837 276.0457 20.0827 277.4777 21.1037 278.7597 21.9997 280.0447 22.8867 281.3297 23.7627 282.5237 24.9007 282.9767 26.2357 282.7267 27.7997 282.4897 29.2847 281.7187 30.4897 280.3847 31.4257 279.0637 32.3647 277.5057 32.8417 275.6927 32.8417 273.7987 32.8417 272.1817 32.3857 270.8247 31.4897M297.729 13.2788L296.906 14.8408 290.481 14.8398C290.282 14.8398 290.093 15.0018 290.062 15.1968L289.067 21.4208C289.026 21.6838 289.22 21.9128 289.487 21.9128L295.609 21.9128 295.364 23.4448 289.105 23.4438C288.907 23.4438 288.719 23.6048 288.687 23.8008L287.619 30.4828C287.577 30.7448 287.772 30.9738 288.038 30.9738L295.168 30.9748 294.919 32.5368 285.434 32.5348 288.512 13.2778 297.729 13.2788z"/>
    <g transform="translate(299 13.266)">
      <mask id="mask-2" fill="white">
        <use xlink:href="#path-1"/>
      </mask>
      <path fill="#A1A7A9" d="M7.6968,1.936 L4.9258,19.274 L3.0398,19.274 L5.7888,2.07 C5.8308,1.807 5.6358,1.579 5.3698,1.579 L0.1008,1.578 L0.3508,0.016 L14.2508,0.017 L13.4678,1.58 L8.1148,1.579 C7.9168,1.579 7.7288,1.74 7.6968,1.936" mask="url(#mask-2)"/>
    </g>
    <path fill="#A1A7A9" d="M162.6909 23.6328C162.6799 23.6938 162.7229 23.7568 162.7849 23.7668L164.6849 23.7748C167.6989 23.7768 169.4939 22.2228 169.9739 19.2208 170.1789 17.9348 169.9479 16.8468 169.2069 16.0188 168.4799 15.1818 167.3319 14.8138 165.8669 14.8138L164.3699 14.8128C164.3239 14.8128 164.2659 14.8608 164.2569 14.9068L162.6909 23.6328zM169.7579 23.3248C168.3189 24.6328 166.4539 25.2998 164.1309 25.2998L162.6939 25.2988C162.6479 25.2988 162.5909 25.3468 162.5819 25.3918L161.2009 32.5448 159.2839 32.5448 162.3759 13.1988 166.4979 13.1988C168.5719 13.1988 170.0519 13.7428 171.0149 14.7578 171.9689 15.7408 172.3369 17.1488 172.0309 19.0648 171.7549 20.7928 170.9969 22.2068 169.7579 23.3248L169.7579 23.3248zM175.9438 30.4687C175.9328 30.5387 175.9808 30.5977 176.0508 30.6007L183.3608 30.9217 183.1018 32.5477 173.7008 32.5467 176.7928 13.2007 178.7028 13.2007 175.9438 30.4687zM199.4517 25.8291L201.4697 13.2031 203.3797 13.2031 201.3527 25.8861C201.0137 28.0081 200.1407 29.6621 198.7527 30.8761 197.2777 32.1811 195.2717 32.8541 192.6927 32.8541 190.2637 32.8541 188.6147 32.2461 187.6377 31.1261 186.6667 30.0141 186.3177 28.2441 186.7237 25.7051L188.7227 13.2021 190.6317 13.2021 188.6637 25.5171C188.4197 27.0411 188.5707 28.3351 189.1807 29.3601 189.9297 30.6671 191.2947 31.2701 193.1357 31.2711 196.7397 31.2711 198.8777 29.4231 199.4517 25.8291M206.4028 17.8804C206.6248 16.4964 207.3058 15.3514 208.4668 14.4324 209.6208 13.5194 211.0838 13.0514 212.8858 13.0514 214.4668 13.0524 215.8098 13.3334 216.9278 13.8814L216.6188 15.6864C215.4038 14.9654 214.0718 14.6054 212.6318 14.6054 211.5788 14.6054 210.6668 14.8194 209.9128 15.2734 209.0708 15.7804 208.5598 16.5234 208.4078 17.4794 208.1898 18.8354 208.9258 20.0284 210.3568 21.0494 211.6408 21.9464 212.9118 22.8224 214.1998 23.6994 215.4258 24.8524 215.8798 26.1914 215.6268 27.7834 215.3878 29.2784 214.6108 30.4914 213.2698 31.4324 211.9408 32.3774 210.3748 32.8564 208.5538 32.8564 206.6418 32.8554 205.0088 32.3934 203.6408 31.4824L204.7098 30.0374C205.8718 30.9054 207.2528 31.3334 208.8328 31.3334 209.8938 31.3334 210.8428 31.0974 211.6768 30.6084 212.6858 30.0484 213.2998 29.2394 213.4688 28.1844 213.6938 26.7794 212.9898 25.5434 211.5738 24.4944 210.3288 23.6184 209.0898 22.7574 207.8258 21.8824 206.6108 20.7684 206.1508 19.4544 206.4028 17.8804"/>
    <g transform="translate(0 .266)">
      <mask id="mask-4" fill="white">
        <use xlink:href="#path-3"/>
      </mask>
      <path fill="#B21C45" d="M99.6904,2.3325 L98.1214,6.1365 C96.2844,5.2725 93.8194,4.6245 91.0414,4.6245 C87.0054,4.6245 84.9924,6.2255 84.9924,8.4255 C84.9924,10.4115 85.9324,11.7505 90.1904,13.4785 L93.4164,14.8615 C98.3464,16.8925 100.4534,19.5275 100.4534,23.7625 C100.4534,29.0765 95.2544,32.7075 88.6654,32.7075 C84.6784,32.7075 81.1364,32.0155 78.1794,30.6765 L79.7934,26.8285 C82.3474,28.0815 85.3054,28.8155 88.3974,28.8155 C92.3434,28.8155 94.5794,26.9565 94.5794,24.6705 C94.5794,22.2515 93.5054,20.8255 89.5164,19.2275 L85.7074,17.6725 C81.3604,15.7705 79.2094,13.0485 79.2094,9.1595 C79.2094,4.6235 83.8704,0.7335 90.7274,0.7335 C94.4484,0.7335 97.1354,1.1655 99.6904,2.3325 L99.6904,2.3325 Z M137.3684,16.2025 C137.3684,12.3455 137.2164,9.7935 137.2164,5.2385 C137.2164,5.1695 137.1504,5.1045 137.0794,5.1015 C137.0794,5.1015 135.3054,5.0395 133.2924,5.0085 C131.3774,4.9785 129.2454,4.9775 128.2124,5.0815 L128.1574,1.0635 L152.5314,1.0635 L152.5324,5.0865 C149.6804,4.8635 143.4604,5.1015 143.4604,5.1015 C143.3964,5.1045 143.3294,5.1665 143.3244,5.2275 C142.9674,9.5985 142.9594,12.2435 142.9594,16.2025 C142.9594,22.4185 143.0034,26.2295 143.2614,32.2535 L137.0234,32.2535 C137.3244,26.2305 137.3684,22.4175 137.3684,16.2025 L137.3684,16.2025 Z M121.9924,17.7425 C118.7954,17.7055 114.8664,17.7335 111.0534,17.7445 C110.9784,17.7445 110.9124,17.8085 110.9124,17.8815 L110.9124,27.7545 C110.9124,27.8125 110.9734,27.8805 111.0324,27.8895 C113.5494,28.2625 122.3344,27.9885 124.2894,27.8985 L124.2894,32.2535 L106.0034,32.2535 C106.0524,30.4065 106.2764,21.7015 106.2764,16.5095 C106.2764,10.3225 106.2334,7.0175 106.0204,1.0635 L124.2894,1.0635 L124.2894,5.0945 C121.4774,4.9655 115.3434,5.1025 111.0544,5.1015 C110.9844,5.1015 110.9164,5.1635 110.9124,5.2305 C110.6994,8.8255 110.9184,10.5245 110.9124,13.2125 C110.9124,13.2745 110.9744,13.3415 111.0394,13.3485 C113.3524,13.5865 120.2754,13.4405 121.9924,13.3575 L121.9924,17.7425 Z M54.0304,18.8415 C53.9824,18.9475 54.0394,19.0335 54.1604,19.0335 L63.5484,19.0335 C63.6574,19.0335 63.7164,18.9545 63.6834,18.8545 L59.6734,6.9695 C59.6224,6.8205 59.4734,6.8125 59.4084,6.9575 L54.0304,18.8415 Z M65.8964,23.5785 C65.8824,23.5395 65.8064,23.4885 65.7634,23.4885 L52.6684,23.4885 C52.6354,23.4885 52.5574,23.5355 52.5414,23.5645 C50.9224,26.7015 49.2294,29.9305 48.0614,32.2955 L42.9484,32.2955 C46.4304,25.6745 53.4764,10.3195 57.2344,0.8715 L62.7444,0.8715 C66.2324,10.8105 71.1464,23.0445 75.6744,32.2955 L69.1614,32.2955 C68.0154,29.3935 66.9094,26.2385 65.8964,23.5785 L65.8964,23.5785 Z M18.6734,0.8715 C24.3574,8.3295 34.3744,22.8465 34.3744,22.8465 C34.4704,22.9855 34.6304,22.9415 34.6344,22.7745 C34.8434,15.3025 34.2424,2.7415 34.1504,0.8715 L40.0564,0.8715 C40.0154,2.4235 39.7824,11.4585 39.7824,17.2075 C39.7824,22.4975 40.1744,30.7985 40.2474,32.2955 L34.5314,32.2955 C29.0214,24.2175 17.9044,8.8045 17.9044,8.8045 C17.8074,8.6705 17.6544,8.7125 17.6454,8.8755 C17.1784,17.9205 17.2274,24.7395 17.7194,32.2955 L12.2694,32.2955 C12.4884,26.6795 12.6274,22.8655 12.6274,17.1145 C12.6274,11.3695 12.3224,2.4215 12.2684,0.8715 L18.6734,0.8715 Z M6.2334,32.2955 L0.2944,32.2955 C0.5144,26.6075 0.6634,19.9075 0.6634,14.1655 C0.6634,7.9475 0.6134,6.8755 0.2984,0.8715 L6.2324,0.8715 C5.8684,6.9195 5.8374,7.9465 5.8064,14.1645 C5.7804,19.1705 5.9144,26.5665 6.2334,32.2955 L6.2334,32.2955 Z M67.9704,45.8935 C67.3774,45.9105 66.8124,45.9555 66.2534,46.0275 C65.7044,46.1005 65.1374,46.1375 64.5514,46.1375 C64.2074,46.1375 63.9174,46.0355 63.9174,45.7205 C63.9174,45.6585 63.9564,45.5405 64.0074,45.4045 C64.0454,45.3195 64.0854,45.2445 64.1254,45.1935 C64.1614,45.1475 64.2214,45.0865 64.3064,45.0865 C64.3724,45.0865 64.4184,45.1215 64.4484,45.1625 C64.4774,45.2015 64.4934,45.2495 64.5024,45.2875 C64.5034,45.2935 64.5324,45.3505 64.7374,45.3885 C64.8964,45.4235 65.0884,45.4505 65.3174,45.4675 L65.9934,45.4675 C66.5354,45.4675 67.0854,45.4495 67.6454,45.4135 C68.2054,45.3775 68.7304,45.3315 69.2184,45.2775 C69.7264,45.2235 70.1724,45.1775 70.5534,45.1415 C70.9574,45.1045 71.2694,45.0865 71.4894,45.0865 C71.8954,45.0865 72.3004,45.1235 72.7064,45.1975 C73.1374,45.2725 73.5194,45.4115 73.8594,45.6185 C74.2224,45.8105 74.5044,46.0735 74.7164,46.4185 C74.9504,46.7505 75.0614,47.1625 75.0614,47.6525 C75.0614,48.1485 74.9094,48.6655 74.6124,49.2045 C74.3324,49.7445 73.9244,50.2545 73.3894,50.7335 C72.8524,51.1965 72.1954,51.5845 71.4234,51.8965 C70.6634,52.1935 69.7954,52.3405 68.8224,52.3405 C68.3584,52.3405 67.9474,52.2755 67.5874,52.1435 C67.4874,52.1105 67.4274,52.0315 67.4274,51.9245 C67.4274,51.7865 67.5154,51.6975 67.6534,51.6975 C67.7734,51.7375 67.9254,51.7715 68.1604,51.8085 C68.4084,51.8435 68.6374,51.8615 68.8504,51.8615 C69.5234,51.8615 70.1414,51.7275 70.7054,51.4635 C71.2914,51.1975 71.7884,50.8505 72.1944,50.4275 C72.6194,50.0015 72.9484,49.5215 73.1784,48.9915 C73.4254,48.4615 73.5484,47.9325 73.5484,47.4075 C73.5484,46.6685 73.3204,46.2015 72.8994,45.9575 C72.4674,45.6985 71.9354,45.5655 71.2984,45.5655 C70.8534,45.5655 70.4574,45.6095 70.1054,45.6975 C69.9024,45.7605 69.7454,45.8945 69.6314,46.1055 C69.2694,46.6855 68.8514,47.3855 68.3804,48.2005 L66.9384,50.7035 C66.4494,51.5555 65.9774,52.3895 65.5244,53.2045 C65.0714,54.0205 64.6914,54.7255 64.3844,55.3235 C64.1874,55.7165 64.0974,56.0225 64.0974,56.2495 C64.0974,56.5535 64.2174,56.7545 64.4654,56.8785 C64.7324,56.9955 65.1454,57.0575 65.7214,57.0575 C65.8244,57.0575 65.9114,57.0645 65.9764,57.0825 C66.0254,57.0955 66.1374,57.1375 66.1374,57.2565 C66.1374,57.4035 66.0034,57.4615 65.9054,57.4805 C65.5764,57.5355 65.2004,57.5815 64.7794,57.6175 C64.3764,57.6545 63.9744,57.6725 63.5724,57.6725 C63.4774,57.6725 63.3544,57.6635 63.2044,57.6445 C63.0494,57.6255 62.9014,57.5885 62.7484,57.5315 C62.5924,57.4925 62.4534,57.4305 62.3324,57.3495 C62.1964,57.2365 62.1214,57.0825 62.1214,56.9025 C62.1214,56.7685 62.1764,56.5855 62.2674,56.3665 C62.5224,55.8005 62.8614,55.1605 63.2804,54.4495 C63.6974,53.7415 64.0974,53.0705 64.4784,52.4355 C64.9314,51.6735 65.4204,50.8315 65.9454,49.9075 C66.4714,48.9655 66.9364,48.1175 67.3344,47.3745 C67.3694,47.3225 67.4244,47.2225 67.4934,47.0835 C67.5654,46.9395 67.6374,46.7865 67.7094,46.6255 C67.7804,46.4645 67.8424,46.3145 67.8964,46.1715 C67.9474,46.0185 67.9674,45.9325 67.9704,45.8935 L67.9704,45.8935 Z M83.5954,51.6515 C83.5404,51.6515 83.4274,51.6905 83.2464,51.7985 C83.0914,51.8845 82.9034,52.0185 82.6884,52.1975 C82.4774,52.3555 82.2544,52.5615 82.0224,52.8115 C81.7894,53.0615 81.5664,53.3385 81.3514,53.6425 C81.0454,54.0745 80.7474,54.5445 80.4594,55.0485 C80.2164,55.4585 79.9734,55.8815 79.7304,56.3165 C80.2134,56.1545 80.6724,55.9155 81.1064,55.6015 C81.6434,55.2255 82.1094,54.8125 82.5014,54.3665 C82.9144,53.9195 83.2354,53.4825 83.4644,53.0575 C83.6974,52.6105 83.8054,52.2505 83.8054,51.9695 C83.8054,51.9145 83.7884,51.8285 83.7544,51.7255 C83.7504,51.7005 83.7344,51.6515 83.5954,51.6515 L83.5954,51.6515 Z M87.6054,53.8365 C88.1014,53.8365 88.5354,53.6675 88.9124,53.3235 C89.2914,52.9625 89.4744,52.5495 89.4744,52.0765 C89.4744,51.9055 89.4084,51.8405 89.2374,51.8405 C89.0884,51.8405 88.9214,51.8995 88.7344,52.0355 C88.5634,52.1555 88.3884,52.3205 88.2124,52.5325 C88.0334,52.7465 87.8644,52.9785 87.7044,53.2285 C87.5714,53.4335 87.4574,53.6335 87.3614,53.8265 L87.6054,53.8365 Z M78.1534,56.7375 C77.6394,57.1595 77.1254,57.4995 76.6084,57.7575 C76.1074,58.0175 75.6364,58.1515 75.1954,58.1515 C74.8174,58.1515 74.5194,58.0575 74.3414,57.8355 C74.1774,57.6295 74.0984,57.3765 74.0984,57.0825 C74.0984,56.8095 74.1764,56.4575 74.3234,56.0355 C74.3664,55.9195 74.4154,55.8015 74.4694,55.6825 C74.1004,56.0935 73.7794,56.4145 73.4504,56.7075 C73.1184,57.0025 72.7844,57.2435 72.4494,57.4295 C72.1134,57.6165 71.8034,57.7165 71.5224,57.7165 C71.0764,57.7165 70.8334,57.4735 70.8334,57.0275 C70.8334,56.5835 71.0064,56.0375 71.3364,55.3965 C71.6684,54.7505 72.1104,54.1345 72.6614,53.5465 C73.2304,52.9405 73.8734,52.4255 74.5904,52.0035 C75.2924,51.5715 76.0234,51.3475 76.7824,51.3345 C76.8624,51.1815 76.9404,51.0625 77.0164,50.9875 C77.0964,50.9075 77.1884,50.8405 77.2744,50.7975 L78.0904,50.5635 L78.3314,50.6835 C78.1324,50.8825 78.0484,50.9915 77.9614,51.1305 L77.8194,51.3695 L78.0364,51.3885 C78.2224,51.4065 78.3724,51.4285 78.4664,51.4475 C78.5614,51.4855 78.6854,51.5615 78.6854,51.6955 C78.6854,51.8145 78.6064,51.8945 78.4874,51.8945 C78.3544,51.8565 78.2024,51.8305 77.9874,51.8125 C77.8154,51.7985 77.6784,51.7895 77.5754,51.7865 C76.7604,53.2235 76.1564,54.3695 75.7644,55.2265 C75.3844,56.0775 75.2034,56.6925 75.2034,57.0825 C75.2034,57.2285 75.2324,57.3355 75.2894,57.4205 C75.3444,57.4875 75.4664,57.5365 75.7124,57.5365 C75.9774,57.5365 76.3014,57.4455 76.6914,57.2505 C77.0834,57.0365 77.5004,56.7525 77.9504,56.3935 C78.4004,56.0145 78.8594,55.5825 79.3284,55.0955 C79.8154,54.6095 80.2724,54.0995 80.7054,53.5585 C80.7284,53.5225 80.7624,53.4885 80.8034,53.4695 C81.1924,52.8215 81.5814,52.1565 81.9704,51.4765 C82.5544,50.4555 83.1604,49.5385 83.7794,48.7365 C83.8704,48.6465 83.9934,48.5785 84.1344,48.5375 C84.1884,48.5145 84.2684,48.4965 84.3654,48.4805 L84.6924,48.4265 C84.8074,48.4065 84.9144,48.3975 85.0104,48.3975 C85.0724,48.3825 85.1404,48.3705 85.1734,48.3705 C85.2424,48.3705 85.3724,48.3995 85.3724,48.5415 C85.3724,48.6455 85.3054,48.7395 85.2284,48.8165 C84.4884,49.5195 83.8734,50.1615 83.3864,50.7395 C83.1734,50.9925 82.9624,51.2605 82.7544,51.5435 C82.8644,51.4425 82.9754,51.3455 83.0854,51.2535 C83.3084,51.0675 83.5304,50.9185 83.7574,50.8055 C83.9864,50.6715 84.2034,50.6015 84.4124,50.6015 C84.6184,50.6015 84.7914,50.6605 84.9264,50.7955 C85.0914,50.9365 85.1544,51.1555 85.1544,51.4255 C85.1544,51.6335 85.0654,51.9315 84.9014,52.3125 C84.7504,52.7095 84.4804,53.1435 84.0954,53.6205 C83.7264,54.1005 83.2304,54.5955 82.6094,55.1075 C82.1284,55.5025 81.5574,55.8755 80.8964,56.2265 C81.1924,56.1825 81.5034,56.1315 81.8324,56.0715 C82.4414,55.9455 83.0674,55.7495 83.7124,55.4805 C84.3574,55.1935 85.0014,54.8185 85.6484,54.3515 C85.9444,54.1285 86.2324,53.8795 86.5134,53.6005 C86.6234,53.4455 86.7394,53.2935 86.8624,53.1445 C87.0664,52.8955 87.2794,52.6685 87.5014,52.4615 C87.7484,52.2335 87.9924,52.0405 88.2464,51.8715 C88.7504,51.5165 89.2534,51.3335 89.7544,51.3335 C90.0124,51.3335 90.2244,51.3735 90.3504,51.5005 C90.4874,51.6145 90.5524,51.7625 90.5524,51.9405 C90.5524,52.1845 90.4724,52.4375 90.3204,52.7035 C90.1844,52.9735 89.9744,53.2295 89.6934,53.4725 C89.4094,53.6995 89.0404,53.8975 88.5974,54.0635 C88.1824,54.2085 87.7024,54.2825 87.1594,54.2885 C87.0824,54.4435 86.9964,54.6775 86.9014,54.9945 C86.7964,55.3275 86.7434,55.6705 86.7434,56.0215 C86.7434,56.7115 87.0374,57.0195 87.6324,57.0195 C88.0304,57.0195 88.4404,56.9245 88.8634,56.7305 C89.3094,56.5345 89.7374,56.2935 90.1484,56.0075 C90.5614,55.7025 90.9364,55.3815 91.2774,55.0405 L91.5374,54.7735 C91.7794,54.3565 92.0044,53.9635 92.2104,53.5955 C92.4814,53.1435 92.7094,52.7525 92.8904,52.4265 C93.0894,52.0825 93.2324,51.8335 93.3224,51.6705 C93.3604,51.5855 93.3974,51.5185 93.4364,51.4675 C93.4724,51.4215 93.5324,51.3605 93.6174,51.3605 C93.6684,51.3605 93.7234,51.3865 93.7654,51.4065 C93.8134,51.4315 93.8754,51.4665 93.9524,51.5145 C94.1294,51.6255 94.2244,51.7885 94.2244,51.9945 C94.2244,52.0845 94.1744,52.1945 94.1034,52.3185 C94.0474,52.4505 93.9754,52.5845 93.8814,52.7355 C93.8184,52.8445 93.7524,52.9495 93.6774,53.0585 C93.8044,52.9405 93.9404,52.8195 94.0874,52.6935 C94.3624,52.4735 94.6474,52.2715 94.9414,52.0875 C95.2374,51.8835 95.5234,51.7185 95.8004,51.5885 C96.0994,51.4575 96.3714,51.3875 96.6104,51.3875 C96.7964,51.3875 96.9524,51.4335 97.0854,51.5455 C97.2254,51.6255 97.3264,51.7325 97.3264,51.8855 C97.1934,52.0845 97.0794,52.2325 96.9534,52.4125 C96.8454,52.5935 96.7764,52.7235 96.7444,52.8045 C96.6984,52.8765 96.6294,52.9555 96.5294,52.9555 C96.4304,52.9555 96.3634,52.8835 96.3224,52.8215 C96.3024,52.7705 96.2754,52.7335 96.2134,52.6865 C96.1534,52.6135 96.0794,52.5595 95.9624,52.5095 C95.8764,52.4655 95.7484,52.4385 95.5764,52.4385 C95.3674,52.4385 95.1244,52.5115 94.8454,52.6685 C94.5624,52.8275 94.3154,53.0045 94.1044,53.1975 C93.7654,53.5015 93.4604,53.8235 93.1934,54.1615 C92.9414,54.4855 92.6994,54.8365 92.4654,55.2135 C92.2314,55.5735 92.0044,55.9545 91.7884,56.3505 C91.5704,56.7325 91.3324,57.1265 91.0774,57.5275 C91.0164,57.6175 90.9224,57.6615 90.8154,57.6615 C90.7574,57.6615 90.6994,57.6265 90.6624,57.6015 C90.6184,57.5725 90.5594,57.5255 90.4914,57.4675 C90.3894,57.3655 90.2904,57.2475 90.2904,57.1365 C90.2904,56.9935 90.3694,56.8065 90.4964,56.5885 L90.8384,55.9905 C90.5774,56.2055 90.3014,56.4115 90.0104,56.6085 C89.5144,56.9395 88.9874,57.2155 88.4364,57.4365 C87.8804,57.6405 87.3394,57.7435 86.8164,57.7435 C85.9114,57.7435 85.4204,57.3225 85.4204,56.4835 C85.4204,55.9565 85.5524,55.3945 85.8114,54.8035 C85.4644,55.0365 85.0794,55.2875 84.6844,55.5015 C83.5874,56.0865 82.4344,56.5165 81.2264,56.7905 C80.8074,56.8815 80.4434,56.9545 80.1334,57.0095 L79.2614,57.1635 C78.7464,58.0345 78.2574,58.8975 77.7954,59.7515 C77.3234,60.6405 76.8524,61.5195 76.3804,62.3905 C75.6924,63.6775 75.0664,64.8915 74.5054,66.0325 C73.9414,67.1775 73.3324,68.3135 72.6784,69.4405 C72.5404,69.6775 72.3544,69.8555 72.1164,69.9745 C71.8894,70.1065 71.6304,70.2165 71.3334,70.3095 C71.0404,70.4005 70.7024,70.4925 70.3194,70.5835 C69.9424,70.6735 69.5354,70.7965 69.0864,70.9585 C68.9544,71.0245 68.7774,71.0325 68.7354,70.8225 C68.6934,70.6535 68.8234,70.5635 68.9464,70.5225 C69.4124,70.3435 69.8064,70.1645 70.1284,69.9855 C70.4464,69.8265 70.7384,69.6325 71.0024,69.4035 C71.2504,69.1735 71.4884,68.8995 71.7204,68.5785 C71.9554,68.2535 72.2254,67.8485 72.5324,67.3615 C72.8404,66.8535 73.2204,66.2205 73.6734,65.4585 C74.1094,64.7145 74.5984,63.8895 75.1434,62.9825 C75.6864,62.0755 76.2584,61.1055 76.8564,60.0725 C77.4354,59.0885 78.0234,58.0965 78.6204,57.0965 C78.5324,57.0155 78.4994,56.8925 78.4994,56.7575 C78.4994,56.5905 78.5984,56.4795 78.7624,56.4515 C78.8594,56.4385 78.9404,56.4235 79.0054,56.4105 L79.6594,55.3415 C79.1664,55.8525 78.6644,56.3175 78.1534,56.7375 L78.1534,56.7375 Z M73.5484,53.9145 C73.1174,54.4895 72.7674,55.0625 72.4994,55.6345 C72.2454,56.2145 72.1294,56.6195 72.1294,56.8645 C72.1294,56.9255 72.1394,56.9485 72.1454,56.9565 C72.2444,56.9655 72.3834,56.9125 72.6014,56.7665 C72.8304,56.6255 73.0814,56.4375 73.3494,56.2045 C73.6374,55.9535 73.9334,55.6655 74.2394,55.3425 C74.5434,55.0205 74.8194,54.6725 75.0704,54.2965 C75.3584,53.8645 75.6384,53.4045 75.9084,52.9175 C76.1424,52.4965 76.3564,52.1155 76.5504,51.7745 C76.0254,51.8105 75.5114,52.0075 75.0224,52.3865 C74.4694,52.8145 73.9774,53.3245 73.5484,53.9145 L73.5484,53.9145 Z M18.5104,40.6645 C18.0074,40.1905 17.2024,39.9625 16.1114,39.9625 C14.9564,39.9625 14.0124,40.3095 13.2844,41.0075 C12.5554,41.6785 12.1944,42.5815 12.1944,43.7095 C12.1944,44.5755 12.3964,45.3845 12.8014,46.1365 C13.2014,46.8805 13.6454,47.5675 14.1324,48.1975 C14.5024,48.6805 14.8014,49.0955 15.0294,49.4355 C15.2834,49.7465 15.4824,50.0455 15.6224,50.3245 C15.7614,50.5755 15.8594,50.8285 15.9154,51.0775 C15.9704,51.2975 15.9984,51.5775 15.9984,51.9155 C15.9984,52.5025 15.8584,53.0775 15.5774,53.6385 C15.3244,54.2005 14.9724,54.7225 14.5214,55.2015 C11.9504,57.9105 9.1634,58.3735 7.6654,58.3895 C5.0224,58.4175 3.4584,57.8375 1.7154,56.2465 C0.8724,55.4765 0.4004,54.4675 0.1804,53.6235 C-0.0396,52.7575 -0.0586,51.8965 0.1224,51.0425 C0.2904,50.1755 0.5794,49.9455 0.4484,50.7335 C0.3164,51.4965 0.3634,52.2535 0.5864,53.0025 C0.7044,53.3675 0.8384,53.8095 1.0644,54.2815 C1.2914,54.7565 1.6114,55.2625 2.1024,55.7525 C2.9694,56.6195 4.3674,57.3675 6.0444,57.7095 C7.8574,58.0795 9.7634,57.7865 10.7814,57.3345 C11.7774,56.8915 12.6084,56.4055 13.2164,55.6805 C13.8544,54.9265 14.1734,54.0405 14.1734,53.0275 C14.1734,52.5315 14.0574,52.0375 13.8254,51.5445 C13.5934,51.0235 13.1484,50.3495 12.4914,49.5215 C11.9244,48.7835 11.4854,48.1335 11.1734,47.5665 C10.8944,47.0075 10.7534,46.3645 10.7534,45.6325 C10.7534,44.9015 10.9084,44.1715 11.2184,43.4385 C11.5574,42.7025 11.9674,42.0545 12.4464,41.4895 C12.6154,41.2925 12.8404,41.0675 13.1244,40.8115 C13.4334,40.5305 13.7854,40.2775 14.1804,40.0525 C14.6034,39.8265 15.0824,39.6295 15.6194,39.4595 C16.1824,39.2905 16.8014,39.2065 17.4794,39.2065 C17.9284,39.2065 18.3644,39.2765 18.7844,39.4165 C19.1964,39.5265 19.5734,39.7635 19.9084,40.1255 C20.0304,40.2995 20.0924,40.4665 20.1014,40.6315 L19.6784,41.7625 C19.5484,42.1785 19.4444,42.5325 19.3614,42.8305 C19.2754,42.8815 19.2404,42.8715 19.2154,42.8475 C19.2384,42.7335 19.2584,42.6395 19.2724,42.5475 C19.2924,42.4185 19.3024,42.3015 19.3024,42.1705 C19.3024,41.6305 19.0334,41.1295 18.5104,40.6645 L18.5104,40.6645 Z M39.7944,48.7655 C39.5124,48.7655 39.3504,48.6045 39.3504,48.3225 C39.3504,48.0575 39.4454,47.8045 39.6214,47.5695 C39.8214,47.3285 40.0724,47.1985 40.3654,47.1985 C40.6664,47.1985 40.8364,47.3695 40.8364,47.6695 C40.8364,47.9255 40.7204,48.1685 40.5084,48.3995 C40.3094,48.6375 40.0724,48.7655 39.7944,48.7655 L39.7944,48.7655 Z M54.5514,56.4725 C54.0554,56.8035 53.5284,57.0805 52.9774,57.3015 C52.4214,57.5045 51.8804,57.6075 51.3574,57.6075 C50.4524,57.6075 49.9614,57.1865 49.9614,56.3485 C49.9614,56.2495 49.9654,56.1485 49.9754,56.0475 C49.6344,56.4045 49.2674,56.7425 48.8744,57.0645 C48.4684,57.3965 48.0454,57.6725 47.6024,57.8945 C47.1704,58.1195 46.7454,58.2335 46.3244,58.2335 C45.9524,58.2335 45.6584,58.1605 45.4794,57.9815 C45.3034,57.8055 45.2274,57.5425 45.2274,57.2185 C45.2274,56.9915 45.3384,56.6435 45.5374,56.1905 C45.7554,55.7365 45.9924,55.2615 46.2474,54.7705 C46.5004,54.2835 46.7264,53.8215 46.9254,53.3875 C47.1444,52.9305 47.2404,52.6355 47.2404,52.4855 C47.0404,52.5545 46.7784,52.7375 46.4794,52.9835 C46.1934,53.2175 45.9054,53.4775 45.6174,53.7655 C45.3284,54.0535 45.0594,54.3325 44.8064,54.6035 C44.5734,54.8715 44.3964,55.0945 44.2704,55.2735 C44.1474,55.4505 44.0224,55.6625 43.8984,55.9115 C43.7714,56.1655 43.6454,56.4085 43.5174,56.6455 C43.4064,56.8875 43.2884,57.0885 43.1544,57.2605 C43.0464,57.4225 42.9184,57.5535 42.7604,57.5535 C42.6244,57.5535 42.5114,57.4835 42.4234,57.3735 C42.3394,57.2685 42.2894,57.1525 42.2894,57.0285 C42.2894,56.9475 42.3254,56.8385 42.3794,56.7125 C42.4384,56.5535 42.5444,56.3745 42.6924,56.1705 C42.9244,55.8495 43.1304,55.5085 43.3094,55.1515 C43.5064,54.7925 43.6704,54.4565 43.7954,54.1515 C43.9384,53.8485 44.0464,53.5875 44.1184,53.3725 C44.1944,53.1435 44.2204,53.0405 44.2204,53.0295 C44.2204,52.9925 44.2174,52.9665 44.2144,52.9485 C44.1294,52.9545 43.9844,53.0375 43.7344,53.2535 C43.4834,53.4695 43.2044,53.7385 42.8994,54.0615 C42.5924,54.3865 42.2864,54.7295 41.9784,55.0915 C41.6734,55.4505 41.4304,55.7745 41.2534,56.0575 C41.0004,56.4385 40.7824,56.7745 40.6014,57.0635 C40.4354,57.3285 40.2644,57.5535 40.0934,57.5535 C39.9034,57.5535 39.7594,57.4535 39.7074,57.2705 C39.6884,57.1385 39.6774,56.9975 39.6774,56.8655 C39.6774,56.7005 39.7154,56.5605 39.8084,56.4435 C39.9824,56.1665 40.1544,55.8885 40.3254,55.6075 C39.8364,56.0365 39.3814,56.3885 38.9604,56.6645 C38.5904,56.9045 38.2094,57.0905 37.8184,57.2215 C37.4294,57.3505 37.0714,57.4175 36.7474,57.4175 C36.6344,57.4175 36.5024,57.4085 36.3524,57.3895 C36.1914,57.3695 36.0374,57.3165 35.8974,57.2365 C35.7774,57.1575 35.6604,57.0485 35.5634,56.9315 C35.4774,56.7825 35.4334,56.5885 35.4334,56.3755 C35.4334,56.1145 35.5324,55.7795 35.7154,55.3755 C35.4134,55.6265 35.0644,55.9205 34.6964,56.1965 C34.2004,56.5825 33.6754,56.9045 33.1224,57.1625 C32.5654,57.4035 32.0034,57.5265 31.4424,57.5265 C30.9554,57.5265 30.5714,57.4105 30.3224,57.1625 C30.1034,56.9045 29.9924,56.5925 29.9924,56.2395 C29.9924,55.8865 30.1374,55.4045 30.4104,54.8025 C30.6354,54.3255 30.8874,53.8315 31.1654,53.3215 C30.8964,53.4365 30.6374,53.5295 30.3884,53.6035 C29.9074,53.7515 29.4514,53.8265 29.0214,53.8265 C28.6594,53.8265 28.3194,53.7485 28.0124,53.5945 C27.8364,53.4885 27.6814,53.3735 27.5524,53.2495 C27.5224,53.8345 27.4054,54.3745 27.1984,54.8685 C26.9764,55.4405 26.6994,55.9305 26.3634,56.3415 C26.0294,56.7495 25.6634,57.0685 25.2684,57.2945 C24.8774,57.4995 24.5114,57.6075 24.1784,57.6075 C23.8614,57.6075 23.5854,57.5055 23.3634,57.3035 C23.1514,57.0915 23.0544,56.7725 23.0544,56.3755 C23.0544,56.1635 23.0864,55.9225 23.1494,55.6545 C22.7684,56.0715 22.3654,56.4595 21.9414,56.8185 C21.4644,57.2225 20.9884,57.5525 20.5084,57.8105 C20.0244,58.0905 19.5614,58.2335 19.1184,58.2335 C18.7884,58.2335 18.5104,58.1435 18.3034,57.9565 C18.1094,57.7625 18.0214,57.4705 18.0214,57.1105 C18.0214,56.9405 18.0404,56.7485 18.0784,56.5415 L18.1014,56.4525 C17.9794,56.6025 17.8374,56.7495 17.6724,56.8975 C17.5004,57.0505 17.2994,57.1845 17.0734,57.2975 C16.8564,57.3965 16.6104,57.4445 16.3424,57.4445 C16.1214,57.4445 15.9254,57.3805 15.7734,57.2505 C15.6174,57.0935 15.5454,56.8655 15.5454,56.5935 C15.5454,56.4515 15.5764,56.2655 15.6314,56.0445 C15.7054,55.8055 15.8264,55.4975 15.9914,55.1295 C16.1734,54.7475 16.4114,54.2805 16.7024,53.7355 C17.0114,53.1725 17.4004,52.4845 17.8724,51.6675 C17.9544,51.5025 18.0634,51.3345 18.2204,51.3345 C18.4014,51.3345 18.5534,51.4445 18.6884,51.6185 C18.8204,51.7495 18.9354,51.8815 18.9354,51.9955 C18.9354,52.0925 18.8554,52.2335 18.7524,52.3865 C18.4644,52.8205 18.1934,53.2535 17.9404,53.6865 C17.6874,54.1205 17.4634,54.5245 17.2644,54.9045 C17.0834,55.2825 16.9314,55.6225 16.8054,55.9285 C16.6984,56.2155 16.6504,56.4245 16.6504,56.5665 C16.6504,56.8085 16.7284,56.8565 16.8324,56.8565 C16.9654,56.8565 17.1804,56.7505 17.4894,56.4785 C17.8044,56.1985 18.1764,55.7315 18.6094,55.0635 C18.7724,54.7735 18.9334,54.4775 19.0964,54.1705 L19.6144,53.2435 C19.7774,52.9545 19.9234,52.6885 20.0504,52.4535 L20.4084,51.8755 C20.4904,51.7605 20.5984,51.6335 20.7234,51.6335 C20.8734,51.6335 20.9844,51.7835 21.0684,51.9355 C21.1744,52.1045 21.2214,52.3055 21.2214,52.5395 C21.2214,52.7055 21.1774,52.8645 21.0944,53.0085 C20.8754,53.3375 20.6364,53.6695 20.3804,53.9985 C20.1464,54.3045 19.9234,54.6255 19.7074,54.9675 C19.5114,55.3065 19.3434,55.6615 19.2004,56.0365 C19.0604,56.4025 18.9904,56.8055 18.9904,57.2465 C18.9904,57.5855 19.1334,57.7275 19.4444,57.7275 C19.6504,57.7275 19.9324,57.6375 20.2894,57.4415 C20.6584,57.2645 21.0524,57.0065 21.4644,56.6665 C21.8764,56.3255 22.2994,55.9125 22.7314,55.4265 C22.9984,55.1375 23.2594,54.8335 23.5134,54.5125 C23.5774,54.3465 23.6454,54.1805 23.7174,54.0155 C23.9174,53.5795 24.1094,53.1675 24.2914,52.7865 C24.4914,52.4035 24.6644,52.0835 24.8104,51.8295 C25.3014,50.9395 25.8274,50.0235 26.3904,49.0785 C26.9534,48.1155 27.5444,47.1705 28.1624,46.2435 C28.7984,45.3155 29.4634,44.4235 30.1544,43.5695 C30.8644,42.6945 31.6124,41.8915 32.3964,41.1625 C32.6154,40.9615 32.8904,40.7235 33.2184,40.4505 C33.5664,40.1755 33.9324,39.9195 34.3174,39.6815 C34.7044,39.4225 35.0914,39.2115 35.4774,39.0455 C35.8864,38.8785 36.2654,38.7915 36.6114,38.7915 C36.9594,38.7915 37.2364,38.8845 37.4294,39.0985 C37.6364,39.2845 37.7354,39.5215 37.7354,39.8065 C37.7354,40.0765 37.7264,40.2695 37.7054,40.3735 C37.6834,40.4875 37.5644,40.6535 37.3994,40.4875 C37.3164,40.4055 37.1904,40.3055 37.0304,40.1995 C36.9194,40.1015 36.6884,40.0325 36.3124,40.0325 C35.9914,40.0325 35.6974,40.0505 35.4294,40.0865 C35.1664,40.1215 34.8944,40.1915 34.6134,40.2965 C34.3504,40.4025 34.0654,40.5535 33.7624,40.7495 C33.4614,40.9265 33.1194,41.1775 32.7424,41.5015 C32.2084,41.9465 31.6254,42.6095 30.9934,43.4935 C30.3604,44.3625 29.7174,45.3215 29.0664,46.3705 C28.4324,47.4025 27.8264,48.4615 27.2474,49.5475 C26.6674,50.6165 26.1594,51.5775 25.7244,52.4285 C25.5804,52.7175 25.4184,53.0595 25.2374,53.4575 C25.0754,53.8365 24.9224,54.2215 24.7784,54.6185 C24.6524,54.9965 24.5444,55.3565 24.4544,55.6985 C24.3644,56.0235 24.3224,56.2565 24.3224,56.4025 C24.3224,56.8745 24.4714,57.0205 24.6954,57.0205 C24.8404,57.0205 25.0324,56.9465 25.2794,56.7705 C25.5384,56.5805 25.7824,56.3205 26.0124,55.9845 C26.2414,55.6315 26.4364,55.2075 26.5964,54.7075 C26.7564,54.1945 26.8364,53.6185 26.8364,52.9745 C26.8364,52.7615 26.8164,52.5935 26.7844,52.4815 C26.7674,52.3415 26.7394,52.2255 26.7084,52.1475 C26.6994,51.9545 26.7744,51.8175 26.8974,51.6945 C26.9724,51.6195 27.0614,51.5395 27.1734,51.4465 C27.2864,51.3335 27.3894,51.2485 27.4914,51.1875 C27.6254,51.1705 27.7184,51.1955 27.7654,51.2895 C27.7774,51.6915 27.8364,51.9775 27.9534,52.2105 C28.0924,52.4355 28.2484,52.6175 28.4374,52.7715 C28.6464,52.9105 28.8574,53.0115 29.0814,53.0805 C29.3264,53.1505 29.5514,53.1845 29.7554,53.1845 C30.0524,53.1845 30.3764,53.1415 30.7314,53.0525 C30.9804,52.9775 31.2354,52.8705 31.4954,52.7325 C31.8534,52.1075 32.2104,51.5145 32.5674,50.9525 C32.9474,50.3555 33.2284,49.9035 33.4084,49.5965 L34.3604,47.9645 C34.6874,47.3835 35.0144,46.8215 35.3414,46.2765 C35.6674,45.7305 35.9854,45.2145 36.2944,44.7235 C36.6034,44.2145 36.8844,43.7695 37.1394,43.3875 C37.4494,42.9135 37.7684,42.4665 38.0974,42.0465 C38.4304,41.6215 38.8534,41.1995 39.3664,40.7775 C40.0594,40.1935 40.7004,39.7445 41.2904,39.4315 C41.8644,39.1265 42.2814,38.9545 42.5154,38.9545 C42.6864,38.9545 42.8304,39.0055 42.9474,39.1215 C43.0754,39.2245 43.1224,39.3785 43.1224,39.5615 C43.1224,39.8395 43.0144,40.2295 42.8144,40.7215 C42.6124,41.2155 42.3204,41.7915 41.9364,42.4505 C41.5714,43.0885 41.1164,43.7805 40.5694,44.5285 C40.0404,45.2575 39.4304,45.9865 38.7374,46.7155 C38.0624,47.4455 37.3144,48.1475 36.4944,48.8215 C35.6824,49.4715 34.8144,50.0515 33.8954,50.5585 C33.7324,50.8455 33.5114,51.2265 33.2294,51.7015 C32.9404,52.1895 32.6514,52.7035 32.3624,53.2465 C32.0914,53.7875 31.8494,54.3175 31.6324,54.8405 C31.4354,55.3605 31.3424,55.7875 31.3424,56.1305 C31.3424,56.6575 31.5624,56.8835 32.0134,56.8835 C32.4444,56.8835 32.8984,56.7635 33.3744,56.5165 C33.8564,56.2665 34.3124,55.9615 34.7414,55.6045 C35.1914,55.2445 35.6054,54.8665 35.9824,54.4715 L36.3464,54.0865 L37.0834,52.8315 C37.3384,52.4295 37.5384,52.1305 37.6844,51.9295 C37.7914,51.7575 37.9654,51.6305 38.1964,51.5345 C38.4254,51.4285 38.6024,51.3615 38.7064,51.3615 C38.7984,51.3615 38.9594,51.3925 38.9594,51.5595 C38.9594,51.6245 38.9284,51.7045 38.8934,51.7755 C38.8754,51.8455 38.8444,51.9145 38.7894,51.9695 C38.5424,52.3245 38.3044,52.7155 38.0754,53.1395 C37.8404,53.5735 37.6224,53.9985 37.4244,54.4135 C37.2264,54.8085 37.0654,55.1745 36.9394,55.5155 C36.8324,55.8565 36.7834,56.1125 36.7834,56.2935 C36.7834,56.4945 36.8254,56.6155 36.9044,56.6945 C37.0064,56.7675 37.1364,56.8025 37.3184,56.8025 C37.6564,56.8025 38.0344,56.6935 38.4584,56.4635 C38.8884,56.2135 39.3084,55.9175 39.7214,55.5775 C40.1524,55.2355 40.5484,54.8755 40.9064,54.4995 L41.1224,54.2685 L41.2434,54.0585 C41.7154,53.2425 42.1844,52.4405 42.6564,51.6425 C42.7384,51.4565 42.8674,51.3345 43.0594,51.3345 C43.2044,51.3345 43.3144,51.4195 43.3984,51.5455 C43.4834,51.6505 43.5304,51.7625 43.5304,51.8865 C43.3934,52.2975 43.1714,52.7495 42.8614,53.2785 L42.5574,53.8025 C42.9854,53.3435 43.3624,52.9745 43.6894,52.6955 C44.1814,52.2595 44.6074,52.0145 44.9644,52.0145 C45.2594,52.0145 45.3804,52.2395 45.3804,52.5395 C45.3804,52.7475 45.2894,53.0485 45.1254,53.4295 L44.9464,53.8185 C45.0634,53.6935 45.1864,53.5655 45.3164,53.4365 C45.6094,53.1435 45.9124,52.8675 46.2244,52.6115 C46.5514,52.3565 46.8734,52.1175 47.1834,51.8985 C47.5154,51.6775 47.8204,51.5015 48.0974,51.3725 C48.4734,51.3605 48.6724,51.5305 48.6724,51.8585 C48.6724,51.9275 48.6604,51.9935 48.6394,52.0595 C48.6194,52.1185 48.5914,52.1855 48.5524,52.2635 C48.4604,52.4645 48.2884,52.7905 48.0324,53.2485 C47.7974,53.7005 47.5534,54.1885 47.2994,54.7135 C47.0474,55.2185 46.8214,55.7145 46.6234,56.2015 C46.4434,56.6695 46.3594,57.0145 46.3594,57.2465 C46.3594,57.5495 46.4854,57.6725 46.7594,57.6725 C47.0594,57.6725 47.3834,57.5725 47.7334,57.3635 C48.0894,57.1495 48.4474,56.8905 48.8054,56.5855 C49.1654,56.2795 49.4964,55.9665 49.8024,55.6435 L50.1274,55.2775 C50.1874,55.0775 50.2624,54.8745 50.3524,54.6675 C50.6294,54.0785 50.9794,53.5245 51.4024,53.0085 C51.8264,52.4935 52.2874,52.0685 52.7874,51.7355 C53.2914,51.3805 53.7944,51.1975 54.2954,51.1975 C54.5534,51.1975 54.7654,51.2385 54.8914,51.3645 C55.0284,51.4785 55.0924,51.6265 55.0924,51.8045 C55.0924,52.0485 55.0134,52.3015 54.8614,52.5675 C54.7254,52.8385 54.5154,53.0935 54.2344,53.3365 C53.9504,53.5645 53.5814,53.7615 53.1384,53.9285 C52.7234,54.0725 52.2434,54.1465 51.7004,54.1525 C51.6234,54.3075 51.5374,54.5425 51.4424,54.8595 C51.3364,55.1925 51.2844,55.5345 51.2844,55.8855 C51.2844,56.5755 51.5784,56.8835 52.1734,56.8835 C52.5714,56.8835 52.9814,56.7885 53.4044,56.5945 C53.8504,56.3985 54.2784,56.1585 54.6894,55.8725 C55.1024,55.5675 55.4774,55.2455 55.8184,54.9045 C56.1784,54.5455 56.4784,54.2075 56.7104,53.9045 C56.7684,53.8465 56.8594,53.7995 56.9564,53.8475 C57.0504,53.8825 57.1064,53.9585 57.1064,54.0625 C56.7694,54.5215 56.3934,54.9245 55.9544,55.3445 C55.5324,55.7485 55.0644,56.1245 54.5514,56.4725 L54.5514,56.4725 Z M41.1804,40.0205 C41.0894,40.0655 40.9554,40.1715 40.7754,40.3525 C40.6144,40.5135 40.4094,40.7445 40.1584,41.0495 L39.2354,42.2435 L38.6124,43.1105 L37.6074,44.6315 C37.2084,45.2485 36.7194,46.0175 36.1394,46.9425 L34.3774,49.7765 C35.3044,49.2145 36.1764,48.5555 36.9944,47.8015 C37.9514,46.9165 38.7714,46.0145 39.4554,45.0965 C40.1414,44.1765 40.6804,43.2855 41.0754,42.4245 C41.4714,41.5605 41.6634,40.8445 41.6634,40.2695 C41.6634,40.0205 41.5774,39.9515 41.4274,39.9515 C41.3594,39.9515 41.2784,39.9715 41.1804,40.0205 L41.1804,40.0205 Z M52.1464,53.7005 C52.6424,53.7005 53.0764,53.5315 53.4534,53.1885 C53.8324,52.8275 54.0154,52.4135 54.0154,51.9405 C54.0154,51.7695 53.9494,51.7045 53.7784,51.7045 C53.6294,51.7045 53.4624,51.7645 53.2754,51.9005 C53.1044,52.0195 52.9294,52.1855 52.7534,52.3965 C52.5744,52.6105 52.4054,52.8425 52.2454,53.0925 C52.1124,53.2985 51.9984,53.4975 51.9024,53.6915 L52.1464,53.7005 Z" mask="url(#mask-4)"/>
    </g>
  </g>
</svg>
